<svg xmlns="http://www.w3.org/2000/svg" xmlns:xlink="http://www.w3.org/1999/xlink" width="321.008" height="171.039" viewBox="0 0 321.008 171.039">
  <defs>
    <linearGradient id="linear-gradient" y1="0.518" x2="1.028" y2="0.547" gradientUnits="objectBoundingBox">
      <stop offset="0" stop-color="#3b6f6b"/>
      <stop offset="1" stop-color="#5e5641"/>
    </linearGradient>
  </defs>
  <path id="Mtxt14" d="M1.184,16V4.8H2.752l4.032,7.808,4-7.808h1.584V16H11.024V7.2L7.28,14.4H6.272L2.528,7.216V16Zm14.3-9.7a.9.9,0,0,1-.928-.928.855.855,0,0,1,.264-.64.979.979,0,0,1,1.32,0,.842.842,0,0,1,.272.64.887.887,0,0,1-.272.664A.908.908,0,0,1,15.48,6.3ZM14.808,16V8.064h1.344V16ZM18.5,16V8.064h1.216l.08,1.424A2.882,2.882,0,0,1,20.9,8.3a3.11,3.11,0,0,1,1.632-.432,3.006,3.006,0,0,1,2.248.856,3.628,3.628,0,0,1,.84,2.632V16H24.272V11.5q0-2.48-2.048-2.48a2.212,2.212,0,0,0-1.7.744,3.032,3.032,0,0,0-.68,2.12V16Zm9.976-9.7a.9.9,0,0,1-.928-.928.855.855,0,0,1,.264-.64.979.979,0,0,1,1.32,0,.842.842,0,0,1,.272.64.887.887,0,0,1-.272.664A.908.908,0,0,1,28.472,6.3ZM27.8,16V8.064h1.344V16Zm3.688,0V8.064H32.7l.08,1.424a2.882,2.882,0,0,1,1.1-1.184,3.11,3.11,0,0,1,1.632-.432,3.006,3.006,0,0,1,2.248.856,3.628,3.628,0,0,1,.84,2.632V16H37.264V11.5q0-2.48-2.048-2.48a2.212,2.212,0,0,0-1.7.744,3.032,3.032,0,0,0-.68,2.12V16Zm12.3-2.5a4.093,4.093,0,0,1-1.232-.176l-.8.752a1.612,1.612,0,0,0,.44.216,4.663,4.663,0,0,0,.76.16q.5.072,1.392.152a3.785,3.785,0,0,1,2.288.736,2.1,2.1,0,0,1,.688,1.632,2.5,2.5,0,0,1-.376,1.312,2.79,2.79,0,0,1-1.152,1.024,4.339,4.339,0,0,1-1.992.4,5.96,5.96,0,0,1-1.9-.28,2.76,2.76,0,0,1-1.3-.848,2.189,2.189,0,0,1-.464-1.432,2.324,2.324,0,0,1,.24-.968,2.588,2.588,0,0,1,.9-.984,3.3,3.3,0,0,1-.6-.312,3.109,3.109,0,0,1-.456-.376v-.368l1.36-1.344a2.632,2.632,0,0,1-.944-2.112A2.805,2.805,0,0,1,41,9.264a2.632,2.632,0,0,1,1.072-1.016,3.593,3.593,0,0,1,1.712-.376,3.831,3.831,0,0,1,1.248.192H47.96V9.072l-1.488.064a2.664,2.664,0,0,1,.464,1.552,2.759,2.759,0,0,1-.376,1.424,2.7,2.7,0,0,1-1.072,1.016A3.545,3.545,0,0,1,43.784,13.5Zm0-1.1a1.983,1.983,0,0,0,1.352-.44,1.6,1.6,0,0,0,.5-1.272,1.578,1.578,0,0,0-.5-1.256,1.983,1.983,0,0,0-1.352-.44,2.008,2.008,0,0,0-1.368.44,1.578,1.578,0,0,0-.5,1.256,1.6,1.6,0,0,0,.5,1.272A2.008,2.008,0,0,0,43.784,12.4Zm-2.336,4.624a1.29,1.29,0,0,0,.672,1.192,3.291,3.291,0,0,0,1.68.392,2.667,2.667,0,0,0,1.592-.432,1.351,1.351,0,0,0,.6-1.152,1.16,1.16,0,0,0-.416-.888,2.563,2.563,0,0,0-1.536-.44q-.88-.064-1.52-.16a1.97,1.97,0,0,0-.864.76A1.638,1.638,0,0,0,41.448,17.024ZM54.552,6.3a.9.9,0,0,1-.928-.928.855.855,0,0,1,.264-.64.979.979,0,0,1,1.32,0,.842.842,0,0,1,.272.64.887.887,0,0,1-.272.664A.908.908,0,0,1,54.552,6.3ZM53.88,16V8.064h1.344V16Zm6.728.192a3.792,3.792,0,0,1-2.368-.72,2.807,2.807,0,0,1-1.1-1.952h1.376a1.9,1.9,0,0,0,.664,1.08,2.161,2.161,0,0,0,1.448.456,1.826,1.826,0,0,0,1.248-.36,1.115,1.115,0,0,0,.4-.856.95.95,0,0,0-.52-.96,6.921,6.921,0,0,0-1.464-.432,8.252,8.252,0,0,1-1.28-.368,2.908,2.908,0,0,1-1.072-.68,1.584,1.584,0,0,1-.432-1.16,2.141,2.141,0,0,1,.776-1.7,3.129,3.129,0,0,1,2.1-.664,3.263,3.263,0,0,1,2.072.632,2.522,2.522,0,0,1,.936,1.8H62.064a1.384,1.384,0,0,0-.52-.952,1.858,1.858,0,0,0-1.176-.344,1.78,1.78,0,0,0-1.112.3.964.964,0,0,0-.392.8.831.831,0,0,0,.5.752,5.411,5.411,0,0,0,1.368.464,11.917,11.917,0,0,1,1.4.392,2.646,2.646,0,0,1,1.088.688,1.87,1.87,0,0,1,.424,1.32A2.168,2.168,0,0,1,62.84,15.5,3.348,3.348,0,0,1,60.608,16.192Zm11.856,0a3.6,3.6,0,0,1-1.648-.336,2.284,2.284,0,0,1-.976-.9,2.409,2.409,0,0,1-.32-1.216,2.155,2.155,0,0,1,.928-1.872,4.309,4.309,0,0,1,2.528-.656H75.12v-.1a2.118,2.118,0,0,0-.544-1.576,1.984,1.984,0,0,0-1.456-.536,2.321,2.321,0,0,0-1.352.392,1.717,1.717,0,0,0-.712,1.144H69.68a2.547,2.547,0,0,1,.584-1.456,3.264,3.264,0,0,1,1.256-.9,4.133,4.133,0,0,1,1.6-.312,3.288,3.288,0,0,1,2.5.888,3.293,3.293,0,0,1,.84,2.36V16h-1.2l-.08-1.424A3.147,3.147,0,0,1,74.2,15.72,2.887,2.887,0,0,1,72.464,16.192Zm.208-1.136a2.189,2.189,0,0,0,1.32-.4,2.553,2.553,0,0,0,.84-1.04,3.239,3.239,0,0,0,.288-1.344v-.016H73.088a2.638,2.638,0,0,0-1.672.408,1.272,1.272,0,0,0-.488,1.016,1.231,1.231,0,0,0,.456,1A1.972,1.972,0,0,0,72.672,15.056Zm14.3,1.136a3.671,3.671,0,0,1-1.736-.4,2.767,2.767,0,0,1-1.16-1.12L83.952,16H82.736V4.48H84.08v4.9a3.746,3.746,0,0,1,1.1-1.04,3.267,3.267,0,0,1,1.816-.464,3.845,3.845,0,0,1,2.064.544A3.722,3.722,0,0,1,90.424,9.9a4.6,4.6,0,0,1,.488,2.144,4.552,4.552,0,0,1-.488,2.136,3.661,3.661,0,0,1-1.376,1.472A3.931,3.931,0,0,1,86.976,16.192Zm-.144-1.168A2.567,2.567,0,0,0,89.2,13.6a3.333,3.333,0,0,0,.352-1.568,3.333,3.333,0,0,0-.352-1.568,2.657,2.657,0,0,0-4.736,0,3.333,3.333,0,0,0-.352,1.568,3.333,3.333,0,0,0,.352,1.568,2.567,2.567,0,0,0,2.368,1.424Zm5.96.976V8.064h1.216l.112,1.52a2.877,2.877,0,0,1,1.12-1.248A3.472,3.472,0,0,1,97.1,7.872V9.28h-.368a3.321,3.321,0,0,0-1.3.248,1.968,1.968,0,0,0-.944.84A3.2,3.2,0,0,0,94.136,12v4Zm8.456.192a3.6,3.6,0,0,1-1.648-.336,2.284,2.284,0,0,1-.976-.9,2.409,2.409,0,0,1-.32-1.216,2.155,2.155,0,0,1,.928-1.872,4.309,4.309,0,0,1,2.528-.656H103.9v-.1a2.118,2.118,0,0,0-.544-1.576,1.984,1.984,0,0,0-1.456-.536,2.321,2.321,0,0,0-1.352.392,1.717,1.717,0,0,0-.712,1.144H98.464a2.547,2.547,0,0,1,.584-1.456,3.264,3.264,0,0,1,1.256-.9,4.133,4.133,0,0,1,1.6-.312,3.288,3.288,0,0,1,2.5.888,3.293,3.293,0,0,1,.84,2.36V16h-1.2l-.08-1.424a3.147,3.147,0,0,1-.984,1.144A2.887,2.887,0,0,1,101.248,16.192Zm.208-1.136a2.189,2.189,0,0,0,1.32-.4,2.553,2.553,0,0,0,.84-1.04,3.239,3.239,0,0,0,.288-1.344v-.016h-2.032a2.638,2.638,0,0,0-1.672.408,1.272,1.272,0,0,0-.488,1.016,1.231,1.231,0,0,0,.456,1A1.972,1.972,0,0,0,101.456,15.056Zm5.816.944V8.064h1.216l.08,1.424a2.882,2.882,0,0,1,1.1-1.184,3.11,3.11,0,0,1,1.632-.432,3.006,3.006,0,0,1,2.248.856,3.628,3.628,0,0,1,.84,2.632V16h-1.344V11.5q0-2.48-2.048-2.48a2.212,2.212,0,0,0-1.7.744,3.032,3.032,0,0,0-.68,2.12V16Zm12.808.192a4.017,4.017,0,0,1-2.04-.52,3.738,3.738,0,0,1-1.424-1.456,4.424,4.424,0,0,1-.52-2.184,4.424,4.424,0,0,1,.52-2.184,3.738,3.738,0,0,1,1.424-1.456,4.017,4.017,0,0,1,2.04-.52,3.811,3.811,0,0,1,2.376.736,3.207,3.207,0,0,1,1.224,1.968H122.3a1.764,1.764,0,0,0-.784-1.144,2.6,2.6,0,0,0-1.456-.408,2.486,2.486,0,0,0-2.224,1.344,3.428,3.428,0,0,0-.368,1.664,3.428,3.428,0,0,0,.368,1.664,2.564,2.564,0,0,0,.96,1.016,2.475,2.475,0,0,0,1.264.344,2.6,2.6,0,0,0,1.456-.408,1.77,1.77,0,0,0,.784-1.16h1.376a3.177,3.177,0,0,1-1.216,1.952A3.789,3.789,0,0,1,120.08,16.192ZM125.56,16V4.48H126.9V9.424A2.827,2.827,0,0,1,128.04,8.28a3.246,3.246,0,0,1,1.6-.408,2.939,2.939,0,0,1,2.208.856,3.65,3.65,0,0,1,.832,2.632V16h-1.328V11.5q0-2.48-2-2.48a2.3,2.3,0,0,0-1.744.744,2.966,2.966,0,0,0-.7,2.12V16Zm17.024.192a3.99,3.99,0,0,1-2.016-.512,3.7,3.7,0,0,1-1.416-1.448,4.459,4.459,0,0,1-.52-2.2,4.4,4.4,0,0,1,.528-2.2,3.737,3.737,0,0,1,1.432-1.448,4.034,4.034,0,0,1,2.024-.512,3.99,3.99,0,0,1,2.016.512,3.7,3.7,0,0,1,1.416,1.448,4.459,4.459,0,0,1,.52,2.2,4.4,4.4,0,0,1-.528,2.2,3.737,3.737,0,0,1-1.432,1.448A4.034,4.034,0,0,1,142.584,16.192Zm0-1.152a2.55,2.55,0,0,0,1.28-.336,2.506,2.506,0,0,0,.96-1.008,3.428,3.428,0,0,0,.368-1.664,3.491,3.491,0,0,0-.36-1.664,2.454,2.454,0,0,0-.952-1.008,2.52,2.52,0,0,0-1.264-.336,2.55,2.55,0,0,0-1.28.336,2.506,2.506,0,0,0-.96,1.008,3.428,3.428,0,0,0-.368,1.664,3.428,3.428,0,0,0,.368,1.664,2.525,2.525,0,0,0,.952,1.008A2.477,2.477,0,0,0,142.584,15.04Zm6.3.96V9.2h-1.2V8.064h1.2V6.688a2.179,2.179,0,0,1,.576-1.68,2.4,2.4,0,0,1,1.68-.528h.8V5.632h-.592a1.221,1.221,0,0,0-.864.248,1.139,1.139,0,0,0-.256.84V8.064h1.952V9.2h-1.952V16Zm12.192.192a3.792,3.792,0,0,1-2.368-.72,2.807,2.807,0,0,1-1.1-1.952h1.376a1.9,1.9,0,0,0,.664,1.08,2.161,2.161,0,0,0,1.448.456,1.826,1.826,0,0,0,1.248-.36,1.115,1.115,0,0,0,.4-.856.95.95,0,0,0-.52-.96,6.921,6.921,0,0,0-1.464-.432,8.252,8.252,0,0,1-1.28-.368,2.908,2.908,0,0,1-1.072-.68,1.584,1.584,0,0,1-.432-1.16,2.141,2.141,0,0,1,.776-1.7,3.129,3.129,0,0,1,2.1-.664,3.263,3.263,0,0,1,2.072.632,2.522,2.522,0,0,1,.936,1.8h-1.328a1.384,1.384,0,0,0-.52-.952,1.858,1.858,0,0,0-1.176-.344,1.78,1.78,0,0,0-1.112.3.964.964,0,0,0-.392.8.831.831,0,0,0,.5.752,5.411,5.411,0,0,0,1.368.464,11.917,11.917,0,0,1,1.4.392,2.646,2.646,0,0,1,1.088.688,1.87,1.87,0,0,1,.424,1.32A2.168,2.168,0,0,1,163.3,15.5,3.348,3.348,0,0,1,161.072,16.192Zm8.616,0a4.017,4.017,0,0,1-2.04-.52,3.738,3.738,0,0,1-1.424-1.456,4.424,4.424,0,0,1-.52-2.184,4.424,4.424,0,0,1,.52-2.184,3.738,3.738,0,0,1,1.424-1.456,4.017,4.017,0,0,1,2.04-.52,3.811,3.811,0,0,1,2.376.736,3.207,3.207,0,0,1,1.224,1.968h-1.376a1.764,1.764,0,0,0-.784-1.144,2.6,2.6,0,0,0-1.456-.408,2.486,2.486,0,0,0-2.224,1.344,3.428,3.428,0,0,0-.368,1.664,3.428,3.428,0,0,0,.368,1.664,2.564,2.564,0,0,0,.96,1.016,2.475,2.475,0,0,0,1.264.344,2.6,2.6,0,0,0,1.456-.408,1.771,1.771,0,0,0,.784-1.16h1.376a3.177,3.177,0,0,1-1.216,1.952A3.789,3.789,0,0,1,169.688,16.192Zm6.3-9.888a.9.9,0,0,1-.928-.928.855.855,0,0,1,.264-.64.979.979,0,0,1,1.32,0,.842.842,0,0,1,.272.64.887.887,0,0,1-.272.664A.908.908,0,0,1,175.984,6.3Zm-.672,9.7V8.064h1.344V16Zm7.256.192a3.887,3.887,0,0,1-2.016-.52,3.692,3.692,0,0,1-1.384-1.448,4.526,4.526,0,0,1-.5-2.192,4.6,4.6,0,0,1,.5-2.184,3.606,3.606,0,0,1,1.384-1.456,3.993,3.993,0,0,1,2.056-.52,3.708,3.708,0,0,1,1.992.52A3.523,3.523,0,0,1,185.88,9.76a3.846,3.846,0,0,1,.448,1.824q0,.176-.008.352t-.008.4h-6.32a3.118,3.118,0,0,0,.424,1.512,2.5,2.5,0,0,0,2.152,1.208,2.4,2.4,0,0,0,1.392-.384,2.2,2.2,0,0,0,.816-1.04H186.1a3.485,3.485,0,0,1-3.536,2.56Zm0-7.184a2.684,2.684,0,0,0-1.7.584,2.353,2.353,0,0,0-.856,1.7H185a2.27,2.27,0,0,0-.736-1.68A2.469,2.469,0,0,0,182.568,9.008ZM188.112,16V8.064h1.216l.08,1.424a2.882,2.882,0,0,1,1.1-1.184,3.11,3.11,0,0,1,1.632-.432,3.006,3.006,0,0,1,2.248.856,3.628,3.628,0,0,1,.84,2.632V16h-1.344V11.5q0-2.48-2.048-2.48a2.212,2.212,0,0,0-1.7.744,3.032,3.032,0,0,0-.68,2.12V16Zm12.808.192a4.017,4.017,0,0,1-2.04-.52,3.738,3.738,0,0,1-1.424-1.456,4.424,4.424,0,0,1-.52-2.184,4.424,4.424,0,0,1,.52-2.184,3.738,3.738,0,0,1,1.424-1.456,4.017,4.017,0,0,1,2.04-.52,3.811,3.811,0,0,1,2.376.736,3.207,3.207,0,0,1,1.224,1.968h-1.376a1.764,1.764,0,0,0-.784-1.144,2.6,2.6,0,0,0-1.456-.408,2.486,2.486,0,0,0-2.224,1.344,3.428,3.428,0,0,0-.368,1.664,3.428,3.428,0,0,0,.368,1.664,2.564,2.564,0,0,0,.96,1.016,2.475,2.475,0,0,0,1.264.344,2.6,2.6,0,0,0,1.456-.408,1.771,1.771,0,0,0,.784-1.16h1.376A3.177,3.177,0,0,1,203.3,15.44,3.789,3.789,0,0,1,200.92,16.192Zm9.048,0a3.887,3.887,0,0,1-2.016-.52,3.692,3.692,0,0,1-1.384-1.448,4.526,4.526,0,0,1-.5-2.192,4.6,4.6,0,0,1,.5-2.184,3.606,3.606,0,0,1,1.384-1.456A3.993,3.993,0,0,1,210,7.872a3.708,3.708,0,0,1,1.992.52A3.523,3.523,0,0,1,213.28,9.76a3.846,3.846,0,0,1,.448,1.824q0,.176-.008.352t-.008.4h-6.32a3.118,3.118,0,0,0,.424,1.512,2.5,2.5,0,0,0,2.152,1.208,2.4,2.4,0,0,0,1.392-.384,2.2,2.2,0,0,0,.816-1.04H213.5a3.485,3.485,0,0,1-3.536,2.56Zm0-7.184a2.684,2.684,0,0,0-1.7.584,2.353,2.353,0,0,0-.856,1.7H212.4a2.27,2.27,0,0,0-.736-1.68A2.469,2.469,0,0,0,209.968,9.008ZM222.9,16a2.568,2.568,0,0,1-1.712-.528,2.4,2.4,0,0,1-.624-1.9V9.2h-1.376V8.064h1.376l.176-1.9H221.9v1.9h2.336V9.2H221.9v4.368a1.32,1.32,0,0,0,.3,1.016,1.657,1.657,0,0,0,1.072.264h.832V16Zm3.064,0V4.48H227.3V9.424A2.827,2.827,0,0,1,228.44,8.28a3.246,3.246,0,0,1,1.6-.408,2.939,2.939,0,0,1,2.208.856,3.65,3.65,0,0,1,.832,2.632V16h-1.328V11.5q0-2.48-2-2.48a2.3,2.3,0,0,0-1.744.744,2.966,2.966,0,0,0-.7,2.12V16Zm11.8.192a3.6,3.6,0,0,1-1.648-.336,2.284,2.284,0,0,1-.976-.9,2.409,2.409,0,0,1-.32-1.216,2.155,2.155,0,0,1,.928-1.872,4.309,4.309,0,0,1,2.528-.656h2.144v-.1a2.118,2.118,0,0,0-.544-1.576,1.984,1.984,0,0,0-1.456-.536,2.321,2.321,0,0,0-1.352.392,1.717,1.717,0,0,0-.712,1.144h-1.376a2.547,2.547,0,0,1,.584-1.456,3.264,3.264,0,0,1,1.256-.9,4.133,4.133,0,0,1,1.6-.312,3.288,3.288,0,0,1,2.5.888,3.293,3.293,0,0,1,.84,2.36V16h-1.2l-.08-1.424a3.147,3.147,0,0,1-.984,1.144A2.887,2.887,0,0,1,237.76,16.192Zm.208-1.136a2.189,2.189,0,0,0,1.32-.4,2.553,2.553,0,0,0,.84-1.04,3.239,3.239,0,0,0,.288-1.344v-.016h-2.032a2.638,2.638,0,0,0-1.672.408,1.272,1.272,0,0,0-.488,1.016,1.231,1.231,0,0,0,.456,1A1.972,1.972,0,0,0,237.968,15.056ZM246.7,16a2.568,2.568,0,0,1-1.712-.528,2.4,2.4,0,0,1-.624-1.9V9.2h-1.376V8.064h1.376l.176-1.9H245.7v1.9h2.336V9.2H245.7v4.368a1.32,1.32,0,0,0,.3,1.016,1.657,1.657,0,0,0,1.072.264h.832V16Zm7.744,0V9.2h-1.2V8.064h1.2V6.688a2.179,2.179,0,0,1,.576-1.68,2.4,2.4,0,0,1,1.68-.528h.8V5.632H256.9a1.221,1.221,0,0,0-.864.248,1.139,1.139,0,0,0-.256.84V8.064h1.952V9.2h-1.952V16Zm8.2.192a3.99,3.99,0,0,1-2.016-.512,3.7,3.7,0,0,1-1.416-1.448,4.459,4.459,0,0,1-.52-2.2,4.4,4.4,0,0,1,.528-2.2,3.738,3.738,0,0,1,1.432-1.448,4.034,4.034,0,0,1,2.024-.512,3.99,3.99,0,0,1,2.016.512A3.7,3.7,0,0,1,266.1,9.832a4.458,4.458,0,0,1,.52,2.2,4.4,4.4,0,0,1-.528,2.2,3.737,3.737,0,0,1-1.432,1.448A4.034,4.034,0,0,1,262.64,16.192Zm0-1.152a2.55,2.55,0,0,0,1.28-.336,2.506,2.506,0,0,0,.96-1.008,3.428,3.428,0,0,0,.368-1.664,3.491,3.491,0,0,0-.36-1.664,2.454,2.454,0,0,0-.952-1.008,2.52,2.52,0,0,0-1.264-.336,2.55,2.55,0,0,0-1.28.336,2.506,2.506,0,0,0-.96,1.008,3.428,3.428,0,0,0-.368,1.664,3.428,3.428,0,0,0,.368,1.664,2.525,2.525,0,0,0,.952,1.008A2.477,2.477,0,0,0,262.64,15.04Zm9.512,1.152a4.017,4.017,0,0,1-2.04-.52,3.739,3.739,0,0,1-1.424-1.456,4.425,4.425,0,0,1-.52-2.184,4.425,4.425,0,0,1,.52-2.184,3.739,3.739,0,0,1,1.424-1.456,4.017,4.017,0,0,1,2.04-.52,3.811,3.811,0,0,1,2.376.736,3.207,3.207,0,0,1,1.224,1.968h-1.376a1.764,1.764,0,0,0-.784-1.144,2.6,2.6,0,0,0-1.456-.408,2.486,2.486,0,0,0-2.224,1.344,3.428,3.428,0,0,0-.368,1.664,3.428,3.428,0,0,0,.368,1.664,2.564,2.564,0,0,0,.96,1.016,2.475,2.475,0,0,0,1.264.344,2.6,2.6,0,0,0,1.456-.408,1.77,1.77,0,0,0,.784-1.16h1.376a3.177,3.177,0,0,1-1.216,1.952A3.789,3.789,0,0,1,272.152,16.192Zm8.376,0a2.98,2.98,0,0,1-2.24-.856,3.65,3.65,0,0,1-.832-2.632V8.064H278.8v4.5q0,2.48,2.032,2.48a2.23,2.23,0,0,0,1.72-.744,3.032,3.032,0,0,0,.68-2.12V8.064h1.344V16H283.36l-.1-1.424a2.763,2.763,0,0,1-1.1,1.184A3.152,3.152,0,0,1,280.528,16.192Zm9.3,0a3.792,3.792,0,0,1-2.368-.72,2.807,2.807,0,0,1-1.1-1.952h1.376a1.9,1.9,0,0,0,.664,1.08,2.161,2.161,0,0,0,1.448.456,1.826,1.826,0,0,0,1.248-.36,1.115,1.115,0,0,0,.4-.856.95.95,0,0,0-.52-.96,6.921,6.921,0,0,0-1.464-.432,8.252,8.252,0,0,1-1.28-.368,2.908,2.908,0,0,1-1.072-.68,1.584,1.584,0,0,1-.432-1.16,2.141,2.141,0,0,1,.776-1.7,3.129,3.129,0,0,1,2.1-.664,3.263,3.263,0,0,1,2.072.632,2.522,2.522,0,0,1,.936,1.8h-1.328a1.384,1.384,0,0,0-.52-.952,1.858,1.858,0,0,0-1.176-.344,1.78,1.78,0,0,0-1.112.3.964.964,0,0,0-.392.8.831.831,0,0,0,.5.752,5.411,5.411,0,0,0,1.368.464,11.916,11.916,0,0,1,1.4.392,2.646,2.646,0,0,1,1.088.688,1.87,1.87,0,0,1,.424,1.32,2.168,2.168,0,0,1-.808,1.768A3.348,3.348,0,0,1,289.832,16.192Zm8.536,0a3.887,3.887,0,0,1-2.016-.52,3.692,3.692,0,0,1-1.384-1.448,4.526,4.526,0,0,1-.5-2.192,4.6,4.6,0,0,1,.5-2.184,3.606,3.606,0,0,1,1.384-1.456,3.993,3.993,0,0,1,2.056-.52,3.709,3.709,0,0,1,1.992.52A3.523,3.523,0,0,1,301.68,9.76a3.846,3.846,0,0,1,.448,1.824q0,.176-.008.352t-.008.4h-6.32a3.119,3.119,0,0,0,.424,1.512,2.5,2.5,0,0,0,2.152,1.208,2.4,2.4,0,0,0,1.392-.384,2.2,2.2,0,0,0,.816-1.04H301.9a3.485,3.485,0,0,1-3.536,2.56Zm0-7.184a2.684,2.684,0,0,0-1.7.584,2.353,2.353,0,0,0-.856,1.7H300.8a2.27,2.27,0,0,0-.736-1.68A2.469,2.469,0,0,0,298.368,9.008Zm8.584,7.184a3.792,3.792,0,0,1-2.368-.72,2.807,2.807,0,0,1-1.1-1.952h1.376a1.9,1.9,0,0,0,.664,1.08,2.161,2.161,0,0,0,1.448.456,1.826,1.826,0,0,0,1.248-.36,1.115,1.115,0,0,0,.4-.856.95.95,0,0,0-.52-.96,6.921,6.921,0,0,0-1.464-.432,8.252,8.252,0,0,1-1.28-.368,2.908,2.908,0,0,1-1.072-.68,1.584,1.584,0,0,1-.432-1.16,2.141,2.141,0,0,1,.776-1.7,3.129,3.129,0,0,1,2.1-.664A3.263,3.263,0,0,1,308.8,8.5a2.522,2.522,0,0,1,.936,1.8h-1.328a1.384,1.384,0,0,0-.52-.952,1.858,1.858,0,0,0-1.176-.344,1.78,1.78,0,0,0-1.112.3.964.964,0,0,0-.392.8.831.831,0,0,0,.5.752,5.411,5.411,0,0,0,1.368.464,11.916,11.916,0,0,1,1.4.392,2.646,2.646,0,0,1,1.088.688,1.87,1.87,0,0,1,.424,1.32,2.168,2.168,0,0,1-.808,1.768A3.348,3.348,0,0,1,306.952,16.192ZM4.72,42.192A3.99,3.99,0,0,1,2.7,41.68a3.7,3.7,0,0,1-1.416-1.448,4.459,4.459,0,0,1-.52-2.2,4.4,4.4,0,0,1,.528-2.2,3.737,3.737,0,0,1,1.432-1.448,4.034,4.034,0,0,1,2.024-.512,3.99,3.99,0,0,1,2.016.512,3.7,3.7,0,0,1,1.416,1.448,4.459,4.459,0,0,1,.52,2.2,4.4,4.4,0,0,1-.528,2.2A3.737,3.737,0,0,1,6.744,41.68,4.034,4.034,0,0,1,4.72,42.192Zm0-1.152A2.55,2.55,0,0,0,6,40.7,2.506,2.506,0,0,0,6.96,39.7a3.428,3.428,0,0,0,.368-1.664,3.491,3.491,0,0,0-.36-1.664,2.454,2.454,0,0,0-.952-1.008,2.52,2.52,0,0,0-1.264-.336,2.55,2.55,0,0,0-1.28.336,2.506,2.506,0,0,0-.96,1.008,3.946,3.946,0,0,0,0,3.328A2.525,2.525,0,0,0,3.464,40.7,2.477,2.477,0,0,0,4.72,41.04Zm5.864.96V34.064H11.8l.08,1.424a2.882,2.882,0,0,1,1.1-1.184,3.11,3.11,0,0,1,1.632-.432,3.006,3.006,0,0,1,2.248.856,3.628,3.628,0,0,1,.84,2.632V42H16.36V37.5q0-2.48-2.048-2.48a2.212,2.212,0,0,0-1.7.744,3.032,3.032,0,0,0-.68,2.12V42Zm16.976.192a3.887,3.887,0,0,1-2.016-.52,3.692,3.692,0,0,1-1.384-1.448,4.526,4.526,0,0,1-.5-2.192,4.6,4.6,0,0,1,.5-2.184,3.606,3.606,0,0,1,1.384-1.456,3.993,3.993,0,0,1,2.056-.52,3.708,3.708,0,0,1,1.992.52,3.523,3.523,0,0,1,1.288,1.368,3.846,3.846,0,0,1,.448,1.824q0,.176-.008.352t-.008.4h-6.32a3.118,3.118,0,0,0,.424,1.512,2.5,2.5,0,0,0,2.152,1.208,2.4,2.4,0,0,0,1.392-.384,2.2,2.2,0,0,0,.816-1.04H31.1a3.485,3.485,0,0,1-3.536,2.56Zm0-7.184a2.684,2.684,0,0,0-1.7.584A2.353,2.353,0,0,0,25,37.3h4.992a2.27,2.27,0,0,0-.736-1.68A2.469,2.469,0,0,0,27.56,35.008ZM31.936,42l2.752-3.968-2.752-3.968h1.456l2.224,3.28,2.24-3.28H39.3l-2.752,3.968L39.3,42h-1.44l-2.24-3.28L33.392,42Zm11.912,0a2.568,2.568,0,0,1-1.712-.528,2.4,2.4,0,0,1-.624-1.9V35.2H40.136V34.064h1.376l.176-1.9h1.168v1.9h2.336V35.2H42.856v4.368a1.32,1.32,0,0,0,.3,1.016,1.657,1.657,0,0,0,1.072.264h.832V42Zm3.064,0V34.064h1.216l.112,1.52a2.877,2.877,0,0,1,1.12-1.248,3.472,3.472,0,0,1,1.856-.464V35.28h-.368a3.321,3.321,0,0,0-1.3.248,1.968,1.968,0,0,0-.944.84A3.2,3.2,0,0,0,48.256,38v4Zm8.456.192a3.6,3.6,0,0,1-1.648-.336,2.284,2.284,0,0,1-.976-.9,2.409,2.409,0,0,1-.32-1.216,2.155,2.155,0,0,1,.928-1.872,4.309,4.309,0,0,1,2.528-.656h2.144v-.1a2.118,2.118,0,0,0-.544-1.576,1.984,1.984,0,0,0-1.456-.536,2.321,2.321,0,0,0-1.352.392,1.717,1.717,0,0,0-.712,1.144H52.584a2.547,2.547,0,0,1,.584-1.456,3.264,3.264,0,0,1,1.256-.9,4.133,4.133,0,0,1,1.6-.312,3,3,0,0,1,3.344,3.248V42h-1.2l-.08-1.424A3.148,3.148,0,0,1,57.1,41.72,2.887,2.887,0,0,1,55.368,42.192Zm.208-1.136a2.189,2.189,0,0,0,1.32-.4,2.553,2.553,0,0,0,.84-1.04,3.239,3.239,0,0,0,.288-1.344v-.016H55.992a2.638,2.638,0,0,0-1.672.408,1.272,1.272,0,0,0-.488,1.016,1.231,1.231,0,0,0,.456,1A1.972,1.972,0,0,0,55.576,41.056Zm9.464,1.136a4.017,4.017,0,0,1-2.04-.52,3.738,3.738,0,0,1-1.424-1.456,4.846,4.846,0,0,1,0-4.368A3.738,3.738,0,0,1,63,34.392a4.017,4.017,0,0,1,2.04-.52,3.811,3.811,0,0,1,2.376.736,3.207,3.207,0,0,1,1.224,1.968H67.264a1.764,1.764,0,0,0-.784-1.144,2.6,2.6,0,0,0-1.456-.408A2.486,2.486,0,0,0,62.8,36.368a3.946,3.946,0,0,0,0,3.328,2.564,2.564,0,0,0,.96,1.016,2.475,2.475,0,0,0,1.264.344,2.6,2.6,0,0,0,1.456-.408,1.77,1.77,0,0,0,.784-1.16H68.64a3.177,3.177,0,0,1-1.216,1.952A3.789,3.789,0,0,1,65.04,42.192ZM73.432,42a2.568,2.568,0,0,1-1.712-.528,2.4,2.4,0,0,1-.624-1.9V35.2H69.72V34.064H71.1l.176-1.9H72.44v1.9h2.336V35.2H72.44v4.368a1.32,1.32,0,0,0,.3,1.016,1.657,1.657,0,0,0,1.072.264h.832V42Zm3.88-9.7a.9.9,0,0,1-.928-.928.855.855,0,0,1,.264-.64.979.979,0,0,1,1.32,0,.842.842,0,0,1,.272.64.887.887,0,0,1-.272.664A.908.908,0,0,1,77.312,32.3ZM76.64,42V34.064h1.344V42Zm3.688,0V34.064h1.216l.08,1.424a2.882,2.882,0,0,1,1.1-1.184,3.11,3.11,0,0,1,1.632-.432,3.006,3.006,0,0,1,2.248.856,3.628,3.628,0,0,1,.84,2.632V42H86.1V37.5q0-2.48-2.048-2.48a2.212,2.212,0,0,0-1.7.744,3.032,3.032,0,0,0-.68,2.12V42Zm12.3-2.5a4.093,4.093,0,0,1-1.232-.176l-.8.752a1.612,1.612,0,0,0,.44.216,4.663,4.663,0,0,0,.76.16q.5.072,1.392.152a3.785,3.785,0,0,1,2.288.736,2.1,2.1,0,0,1,.688,1.632,2.5,2.5,0,0,1-.376,1.312,2.79,2.79,0,0,1-1.152,1.024,4.339,4.339,0,0,1-1.992.4,5.96,5.96,0,0,1-1.9-.28,2.76,2.76,0,0,1-1.3-.848,2.189,2.189,0,0,1-.464-1.432,2.324,2.324,0,0,1,.24-.968,2.588,2.588,0,0,1,.9-.984,3.3,3.3,0,0,1-.6-.312,3.108,3.108,0,0,1-.456-.376v-.368l1.36-1.344a2.632,2.632,0,0,1-.944-2.112,2.805,2.805,0,0,1,.368-1.424,2.632,2.632,0,0,1,1.072-1.016,3.593,3.593,0,0,1,1.712-.376,3.831,3.831,0,0,1,1.248.192H96.8v1.008l-1.488.064a2.664,2.664,0,0,1,.464,1.552,2.759,2.759,0,0,1-.376,1.424,2.7,2.7,0,0,1-1.072,1.016A3.545,3.545,0,0,1,92.624,39.5Zm0-1.1a1.983,1.983,0,0,0,1.352-.44,1.6,1.6,0,0,0,.5-1.272,1.578,1.578,0,0,0-.5-1.256,1.983,1.983,0,0,0-1.352-.44,2.008,2.008,0,0,0-1.368.44,1.578,1.578,0,0,0-.5,1.256,1.6,1.6,0,0,0,.5,1.272A2.008,2.008,0,0,0,92.624,38.4Zm-2.336,4.624a1.29,1.29,0,0,0,.672,1.192,3.291,3.291,0,0,0,1.68.392,2.667,2.667,0,0,0,1.592-.432,1.351,1.351,0,0,0,.6-1.152,1.16,1.16,0,0,0-.416-.888,2.563,2.563,0,0,0-1.536-.44q-.88-.064-1.52-.16a1.97,1.97,0,0,0-.864.76A1.638,1.638,0,0,0,90.288,43.024ZM104.864,42l-3.008-7.936h1.408l2.384,6.64,2.4-6.64h1.376L106.416,42Zm8.3.192a3.6,3.6,0,0,1-1.648-.336,2.284,2.284,0,0,1-.976-.9,2.409,2.409,0,0,1-.32-1.216,2.155,2.155,0,0,1,.928-1.872,4.309,4.309,0,0,1,2.528-.656h2.144v-.1a2.118,2.118,0,0,0-.544-1.576,1.984,1.984,0,0,0-1.456-.536,2.321,2.321,0,0,0-1.352.392,1.717,1.717,0,0,0-.712,1.144h-1.376a2.547,2.547,0,0,1,.584-1.456,3.264,3.264,0,0,1,1.256-.9,4.133,4.133,0,0,1,1.6-.312,3,3,0,0,1,3.344,3.248V42h-1.2l-.08-1.424a3.147,3.147,0,0,1-.984,1.144A2.887,2.887,0,0,1,113.16,42.192Zm.208-1.136a2.189,2.189,0,0,0,1.32-.4,2.553,2.553,0,0,0,.84-1.04,3.239,3.239,0,0,0,.288-1.344v-.016h-2.032a2.638,2.638,0,0,0-1.672.408,1.272,1.272,0,0,0-.488,1.016,1.231,1.231,0,0,0,.456,1A1.972,1.972,0,0,0,113.368,41.056Zm5.816.944V30.48h1.344V42Zm6.456.192a2.98,2.98,0,0,1-2.24-.856,3.65,3.65,0,0,1-.832-2.632v-4.64h1.344v4.5q0,2.48,2.032,2.48a2.229,2.229,0,0,0,1.72-.744,3.032,3.032,0,0,0,.68-2.12V34.064h1.344V42h-1.216l-.1-1.424a2.763,2.763,0,0,1-1.1,1.184A3.152,3.152,0,0,1,125.64,42.192Zm8.9,0a3.6,3.6,0,0,1-1.648-.336,2.284,2.284,0,0,1-.976-.9,2.409,2.409,0,0,1-.32-1.216,2.155,2.155,0,0,1,.928-1.872,4.309,4.309,0,0,1,2.528-.656H137.2v-.1a2.118,2.118,0,0,0-.544-1.576,1.984,1.984,0,0,0-1.456-.536,2.321,2.321,0,0,0-1.352.392,1.717,1.717,0,0,0-.712,1.144H131.76a2.547,2.547,0,0,1,.584-1.456,3.264,3.264,0,0,1,1.256-.9,4.133,4.133,0,0,1,1.6-.312,3,3,0,0,1,3.344,3.248V42h-1.2l-.08-1.424a3.147,3.147,0,0,1-.984,1.144A2.887,2.887,0,0,1,134.544,42.192Zm.208-1.136a2.189,2.189,0,0,0,1.32-.4,2.553,2.553,0,0,0,.84-1.04,3.239,3.239,0,0,0,.288-1.344v-.016h-2.032a2.638,2.638,0,0,0-1.672.408,1.272,1.272,0,0,0-.488,1.016,1.231,1.231,0,0,0,.456,1A1.972,1.972,0,0,0,134.752,41.056Zm10.056,1.136a3.671,3.671,0,0,1-1.736-.4,2.767,2.767,0,0,1-1.16-1.12L141.784,42h-1.216V30.48h1.344v4.9a3.746,3.746,0,0,1,1.1-1.04,3.267,3.267,0,0,1,1.816-.464,3.845,3.845,0,0,1,2.064.544,3.722,3.722,0,0,1,1.368,1.488,4.6,4.6,0,0,1,.488,2.144,4.552,4.552,0,0,1-.488,2.136,3.661,3.661,0,0,1-1.376,1.472A3.931,3.931,0,0,1,144.808,42.192Zm-.144-1.168a2.567,2.567,0,0,0,2.368-1.424,3.668,3.668,0,0,0,0-3.136,2.657,2.657,0,0,0-4.736,0,3.668,3.668,0,0,0,0,3.136,2.567,2.567,0,0,0,2.368,1.424Zm5.96.976V30.48h1.344V42Zm7.128.192a3.887,3.887,0,0,1-2.016-.52,3.692,3.692,0,0,1-1.384-1.448,4.526,4.526,0,0,1-.5-2.192,4.6,4.6,0,0,1,.5-2.184,3.606,3.606,0,0,1,1.384-1.456,3.993,3.993,0,0,1,2.056-.52,3.708,3.708,0,0,1,1.992.52,3.523,3.523,0,0,1,1.288,1.368,3.846,3.846,0,0,1,.448,1.824q0,.176-.008.352t-.008.4h-6.32a3.118,3.118,0,0,0,.424,1.512,2.5,2.5,0,0,0,2.152,1.208,2.4,2.4,0,0,0,1.392-.384,2.2,2.2,0,0,0,.816-1.04h1.328a3.485,3.485,0,0,1-3.536,2.56Zm0-7.184a2.684,2.684,0,0,0-1.7.584,2.353,2.353,0,0,0-.856,1.7h4.992a2.27,2.27,0,0,0-.736-1.68A2.469,2.469,0,0,0,157.752,35.008ZM167.544,42V34.064h1.216l.1,1.152a2.688,2.688,0,0,1,1.024-.992,2.938,2.938,0,0,1,1.44-.352,3.251,3.251,0,0,1,1.624.384,2.526,2.526,0,0,1,1.048,1.168,3.038,3.038,0,0,1,1.144-1.136,3.123,3.123,0,0,1,1.576-.416,3.054,3.054,0,0,1,2.272.856,3.606,3.606,0,0,1,.848,2.632V42H178.5V37.5a2.941,2.941,0,0,0-.5-1.856,1.712,1.712,0,0,0-1.424-.624,2,2,0,0,0-1.592.744,3.184,3.184,0,0,0-.632,2.12V42h-1.344V37.5a2.941,2.941,0,0,0-.5-1.856,1.712,1.712,0,0,0-1.424-.624,1.985,1.985,0,0,0-1.576.744,3.184,3.184,0,0,0-.632,2.12V42Zm15.144-9.7a.9.9,0,0,1-.928-.928.855.855,0,0,1,.264-.64.979.979,0,0,1,1.32,0,.842.842,0,0,1,.272.64.887.887,0,0,1-.272.664A.908.908,0,0,1,182.688,32.3Zm-.672,9.7V34.064h1.344V42Zm3.688,0V34.064h1.216l.08,1.424a2.882,2.882,0,0,1,1.1-1.184,3.11,3.11,0,0,1,1.632-.432,3.006,3.006,0,0,1,2.248.856,3.628,3.628,0,0,1,.84,2.632V42H191.48V37.5q0-2.48-2.048-2.48a2.212,2.212,0,0,0-1.7.744,3.032,3.032,0,0,0-.68,2.12V42Zm12.728.192a3.887,3.887,0,0,1-2.016-.52,3.692,3.692,0,0,1-1.384-1.448,4.526,4.526,0,0,1-.5-2.192,4.6,4.6,0,0,1,.5-2.184,3.606,3.606,0,0,1,1.384-1.456,3.993,3.993,0,0,1,2.056-.52,3.708,3.708,0,0,1,1.992.52,3.523,3.523,0,0,1,1.288,1.368,3.846,3.846,0,0,1,.448,1.824q0,.176-.008.352t-.008.4h-6.32a3.118,3.118,0,0,0,.424,1.512,2.5,2.5,0,0,0,2.152,1.208,2.4,2.4,0,0,0,1.392-.384,2.2,2.2,0,0,0,.816-1.04h1.328a3.485,3.485,0,0,1-3.536,2.56Zm0-7.184a2.684,2.684,0,0,0-1.7.584,2.353,2.353,0,0,0-.856,1.7h4.992a2.27,2.27,0,0,0-.736-1.68A2.469,2.469,0,0,0,198.432,35.008ZM203.976,42V34.064h1.216l.112,1.52a2.877,2.877,0,0,1,1.12-1.248,3.472,3.472,0,0,1,1.856-.464V35.28h-.368a3.321,3.321,0,0,0-1.3.248,1.968,1.968,0,0,0-.944.84A3.2,3.2,0,0,0,205.32,38v4Zm8.456.192a3.6,3.6,0,0,1-1.648-.336,2.284,2.284,0,0,1-.976-.9,2.409,2.409,0,0,1-.32-1.216,2.155,2.155,0,0,1,.928-1.872,4.309,4.309,0,0,1,2.528-.656h2.144v-.1a2.118,2.118,0,0,0-.544-1.576,1.984,1.984,0,0,0-1.456-.536,2.321,2.321,0,0,0-1.352.392,1.717,1.717,0,0,0-.712,1.144h-1.376a2.547,2.547,0,0,1,.584-1.456,3.264,3.264,0,0,1,1.256-.9,4.133,4.133,0,0,1,1.6-.312,3,3,0,0,1,3.344,3.248V42h-1.2l-.08-1.424a3.147,3.147,0,0,1-.984,1.144A2.887,2.887,0,0,1,212.432,42.192Zm.208-1.136a2.189,2.189,0,0,0,1.32-.4,2.553,2.553,0,0,0,.84-1.04,3.239,3.239,0,0,0,.288-1.344v-.016h-2.032a2.638,2.638,0,0,0-1.672.408,1.272,1.272,0,0,0-.488,1.016,1.231,1.231,0,0,0,.456,1A1.972,1.972,0,0,0,212.64,41.056Zm5.816.944V30.48H219.8V42Zm6.6.192a3.792,3.792,0,0,1-2.368-.72,2.807,2.807,0,0,1-1.1-1.952h1.376a1.9,1.9,0,0,0,.664,1.08,2.161,2.161,0,0,0,1.448.456,1.826,1.826,0,0,0,1.248-.36,1.115,1.115,0,0,0,.4-.856.95.95,0,0,0-.52-.96,6.921,6.921,0,0,0-1.464-.432,8.252,8.252,0,0,1-1.28-.368,2.908,2.908,0,0,1-1.072-.68,1.584,1.584,0,0,1-.432-1.16,2.141,2.141,0,0,1,.776-1.7,3.129,3.129,0,0,1,2.1-.664,3.263,3.263,0,0,1,2.072.632,2.522,2.522,0,0,1,.936,1.8h-1.328a1.384,1.384,0,0,0-.52-.952,1.858,1.858,0,0,0-1.176-.344,1.78,1.78,0,0,0-1.112.3.964.964,0,0,0-.392.8.831.831,0,0,0,.5.752,5.411,5.411,0,0,0,1.368.464,11.916,11.916,0,0,1,1.4.392,2.646,2.646,0,0,1,1.088.688,1.87,1.87,0,0,1,.424,1.32,2.168,2.168,0,0,1-.808,1.768A3.348,3.348,0,0,1,225.056,42.192Zm12.608,0a4.576,4.576,0,0,1-2.024-.424,3.362,3.362,0,0,1-1.184-5.008,4.391,4.391,0,0,1,1.928-1.4,4.334,4.334,0,0,1-.784-1.128,2.806,2.806,0,0,1-.24-1.16,2.292,2.292,0,0,1,.76-1.768,2.975,2.975,0,0,1,2.088-.7,3.257,3.257,0,0,1,1.5.328,2.434,2.434,0,0,1,.992.9,2.269,2.269,0,0,1,.32,1.312H239.7a1.276,1.276,0,0,0-.44-1.088,1.622,1.622,0,0,0-1.048-.368,1.551,1.551,0,0,0-1.12.384,1.3,1.3,0,0,0-.4.976,1.944,1.944,0,0,0,.28.992,6.091,6.091,0,0,0,.84,1.072l3.536,3.568q.464-.672,1.008-1.616l.5-.864h1.424l-.7,1.248a18.415,18.415,0,0,1-1.344,2.112L244.64,42h-1.7l-1.488-1.5a5.3,5.3,0,0,1-1.76,1.3A5.1,5.1,0,0,1,237.664,42.192Zm-2.528-3.456a2.158,2.158,0,0,0,.7,1.648,2.591,2.591,0,0,0,1.84.656,3.577,3.577,0,0,0,1.544-.328,4.391,4.391,0,0,0,1.368-1.08l-3.392-3.44a3.62,3.62,0,0,0-1.56,1.056A2.336,2.336,0,0,0,235.136,38.736ZM250.24,42V34.064h1.216l.112,1.52a2.877,2.877,0,0,1,1.12-1.248,3.472,3.472,0,0,1,1.856-.464V35.28h-.368a3.321,3.321,0,0,0-1.3.248,1.968,1.968,0,0,0-.944.84A3.2,3.2,0,0,0,251.584,38v4Zm9.08.192a3.887,3.887,0,0,1-2.016-.52,3.692,3.692,0,0,1-1.384-1.448,4.526,4.526,0,0,1-.5-2.192,4.6,4.6,0,0,1,.5-2.184,3.606,3.606,0,0,1,1.384-1.456,3.993,3.993,0,0,1,2.056-.52,3.708,3.708,0,0,1,1.992.52,3.523,3.523,0,0,1,1.288,1.368,3.846,3.846,0,0,1,.448,1.824q0,.176-.008.352t-.008.4h-6.32a3.118,3.118,0,0,0,.424,1.512,2.5,2.5,0,0,0,2.152,1.208,2.4,2.4,0,0,0,1.392-.384,2.2,2.2,0,0,0,.816-1.04h1.328a3.485,3.485,0,0,1-3.536,2.56Zm0-7.184a2.684,2.684,0,0,0-1.7.584,2.353,2.353,0,0,0-.856,1.7h4.992a2.27,2.27,0,0,0-.736-1.68A2.469,2.469,0,0,0,259.32,35.008Zm8.584,7.184a3.792,3.792,0,0,1-2.368-.72,2.807,2.807,0,0,1-1.1-1.952h1.376a1.9,1.9,0,0,0,.664,1.08,2.161,2.161,0,0,0,1.448.456,1.826,1.826,0,0,0,1.248-.36,1.115,1.115,0,0,0,.4-.856.95.95,0,0,0-.52-.96,6.921,6.921,0,0,0-1.464-.432,8.252,8.252,0,0,1-1.28-.368,2.908,2.908,0,0,1-1.072-.68,1.584,1.584,0,0,1-.432-1.16,2.141,2.141,0,0,1,.776-1.7,3.129,3.129,0,0,1,2.1-.664,3.263,3.263,0,0,1,2.072.632,2.522,2.522,0,0,1,.936,1.8H269.36a1.384,1.384,0,0,0-.52-.952,1.858,1.858,0,0,0-1.176-.344,1.78,1.78,0,0,0-1.112.3.964.964,0,0,0-.392.8.831.831,0,0,0,.5.752,5.411,5.411,0,0,0,1.368.464,11.916,11.916,0,0,1,1.4.392,2.646,2.646,0,0,1,1.088.688,1.87,1.87,0,0,1,.424,1.32,2.168,2.168,0,0,1-.808,1.768A3.348,3.348,0,0,1,267.9,42.192Zm8.584,0a3.99,3.99,0,0,1-2.016-.512,3.7,3.7,0,0,1-1.416-1.448,4.459,4.459,0,0,1-.52-2.2,4.4,4.4,0,0,1,.528-2.2,3.738,3.738,0,0,1,1.432-1.448,4.034,4.034,0,0,1,2.024-.512,3.99,3.99,0,0,1,2.016.512,3.7,3.7,0,0,1,1.416,1.448,4.458,4.458,0,0,1,.52,2.2,4.4,4.4,0,0,1-.528,2.2,3.737,3.737,0,0,1-1.432,1.448A4.034,4.034,0,0,1,276.488,42.192Zm0-1.152a2.55,2.55,0,0,0,1.28-.336,2.506,2.506,0,0,0,.96-1.008,3.428,3.428,0,0,0,.368-1.664,3.491,3.491,0,0,0-.36-1.664,2.454,2.454,0,0,0-.952-1.008,2.52,2.52,0,0,0-1.264-.336,2.55,2.55,0,0,0-1.28.336,2.506,2.506,0,0,0-.96,1.008,3.946,3.946,0,0,0,0,3.328,2.525,2.525,0,0,0,.952,1.008A2.477,2.477,0,0,0,276.488,41.04Zm8.76,1.152a2.98,2.98,0,0,1-2.24-.856,3.65,3.65,0,0,1-.832-2.632v-4.64h1.344v4.5q0,2.48,2.032,2.48a2.23,2.23,0,0,0,1.72-.744,3.032,3.032,0,0,0,.68-2.12V34.064H289.3V42H288.08l-.1-1.424a2.763,2.763,0,0,1-1.1,1.184A3.152,3.152,0,0,1,285.248,42.192ZM291.512,42V34.064h1.216l.112,1.52a2.877,2.877,0,0,1,1.12-1.248,3.472,3.472,0,0,1,1.856-.464V35.28h-.368a3.321,3.321,0,0,0-1.3.248,1.968,1.968,0,0,0-.944.84A3.2,3.2,0,0,0,292.856,38v4Zm9.16.192a4.017,4.017,0,0,1-2.04-.52,3.739,3.739,0,0,1-1.424-1.456,4.846,4.846,0,0,1,0-4.368,3.739,3.739,0,0,1,1.424-1.456,4.017,4.017,0,0,1,2.04-.52,3.811,3.811,0,0,1,2.376.736,3.207,3.207,0,0,1,1.224,1.968H302.9a1.764,1.764,0,0,0-.784-1.144,2.6,2.6,0,0,0-1.456-.408,2.486,2.486,0,0,0-2.224,1.344,3.946,3.946,0,0,0,0,3.328,2.563,2.563,0,0,0,.96,1.016,2.475,2.475,0,0,0,1.264.344,2.6,2.6,0,0,0,1.456-.408,1.77,1.77,0,0,0,.784-1.16h1.376a3.177,3.177,0,0,1-1.216,1.952A3.789,3.789,0,0,1,300.672,42.192Zm9.048,0a3.887,3.887,0,0,1-2.016-.52,3.692,3.692,0,0,1-1.384-1.448,4.526,4.526,0,0,1-.5-2.192,4.6,4.6,0,0,1,.5-2.184,3.606,3.606,0,0,1,1.384-1.456,3.993,3.993,0,0,1,2.056-.52,3.709,3.709,0,0,1,1.992.52,3.523,3.523,0,0,1,1.288,1.368,3.846,3.846,0,0,1,.448,1.824q0,.176-.008.352t-.008.4h-6.32a3.119,3.119,0,0,0,.424,1.512,2.5,2.5,0,0,0,2.152,1.208,2.4,2.4,0,0,0,1.392-.384,2.2,2.2,0,0,0,.816-1.04h1.328a3.485,3.485,0,0,1-3.536,2.56Zm0-7.184a2.684,2.684,0,0,0-1.7.584,2.353,2.353,0,0,0-.856,1.7h4.992a2.27,2.27,0,0,0-.736-1.68A2.469,2.469,0,0,0,309.72,35.008Zm8.584,7.184a3.792,3.792,0,0,1-2.368-.72,2.807,2.807,0,0,1-1.1-1.952h1.376a1.9,1.9,0,0,0,.664,1.08,2.161,2.161,0,0,0,1.448.456,1.826,1.826,0,0,0,1.248-.36,1.115,1.115,0,0,0,.4-.856.95.95,0,0,0-.52-.96,6.921,6.921,0,0,0-1.464-.432,8.252,8.252,0,0,1-1.28-.368,2.908,2.908,0,0,1-1.072-.68,1.584,1.584,0,0,1-.432-1.16,2.141,2.141,0,0,1,.776-1.7,3.129,3.129,0,0,1,2.1-.664,3.263,3.263,0,0,1,2.072.632,2.522,2.522,0,0,1,.936,1.8H319.76a1.384,1.384,0,0,0-.52-.952,1.858,1.858,0,0,0-1.176-.344,1.78,1.78,0,0,0-1.112.3.964.964,0,0,0-.392.8.831.831,0,0,0,.5.752,5.411,5.411,0,0,0,1.368.464,11.916,11.916,0,0,1,1.4.392,2.646,2.646,0,0,1,1.088.688,1.87,1.87,0,0,1,.424,1.32,2.168,2.168,0,0,1-.808,1.768A3.348,3.348,0,0,1,318.3,42.192ZM1.536,68V61.2H.336V60.064h1.2V58.688a2.179,2.179,0,0,1,.576-1.68,2.4,2.4,0,0,1,1.68-.528h.8v1.152H4a1.221,1.221,0,0,0-.864.248,1.139,1.139,0,0,0-.256.84v1.344H4.832V61.2H2.88V68Zm4.9,0V60.064H7.656l.112,1.52a2.877,2.877,0,0,1,1.12-1.248,3.472,3.472,0,0,1,1.856-.464V61.28h-.368a3.321,3.321,0,0,0-1.3.248,1.968,1.968,0,0,0-.944.84A3.2,3.2,0,0,0,7.784,64v4Zm9.128.192a3.99,3.99,0,0,1-2.016-.512,3.7,3.7,0,0,1-1.416-1.448,4.459,4.459,0,0,1-.52-2.2,4.4,4.4,0,0,1,.528-2.2,3.737,3.737,0,0,1,1.432-1.448,4.034,4.034,0,0,1,2.024-.512,3.99,3.99,0,0,1,2.016.512,3.7,3.7,0,0,1,1.416,1.448,4.459,4.459,0,0,1,.52,2.2,4.4,4.4,0,0,1-.528,2.2,3.737,3.737,0,0,1-1.432,1.448A4.034,4.034,0,0,1,15.568,68.192Zm0-1.152a2.55,2.55,0,0,0,1.28-.336,2.506,2.506,0,0,0,.96-1.008,3.428,3.428,0,0,0,.368-1.664,3.491,3.491,0,0,0-.36-1.664,2.454,2.454,0,0,0-.952-1.008,2.52,2.52,0,0,0-1.264-.336,2.55,2.55,0,0,0-1.28.336,2.506,2.506,0,0,0-.96,1.008,3.946,3.946,0,0,0,0,3.328,2.525,2.525,0,0,0,.952,1.008A2.477,2.477,0,0,0,15.568,67.04Zm5.864.96V60.064h1.216l.1,1.152a2.688,2.688,0,0,1,1.024-.992,2.938,2.938,0,0,1,1.44-.352,3.251,3.251,0,0,1,1.624.384,2.526,2.526,0,0,1,1.048,1.168,3.038,3.038,0,0,1,1.144-1.136,3.123,3.123,0,0,1,1.576-.416,3.054,3.054,0,0,1,2.272.856,3.606,3.606,0,0,1,.848,2.632V68H32.392V63.5a2.941,2.941,0,0,0-.5-1.856,1.712,1.712,0,0,0-1.424-.624,2,2,0,0,0-1.592.744,3.184,3.184,0,0,0-.632,2.12V68H26.9V63.5a2.941,2.941,0,0,0-.5-1.856,1.712,1.712,0,0,0-1.424-.624,1.985,1.985,0,0,0-1.576.744,3.184,3.184,0,0,0-.632,2.12V68Zm21.712,0a2.568,2.568,0,0,1-1.712-.528,2.4,2.4,0,0,1-.624-1.9V61.2H39.432V60.064h1.376l.176-1.9h1.168v1.9h2.336V61.2H42.152v4.368a1.32,1.32,0,0,0,.3,1.016,1.657,1.657,0,0,0,1.072.264h.832V68Zm3.064,0V56.48h1.344v4.944a2.827,2.827,0,0,1,1.136-1.144,3.246,3.246,0,0,1,1.6-.408,2.939,2.939,0,0,1,2.208.856,3.65,3.65,0,0,1,.832,2.632V68H52V63.5q0-2.48-2-2.48a2.3,2.3,0,0,0-1.744.744,2.966,2.966,0,0,0-.7,2.12V68Zm12.728.192a3.887,3.887,0,0,1-2.016-.52,3.692,3.692,0,0,1-1.384-1.448,4.526,4.526,0,0,1-.5-2.192,4.6,4.6,0,0,1,.5-2.184,3.606,3.606,0,0,1,1.384-1.456,3.993,3.993,0,0,1,2.056-.52,3.708,3.708,0,0,1,1.992.52,3.523,3.523,0,0,1,1.288,1.368,3.846,3.846,0,0,1,.448,1.824q0,.176-.008.352t-.008.4H56.36a3.118,3.118,0,0,0,.424,1.512,2.5,2.5,0,0,0,2.152,1.208,2.4,2.4,0,0,0,1.392-.384,2.2,2.2,0,0,0,.816-1.04h1.328a3.485,3.485,0,0,1-3.536,2.56Zm0-7.184a2.684,2.684,0,0,0-1.7.584,2.353,2.353,0,0,0-.856,1.7h4.992a2.27,2.27,0,0,0-.736-1.68A2.469,2.469,0,0,0,58.936,61.008ZM68.808,68V56.8h6.928v1.1H70.152v3.9h5.1V62.9h-5.1v4h5.584V68Zm11.592.192a3.6,3.6,0,0,1-1.648-.336,2.284,2.284,0,0,1-.976-.9,2.409,2.409,0,0,1-.32-1.216,2.155,2.155,0,0,1,.928-1.872,4.309,4.309,0,0,1,2.528-.656h2.144v-.1a2.118,2.118,0,0,0-.544-1.576,1.984,1.984,0,0,0-1.456-.536A2.321,2.321,0,0,0,79.7,61.4a1.717,1.717,0,0,0-.712,1.144H77.616a2.547,2.547,0,0,1,.584-1.456,3.264,3.264,0,0,1,1.256-.9,4.133,4.133,0,0,1,1.6-.312A3,3,0,0,1,84.4,63.12V68H83.2l-.08-1.424a3.147,3.147,0,0,1-.984,1.144A2.887,2.887,0,0,1,80.4,68.192Zm.208-1.136a2.189,2.189,0,0,0,1.32-.4,2.553,2.553,0,0,0,.84-1.04,3.239,3.239,0,0,0,.288-1.344v-.016H81.024a2.638,2.638,0,0,0-1.672.408,1.272,1.272,0,0,0-.488,1.016,1.231,1.231,0,0,0,.456,1A1.972,1.972,0,0,0,80.608,67.056ZM86.424,68V60.064H87.64l.112,1.52a2.877,2.877,0,0,1,1.12-1.248,3.472,3.472,0,0,1,1.856-.464V61.28H90.36a3.321,3.321,0,0,0-1.3.248,1.968,1.968,0,0,0-.944.84A3.2,3.2,0,0,0,87.768,64v4Zm8.952,0a2.568,2.568,0,0,1-1.712-.528,2.4,2.4,0,0,1-.624-1.9V61.2H91.664V60.064H93.04l.176-1.9h1.168v1.9H96.72V61.2H94.384v4.368a1.32,1.32,0,0,0,.3,1.016,1.657,1.657,0,0,0,1.072.264h.832V68Zm3.064,0V56.48h1.344v4.944a2.827,2.827,0,0,1,1.136-1.144,3.246,3.246,0,0,1,1.6-.408,2.939,2.939,0,0,1,2.208.856,3.65,3.65,0,0,1,.832,2.632V68h-1.328V63.5q0-2.48-2-2.48a2.3,2.3,0,0,0-1.744.744,2.966,2.966,0,0,0-.7,2.12V68Zm8.056-8.928-.208-3.152h1.328l-.192,3.152Zm5.864,9.12a3.792,3.792,0,0,1-2.368-.72,2.807,2.807,0,0,1-1.1-1.952h1.376a1.9,1.9,0,0,0,.664,1.08,2.161,2.161,0,0,0,1.448.456,1.826,1.826,0,0,0,1.248-.36,1.115,1.115,0,0,0,.4-.856.95.95,0,0,0-.52-.96,6.922,6.922,0,0,0-1.464-.432,8.253,8.253,0,0,1-1.28-.368,2.908,2.908,0,0,1-1.072-.68,1.584,1.584,0,0,1-.432-1.16,2.141,2.141,0,0,1,.776-1.7,3.129,3.129,0,0,1,2.1-.664,3.263,3.263,0,0,1,2.072.632,2.522,2.522,0,0,1,.936,1.8h-1.328a1.384,1.384,0,0,0-.52-.952,1.858,1.858,0,0,0-1.176-.344,1.78,1.78,0,0,0-1.112.3.964.964,0,0,0-.392.8.831.831,0,0,0,.5.752,5.411,5.411,0,0,0,1.368.464,11.916,11.916,0,0,1,1.4.392,2.646,2.646,0,0,1,1.088.688,1.87,1.87,0,0,1,.424,1.32,2.168,2.168,0,0,1-.808,1.768A3.348,3.348,0,0,1,112.36,68.192Zm12.864,0a4.017,4.017,0,0,1-2.04-.52,3.738,3.738,0,0,1-1.424-1.456,4.846,4.846,0,0,1,0-4.368,3.738,3.738,0,0,1,1.424-1.456,4.017,4.017,0,0,1,2.04-.52,3.811,3.811,0,0,1,2.376.736,3.207,3.207,0,0,1,1.224,1.968h-1.376a1.764,1.764,0,0,0-.784-1.144,2.6,2.6,0,0,0-1.456-.408,2.486,2.486,0,0,0-2.224,1.344,3.946,3.946,0,0,0,0,3.328,2.564,2.564,0,0,0,.96,1.016,2.475,2.475,0,0,0,1.264.344,2.6,2.6,0,0,0,1.456-.408,1.77,1.77,0,0,0,.784-1.16h1.376a3.177,3.177,0,0,1-1.216,1.952A3.789,3.789,0,0,1,125.224,68.192ZM130.7,68V60.064h1.216l.112,1.52a2.877,2.877,0,0,1,1.12-1.248,3.472,3.472,0,0,1,1.856-.464V61.28h-.368a3.321,3.321,0,0,0-1.3.248,1.968,1.968,0,0,0-.944.84A3.2,3.2,0,0,0,132.048,64v4Zm8.712.192a2.98,2.98,0,0,1-2.24-.856,3.65,3.65,0,0,1-.832-2.632v-4.64h1.344v4.5q0,2.48,2.032,2.48a2.23,2.23,0,0,0,1.72-.744,3.032,3.032,0,0,0,.68-2.12V60.064h1.344V68h-1.216l-.1-1.424a2.763,2.763,0,0,1-1.1,1.184A3.152,3.152,0,0,1,139.416,68.192Zm9.3,0a3.792,3.792,0,0,1-2.368-.72,2.807,2.807,0,0,1-1.1-1.952h1.376a1.9,1.9,0,0,0,.664,1.08,2.161,2.161,0,0,0,1.448.456,1.826,1.826,0,0,0,1.248-.36,1.115,1.115,0,0,0,.4-.856.95.95,0,0,0-.52-.96,6.921,6.921,0,0,0-1.464-.432,8.253,8.253,0,0,1-1.28-.368,2.908,2.908,0,0,1-1.072-.68,1.584,1.584,0,0,1-.432-1.16,2.141,2.141,0,0,1,.776-1.7,3.129,3.129,0,0,1,2.1-.664,3.263,3.263,0,0,1,2.072.632,2.522,2.522,0,0,1,.936,1.8h-1.328a1.384,1.384,0,0,0-.52-.952,1.858,1.858,0,0,0-1.176-.344,1.78,1.78,0,0,0-1.112.3.964.964,0,0,0-.392.8.831.831,0,0,0,.5.752,5.411,5.411,0,0,0,1.368.464,11.916,11.916,0,0,1,1.4.392,2.646,2.646,0,0,1,1.088.688,1.87,1.87,0,0,1,.424,1.32,2.168,2.168,0,0,1-.808,1.768A3.348,3.348,0,0,1,148.72,68.192ZM156.472,68a2.568,2.568,0,0,1-1.712-.528,2.4,2.4,0,0,1-.624-1.9V61.2H152.76V60.064h1.376l.176-1.9h1.168v1.9h2.336V61.2H155.48v4.368a1.32,1.32,0,0,0,.3,1.016,1.657,1.657,0,0,0,1.072.264h.832V68Zm3.528.08a.9.9,0,0,1-.664-.264.927.927,0,0,1,0-1.3.9.9,0,0,1,.664-.264.912.912,0,1,1,0,1.824Zm6.992-.08V56.8h1.344V68Zm6.776,0a2.568,2.568,0,0,1-1.712-.528,2.4,2.4,0,0,1-.624-1.9V61.2h-1.376V60.064h1.376l.176-1.9h1.168v1.9h2.336V61.2h-2.336v4.368a1.32,1.32,0,0,0,.3,1.016,1.657,1.657,0,0,0,1.072.264h.832V68Zm8.128-9.7a.9.9,0,0,1-.928-.928.855.855,0,0,1,.264-.64.979.979,0,0,1,1.32,0,.842.842,0,0,1,.272.64.887.887,0,0,1-.272.664A.908.908,0,0,1,181.9,58.3Zm-.672,9.7V60.064h1.344V68Zm3.688,0V60.064h1.216l.08,1.424a2.882,2.882,0,0,1,1.1-1.184,3.11,3.11,0,0,1,1.632-.432,3.006,3.006,0,0,1,2.248.856,3.628,3.628,0,0,1,.84,2.632V68h-1.344V63.5q0-2.48-2.048-2.48a2.212,2.212,0,0,0-1.7.744,3.032,3.032,0,0,0-.68,2.12V68ZM196.2,68l-3.008-7.936H194.6l2.384,6.64,2.4-6.64h1.376L197.752,68Zm9.272.192a3.99,3.99,0,0,1-2.016-.512,3.7,3.7,0,0,1-1.416-1.448,4.459,4.459,0,0,1-.52-2.2,4.4,4.4,0,0,1,.528-2.2,3.737,3.737,0,0,1,1.432-1.448,4.034,4.034,0,0,1,2.024-.512,3.99,3.99,0,0,1,2.016.512,3.7,3.7,0,0,1,1.416,1.448,4.459,4.459,0,0,1,.52,2.2,4.4,4.4,0,0,1-.528,2.2A3.737,3.737,0,0,1,207.5,67.68,4.034,4.034,0,0,1,205.472,68.192Zm0-1.152a2.55,2.55,0,0,0,1.28-.336,2.506,2.506,0,0,0,.96-1.008,3.428,3.428,0,0,0,.368-1.664,3.491,3.491,0,0,0-.36-1.664,2.454,2.454,0,0,0-.952-1.008,2.52,2.52,0,0,0-1.264-.336,2.55,2.55,0,0,0-1.28.336,2.506,2.506,0,0,0-.96,1.008,3.946,3.946,0,0,0,0,3.328,2.525,2.525,0,0,0,.952,1.008A2.477,2.477,0,0,0,205.472,67.04Zm5.864.96V56.48h1.344V68Zm5.848,0-3.008-7.936h1.408l2.384,6.64,2.4-6.64h1.376L218.736,68Zm9.224.192a3.887,3.887,0,0,1-2.016-.52,3.692,3.692,0,0,1-1.384-1.448,4.526,4.526,0,0,1-.5-2.192,4.6,4.6,0,0,1,.5-2.184,3.606,3.606,0,0,1,1.384-1.456,3.993,3.993,0,0,1,2.056-.52,3.708,3.708,0,0,1,1.992.52,3.523,3.523,0,0,1,1.288,1.368,3.846,3.846,0,0,1,.448,1.824q0,.176-.008.352t-.008.4h-6.32a3.118,3.118,0,0,0,.424,1.512,2.5,2.5,0,0,0,2.152,1.208,2.4,2.4,0,0,0,1.392-.384,2.2,2.2,0,0,0,.816-1.04h1.328a3.485,3.485,0,0,1-3.536,2.56Zm0-7.184a2.684,2.684,0,0,0-1.7.584,2.353,2.353,0,0,0-.856,1.7h4.992a2.27,2.27,0,0,0-.736-1.68A2.469,2.469,0,0,0,226.408,61.008Zm8.584,7.184a3.792,3.792,0,0,1-2.368-.72,2.807,2.807,0,0,1-1.1-1.952H232.9a1.9,1.9,0,0,0,.664,1.08,2.161,2.161,0,0,0,1.448.456,1.826,1.826,0,0,0,1.248-.36,1.115,1.115,0,0,0,.4-.856.95.95,0,0,0-.52-.96,6.921,6.921,0,0,0-1.464-.432,8.253,8.253,0,0,1-1.28-.368,2.908,2.908,0,0,1-1.072-.68,1.584,1.584,0,0,1-.432-1.16,2.141,2.141,0,0,1,.776-1.7,3.129,3.129,0,0,1,2.1-.664,3.263,3.263,0,0,1,2.072.632,2.522,2.522,0,0,1,.936,1.8h-1.328a1.384,1.384,0,0,0-.52-.952,1.858,1.858,0,0,0-1.176-.344,1.78,1.78,0,0,0-1.112.3.964.964,0,0,0-.392.8.831.831,0,0,0,.5.752,5.411,5.411,0,0,0,1.368.464,11.916,11.916,0,0,1,1.4.392,2.646,2.646,0,0,1,1.088.688,1.87,1.87,0,0,1,.424,1.32,2.168,2.168,0,0,1-.808,1.768A3.348,3.348,0,0,1,234.992,68.192Zm9.216,3.328V60.064h1.216l.128,1.312a3.746,3.746,0,0,1,1.1-1.04,3.267,3.267,0,0,1,1.816-.464,3.845,3.845,0,0,1,2.064.544A3.722,3.722,0,0,1,251.9,61.9a4.6,4.6,0,0,1,.488,2.144,4.552,4.552,0,0,1-.488,2.136,3.661,3.661,0,0,1-1.376,1.472,3.931,3.931,0,0,1-2.072.536,3.671,3.671,0,0,1-1.736-.4,2.767,2.767,0,0,1-1.16-1.12V71.52Zm4.1-4.5a2.567,2.567,0,0,0,2.368-1.424,3.668,3.668,0,0,0,0-3.136,2.657,2.657,0,0,0-4.736,0,3.668,3.668,0,0,0,0,3.136,2.567,2.567,0,0,0,2.368,1.424Zm5.96.976V60.064h1.216l.112,1.52a2.877,2.877,0,0,1,1.12-1.248,3.472,3.472,0,0,1,1.856-.464V61.28H258.2a3.321,3.321,0,0,0-1.3.248,1.968,1.968,0,0,0-.944.84A3.2,3.2,0,0,0,255.608,64v4Zm9.128.192a3.99,3.99,0,0,1-2.016-.512,3.7,3.7,0,0,1-1.416-1.448,4.459,4.459,0,0,1-.52-2.2,4.4,4.4,0,0,1,.528-2.2,3.738,3.738,0,0,1,1.432-1.448,4.034,4.034,0,0,1,2.024-.512,3.99,3.99,0,0,1,2.016.512,3.7,3.7,0,0,1,1.416,1.448,4.458,4.458,0,0,1,.52,2.2,4.4,4.4,0,0,1-.528,2.2,3.737,3.737,0,0,1-1.432,1.448A4.034,4.034,0,0,1,263.392,68.192Zm0-1.152a2.55,2.55,0,0,0,1.28-.336,2.506,2.506,0,0,0,.96-1.008A3.428,3.428,0,0,0,266,64.032a3.491,3.491,0,0,0-.36-1.664,2.454,2.454,0,0,0-.952-1.008,2.52,2.52,0,0,0-1.264-.336,2.55,2.55,0,0,0-1.28.336,2.506,2.506,0,0,0-.96,1.008,3.946,3.946,0,0,0,0,3.328,2.525,2.525,0,0,0,.952,1.008A2.477,2.477,0,0,0,263.392,67.04Zm9.512,1.152a4.017,4.017,0,0,1-2.04-.52,3.739,3.739,0,0,1-1.424-1.456,4.846,4.846,0,0,1,0-4.368,3.739,3.739,0,0,1,1.424-1.456,4.017,4.017,0,0,1,2.04-.52,3.811,3.811,0,0,1,2.376.736,3.207,3.207,0,0,1,1.224,1.968h-1.376a1.764,1.764,0,0,0-.784-1.144,2.6,2.6,0,0,0-1.456-.408,2.486,2.486,0,0,0-2.224,1.344,3.946,3.946,0,0,0,0,3.328,2.563,2.563,0,0,0,.96,1.016,2.475,2.475,0,0,0,1.264.344,2.6,2.6,0,0,0,1.456-.408,1.77,1.77,0,0,0,.784-1.16H276.5a3.177,3.177,0,0,1-1.216,1.952A3.789,3.789,0,0,1,272.9,68.192Zm9.048,0a3.887,3.887,0,0,1-2.016-.52,3.692,3.692,0,0,1-1.384-1.448,4.526,4.526,0,0,1-.5-2.192,4.6,4.6,0,0,1,.5-2.184,3.606,3.606,0,0,1,1.384-1.456,3.993,3.993,0,0,1,2.056-.52,3.709,3.709,0,0,1,1.992.52,3.523,3.523,0,0,1,1.288,1.368,3.846,3.846,0,0,1,.448,1.824q0,.176-.008.352t-.008.4h-6.32a3.119,3.119,0,0,0,.424,1.512,2.5,2.5,0,0,0,2.152,1.208,2.4,2.4,0,0,0,1.392-.384,2.2,2.2,0,0,0,.816-1.04h1.328a3.485,3.485,0,0,1-3.536,2.56Zm0-7.184a2.684,2.684,0,0,0-1.7.584,2.353,2.353,0,0,0-.856,1.7h4.992a2.27,2.27,0,0,0-.736-1.68A2.469,2.469,0,0,0,281.952,61.008Zm8.584,7.184a3.792,3.792,0,0,1-2.368-.72,2.807,2.807,0,0,1-1.1-1.952h1.376a1.9,1.9,0,0,0,.664,1.08,2.161,2.161,0,0,0,1.448.456,1.826,1.826,0,0,0,1.248-.36,1.115,1.115,0,0,0,.4-.856.95.95,0,0,0-.52-.96,6.921,6.921,0,0,0-1.464-.432,8.253,8.253,0,0,1-1.28-.368,2.908,2.908,0,0,1-1.072-.68,1.584,1.584,0,0,1-.432-1.16,2.141,2.141,0,0,1,.776-1.7,3.129,3.129,0,0,1,2.1-.664,3.263,3.263,0,0,1,2.072.632,2.522,2.522,0,0,1,.936,1.8h-1.328a1.384,1.384,0,0,0-.52-.952,1.858,1.858,0,0,0-1.176-.344,1.78,1.78,0,0,0-1.112.3.964.964,0,0,0-.392.8.831.831,0,0,0,.5.752,5.411,5.411,0,0,0,1.368.464,11.916,11.916,0,0,1,1.4.392,2.646,2.646,0,0,1,1.088.688,1.87,1.87,0,0,1,.424,1.32,2.168,2.168,0,0,1-.808,1.768A3.348,3.348,0,0,1,290.536,68.192Zm8.008,0a3.792,3.792,0,0,1-2.368-.72,2.807,2.807,0,0,1-1.1-1.952h1.376a1.9,1.9,0,0,0,.664,1.08,2.161,2.161,0,0,0,1.448.456,1.826,1.826,0,0,0,1.248-.36,1.115,1.115,0,0,0,.4-.856.95.95,0,0,0-.52-.96,6.921,6.921,0,0,0-1.464-.432,8.253,8.253,0,0,1-1.28-.368,2.908,2.908,0,0,1-1.072-.68,1.584,1.584,0,0,1-.432-1.16,2.141,2.141,0,0,1,.776-1.7,3.129,3.129,0,0,1,2.1-.664,3.263,3.263,0,0,1,2.072.632,2.522,2.522,0,0,1,.936,1.8H300a1.384,1.384,0,0,0-.52-.952,1.858,1.858,0,0,0-1.176-.344,1.78,1.78,0,0,0-1.112.3.964.964,0,0,0-.392.8.831.831,0,0,0,.5.752,5.411,5.411,0,0,0,1.368.464,11.916,11.916,0,0,1,1.4.392,2.646,2.646,0,0,1,1.088.688,1.87,1.87,0,0,1,.424,1.32,2.168,2.168,0,0,1-.808,1.768A3.348,3.348,0,0,1,298.544,68.192Zm8.536,0a3.887,3.887,0,0,1-2.016-.52,3.692,3.692,0,0,1-1.384-1.448,4.526,4.526,0,0,1-.5-2.192,4.6,4.6,0,0,1,.5-2.184,3.606,3.606,0,0,1,1.384-1.456,3.993,3.993,0,0,1,2.056-.52,3.709,3.709,0,0,1,1.992.52,3.523,3.523,0,0,1,1.288,1.368,3.846,3.846,0,0,1,.448,1.824q0,.176-.008.352t-.008.4H304.5a3.119,3.119,0,0,0,.424,1.512,2.5,2.5,0,0,0,2.152,1.208,2.4,2.4,0,0,0,1.392-.384,2.2,2.2,0,0,0,.816-1.04h1.328a3.485,3.485,0,0,1-3.536,2.56Zm0-7.184a2.684,2.684,0,0,0-1.7.584,2.353,2.353,0,0,0-.856,1.7h4.992a2.27,2.27,0,0,0-.736-1.68A2.469,2.469,0,0,0,307.08,61.008Zm8.584,7.184a3.792,3.792,0,0,1-2.368-.72,2.807,2.807,0,0,1-1.1-1.952h1.376a1.9,1.9,0,0,0,.664,1.08,2.161,2.161,0,0,0,1.448.456,1.826,1.826,0,0,0,1.248-.36,1.115,1.115,0,0,0,.4-.856.95.95,0,0,0-.52-.96,6.921,6.921,0,0,0-1.464-.432,8.253,8.253,0,0,1-1.28-.368,2.908,2.908,0,0,1-1.072-.68,1.584,1.584,0,0,1-.432-1.16,2.141,2.141,0,0,1,.776-1.7,3.129,3.129,0,0,1,2.1-.664,3.263,3.263,0,0,1,2.072.632,2.522,2.522,0,0,1,.936,1.8H317.12a1.384,1.384,0,0,0-.52-.952,1.858,1.858,0,0,0-1.176-.344,1.78,1.78,0,0,0-1.112.3.964.964,0,0,0-.392.8.831.831,0,0,0,.5.752,5.411,5.411,0,0,0,1.368.464,11.916,11.916,0,0,1,1.4.392,2.646,2.646,0,0,1,1.088.688,1.87,1.87,0,0,1,.424,1.32A2.168,2.168,0,0,1,317.9,67.5,3.348,3.348,0,0,1,315.664,68.192ZM1.1,94V82.48H2.448V94ZM5.48,84.3a.9.9,0,0,1-.928-.928.855.855,0,0,1,.264-.64.979.979,0,0,1,1.32,0,.842.842,0,0,1,.272.64.887.887,0,0,1-.272.664A.908.908,0,0,1,5.48,84.3ZM4.808,94V86.064H6.152V94ZM8.5,94V82.48H9.84v6.928l3.248-3.344h1.648l-3.52,3.584L15.184,94H13.472L9.84,89.888V94Zm11.064.192a3.887,3.887,0,0,1-2.016-.52,3.692,3.692,0,0,1-1.384-1.448,4.526,4.526,0,0,1-.5-2.192,4.6,4.6,0,0,1,.5-2.184,3.606,3.606,0,0,1,1.384-1.456,3.993,3.993,0,0,1,2.056-.52,3.708,3.708,0,0,1,1.992.52,3.523,3.523,0,0,1,1.288,1.368,3.846,3.846,0,0,1,.448,1.824q0,.176-.008.352t-.008.4h-6.32a3.118,3.118,0,0,0,.424,1.512,2.5,2.5,0,0,0,2.152,1.208,2.4,2.4,0,0,0,1.392-.384,2.2,2.2,0,0,0,.816-1.04H23.1a3.485,3.485,0,0,1-3.536,2.56Zm0-7.184a2.684,2.684,0,0,0-1.7.584A2.353,2.353,0,0,0,17,89.3h4.992a2.27,2.27,0,0,0-.736-1.68A2.469,2.469,0,0,0,19.56,87.008Zm13.392,7.184a3.887,3.887,0,0,1-2.072-.544A3.7,3.7,0,0,1,29.5,92.16a4.6,4.6,0,0,1-.488-2.144,4.492,4.492,0,0,1,.5-2.136,3.736,3.736,0,0,1,1.376-1.472,3.921,3.921,0,0,1,2.08-.536,3.624,3.624,0,0,1,1.728.4,2.882,2.882,0,0,1,1.168,1.12V82.48h1.344V94H35.992l-.128-1.312a3.716,3.716,0,0,1-1.1,1.04A3.275,3.275,0,0,1,32.952,94.192Zm.144-1.168a2.663,2.663,0,0,0,1.416-.376,2.571,2.571,0,0,0,.96-1.048,3.746,3.746,0,0,0,0-3.136,2.571,2.571,0,0,0-.96-1.048A2.663,2.663,0,0,0,33.1,87.04a2.633,2.633,0,0,0-1.4.376,2.571,2.571,0,0,0-.96,1.048,3.746,3.746,0,0,0,0,3.136,2.571,2.571,0,0,0,.96,1.048A2.633,2.633,0,0,0,33.1,93.024ZM39.408,94V86.064h1.216l.112,1.52a2.877,2.877,0,0,1,1.12-1.248,3.472,3.472,0,0,1,1.856-.464V87.28h-.368a3.321,3.321,0,0,0-1.3.248,1.968,1.968,0,0,0-.944.84A3.2,3.2,0,0,0,40.752,90v4Zm6.632-9.7a.9.9,0,0,1-.928-.928.855.855,0,0,1,.264-.64.979.979,0,0,1,1.32,0,.842.842,0,0,1,.272.64.887.887,0,0,1-.272.664A.908.908,0,0,1,46.04,84.3ZM45.368,94V86.064h1.344V94Zm3.688,0V82.48H50.4V94Zm3.56,0V82.48H53.96V94Zm4.376-9.7a.9.9,0,0,1-.928-.928.855.855,0,0,1,.264-.64.979.979,0,0,1,1.32,0,.842.842,0,0,1,.272.64.887.887,0,0,1-.272.664A.908.908,0,0,1,56.992,84.3ZM56.32,94V86.064h1.344V94Zm3.688,0V86.064h1.216l.08,1.424a2.882,2.882,0,0,1,1.1-1.184,3.11,3.11,0,0,1,1.632-.432,3.007,3.007,0,0,1,2.248.856,3.628,3.628,0,0,1,.84,2.632V94H65.784V89.5q0-2.48-2.048-2.48a2.212,2.212,0,0,0-1.7.744,3.032,3.032,0,0,0-.68,2.12V94Zm12.3-2.5a4.093,4.093,0,0,1-1.232-.176l-.8.752a1.611,1.611,0,0,0,.44.216,4.662,4.662,0,0,0,.76.16q.5.072,1.392.152a3.785,3.785,0,0,1,2.288.736,2.1,2.1,0,0,1,.688,1.632,2.5,2.5,0,0,1-.376,1.312,2.79,2.79,0,0,1-1.152,1.024,4.339,4.339,0,0,1-1.992.4,5.96,5.96,0,0,1-1.9-.28,2.76,2.76,0,0,1-1.3-.848,2.189,2.189,0,0,1-.464-1.432,2.324,2.324,0,0,1,.24-.968,2.588,2.588,0,0,1,.9-.984,3.3,3.3,0,0,1-.6-.312,3.109,3.109,0,0,1-.456-.376v-.368L70.1,90.8a2.632,2.632,0,0,1-.944-2.112,2.805,2.805,0,0,1,.368-1.424,2.632,2.632,0,0,1,1.072-1.016,3.593,3.593,0,0,1,1.712-.376,3.831,3.831,0,0,1,1.248.192H76.48v1.008l-1.488.064a2.664,2.664,0,0,1,.464,1.552,2.759,2.759,0,0,1-.376,1.424,2.7,2.7,0,0,1-1.072,1.016A3.545,3.545,0,0,1,72.3,91.5Zm0-1.1a1.983,1.983,0,0,0,1.352-.44,1.6,1.6,0,0,0,.5-1.272,1.578,1.578,0,0,0-.5-1.256,1.983,1.983,0,0,0-1.352-.44,2.008,2.008,0,0,0-1.368.44,1.578,1.578,0,0,0-.5,1.256,1.6,1.6,0,0,0,.5,1.272A2.008,2.008,0,0,0,72.3,90.4Zm-2.336,4.624a1.29,1.29,0,0,0,.672,1.192,3.291,3.291,0,0,0,1.68.392,2.667,2.667,0,0,0,1.592-.432,1.351,1.351,0,0,0,.6-1.152,1.16,1.16,0,0,0-.416-.888,2.563,2.563,0,0,0-1.536-.44q-.88-.064-1.52-.16a1.97,1.97,0,0,0-.864.76A1.638,1.638,0,0,0,69.968,95.024Zm6.968.88.928-3.536h1.392L77.864,95.9Zm12.416-1.712a3.671,3.671,0,0,1-1.736-.4,2.767,2.767,0,0,1-1.16-1.12L86.328,94H85.112V82.48h1.344v4.9a3.746,3.746,0,0,1,1.1-1.04,3.267,3.267,0,0,1,1.816-.464,3.845,3.845,0,0,1,2.064.544A3.722,3.722,0,0,1,92.8,87.9a4.6,4.6,0,0,1,.488,2.144,4.552,4.552,0,0,1-.488,2.136,3.661,3.661,0,0,1-1.376,1.472A3.931,3.931,0,0,1,89.352,94.192Zm-.144-1.168A2.567,2.567,0,0,0,91.576,91.6a3.668,3.668,0,0,0,0-3.136,2.657,2.657,0,0,0-4.736,0,3.668,3.668,0,0,0,0,3.136,2.567,2.567,0,0,0,2.368,1.424Zm5.96.976V82.48h1.344V94Zm6.2.192a3.6,3.6,0,0,1-1.648-.336,2.284,2.284,0,0,1-.976-.9,2.409,2.409,0,0,1-.32-1.216,2.155,2.155,0,0,1,.928-1.872,4.309,4.309,0,0,1,2.528-.656h2.144v-.1a2.118,2.118,0,0,0-.544-1.576,1.984,1.984,0,0,0-1.456-.536,2.321,2.321,0,0,0-1.352.392,1.717,1.717,0,0,0-.712,1.144H98.584a2.547,2.547,0,0,1,.584-1.456,3.264,3.264,0,0,1,1.256-.9,4.133,4.133,0,0,1,1.6-.312,3,3,0,0,1,3.344,3.248V94h-1.2l-.08-1.424a3.147,3.147,0,0,1-.984,1.144A2.887,2.887,0,0,1,101.368,94.192Zm.208-1.136a2.189,2.189,0,0,0,1.32-.4,2.553,2.553,0,0,0,.84-1.04,3.239,3.239,0,0,0,.288-1.344v-.016h-2.032a2.638,2.638,0,0,0-1.672.408,1.272,1.272,0,0,0-.488,1.016,1.231,1.231,0,0,0,.456,1A1.972,1.972,0,0,0,101.576,93.056Zm8.856,1.136a3.792,3.792,0,0,1-2.368-.72,2.807,2.807,0,0,1-1.1-1.952h1.376A1.9,1.9,0,0,0,109,92.6a2.161,2.161,0,0,0,1.448.456,1.826,1.826,0,0,0,1.248-.36,1.115,1.115,0,0,0,.4-.856.95.95,0,0,0-.52-.96,6.922,6.922,0,0,0-1.464-.432,8.253,8.253,0,0,1-1.28-.368,2.908,2.908,0,0,1-1.072-.68,1.584,1.584,0,0,1-.432-1.16,2.141,2.141,0,0,1,.776-1.7,3.129,3.129,0,0,1,2.1-.664,3.263,3.263,0,0,1,2.072.632,2.522,2.522,0,0,1,.936,1.8h-1.328a1.384,1.384,0,0,0-.52-.952,1.858,1.858,0,0,0-1.176-.344,1.78,1.78,0,0,0-1.112.3.964.964,0,0,0-.392.8.831.831,0,0,0,.5.752,5.411,5.411,0,0,0,1.368.464,11.915,11.915,0,0,1,1.4.392,2.646,2.646,0,0,1,1.088.688,1.87,1.87,0,0,1,.424,1.32,2.168,2.168,0,0,1-.808,1.768A3.348,3.348,0,0,1,110.432,94.192ZM118.184,94a2.568,2.568,0,0,1-1.712-.528,2.4,2.4,0,0,1-.624-1.9V87.2h-1.376V86.064h1.376l.176-1.9h1.168v1.9h2.336V87.2h-2.336v4.368a1.32,1.32,0,0,0,.3,1.016,1.657,1.657,0,0,0,1.072.264h.832V94Zm3.88-9.7a.9.9,0,0,1-.928-.928.855.855,0,0,1,.264-.64.979.979,0,0,1,1.32,0,.842.842,0,0,1,.272.64.887.887,0,0,1-.272.664A.908.908,0,0,1,122.064,84.3Zm-.672,9.7V86.064h1.344V94Zm3.688,0V86.064H126.3l.08,1.424a2.882,2.882,0,0,1,1.1-1.184,3.11,3.11,0,0,1,1.632-.432,3.006,3.006,0,0,1,2.248.856,3.628,3.628,0,0,1,.84,2.632V94h-1.344V89.5q0-2.48-2.048-2.48a2.212,2.212,0,0,0-1.7.744,3.032,3.032,0,0,0-.68,2.12V94Zm12.3-2.5a4.093,4.093,0,0,1-1.232-.176l-.8.752a1.611,1.611,0,0,0,.44.216,4.662,4.662,0,0,0,.76.16q.5.072,1.392.152a3.785,3.785,0,0,1,2.288.736,2.1,2.1,0,0,1,.688,1.632,2.5,2.5,0,0,1-.376,1.312,2.79,2.79,0,0,1-1.152,1.024,4.339,4.339,0,0,1-1.992.4,5.96,5.96,0,0,1-1.9-.28,2.76,2.76,0,0,1-1.3-.848,2.189,2.189,0,0,1-.464-1.432,2.324,2.324,0,0,1,.24-.968,2.588,2.588,0,0,1,.9-.984,3.3,3.3,0,0,1-.6-.312,3.109,3.109,0,0,1-.456-.376v-.368l1.36-1.344a2.632,2.632,0,0,1-.944-2.112,2.805,2.805,0,0,1,.368-1.424,2.632,2.632,0,0,1,1.072-1.016,3.593,3.593,0,0,1,1.712-.376,3.831,3.831,0,0,1,1.248.192h2.928v1.008l-1.488.064a2.664,2.664,0,0,1,.464,1.552,2.759,2.759,0,0,1-.376,1.424,2.7,2.7,0,0,1-1.072,1.016A3.545,3.545,0,0,1,137.376,91.5Zm0-1.1a1.983,1.983,0,0,0,1.352-.44,1.6,1.6,0,0,0,.5-1.272,1.578,1.578,0,0,0-.5-1.256,1.983,1.983,0,0,0-1.352-.44,2.008,2.008,0,0,0-1.368.44,1.578,1.578,0,0,0-.5,1.256,1.6,1.6,0,0,0,.5,1.272A2.008,2.008,0,0,0,137.376,90.4Zm-2.336,4.624a1.29,1.29,0,0,0,.672,1.192,3.291,3.291,0,0,0,1.68.392,2.667,2.667,0,0,0,1.592-.432,1.351,1.351,0,0,0,.6-1.152,1.16,1.16,0,0,0-.416-.888,2.563,2.563,0,0,0-1.536-.44q-.88-.064-1.52-.16a1.97,1.97,0,0,0-.864.76A1.638,1.638,0,0,0,135.04,95.024Zm6.968.88.928-3.536h1.392L142.936,95.9Zm11.568-1.712a4.576,4.576,0,0,1-2.024-.424,3.362,3.362,0,0,1-1.184-5.008,4.391,4.391,0,0,1,1.928-1.4,4.334,4.334,0,0,1-.784-1.128,2.806,2.806,0,0,1-.24-1.16,2.292,2.292,0,0,1,.76-1.768,2.975,2.975,0,0,1,2.088-.7,3.257,3.257,0,0,1,1.5.328,2.434,2.434,0,0,1,.992.9,2.269,2.269,0,0,1,.32,1.312h-1.328a1.276,1.276,0,0,0-.44-1.088,1.622,1.622,0,0,0-1.048-.368,1.551,1.551,0,0,0-1.12.384,1.3,1.3,0,0,0-.4.976,1.944,1.944,0,0,0,.28.992,6.091,6.091,0,0,0,.84,1.072l3.536,3.568q.464-.672,1.008-1.616l.5-.864h1.424l-.7,1.248a18.414,18.414,0,0,1-1.344,2.112L160.552,94h-1.7l-1.488-1.5a5.3,5.3,0,0,1-1.76,1.3A5.1,5.1,0,0,1,153.576,94.192Zm-2.528-3.456a2.158,2.158,0,0,0,.7,1.648,2.591,2.591,0,0,0,1.84.656,3.577,3.577,0,0,0,1.544-.328,4.391,4.391,0,0,0,1.368-1.08l-3.392-3.44a3.62,3.62,0,0,0-1.56,1.056A2.336,2.336,0,0,0,151.048,90.736Zm18.672,3.456a3.887,3.887,0,0,1-2.016-.52,3.692,3.692,0,0,1-1.384-1.448,4.526,4.526,0,0,1-.5-2.192,4.6,4.6,0,0,1,.5-2.184,3.606,3.606,0,0,1,1.384-1.456,3.993,3.993,0,0,1,2.056-.52,3.708,3.708,0,0,1,1.992.52,3.523,3.523,0,0,1,1.288,1.368,3.846,3.846,0,0,1,.448,1.824q0,.176-.008.352t-.008.4h-6.32a3.118,3.118,0,0,0,.424,1.512,2.5,2.5,0,0,0,2.152,1.208,2.4,2.4,0,0,0,1.392-.384,2.2,2.2,0,0,0,.816-1.04h1.328a3.485,3.485,0,0,1-3.536,2.56Zm0-7.184a2.684,2.684,0,0,0-1.7.584,2.353,2.353,0,0,0-.856,1.7h4.992a2.27,2.27,0,0,0-.736-1.68A2.469,2.469,0,0,0,169.72,87.008ZM174.1,94l2.752-3.968L174.1,86.064h1.456l2.224,3.28,2.24-3.28h1.44L178.7,90.032,181.456,94h-1.44l-2.24-3.28L175.552,94Zm12.088.192a4.017,4.017,0,0,1-2.04-.52,3.738,3.738,0,0,1-1.424-1.456,4.846,4.846,0,0,1,0-4.368,3.738,3.738,0,0,1,1.424-1.456,4.017,4.017,0,0,1,2.04-.52,3.811,3.811,0,0,1,2.376.736,3.207,3.207,0,0,1,1.224,1.968h-1.376a1.764,1.764,0,0,0-.784-1.144,2.6,2.6,0,0,0-1.456-.408,2.486,2.486,0,0,0-2.224,1.344,3.946,3.946,0,0,0,0,3.328,2.564,2.564,0,0,0,.96,1.016,2.475,2.475,0,0,0,1.264.344,2.6,2.6,0,0,0,1.456-.408,1.771,1.771,0,0,0,.784-1.16h1.376a3.177,3.177,0,0,1-1.216,1.952A3.789,3.789,0,0,1,186.184,94.192Zm8.12,0a3.6,3.6,0,0,1-1.648-.336,2.284,2.284,0,0,1-.976-.9,2.409,2.409,0,0,1-.32-1.216,2.155,2.155,0,0,1,.928-1.872,4.309,4.309,0,0,1,2.528-.656h2.144v-.1a2.118,2.118,0,0,0-.544-1.576,1.984,1.984,0,0,0-1.456-.536,2.321,2.321,0,0,0-1.352.392,1.717,1.717,0,0,0-.712,1.144H191.52a2.547,2.547,0,0,1,.584-1.456,3.264,3.264,0,0,1,1.256-.9,4.133,4.133,0,0,1,1.6-.312A3,3,0,0,1,198.3,89.12V94h-1.2l-.08-1.424a3.147,3.147,0,0,1-.984,1.144A2.887,2.887,0,0,1,194.3,94.192Zm.208-1.136a2.189,2.189,0,0,0,1.32-.4,2.553,2.553,0,0,0,.84-1.04,3.239,3.239,0,0,0,.288-1.344v-.016h-2.032a2.638,2.638,0,0,0-1.672.408,1.272,1.272,0,0,0-.488,1.016,1.231,1.231,0,0,0,.456,1A1.972,1.972,0,0,0,194.512,93.056Zm7.8.944L199.3,86.064h1.408L203.1,92.7l2.4-6.64h1.376L203.864,94Zm8.3.192a3.6,3.6,0,0,1-1.648-.336,2.284,2.284,0,0,1-.976-.9,2.409,2.409,0,0,1-.32-1.216,2.155,2.155,0,0,1,.928-1.872,4.309,4.309,0,0,1,2.528-.656h2.144v-.1a2.118,2.118,0,0,0-.544-1.576,1.984,1.984,0,0,0-1.456-.536,2.321,2.321,0,0,0-1.352.392,1.717,1.717,0,0,0-.712,1.144h-1.376a2.547,2.547,0,0,1,.584-1.456,3.264,3.264,0,0,1,1.256-.9,4.133,4.133,0,0,1,1.6-.312,3,3,0,0,1,3.344,3.248V94h-1.2l-.08-1.424a3.147,3.147,0,0,1-.984,1.144A2.887,2.887,0,0,1,210.608,94.192Zm.208-1.136a2.189,2.189,0,0,0,1.32-.4,2.553,2.553,0,0,0,.84-1.04,3.239,3.239,0,0,0,.288-1.344v-.016h-2.032a2.638,2.638,0,0,0-1.672.408,1.272,1.272,0,0,0-.488,1.016,1.231,1.231,0,0,0,.456,1A1.972,1.972,0,0,0,210.816,93.056Zm8.728.944a2.568,2.568,0,0,1-1.712-.528,2.4,2.4,0,0,1-.624-1.9V87.2h-1.376V86.064h1.376l.176-1.9h1.168v1.9h2.336V87.2h-2.336v4.368a1.32,1.32,0,0,0,.3,1.016,1.657,1.657,0,0,0,1.072.264h.832V94Zm3.88-9.7a.9.9,0,0,1-.928-.928.855.855,0,0,1,.264-.64.979.979,0,0,1,1.32,0,.842.842,0,0,1,.272.64.887.887,0,0,1-.272.664A.908.908,0,0,1,223.424,84.3Zm-.672,9.7V86.064H224.1V94Zm7.3.192a3.99,3.99,0,0,1-2.016-.512,3.7,3.7,0,0,1-1.416-1.448,4.459,4.459,0,0,1-.52-2.2,4.4,4.4,0,0,1,.528-2.2,3.737,3.737,0,0,1,1.432-1.448,4.034,4.034,0,0,1,2.024-.512,3.99,3.99,0,0,1,2.016.512,3.7,3.7,0,0,1,1.416,1.448,4.459,4.459,0,0,1,.52,2.2,4.4,4.4,0,0,1-.528,2.2,3.737,3.737,0,0,1-1.432,1.448A4.034,4.034,0,0,1,230.056,94.192Zm0-1.152a2.55,2.55,0,0,0,1.28-.336,2.506,2.506,0,0,0,.96-1.008,3.428,3.428,0,0,0,.368-1.664,3.491,3.491,0,0,0-.36-1.664,2.454,2.454,0,0,0-.952-1.008,2.52,2.52,0,0,0-1.264-.336,2.55,2.55,0,0,0-1.28.336,2.506,2.506,0,0,0-.96,1.008,3.946,3.946,0,0,0,0,3.328A2.525,2.525,0,0,0,228.8,92.7,2.477,2.477,0,0,0,230.056,93.04Zm5.864.96V86.064h1.216l.08,1.424a2.882,2.882,0,0,1,1.1-1.184,3.11,3.11,0,0,1,1.632-.432,3.006,3.006,0,0,1,2.248.856,3.628,3.628,0,0,1,.84,2.632V94H241.7V89.5q0-2.48-2.048-2.48a2.212,2.212,0,0,0-1.7.744,3.032,3.032,0,0,0-.68,2.12V94Zm16.544,0a2.568,2.568,0,0,1-1.712-.528,2.4,2.4,0,0,1-.624-1.9V87.2h-1.376V86.064h1.376l.176-1.9h1.168v1.9h2.336V87.2h-2.336v4.368a1.32,1.32,0,0,0,.3,1.016,1.657,1.657,0,0,0,1.072.264h.832V94Zm6.456.192a3.99,3.99,0,0,1-2.016-.512,3.7,3.7,0,0,1-1.416-1.448,4.459,4.459,0,0,1-.52-2.2,4.4,4.4,0,0,1,.528-2.2,3.737,3.737,0,0,1,1.432-1.448,4.034,4.034,0,0,1,2.024-.512,3.99,3.99,0,0,1,2.016.512,3.7,3.7,0,0,1,1.416,1.448,4.459,4.459,0,0,1,.52,2.2,4.4,4.4,0,0,1-.528,2.2,3.738,3.738,0,0,1-1.432,1.448A4.034,4.034,0,0,1,258.92,94.192Zm0-1.152a2.55,2.55,0,0,0,1.28-.336,2.506,2.506,0,0,0,.96-1.008,3.428,3.428,0,0,0,.368-1.664,3.491,3.491,0,0,0-.36-1.664,2.455,2.455,0,0,0-.952-1.008,2.52,2.52,0,0,0-1.264-.336,2.55,2.55,0,0,0-1.28.336,2.506,2.506,0,0,0-.96,1.008,3.946,3.946,0,0,0,0,3.328,2.524,2.524,0,0,0,.952,1.008A2.477,2.477,0,0,0,258.92,93.04Zm13.728,1.152a3.99,3.99,0,0,1-2.016-.512,3.7,3.7,0,0,1-1.416-1.448,4.459,4.459,0,0,1-.52-2.2,4.4,4.4,0,0,1,.528-2.2,3.738,3.738,0,0,1,1.432-1.448,4.034,4.034,0,0,1,2.024-.512,3.99,3.99,0,0,1,2.016.512,3.7,3.7,0,0,1,1.416,1.448,4.458,4.458,0,0,1,.52,2.2,4.4,4.4,0,0,1-.528,2.2,3.737,3.737,0,0,1-1.432,1.448A4.034,4.034,0,0,1,272.648,94.192Zm0-1.152a2.55,2.55,0,0,0,1.28-.336,2.506,2.506,0,0,0,.96-1.008,3.428,3.428,0,0,0,.368-1.664,3.491,3.491,0,0,0-.36-1.664,2.454,2.454,0,0,0-.952-1.008,2.52,2.52,0,0,0-1.264-.336,2.55,2.55,0,0,0-1.28.336,2.506,2.506,0,0,0-.96,1.008,3.946,3.946,0,0,0,0,3.328,2.525,2.525,0,0,0,.952,1.008A2.477,2.477,0,0,0,272.648,93.04Zm10.1,1.152a3.671,3.671,0,0,1-1.736-.4,2.766,2.766,0,0,1-1.16-1.12L279.728,94h-1.216V82.48h1.344v4.9a3.746,3.746,0,0,1,1.1-1.04,3.267,3.267,0,0,1,1.816-.464,3.845,3.845,0,0,1,2.064.544A3.722,3.722,0,0,1,286.2,87.9a4.6,4.6,0,0,1,.488,2.144,4.552,4.552,0,0,1-.488,2.136,3.661,3.661,0,0,1-1.376,1.472A3.931,3.931,0,0,1,282.752,94.192Zm-.144-1.168a2.567,2.567,0,0,0,2.368-1.424,3.668,3.668,0,0,0,0-3.136,2.657,2.657,0,0,0-4.736,0,3.668,3.668,0,0,0,0,3.136,2.567,2.567,0,0,0,2.368,1.424Zm8.776.976a2.568,2.568,0,0,1-1.712-.528,2.4,2.4,0,0,1-.624-1.9V87.2h-1.376V86.064h1.376l.176-1.9h1.168v1.9h2.336V87.2h-2.336v4.368a1.32,1.32,0,0,0,.3,1.016,1.657,1.657,0,0,0,1.072.264h.832V94Zm5.7.192a3.6,3.6,0,0,1-1.648-.336,2.284,2.284,0,0,1-.976-.9,2.409,2.409,0,0,1-.32-1.216,2.155,2.155,0,0,1,.928-1.872,4.309,4.309,0,0,1,2.528-.656h2.144v-.1a2.118,2.118,0,0,0-.544-1.576,1.984,1.984,0,0,0-1.456-.536,2.321,2.321,0,0,0-1.352.392,1.717,1.717,0,0,0-.712,1.144H294.3a2.547,2.547,0,0,1,.584-1.456,3.264,3.264,0,0,1,1.256-.9,4.133,4.133,0,0,1,1.6-.312,3,3,0,0,1,3.344,3.248V94h-1.2l-.08-1.424a3.148,3.148,0,0,1-.984,1.144A2.887,2.887,0,0,1,297.088,94.192Zm.208-1.136a2.189,2.189,0,0,0,1.32-.4,2.553,2.553,0,0,0,.84-1.04,3.239,3.239,0,0,0,.288-1.344v-.016h-2.032a2.638,2.638,0,0,0-1.672.408,1.272,1.272,0,0,0-.488,1.016,1.231,1.231,0,0,0,.456,1A1.972,1.972,0,0,0,297.3,93.056Zm6.632-8.752a.9.9,0,0,1-.928-.928.855.855,0,0,1,.264-.64.979.979,0,0,1,1.32,0,.842.842,0,0,1,.272.64.887.887,0,0,1-.272.664A.908.908,0,0,1,303.928,84.3Zm-.672,9.7V86.064H304.6V94Zm3.688,0V86.064h1.216l.08,1.424a2.882,2.882,0,0,1,1.1-1.184,3.11,3.11,0,0,1,1.632-.432,3.006,3.006,0,0,1,2.248.856,3.628,3.628,0,0,1,.84,2.632V94H312.72V89.5q0-2.48-2.048-2.48a2.212,2.212,0,0,0-1.7.744,3.032,3.032,0,0,0-.68,2.12V94ZM4.72,120.192A3.99,3.99,0,0,1,2.7,119.68a3.7,3.7,0,0,1-1.416-1.448,4.459,4.459,0,0,1-.52-2.2,4.4,4.4,0,0,1,.528-2.2,3.737,3.737,0,0,1,1.432-1.448,4.034,4.034,0,0,1,2.024-.512,3.99,3.99,0,0,1,2.016.512,3.7,3.7,0,0,1,1.416,1.448,4.459,4.459,0,0,1,.52,2.2,4.4,4.4,0,0,1-.528,2.2,3.737,3.737,0,0,1-1.432,1.448A4.034,4.034,0,0,1,4.72,120.192Zm0-1.152A2.55,2.55,0,0,0,6,118.7a2.506,2.506,0,0,0,.96-1.008,3.428,3.428,0,0,0,.368-1.664,3.491,3.491,0,0,0-.36-1.664,2.454,2.454,0,0,0-.952-1.008,2.52,2.52,0,0,0-1.264-.336,2.55,2.55,0,0,0-1.28.336,2.506,2.506,0,0,0-.96,1.008,3.946,3.946,0,0,0,0,3.328,2.525,2.525,0,0,0,.952,1.008A2.477,2.477,0,0,0,4.72,119.04Zm5.864.96v-7.936H11.8l.112,1.52a2.877,2.877,0,0,1,1.12-1.248,3.472,3.472,0,0,1,1.856-.464v1.408H14.52a3.321,3.321,0,0,0-1.3.248,1.968,1.968,0,0,0-.944.84A3.2,3.2,0,0,0,11.928,116v4Zm9.08.192a3.887,3.887,0,0,1-2.016-.52,3.692,3.692,0,0,1-1.384-1.448,4.526,4.526,0,0,1-.5-2.192,4.6,4.6,0,0,1,.5-2.184,3.606,3.606,0,0,1,1.384-1.456,3.993,3.993,0,0,1,2.056-.52,3.708,3.708,0,0,1,1.992.52,3.523,3.523,0,0,1,1.288,1.368,3.846,3.846,0,0,1,.448,1.824q0,.176-.008.352t-.008.4h-6.32a3.118,3.118,0,0,0,.424,1.512,2.5,2.5,0,0,0,2.152,1.208,2.4,2.4,0,0,0,1.392-.384,2.2,2.2,0,0,0,.816-1.04H23.2a3.485,3.485,0,0,1-3.536,2.56Zm0-7.184a2.684,2.684,0,0,0-1.7.584,2.353,2.353,0,0,0-.856,1.7H22.1a2.27,2.27,0,0,0-.736-1.68A2.469,2.469,0,0,0,19.664,113.008Zm8.584,7.184a3.792,3.792,0,0,1-2.368-.72,2.807,2.807,0,0,1-1.1-1.952h1.376a1.9,1.9,0,0,0,.664,1.08,2.161,2.161,0,0,0,1.448.456,1.826,1.826,0,0,0,1.248-.36,1.115,1.115,0,0,0,.4-.856.95.95,0,0,0-.52-.96,6.922,6.922,0,0,0-1.464-.432,8.253,8.253,0,0,1-1.28-.368,2.908,2.908,0,0,1-1.072-.68,1.584,1.584,0,0,1-.432-1.16,2.141,2.141,0,0,1,.776-1.7,3.129,3.129,0,0,1,2.1-.664,3.263,3.263,0,0,1,2.072.632,2.522,2.522,0,0,1,.936,1.8H29.7a1.384,1.384,0,0,0-.52-.952,1.858,1.858,0,0,0-1.176-.344,1.78,1.78,0,0,0-1.112.3.964.964,0,0,0-.392.8.831.831,0,0,0,.5.752,5.411,5.411,0,0,0,1.368.464,11.915,11.915,0,0,1,1.4.392,2.646,2.646,0,0,1,1.088.688,1.87,1.87,0,0,1,.424,1.32,2.168,2.168,0,0,1-.808,1.768A3.348,3.348,0,0,1,28.248,120.192Zm3.9,1.712.928-3.536h1.392L33.072,121.9Zm11.824-1.712a4.017,4.017,0,0,1-2.04-.52,3.738,3.738,0,0,1-1.424-1.456,4.846,4.846,0,0,1,0-4.368,3.738,3.738,0,0,1,1.424-1.456,4.017,4.017,0,0,1,2.04-.52,3.811,3.811,0,0,1,2.376.736,3.207,3.207,0,0,1,1.224,1.968H46.192a1.764,1.764,0,0,0-.784-1.144,2.6,2.6,0,0,0-1.456-.408,2.486,2.486,0,0,0-2.224,1.344,3.946,3.946,0,0,0,0,3.328,2.564,2.564,0,0,0,.96,1.016,2.475,2.475,0,0,0,1.264.344,2.6,2.6,0,0,0,1.456-.408,1.771,1.771,0,0,0,.784-1.16h1.376a3.177,3.177,0,0,1-1.216,1.952A3.789,3.789,0,0,1,43.968,120.192Zm9.1,0a3.99,3.99,0,0,1-2.016-.512,3.7,3.7,0,0,1-1.416-1.448,4.459,4.459,0,0,1-.52-2.2,4.4,4.4,0,0,1,.528-2.2,3.737,3.737,0,0,1,1.432-1.448,4.034,4.034,0,0,1,2.024-.512,3.99,3.99,0,0,1,2.016.512,3.7,3.7,0,0,1,1.416,1.448,4.459,4.459,0,0,1,.52,2.2,4.4,4.4,0,0,1-.528,2.2,3.737,3.737,0,0,1-1.432,1.448A4.034,4.034,0,0,1,53.064,120.192Zm0-1.152a2.55,2.55,0,0,0,1.28-.336,2.506,2.506,0,0,0,.96-1.008,3.428,3.428,0,0,0,.368-1.664,3.491,3.491,0,0,0-.36-1.664,2.455,2.455,0,0,0-.952-1.008,2.52,2.52,0,0,0-1.264-.336,2.55,2.55,0,0,0-1.28.336,2.506,2.506,0,0,0-.96,1.008,3.946,3.946,0,0,0,0,3.328,2.525,2.525,0,0,0,.952,1.008A2.477,2.477,0,0,0,53.064,119.04Zm8.5,1.152a3.6,3.6,0,0,1-1.648-.336,2.284,2.284,0,0,1-.976-.9,2.409,2.409,0,0,1-.32-1.216,2.155,2.155,0,0,1,.928-1.872,4.309,4.309,0,0,1,2.528-.656h2.144v-.1a2.118,2.118,0,0,0-.544-1.576,1.984,1.984,0,0,0-1.456-.536,2.321,2.321,0,0,0-1.352.392,1.717,1.717,0,0,0-.712,1.144H58.784a2.547,2.547,0,0,1,.584-1.456,3.264,3.264,0,0,1,1.256-.9,4.133,4.133,0,0,1,1.6-.312,3,3,0,0,1,3.344,3.248V120h-1.2l-.08-1.424a3.147,3.147,0,0,1-.984,1.144A2.887,2.887,0,0,1,61.568,120.192Zm.208-1.136a2.189,2.189,0,0,0,1.32-.4,2.553,2.553,0,0,0,.84-1.04,3.239,3.239,0,0,0,.288-1.344v-.016H62.192a2.638,2.638,0,0,0-1.672.408,1.272,1.272,0,0,0-.488,1.016,1.231,1.231,0,0,0,.456,1A1.972,1.972,0,0,0,61.776,119.056Zm5.816.944V108.48h1.344V120Zm2.488,1.9.928-3.536H72.4L71.008,121.9Zm8.176,1.616V112.064h1.216l.128,1.312a3.746,3.746,0,0,1,1.1-1.04,3.267,3.267,0,0,1,1.816-.464,3.845,3.845,0,0,1,2.064.544,3.722,3.722,0,0,1,1.368,1.488,4.6,4.6,0,0,1,.488,2.144,4.552,4.552,0,0,1-.488,2.136,3.661,3.661,0,0,1-1.376,1.472,3.931,3.931,0,0,1-2.072.536,3.671,3.671,0,0,1-1.736-.4,2.767,2.767,0,0,1-1.16-1.12v4.848Zm4.1-4.5A2.567,2.567,0,0,0,84.72,117.6a3.668,3.668,0,0,0,0-3.136,2.657,2.657,0,0,0-4.736,0,3.668,3.668,0,0,0,0,3.136,2.567,2.567,0,0,0,2.368,1.424Zm5.96.976v-7.936h1.216l.112,1.52a2.877,2.877,0,0,1,1.12-1.248,3.472,3.472,0,0,1,1.856-.464v1.408h-.368a3.321,3.321,0,0,0-1.3.248,1.968,1.968,0,0,0-.944.84A3.2,3.2,0,0,0,89.656,116v4Zm9.08.192a3.887,3.887,0,0,1-2.016-.52,3.692,3.692,0,0,1-1.384-1.448,4.526,4.526,0,0,1-.5-2.192,4.6,4.6,0,0,1,.5-2.184,3.606,3.606,0,0,1,1.384-1.456,3.993,3.993,0,0,1,2.056-.52,3.708,3.708,0,0,1,1.992.52,3.523,3.523,0,0,1,1.288,1.368,3.846,3.846,0,0,1,.448,1.824q0,.176-.008.352t-.008.4h-6.32a3.118,3.118,0,0,0,.424,1.512,2.5,2.5,0,0,0,2.152,1.208,2.4,2.4,0,0,0,1.392-.384,2.2,2.2,0,0,0,.816-1.04h1.328a3.485,3.485,0,0,1-3.536,2.56Zm0-7.184a2.684,2.684,0,0,0-1.7.584,2.353,2.353,0,0,0-.856,1.7h4.992a2.27,2.27,0,0,0-.736-1.68A2.469,2.469,0,0,0,97.392,113.008Zm9.192,7.184a4.017,4.017,0,0,1-2.04-.52,3.738,3.738,0,0,1-1.424-1.456,4.846,4.846,0,0,1,0-4.368,3.738,3.738,0,0,1,1.424-1.456,4.017,4.017,0,0,1,2.04-.52,3.811,3.811,0,0,1,2.376.736,3.207,3.207,0,0,1,1.224,1.968h-1.376a1.764,1.764,0,0,0-.784-1.144,2.6,2.6,0,0,0-1.456-.408,2.486,2.486,0,0,0-2.224,1.344,3.946,3.946,0,0,0,0,3.328,2.564,2.564,0,0,0,.96,1.016,2.475,2.475,0,0,0,1.264.344,2.6,2.6,0,0,0,1.456-.408,1.77,1.77,0,0,0,.784-1.16h1.376a3.177,3.177,0,0,1-1.216,1.952A3.789,3.789,0,0,1,106.584,120.192Zm6.3-9.888a.9.9,0,0,1-.928-.928.855.855,0,0,1,.264-.64.979.979,0,0,1,1.32,0,.842.842,0,0,1,.272.64.887.887,0,0,1-.272.664A.908.908,0,0,1,112.88,110.3Zm-.672,9.7v-7.936h1.344V120Zm7.3.192a3.99,3.99,0,0,1-2.016-.512,3.7,3.7,0,0,1-1.416-1.448,4.458,4.458,0,0,1-.52-2.2,4.4,4.4,0,0,1,.528-2.2,3.737,3.737,0,0,1,1.432-1.448,4.034,4.034,0,0,1,2.024-.512,3.99,3.99,0,0,1,2.016.512,3.7,3.7,0,0,1,1.416,1.448,4.458,4.458,0,0,1,.52,2.2,4.4,4.4,0,0,1-.528,2.2,3.737,3.737,0,0,1-1.432,1.448A4.034,4.034,0,0,1,119.512,120.192Zm0-1.152a2.55,2.55,0,0,0,1.28-.336,2.506,2.506,0,0,0,.96-1.008,3.428,3.428,0,0,0,.368-1.664,3.491,3.491,0,0,0-.36-1.664,2.454,2.454,0,0,0-.952-1.008,2.52,2.52,0,0,0-1.264-.336,2.55,2.55,0,0,0-1.28.336,2.506,2.506,0,0,0-.96,1.008,3.946,3.946,0,0,0,0,3.328,2.524,2.524,0,0,0,.952,1.008A2.477,2.477,0,0,0,119.512,119.04Zm8.76,1.152a2.98,2.98,0,0,1-2.24-.856,3.65,3.65,0,0,1-.832-2.632v-4.64h1.344v4.5q0,2.48,2.032,2.48a2.23,2.23,0,0,0,1.72-.744,3.032,3.032,0,0,0,.68-2.12v-4.112h1.344V120H131.1l-.1-1.424a2.763,2.763,0,0,1-1.1,1.184A3.152,3.152,0,0,1,128.272,120.192Zm9.3,0a3.792,3.792,0,0,1-2.368-.72,2.807,2.807,0,0,1-1.1-1.952h1.376a1.9,1.9,0,0,0,.664,1.08,2.161,2.161,0,0,0,1.448.456,1.826,1.826,0,0,0,1.248-.36,1.115,1.115,0,0,0,.4-.856.95.95,0,0,0-.52-.96,6.921,6.921,0,0,0-1.464-.432,8.253,8.253,0,0,1-1.28-.368,2.908,2.908,0,0,1-1.072-.68,1.584,1.584,0,0,1-.432-1.16,2.141,2.141,0,0,1,.776-1.7,3.129,3.129,0,0,1,2.1-.664,3.263,3.263,0,0,1,2.072.632,2.522,2.522,0,0,1,.936,1.8h-1.328a1.384,1.384,0,0,0-.52-.952,1.858,1.858,0,0,0-1.176-.344,1.78,1.78,0,0,0-1.112.3.964.964,0,0,0-.392.8.831.831,0,0,0,.5.752,5.411,5.411,0,0,0,1.368.464,11.916,11.916,0,0,1,1.4.392,2.646,2.646,0,0,1,1.088.688,1.87,1.87,0,0,1,.424,1.32,2.168,2.168,0,0,1-.808,1.768A3.348,3.348,0,0,1,137.576,120.192Zm12.256,0a3.792,3.792,0,0,1-2.368-.72,2.807,2.807,0,0,1-1.1-1.952h1.376a1.9,1.9,0,0,0,.664,1.08,2.161,2.161,0,0,0,1.448.456,1.826,1.826,0,0,0,1.248-.36,1.115,1.115,0,0,0,.4-.856.95.95,0,0,0-.52-.96,6.921,6.921,0,0,0-1.464-.432,8.253,8.253,0,0,1-1.28-.368,2.908,2.908,0,0,1-1.072-.68,1.584,1.584,0,0,1-.432-1.16,2.141,2.141,0,0,1,.776-1.7,3.129,3.129,0,0,1,2.1-.664,3.263,3.263,0,0,1,2.072.632,2.522,2.522,0,0,1,.936,1.8h-1.328a1.384,1.384,0,0,0-.52-.952,1.858,1.858,0,0,0-1.176-.344,1.78,1.78,0,0,0-1.112.3.964.964,0,0,0-.392.8.831.831,0,0,0,.5.752,5.411,5.411,0,0,0,1.368.464,11.916,11.916,0,0,1,1.4.392,2.646,2.646,0,0,1,1.088.688,1.87,1.87,0,0,1,.424,1.32,2.168,2.168,0,0,1-.808,1.768A3.348,3.348,0,0,1,149.832,120.192Zm7.752-.192a2.568,2.568,0,0,1-1.712-.528,2.4,2.4,0,0,1-.624-1.9V113.2h-1.376v-1.136h1.376l.176-1.9h1.168v1.9h2.336V113.2h-2.336v4.368a1.32,1.32,0,0,0,.3,1.016,1.657,1.657,0,0,0,1.072.264h.832V120Zm6.456.192a3.99,3.99,0,0,1-2.016-.512,3.7,3.7,0,0,1-1.416-1.448,4.459,4.459,0,0,1-.52-2.2,4.4,4.4,0,0,1,.528-2.2,3.737,3.737,0,0,1,1.432-1.448,4.034,4.034,0,0,1,2.024-.512,3.99,3.99,0,0,1,2.016.512,3.7,3.7,0,0,1,1.416,1.448,4.459,4.459,0,0,1,.52,2.2,4.4,4.4,0,0,1-.528,2.2,3.737,3.737,0,0,1-1.432,1.448A4.034,4.034,0,0,1,164.04,120.192Zm0-1.152a2.55,2.55,0,0,0,1.28-.336,2.506,2.506,0,0,0,.96-1.008,3.428,3.428,0,0,0,.368-1.664,3.491,3.491,0,0,0-.36-1.664,2.454,2.454,0,0,0-.952-1.008,2.52,2.52,0,0,0-1.264-.336,2.55,2.55,0,0,0-1.28.336,2.506,2.506,0,0,0-.96,1.008,3.946,3.946,0,0,0,0,3.328,2.525,2.525,0,0,0,.952,1.008A2.477,2.477,0,0,0,164.04,119.04Zm5.864.96v-7.936h1.216l.08,1.424a2.882,2.882,0,0,1,1.1-1.184,3.11,3.11,0,0,1,1.632-.432,3.006,3.006,0,0,1,2.248.856,3.628,3.628,0,0,1,.84,2.632V120H175.68v-4.5q0-2.48-2.048-2.48a2.212,2.212,0,0,0-1.7.744,3.032,3.032,0,0,0-.68,2.12V120Zm12.728.192a3.887,3.887,0,0,1-2.016-.52,3.692,3.692,0,0,1-1.384-1.448,4.526,4.526,0,0,1-.5-2.192,4.6,4.6,0,0,1,.5-2.184,3.606,3.606,0,0,1,1.384-1.456,3.993,3.993,0,0,1,2.056-.52,3.708,3.708,0,0,1,1.992.52,3.523,3.523,0,0,1,1.288,1.368,3.846,3.846,0,0,1,.448,1.824q0,.176-.008.352t-.008.4h-6.32a3.118,3.118,0,0,0,.424,1.512,2.5,2.5,0,0,0,2.152,1.208,2.4,2.4,0,0,0,1.392-.384,2.2,2.2,0,0,0,.816-1.04h1.328a3.485,3.485,0,0,1-3.536,2.56Zm0-7.184a2.684,2.684,0,0,0-1.7.584,2.353,2.353,0,0,0-.856,1.7h4.992a2.27,2.27,0,0,0-.736-1.68A2.469,2.469,0,0,0,182.632,113.008Zm8.584,7.184a3.792,3.792,0,0,1-2.368-.72,2.807,2.807,0,0,1-1.1-1.952h1.376a1.9,1.9,0,0,0,.664,1.08,2.161,2.161,0,0,0,1.448.456,1.826,1.826,0,0,0,1.248-.36,1.115,1.115,0,0,0,.4-.856.95.95,0,0,0-.52-.96,6.921,6.921,0,0,0-1.464-.432,8.253,8.253,0,0,1-1.28-.368,2.908,2.908,0,0,1-1.072-.68,1.584,1.584,0,0,1-.432-1.16,2.141,2.141,0,0,1,.776-1.7,3.129,3.129,0,0,1,2.1-.664,3.263,3.263,0,0,1,2.072.632,2.522,2.522,0,0,1,.936,1.8h-1.328a1.384,1.384,0,0,0-.52-.952,1.858,1.858,0,0,0-1.176-.344,1.78,1.78,0,0,0-1.112.3.964.964,0,0,0-.392.8.831.831,0,0,0,.5.752,5.411,5.411,0,0,0,1.368.464,11.916,11.916,0,0,1,1.4.392,2.646,2.646,0,0,1,1.088.688,1.87,1.87,0,0,1,.424,1.32,2.168,2.168,0,0,1-.808,1.768A3.348,3.348,0,0,1,191.216,120.192Zm3.9,1.712.928-3.536h1.392L196.04,121.9Zm11.568-1.712a4.576,4.576,0,0,1-2.024-.424,3.362,3.362,0,0,1-1.184-5.008,4.391,4.391,0,0,1,1.928-1.4,4.334,4.334,0,0,1-.784-1.128,2.806,2.806,0,0,1-.24-1.16,2.292,2.292,0,0,1,.76-1.768,2.975,2.975,0,0,1,2.088-.7,3.257,3.257,0,0,1,1.5.328,2.434,2.434,0,0,1,.992.9,2.269,2.269,0,0,1,.32,1.312h-1.328a1.276,1.276,0,0,0-.44-1.088,1.622,1.622,0,0,0-1.048-.368,1.551,1.551,0,0,0-1.12.384,1.3,1.3,0,0,0-.4.976,1.944,1.944,0,0,0,.28.992,6.091,6.091,0,0,0,.84,1.072l3.536,3.568q.464-.672,1.008-1.616l.5-.864h1.424l-.7,1.248a18.414,18.414,0,0,1-1.344,2.112L213.656,120h-1.7l-1.488-1.5a5.3,5.3,0,0,1-1.76,1.3A5.1,5.1,0,0,1,206.68,120.192Zm-2.528-3.456a2.158,2.158,0,0,0,.7,1.648,2.591,2.591,0,0,0,1.84.656,3.577,3.577,0,0,0,1.544-.328,4.391,4.391,0,0,0,1.368-1.08l-3.392-3.44a3.62,3.62,0,0,0-1.56,1.056A2.336,2.336,0,0,0,204.152,116.736Zm15.1,3.264v-7.936h1.216l.1,1.152a2.688,2.688,0,0,1,1.024-.992,2.938,2.938,0,0,1,1.44-.352,3.251,3.251,0,0,1,1.624.384,2.526,2.526,0,0,1,1.048,1.168,3.038,3.038,0,0,1,1.144-1.136,3.123,3.123,0,0,1,1.576-.416,3.054,3.054,0,0,1,2.272.856,3.606,3.606,0,0,1,.848,2.632V120h-1.328v-4.5a2.941,2.941,0,0,0-.5-1.856,1.712,1.712,0,0,0-1.424-.624,2,2,0,0,0-1.592.744,3.184,3.184,0,0,0-.632,2.12V120h-1.344v-4.5a2.941,2.941,0,0,0-.5-1.856,1.712,1.712,0,0,0-1.424-.624,1.985,1.985,0,0,0-1.576.744,3.184,3.184,0,0,0-.632,2.12V120Zm17.9.192a3.887,3.887,0,0,1-2.016-.52,3.692,3.692,0,0,1-1.384-1.448,4.526,4.526,0,0,1-.5-2.192,4.6,4.6,0,0,1,.5-2.184,3.606,3.606,0,0,1,1.384-1.456,3.993,3.993,0,0,1,2.056-.52,3.708,3.708,0,0,1,1.992.52,3.523,3.523,0,0,1,1.288,1.368,3.846,3.846,0,0,1,.448,1.824q0,.176-.008.352t-.008.4h-6.32a3.118,3.118,0,0,0,.424,1.512,2.5,2.5,0,0,0,2.152,1.208,2.4,2.4,0,0,0,1.392-.384,2.2,2.2,0,0,0,.816-1.04h1.328a3.485,3.485,0,0,1-3.536,2.56Zm0-7.184a2.684,2.684,0,0,0-1.7.584,2.353,2.353,0,0,0-.856,1.7h4.992a2.27,2.27,0,0,0-.736-1.68A2.469,2.469,0,0,0,237.152,113.008ZM245.56,120a2.568,2.568,0,0,1-1.712-.528,2.4,2.4,0,0,1-.624-1.9V113.2h-1.376v-1.136h1.376l.176-1.9h1.168v1.9H246.9V113.2h-2.336v4.368a1.32,1.32,0,0,0,.3,1.016,1.657,1.657,0,0,0,1.072.264h.832V120Zm5.7.192a3.6,3.6,0,0,1-1.648-.336,2.284,2.284,0,0,1-.976-.9,2.409,2.409,0,0,1-.32-1.216,2.155,2.155,0,0,1,.928-1.872,4.309,4.309,0,0,1,2.528-.656h2.144v-.1a2.118,2.118,0,0,0-.544-1.576,1.984,1.984,0,0,0-1.456-.536,2.321,2.321,0,0,0-1.352.392,1.717,1.717,0,0,0-.712,1.144H248.48a2.547,2.547,0,0,1,.584-1.456,3.264,3.264,0,0,1,1.256-.9,4.133,4.133,0,0,1,1.6-.312,3,3,0,0,1,3.344,3.248V120h-1.2l-.08-1.424A3.147,3.147,0,0,1,253,119.72,2.887,2.887,0,0,1,251.264,120.192Zm.208-1.136a2.189,2.189,0,0,0,1.32-.4,2.553,2.553,0,0,0,.84-1.04,3.239,3.239,0,0,0,.288-1.344v-.016h-2.032a2.638,2.638,0,0,0-1.672.408,1.272,1.272,0,0,0-.488,1.016,1.231,1.231,0,0,0,.456,1A1.972,1.972,0,0,0,251.472,119.056Zm5.816.944V108.48h1.344V120Zm6.6.192a3.792,3.792,0,0,1-2.368-.72,2.807,2.807,0,0,1-1.1-1.952h1.376a1.9,1.9,0,0,0,.664,1.08,2.161,2.161,0,0,0,1.448.456,1.826,1.826,0,0,0,1.248-.36,1.115,1.115,0,0,0,.4-.856.95.95,0,0,0-.52-.96,6.921,6.921,0,0,0-1.464-.432,8.253,8.253,0,0,1-1.28-.368,2.908,2.908,0,0,1-1.072-.68,1.584,1.584,0,0,1-.432-1.16,2.141,2.141,0,0,1,.776-1.7,3.129,3.129,0,0,1,2.1-.664,3.263,3.263,0,0,1,2.072.632,2.522,2.522,0,0,1,.936,1.8h-1.328a1.384,1.384,0,0,0-.52-.952,1.858,1.858,0,0,0-1.176-.344,1.78,1.78,0,0,0-1.112.3.964.964,0,0,0-.392.8.831.831,0,0,0,.5.752,5.411,5.411,0,0,0,1.368.464,11.915,11.915,0,0,1,1.4.392,2.646,2.646,0,0,1,1.088.688,1.87,1.87,0,0,1,.424,1.32,2.168,2.168,0,0,1-.808,1.768A3.348,3.348,0,0,1,263.888,120.192Zm3.9,1.712.928-3.536H270.1l-1.392,3.536ZM4.752,146.192a4.017,4.017,0,0,1-2.04-.52,3.738,3.738,0,0,1-1.424-1.456,4.846,4.846,0,0,1,0-4.368,3.738,3.738,0,0,1,1.424-1.456,4.017,4.017,0,0,1,2.04-.52,3.811,3.811,0,0,1,2.376.736,3.207,3.207,0,0,1,1.224,1.968H6.976a1.764,1.764,0,0,0-.784-1.144,2.6,2.6,0,0,0-1.456-.408,2.486,2.486,0,0,0-2.224,1.344,3.946,3.946,0,0,0,0,3.328,2.564,2.564,0,0,0,.96,1.016,2.475,2.475,0,0,0,1.264.344,2.6,2.6,0,0,0,1.456-.408,1.77,1.77,0,0,0,.784-1.16H8.352a3.177,3.177,0,0,1-1.216,1.952A3.789,3.789,0,0,1,4.752,146.192Zm9.1,0a3.99,3.99,0,0,1-2.016-.512,3.7,3.7,0,0,1-1.416-1.448,4.458,4.458,0,0,1-.52-2.2,4.4,4.4,0,0,1,.528-2.2,3.737,3.737,0,0,1,1.432-1.448,4.034,4.034,0,0,1,2.024-.512,3.99,3.99,0,0,1,2.016.512,3.7,3.7,0,0,1,1.416,1.448,4.459,4.459,0,0,1,.52,2.2,4.4,4.4,0,0,1-.528,2.2,3.737,3.737,0,0,1-1.432,1.448A4.034,4.034,0,0,1,13.848,146.192Zm0-1.152a2.55,2.55,0,0,0,1.28-.336,2.506,2.506,0,0,0,.96-1.008,3.428,3.428,0,0,0,.368-1.664,3.491,3.491,0,0,0-.36-1.664,2.454,2.454,0,0,0-.952-1.008,2.52,2.52,0,0,0-1.264-.336,2.55,2.55,0,0,0-1.28.336,2.506,2.506,0,0,0-.96,1.008,3.946,3.946,0,0,0,0,3.328,2.525,2.525,0,0,0,.952,1.008A2.477,2.477,0,0,0,13.848,145.04Zm5.864.96v-7.936h1.216l.08,1.424a2.882,2.882,0,0,1,1.1-1.184,3.11,3.11,0,0,1,1.632-.432,3.007,3.007,0,0,1,2.248.856,3.628,3.628,0,0,1,.84,2.632V146H25.488v-4.5q0-2.48-2.048-2.48a2.212,2.212,0,0,0-1.7.744,3.032,3.032,0,0,0-.68,2.12V146Zm12.3,0a2.568,2.568,0,0,1-1.712-.528,2.4,2.4,0,0,1-.624-1.9V139.2H28.3v-1.136h1.376l.176-1.9h1.168v1.9h2.336V139.2H31.016v4.368a1.32,1.32,0,0,0,.3,1.016,1.657,1.657,0,0,0,1.072.264h.832V146Zm3.064,0v-7.936h1.216l.112,1.52a2.877,2.877,0,0,1,1.12-1.248,3.472,3.472,0,0,1,1.856-.464v1.408h-.368a3.321,3.321,0,0,0-1.3.248,1.968,1.968,0,0,0-.944.84A3.2,3.2,0,0,0,36.416,142v4Zm6.632-9.7a.9.9,0,0,1-.928-.928.855.855,0,0,1,.264-.64.979.979,0,0,1,1.32,0,.842.842,0,0,1,.272.64.887.887,0,0,1-.272.664A.908.908,0,0,1,41.7,136.3Zm-.672,9.7v-7.936h1.344V146Zm7.928.192a3.671,3.671,0,0,1-1.736-.4,2.767,2.767,0,0,1-1.16-1.12L45.936,146H44.72V134.48h1.344v4.9a3.746,3.746,0,0,1,1.1-1.04,3.267,3.267,0,0,1,1.816-.464,3.845,3.845,0,0,1,2.064.544,3.722,3.722,0,0,1,1.368,1.488,4.6,4.6,0,0,1,.488,2.144,4.552,4.552,0,0,1-.488,2.136,3.661,3.661,0,0,1-1.376,1.472A3.931,3.931,0,0,1,48.96,146.192Zm-.144-1.168a2.567,2.567,0,0,0,2.368-1.424,3.668,3.668,0,0,0,0-3.136,2.657,2.657,0,0,0-4.736,0,3.668,3.668,0,0,0,0,3.136,2.567,2.567,0,0,0,2.368,1.424Zm8.856,1.168a2.98,2.98,0,0,1-2.24-.856A3.65,3.65,0,0,1,54.6,142.7v-4.64h1.344v4.5q0,2.48,2.032,2.48a2.23,2.23,0,0,0,1.72-.744,3.032,3.032,0,0,0,.68-2.12v-4.112H61.72V146H60.5l-.1-1.424a2.763,2.763,0,0,1-1.1,1.184A3.152,3.152,0,0,1,57.672,146.192Zm9.4-.192a2.568,2.568,0,0,1-1.712-.528,2.4,2.4,0,0,1-.624-1.9V139.2H63.36v-1.136h1.376l.176-1.9H66.08v1.9h2.336V139.2H66.08v4.368a1.32,1.32,0,0,0,.3,1.016,1.657,1.657,0,0,0,1.072.264h.832V146Zm3.88-9.7a.9.9,0,0,1-.928-.928.855.855,0,0,1,.264-.64.979.979,0,0,1,1.32,0,.842.842,0,0,1,.272.64.887.887,0,0,1-.272.664A.908.908,0,0,1,70.952,136.3ZM70.28,146v-7.936h1.344V146Zm3.688,0v-7.936h1.216l.08,1.424a2.882,2.882,0,0,1,1.1-1.184A3.11,3.11,0,0,1,78,137.872a3.007,3.007,0,0,1,2.248.856,3.628,3.628,0,0,1,.84,2.632V146H79.744v-4.5q0-2.48-2.048-2.48a2.212,2.212,0,0,0-1.7.744,3.032,3.032,0,0,0-.68,2.12V146Zm12.3-2.5a4.093,4.093,0,0,1-1.232-.176l-.8.752a1.612,1.612,0,0,0,.44.216,4.662,4.662,0,0,0,.76.16q.5.072,1.392.152a3.785,3.785,0,0,1,2.288.736,2.1,2.1,0,0,1,.688,1.632,2.5,2.5,0,0,1-.376,1.312,2.79,2.79,0,0,1-1.152,1.024,4.339,4.339,0,0,1-1.992.4,5.96,5.96,0,0,1-1.9-.28,2.76,2.76,0,0,1-1.3-.848,2.189,2.189,0,0,1-.464-1.432,2.324,2.324,0,0,1,.24-.968,2.588,2.588,0,0,1,.9-.984,3.3,3.3,0,0,1-.6-.312,3.108,3.108,0,0,1-.456-.376v-.368l1.36-1.344a2.632,2.632,0,0,1-.944-2.112,2.805,2.805,0,0,1,.368-1.424,2.632,2.632,0,0,1,1.072-1.016,3.593,3.593,0,0,1,1.712-.376,3.83,3.83,0,0,1,1.248.192H90.44v1.008l-1.488.064a2.664,2.664,0,0,1,.464,1.552,2.759,2.759,0,0,1-.376,1.424,2.7,2.7,0,0,1-1.072,1.016A3.545,3.545,0,0,1,86.264,143.5Zm0-1.1a1.983,1.983,0,0,0,1.352-.44,1.6,1.6,0,0,0,.5-1.272,1.578,1.578,0,0,0-.5-1.256,1.983,1.983,0,0,0-1.352-.44,2.008,2.008,0,0,0-1.368.44,1.578,1.578,0,0,0-.5,1.256,1.6,1.6,0,0,0,.5,1.272A2.008,2.008,0,0,0,86.264,142.4Zm-2.336,4.624a1.29,1.29,0,0,0,.672,1.192,3.291,3.291,0,0,0,1.68.392,2.667,2.667,0,0,0,1.592-.432,1.351,1.351,0,0,0,.6-1.152,1.16,1.16,0,0,0-.416-.888,2.562,2.562,0,0,0-1.536-.44q-.88-.064-1.52-.16a1.97,1.97,0,0,0-.864.76A1.638,1.638,0,0,0,83.928,147.024ZM99.352,146a2.568,2.568,0,0,1-1.712-.528,2.4,2.4,0,0,1-.624-1.9V139.2H95.64v-1.136h1.376l.176-1.9H98.36v1.9H100.7V139.2H98.36v4.368a1.32,1.32,0,0,0,.3,1.016,1.657,1.657,0,0,0,1.072.264h.832V146Zm6.456.192a3.99,3.99,0,0,1-2.016-.512,3.7,3.7,0,0,1-1.416-1.448,4.458,4.458,0,0,1-.52-2.2,4.4,4.4,0,0,1,.528-2.2,3.737,3.737,0,0,1,1.432-1.448,4.034,4.034,0,0,1,2.024-.512,3.99,3.99,0,0,1,2.016.512,3.7,3.7,0,0,1,1.416,1.448,4.458,4.458,0,0,1,.52,2.2,4.4,4.4,0,0,1-.528,2.2,3.737,3.737,0,0,1-1.432,1.448A4.034,4.034,0,0,1,105.808,146.192Zm0-1.152a2.55,2.55,0,0,0,1.28-.336,2.506,2.506,0,0,0,.96-1.008,3.428,3.428,0,0,0,.368-1.664,3.491,3.491,0,0,0-.36-1.664,2.454,2.454,0,0,0-.952-1.008,2.52,2.52,0,0,0-1.264-.336,2.55,2.55,0,0,0-1.28.336,2.506,2.506,0,0,0-.96,1.008,3.946,3.946,0,0,0,0,3.328,2.525,2.525,0,0,0,.952,1.008A2.477,2.477,0,0,0,105.808,145.04Zm12.4.96-3.008-7.936h1.408l2.384,6.64,2.4-6.64h1.376L119.76,146Zm8.3.192a3.6,3.6,0,0,1-1.648-.336,2.284,2.284,0,0,1-.976-.9,2.409,2.409,0,0,1-.32-1.216,2.155,2.155,0,0,1,.928-1.872,4.309,4.309,0,0,1,2.528-.656h2.144v-.1a2.118,2.118,0,0,0-.544-1.576,1.984,1.984,0,0,0-1.456-.536,2.321,2.321,0,0,0-1.352.392,1.717,1.717,0,0,0-.712,1.144H123.72a2.547,2.547,0,0,1,.584-1.456,3.264,3.264,0,0,1,1.256-.9,4.133,4.133,0,0,1,1.6-.312,3,3,0,0,1,3.344,3.248V146h-1.2l-.08-1.424a3.148,3.148,0,0,1-.984,1.144A2.887,2.887,0,0,1,126.5,146.192Zm.208-1.136a2.189,2.189,0,0,0,1.32-.4,2.553,2.553,0,0,0,.84-1.04,3.239,3.239,0,0,0,.288-1.344v-.016h-2.032a2.638,2.638,0,0,0-1.672.408,1.272,1.272,0,0,0-.488,1.016,1.231,1.231,0,0,0,.456,1A1.972,1.972,0,0,0,126.712,145.056Zm5.816.944v-7.936h1.216l.112,1.52a2.877,2.877,0,0,1,1.12-1.248,3.472,3.472,0,0,1,1.856-.464v1.408h-.368a3.321,3.321,0,0,0-1.3.248,1.968,1.968,0,0,0-.944.84,3.2,3.2,0,0,0-.352,1.632v4Zm6.632-9.7a.9.9,0,0,1-.928-.928.855.855,0,0,1,.264-.64.979.979,0,0,1,1.32,0,.842.842,0,0,1,.272.64.887.887,0,0,1-.272.664A.908.908,0,0,1,139.16,136.3Zm-.672,9.7v-7.936h1.344V146Zm7.3.192a3.99,3.99,0,0,1-2.016-.512,3.7,3.7,0,0,1-1.416-1.448,4.459,4.459,0,0,1-.52-2.2,4.4,4.4,0,0,1,.528-2.2,3.737,3.737,0,0,1,1.432-1.448,4.034,4.034,0,0,1,2.024-.512,3.99,3.99,0,0,1,2.016.512,3.7,3.7,0,0,1,1.416,1.448,4.459,4.459,0,0,1,.52,2.2,4.4,4.4,0,0,1-.528,2.2,3.737,3.737,0,0,1-1.432,1.448A4.034,4.034,0,0,1,145.792,146.192Zm0-1.152a2.55,2.55,0,0,0,1.28-.336,2.506,2.506,0,0,0,.96-1.008,3.428,3.428,0,0,0,.368-1.664,3.491,3.491,0,0,0-.36-1.664,2.454,2.454,0,0,0-.952-1.008,2.52,2.52,0,0,0-1.264-.336,2.55,2.55,0,0,0-1.28.336,2.506,2.506,0,0,0-.96,1.008,3.946,3.946,0,0,0,0,3.328,2.525,2.525,0,0,0,.952,1.008A2.477,2.477,0,0,0,145.792,145.04Zm8.76,1.152a2.98,2.98,0,0,1-2.24-.856,3.65,3.65,0,0,1-.832-2.632v-4.64h1.344v4.5q0,2.48,2.032,2.48a2.23,2.23,0,0,0,1.72-.744,3.032,3.032,0,0,0,.68-2.12v-4.112H158.6V146h-1.216l-.1-1.424a2.763,2.763,0,0,1-1.1,1.184A3.152,3.152,0,0,1,154.552,146.192Zm9.3,0a3.792,3.792,0,0,1-2.368-.72,2.807,2.807,0,0,1-1.1-1.952h1.376a1.9,1.9,0,0,0,.664,1.08,2.161,2.161,0,0,0,1.448.456,1.826,1.826,0,0,0,1.248-.36,1.115,1.115,0,0,0,.4-.856.95.95,0,0,0-.52-.96,6.921,6.921,0,0,0-1.464-.432,8.251,8.251,0,0,1-1.28-.368,2.908,2.908,0,0,1-1.072-.68,1.584,1.584,0,0,1-.432-1.16,2.141,2.141,0,0,1,.776-1.7,3.129,3.129,0,0,1,2.1-.664,3.263,3.263,0,0,1,2.072.632,2.522,2.522,0,0,1,.936,1.8h-1.328a1.384,1.384,0,0,0-.52-.952,1.858,1.858,0,0,0-1.176-.344,1.78,1.78,0,0,0-1.112.3.964.964,0,0,0-.392.8.831.831,0,0,0,.5.752,5.411,5.411,0,0,0,1.368.464,11.919,11.919,0,0,1,1.4.392,2.646,2.646,0,0,1,1.088.688,1.87,1.87,0,0,1,.424,1.32,2.168,2.168,0,0,1-.808,1.768A3.348,3.348,0,0,1,163.856,146.192Zm10.032-9.888a.9.9,0,0,1-.928-.928.855.855,0,0,1,.264-.64.979.979,0,0,1,1.32,0,.842.842,0,0,1,.272.64.887.887,0,0,1-.272.664A.908.908,0,0,1,173.888,136.3Zm-.672,9.7v-7.936h1.344V146Zm3.688,0v-7.936h1.216l.08,1.424a2.882,2.882,0,0,1,1.1-1.184,3.11,3.11,0,0,1,1.632-.432,3.006,3.006,0,0,1,2.248.856,3.628,3.628,0,0,1,.84,2.632V146H182.68v-4.5q0-2.48-2.048-2.48a2.212,2.212,0,0,0-1.7.744,3.032,3.032,0,0,0-.68,2.12V146Zm12.76.192a3.887,3.887,0,0,1-2.072-.544,3.7,3.7,0,0,1-1.376-1.488,4.6,4.6,0,0,1-.488-2.144,4.492,4.492,0,0,1,.5-2.136,3.735,3.735,0,0,1,1.376-1.472,3.92,3.92,0,0,1,2.08-.536,3.624,3.624,0,0,1,1.728.4,2.883,2.883,0,0,1,1.168,1.12V134.48h1.344V146H192.7l-.128-1.312a3.715,3.715,0,0,1-1.1,1.04A3.275,3.275,0,0,1,189.664,146.192Zm.144-1.168a2.663,2.663,0,0,0,1.416-.376,2.571,2.571,0,0,0,.96-1.048,3.746,3.746,0,0,0,0-3.136,2.571,2.571,0,0,0-.96-1.048,2.663,2.663,0,0,0-1.416-.376,2.633,2.633,0,0,0-1.4.376,2.571,2.571,0,0,0-.96,1.048,3.745,3.745,0,0,0,0,3.136,2.571,2.571,0,0,0,.96,1.048A2.633,2.633,0,0,0,189.808,145.024Zm9.208,1.168a2.98,2.98,0,0,1-2.24-.856,3.65,3.65,0,0,1-.832-2.632v-4.64h1.344v4.5q0,2.48,2.032,2.48a2.23,2.23,0,0,0,1.72-.744,3.032,3.032,0,0,0,.68-2.12v-4.112h1.344V146h-1.216l-.1-1.424a2.763,2.763,0,0,1-1.1,1.184A3.152,3.152,0,0,1,199.016,146.192Zm9.3,0a3.792,3.792,0,0,1-2.368-.72,2.807,2.807,0,0,1-1.1-1.952h1.376a1.9,1.9,0,0,0,.664,1.08,2.161,2.161,0,0,0,1.448.456,1.826,1.826,0,0,0,1.248-.36,1.115,1.115,0,0,0,.4-.856.95.95,0,0,0-.52-.96,6.921,6.921,0,0,0-1.464-.432,8.251,8.251,0,0,1-1.28-.368,2.908,2.908,0,0,1-1.072-.68,1.584,1.584,0,0,1-.432-1.16,2.141,2.141,0,0,1,.776-1.7,3.129,3.129,0,0,1,2.1-.664,3.263,3.263,0,0,1,2.072.632,2.522,2.522,0,0,1,.936,1.8h-1.328a1.384,1.384,0,0,0-.52-.952,1.858,1.858,0,0,0-1.176-.344,1.78,1.78,0,0,0-1.112.3.964.964,0,0,0-.392.8.831.831,0,0,0,.5.752,5.411,5.411,0,0,0,1.368.464,11.919,11.919,0,0,1,1.4.392,2.646,2.646,0,0,1,1.088.688,1.87,1.87,0,0,1,.424,1.32,2.168,2.168,0,0,1-.808,1.768A3.348,3.348,0,0,1,208.32,146.192Zm7.752-.192a2.568,2.568,0,0,1-1.712-.528,2.4,2.4,0,0,1-.624-1.9V139.2H212.36v-1.136h1.376l.176-1.9h1.168v1.9h2.336V139.2H215.08v4.368a1.32,1.32,0,0,0,.3,1.016,1.657,1.657,0,0,0,1.072.264h.832V146Zm3.064,0v-7.936h1.216l.112,1.52a2.877,2.877,0,0,1,1.12-1.248,3.472,3.472,0,0,1,1.856-.464v1.408h-.368a3.321,3.321,0,0,0-1.3.248,1.968,1.968,0,0,0-.944.84A3.2,3.2,0,0,0,220.48,142v4Zm6.632-9.7a.9.9,0,0,1-.928-.928.855.855,0,0,1,.264-.64.979.979,0,0,1,1.32,0,.842.842,0,0,1,.272.64.887.887,0,0,1-.272.664A.908.908,0,0,1,225.768,136.3ZM225.1,146v-7.936h1.344V146Zm7.256.192a3.887,3.887,0,0,1-2.016-.52,3.692,3.692,0,0,1-1.384-1.448,4.526,4.526,0,0,1-.5-2.192,4.6,4.6,0,0,1,.5-2.184,3.606,3.606,0,0,1,1.384-1.456,3.993,3.993,0,0,1,2.056-.52,3.708,3.708,0,0,1,1.992.52,3.523,3.523,0,0,1,1.288,1.368,3.846,3.846,0,0,1,.448,1.824q0,.176-.008.352t-.008.4h-6.32a3.118,3.118,0,0,0,.424,1.512,2.5,2.5,0,0,0,2.152,1.208,2.4,2.4,0,0,0,1.392-.384,2.2,2.2,0,0,0,.816-1.04h1.328a3.485,3.485,0,0,1-3.536,2.56Zm0-7.184a2.684,2.684,0,0,0-1.7.584,2.353,2.353,0,0,0-.856,1.7h4.992a2.27,2.27,0,0,0-.736-1.68A2.469,2.469,0,0,0,232.352,139.008Zm8.584,7.184a3.792,3.792,0,0,1-2.368-.72,2.807,2.807,0,0,1-1.1-1.952h1.376a1.9,1.9,0,0,0,.664,1.08,2.161,2.161,0,0,0,1.448.456,1.826,1.826,0,0,0,1.248-.36,1.115,1.115,0,0,0,.4-.856.95.95,0,0,0-.52-.96,6.921,6.921,0,0,0-1.464-.432,8.251,8.251,0,0,1-1.28-.368,2.908,2.908,0,0,1-1.072-.68,1.584,1.584,0,0,1-.432-1.16,2.141,2.141,0,0,1,.776-1.7,3.129,3.129,0,0,1,2.1-.664,3.263,3.263,0,0,1,2.072.632,2.522,2.522,0,0,1,.936,1.8h-1.328a1.384,1.384,0,0,0-.52-.952,1.858,1.858,0,0,0-1.176-.344,1.78,1.78,0,0,0-1.112.3.964.964,0,0,0-.392.8.831.831,0,0,0,.5.752,5.411,5.411,0,0,0,1.368.464,11.919,11.919,0,0,1,1.4.392,2.646,2.646,0,0,1,1.088.688,1.87,1.87,0,0,1,.424,1.32,2.168,2.168,0,0,1-.808,1.768A3.348,3.348,0,0,1,240.936,146.192Zm12.608,0a4.576,4.576,0,0,1-2.024-.424,3.362,3.362,0,0,1-1.184-5.008,4.391,4.391,0,0,1,1.928-1.4,4.334,4.334,0,0,1-.784-1.128,2.806,2.806,0,0,1-.24-1.16A2.292,2.292,0,0,1,252,135.3a2.975,2.975,0,0,1,2.088-.7,3.257,3.257,0,0,1,1.5.328,2.434,2.434,0,0,1,.992.9,2.269,2.269,0,0,1,.32,1.312h-1.328a1.276,1.276,0,0,0-.44-1.088,1.622,1.622,0,0,0-1.048-.368,1.551,1.551,0,0,0-1.12.384,1.3,1.3,0,0,0-.4.976,1.944,1.944,0,0,0,.28.992,6.092,6.092,0,0,0,.84,1.072l3.536,3.568q.464-.672,1.008-1.616l.5-.864h1.424l-.7,1.248a18.414,18.414,0,0,1-1.344,2.112L260.52,146h-1.7l-1.488-1.5a5.3,5.3,0,0,1-1.76,1.3A5.1,5.1,0,0,1,253.544,146.192Zm-2.528-3.456a2.158,2.158,0,0,0,.7,1.648,2.591,2.591,0,0,0,1.84.656,3.577,3.577,0,0,0,1.544-.328,4.392,4.392,0,0,0,1.368-1.08l-3.392-3.44a3.62,3.62,0,0,0-1.56,1.056A2.336,2.336,0,0,0,251.016,142.736ZM4.672,172.192a3.887,3.887,0,0,1-2.016-.52,3.692,3.692,0,0,1-1.384-1.448,4.526,4.526,0,0,1-.5-2.192,4.6,4.6,0,0,1,.5-2.184,3.606,3.606,0,0,1,1.384-1.456,3.993,3.993,0,0,1,2.056-.52,3.708,3.708,0,0,1,1.992.52,3.523,3.523,0,0,1,1.288,1.368,3.846,3.846,0,0,1,.448,1.824q0,.176-.008.352t-.008.4H2.1a3.118,3.118,0,0,0,.424,1.512,2.5,2.5,0,0,0,2.152,1.208,2.4,2.4,0,0,0,1.392-.384,2.2,2.2,0,0,0,.816-1.04H8.208a3.582,3.582,0,0,1-1.224,1.832A3.57,3.57,0,0,1,4.672,172.192Zm0-7.184a2.684,2.684,0,0,0-1.7.584,2.353,2.353,0,0,0-.856,1.7H7.1a2.27,2.27,0,0,0-.736-1.68A2.469,2.469,0,0,0,4.672,165.008Zm9.192,7.184a4.017,4.017,0,0,1-2.04-.52,3.738,3.738,0,0,1-1.424-1.456,4.846,4.846,0,0,1,0-4.368,3.738,3.738,0,0,1,1.424-1.456,4.017,4.017,0,0,1,2.04-.52,3.811,3.811,0,0,1,2.376.736,3.207,3.207,0,0,1,1.224,1.968H16.088a1.764,1.764,0,0,0-.784-1.144,2.6,2.6,0,0,0-1.456-.408,2.486,2.486,0,0,0-2.224,1.344,3.946,3.946,0,0,0,0,3.328,2.564,2.564,0,0,0,.96,1.016,2.475,2.475,0,0,0,1.264.344,2.6,2.6,0,0,0,1.456-.408,1.77,1.77,0,0,0,.784-1.16h1.376a3.177,3.177,0,0,1-1.216,1.952A3.789,3.789,0,0,1,13.864,172.192Zm9.1,0a3.99,3.99,0,0,1-2.016-.512,3.7,3.7,0,0,1-1.416-1.448,4.458,4.458,0,0,1-.52-2.2,4.4,4.4,0,0,1,.528-2.2,3.737,3.737,0,0,1,1.432-1.448,4.034,4.034,0,0,1,2.024-.512,3.99,3.99,0,0,1,2.016.512,3.7,3.7,0,0,1,1.416,1.448,4.459,4.459,0,0,1,.52,2.2,4.4,4.4,0,0,1-.528,2.2,3.737,3.737,0,0,1-1.432,1.448A4.034,4.034,0,0,1,22.96,172.192Zm0-1.152a2.55,2.55,0,0,0,1.28-.336,2.506,2.506,0,0,0,.96-1.008,3.428,3.428,0,0,0,.368-1.664,3.491,3.491,0,0,0-.36-1.664,2.454,2.454,0,0,0-.952-1.008,2.52,2.52,0,0,0-1.264-.336,2.55,2.55,0,0,0-1.28.336,2.506,2.506,0,0,0-.96,1.008,3.946,3.946,0,0,0,0,3.328A2.525,2.525,0,0,0,21.7,170.7,2.477,2.477,0,0,0,22.96,171.04Zm5.864.96v-7.936H30.04l.08,1.424a2.882,2.882,0,0,1,1.1-1.184,3.11,3.11,0,0,1,1.632-.432,3.007,3.007,0,0,1,2.248.856,3.628,3.628,0,0,1,.84,2.632V172H34.6v-4.5q0-2.48-2.048-2.48a2.212,2.212,0,0,0-1.7.744,3.032,3.032,0,0,0-.68,2.12V172Zm12.776.192a3.99,3.99,0,0,1-2.016-.512,3.7,3.7,0,0,1-1.416-1.448,4.459,4.459,0,0,1-.52-2.2,4.4,4.4,0,0,1,.528-2.2,3.737,3.737,0,0,1,1.432-1.448,4.034,4.034,0,0,1,2.024-.512,3.99,3.99,0,0,1,2.016.512,3.7,3.7,0,0,1,1.416,1.448,4.459,4.459,0,0,1,.52,2.2,4.4,4.4,0,0,1-.528,2.2,3.737,3.737,0,0,1-1.432,1.448A4.034,4.034,0,0,1,41.6,172.192Zm0-1.152a2.55,2.55,0,0,0,1.28-.336,2.506,2.506,0,0,0,.96-1.008,3.428,3.428,0,0,0,.368-1.664,3.491,3.491,0,0,0-.36-1.664,2.455,2.455,0,0,0-.952-1.008,2.52,2.52,0,0,0-1.264-.336,2.55,2.55,0,0,0-1.28.336,2.506,2.506,0,0,0-.96,1.008,3.946,3.946,0,0,0,0,3.328,2.525,2.525,0,0,0,.952,1.008A2.477,2.477,0,0,0,41.6,171.04Zm5.864.96v-7.936H48.68l.1,1.152a2.688,2.688,0,0,1,1.024-.992,2.938,2.938,0,0,1,1.44-.352,3.251,3.251,0,0,1,1.624.384,2.526,2.526,0,0,1,1.048,1.168,3.038,3.038,0,0,1,1.144-1.136,3.123,3.123,0,0,1,1.576-.416,3.054,3.054,0,0,1,2.272.856,3.606,3.606,0,0,1,.848,2.632V172H58.424v-4.5a2.941,2.941,0,0,0-.5-1.856,1.712,1.712,0,0,0-1.424-.624,2,2,0,0,0-1.592.744,3.183,3.183,0,0,0-.632,2.12V172H52.936v-4.5a2.941,2.941,0,0,0-.5-1.856,1.712,1.712,0,0,0-1.424-.624,1.985,1.985,0,0,0-1.576.744,3.184,3.184,0,0,0-.632,2.12V172Zm15.144-9.7a.9.9,0,0,1-.928-.928.855.855,0,0,1,.264-.64.979.979,0,0,1,1.32,0,.842.842,0,0,1,.272.64.887.887,0,0,1-.272.664A.908.908,0,0,1,62.608,162.3Zm-.672,9.7v-7.936H63.28V172Zm7.336.192a4.017,4.017,0,0,1-2.04-.52,3.738,3.738,0,0,1-1.424-1.456,4.846,4.846,0,0,1,0-4.368,3.738,3.738,0,0,1,1.424-1.456,4.017,4.017,0,0,1,2.04-.52,3.811,3.811,0,0,1,2.376.736,3.207,3.207,0,0,1,1.224,1.968H71.5a1.764,1.764,0,0,0-.784-1.144,2.6,2.6,0,0,0-1.456-.408,2.486,2.486,0,0,0-2.224,1.344,3.946,3.946,0,0,0,0,3.328,2.564,2.564,0,0,0,.96,1.016,2.475,2.475,0,0,0,1.264.344,2.6,2.6,0,0,0,1.456-.408,1.77,1.77,0,0,0,.784-1.16h1.376a3.177,3.177,0,0,1-1.216,1.952A3.789,3.789,0,0,1,69.272,172.192Zm13.328,0a3.887,3.887,0,0,1-2.072-.544,3.7,3.7,0,0,1-1.376-1.488,4.6,4.6,0,0,1-.488-2.144,4.492,4.492,0,0,1,.5-2.136,3.736,3.736,0,0,1,1.376-1.472,3.92,3.92,0,0,1,2.08-.536,3.624,3.624,0,0,1,1.728.4,2.883,2.883,0,0,1,1.168,1.12V160.48h1.344V172H85.64l-.128-1.312a3.715,3.715,0,0,1-1.1,1.04A3.275,3.275,0,0,1,82.6,172.192Zm.144-1.168a2.663,2.663,0,0,0,1.416-.376,2.571,2.571,0,0,0,.96-1.048,3.746,3.746,0,0,0,0-3.136,2.571,2.571,0,0,0-.96-1.048,2.663,2.663,0,0,0-1.416-.376,2.633,2.633,0,0,0-1.4.376,2.571,2.571,0,0,0-.96,1.048,3.746,3.746,0,0,0,0,3.136,2.571,2.571,0,0,0,.96,1.048A2.633,2.633,0,0,0,82.744,171.024Zm9.88,1.168a3.887,3.887,0,0,1-2.016-.52,3.692,3.692,0,0,1-1.384-1.448,4.526,4.526,0,0,1-.5-2.192,4.6,4.6,0,0,1,.5-2.184,3.606,3.606,0,0,1,1.384-1.456,3.993,3.993,0,0,1,2.056-.52,3.708,3.708,0,0,1,1.992.52,3.523,3.523,0,0,1,1.288,1.368,3.846,3.846,0,0,1,.448,1.824q0,.176-.008.352t-.008.4h-6.32a3.118,3.118,0,0,0,.424,1.512,2.5,2.5,0,0,0,2.152,1.208,2.4,2.4,0,0,0,1.392-.384,2.2,2.2,0,0,0,.816-1.04H96.16a3.485,3.485,0,0,1-3.536,2.56Zm0-7.184a2.684,2.684,0,0,0-1.7.584,2.353,2.353,0,0,0-.856,1.7h4.992a2.27,2.27,0,0,0-.736-1.68A2.469,2.469,0,0,0,92.624,165.008ZM100.136,172l-3.008-7.936h1.408l2.384,6.64,2.4-6.64H104.7L101.688,172Zm9.224.192a3.887,3.887,0,0,1-2.016-.52,3.692,3.692,0,0,1-1.384-1.448,4.526,4.526,0,0,1-.5-2.192,4.6,4.6,0,0,1,.5-2.184,3.606,3.606,0,0,1,1.384-1.456,3.993,3.993,0,0,1,2.056-.52,3.708,3.708,0,0,1,1.992.52,3.523,3.523,0,0,1,1.288,1.368,3.846,3.846,0,0,1,.448,1.824q0,.176-.008.352t-.008.4h-6.32a3.118,3.118,0,0,0,.424,1.512,2.5,2.5,0,0,0,2.152,1.208,2.4,2.4,0,0,0,1.392-.384,2.2,2.2,0,0,0,.816-1.04H112.9a3.485,3.485,0,0,1-3.536,2.56Zm0-7.184a2.684,2.684,0,0,0-1.7.584,2.353,2.353,0,0,0-.856,1.7h4.992a2.27,2.27,0,0,0-.736-1.68A2.469,2.469,0,0,0,109.36,165.008ZM114.9,172V160.48h1.344V172Zm7.176.192a3.99,3.99,0,0,1-2.016-.512,3.7,3.7,0,0,1-1.416-1.448,4.458,4.458,0,0,1-.52-2.2,4.4,4.4,0,0,1,.528-2.2,3.737,3.737,0,0,1,1.432-1.448,4.034,4.034,0,0,1,2.024-.512,3.99,3.99,0,0,1,2.016.512,3.7,3.7,0,0,1,1.416,1.448,4.458,4.458,0,0,1,.52,2.2,4.4,4.4,0,0,1-.528,2.2,3.737,3.737,0,0,1-1.432,1.448A4.034,4.034,0,0,1,122.08,172.192Zm0-1.152a2.55,2.55,0,0,0,1.28-.336,2.506,2.506,0,0,0,.96-1.008,3.428,3.428,0,0,0,.368-1.664,3.491,3.491,0,0,0-.36-1.664,2.454,2.454,0,0,0-.952-1.008,2.52,2.52,0,0,0-1.264-.336,2.55,2.55,0,0,0-1.28.336,2.506,2.506,0,0,0-.96,1.008,3.946,3.946,0,0,0,0,3.328,2.525,2.525,0,0,0,.952,1.008A2.477,2.477,0,0,0,122.08,171.04Zm5.864,4.48V164.064h1.216l.128,1.312a3.746,3.746,0,0,1,1.1-1.04,3.267,3.267,0,0,1,1.816-.464,3.845,3.845,0,0,1,2.064.544,3.722,3.722,0,0,1,1.368,1.488,4.6,4.6,0,0,1,.488,2.144,4.552,4.552,0,0,1-.488,2.136,3.661,3.661,0,0,1-1.376,1.472,3.931,3.931,0,0,1-2.072.536,3.671,3.671,0,0,1-1.736-.4,2.767,2.767,0,0,1-1.16-1.12v4.848Zm4.1-4.5a2.567,2.567,0,0,0,2.368-1.424,3.668,3.668,0,0,0,0-3.136,2.657,2.657,0,0,0-4.736,0,3.668,3.668,0,0,0,0,3.136,2.567,2.567,0,0,0,2.368,1.424ZM138,172v-7.936h1.216l.1,1.152a2.688,2.688,0,0,1,1.024-.992,2.938,2.938,0,0,1,1.44-.352,3.251,3.251,0,0,1,1.624.384,2.526,2.526,0,0,1,1.048,1.168,3.038,3.038,0,0,1,1.144-1.136,3.123,3.123,0,0,1,1.576-.416,3.054,3.054,0,0,1,2.272.856,3.606,3.606,0,0,1,.848,2.632V172H148.96v-4.5a2.941,2.941,0,0,0-.5-1.856,1.712,1.712,0,0,0-1.424-.624,2,2,0,0,0-1.592.744,3.183,3.183,0,0,0-.632,2.12V172h-1.344v-4.5a2.941,2.941,0,0,0-.5-1.856,1.712,1.712,0,0,0-1.424-.624,1.985,1.985,0,0,0-1.576.744,3.183,3.183,0,0,0-.632,2.12V172Zm17.9.192a3.887,3.887,0,0,1-2.016-.52,3.692,3.692,0,0,1-1.384-1.448,4.526,4.526,0,0,1-.5-2.192,4.6,4.6,0,0,1,.5-2.184,3.606,3.606,0,0,1,1.384-1.456,3.993,3.993,0,0,1,2.056-.52,3.708,3.708,0,0,1,1.992.52,3.523,3.523,0,0,1,1.288,1.368,3.846,3.846,0,0,1,.448,1.824q0,.176-.008.352t-.008.4h-6.32a3.118,3.118,0,0,0,.424,1.512,2.5,2.5,0,0,0,2.152,1.208,2.4,2.4,0,0,0,1.392-.384,2.2,2.2,0,0,0,.816-1.04h1.328a3.485,3.485,0,0,1-3.536,2.56Zm0-7.184a2.684,2.684,0,0,0-1.7.584,2.353,2.353,0,0,0-.856,1.7h4.992a2.27,2.27,0,0,0-.736-1.68A2.469,2.469,0,0,0,155.9,165.008ZM161.44,172v-7.936h1.216l.08,1.424a2.882,2.882,0,0,1,1.1-1.184,3.11,3.11,0,0,1,1.632-.432,3.006,3.006,0,0,1,2.248.856,3.628,3.628,0,0,1,.84,2.632V172h-1.344v-4.5q0-2.48-2.048-2.48a2.212,2.212,0,0,0-1.7.744,3.032,3.032,0,0,0-.68,2.12V172Zm12.3,0a2.568,2.568,0,0,1-1.712-.528,2.4,2.4,0,0,1-.624-1.9V165.2h-1.376v-1.136H171.4l.176-1.9h1.168v1.9h2.336V165.2h-2.336v4.368a1.32,1.32,0,0,0,.3,1.016,1.657,1.657,0,0,0,1.072.264h.832V172Zm8.912,0-2.32-7.936h1.344l1.68,6.224,1.856-6.224h1.52l1.872,6.224,1.664-6.224h1.36L189.3,172h-1.376l-1.952-6.544L184.024,172Zm13.784.192a3.99,3.99,0,0,1-2.016-.512A3.7,3.7,0,0,1,193,170.232a4.459,4.459,0,0,1-.52-2.2,4.4,4.4,0,0,1,.528-2.2,3.737,3.737,0,0,1,1.432-1.448,4.034,4.034,0,0,1,2.024-.512,3.99,3.99,0,0,1,2.016.512,3.7,3.7,0,0,1,1.416,1.448,4.459,4.459,0,0,1,.52,2.2,4.4,4.4,0,0,1-.528,2.2,3.737,3.737,0,0,1-1.432,1.448A4.034,4.034,0,0,1,196.432,172.192Zm0-1.152a2.55,2.55,0,0,0,1.28-.336,2.506,2.506,0,0,0,.96-1.008,3.428,3.428,0,0,0,.368-1.664,3.491,3.491,0,0,0-.36-1.664,2.454,2.454,0,0,0-.952-1.008,2.52,2.52,0,0,0-1.264-.336,2.55,2.55,0,0,0-1.28.336,2.506,2.506,0,0,0-.96,1.008,3.946,3.946,0,0,0,0,3.328,2.525,2.525,0,0,0,.952,1.008A2.477,2.477,0,0,0,196.432,171.04Zm5.864.96v-7.936h1.216l.112,1.52a2.877,2.877,0,0,1,1.12-1.248,3.472,3.472,0,0,1,1.856-.464v1.408h-.368a3.321,3.321,0,0,0-1.3.248,1.968,1.968,0,0,0-.944.84A3.2,3.2,0,0,0,203.64,168v4Zm5.816,0V160.48h1.344V172Zm7.16.192a3.887,3.887,0,0,1-2.072-.544,3.7,3.7,0,0,1-1.376-1.488,4.6,4.6,0,0,1-.488-2.144,4.492,4.492,0,0,1,.5-2.136,3.735,3.735,0,0,1,1.376-1.472,3.92,3.92,0,0,1,2.08-.536,3.624,3.624,0,0,1,1.728.4,2.883,2.883,0,0,1,1.168,1.12V160.48h1.344V172h-1.216l-.128-1.312a3.715,3.715,0,0,1-1.1,1.04A3.275,3.275,0,0,1,215.272,172.192Zm.144-1.168a2.663,2.663,0,0,0,1.416-.376,2.571,2.571,0,0,0,.96-1.048,3.746,3.746,0,0,0,0-3.136,2.571,2.571,0,0,0-.96-1.048,2.663,2.663,0,0,0-1.416-.376,2.633,2.633,0,0,0-1.4.376,2.571,2.571,0,0,0-.96,1.048,3.745,3.745,0,0,0,0,3.136,2.571,2.571,0,0,0,.96,1.048A2.633,2.633,0,0,0,215.416,171.024Zm7.912.976-2.32-7.936h1.344l1.68,6.224,1.856-6.224h1.52l1.872,6.224,1.664-6.224h1.36L229.984,172h-1.376l-1.952-6.544L224.7,172Zm11.288-9.7a.9.9,0,0,1-.928-.928.855.855,0,0,1,.264-.64.979.979,0,0,1,1.32,0,.842.842,0,0,1,.272.64.887.887,0,0,1-.272.664A.908.908,0,0,1,234.616,162.3Zm-.672,9.7v-7.936h1.344V172Zm7.288.192a3.887,3.887,0,0,1-2.072-.544,3.7,3.7,0,0,1-1.376-1.488,4.6,4.6,0,0,1-.488-2.144,4.492,4.492,0,0,1,.5-2.136,3.735,3.735,0,0,1,1.376-1.472,3.92,3.92,0,0,1,2.08-.536,3.624,3.624,0,0,1,1.728.4,2.883,2.883,0,0,1,1.168,1.12V160.48h1.344V172h-1.216l-.128-1.312a3.715,3.715,0,0,1-1.1,1.04A3.275,3.275,0,0,1,241.232,172.192Zm.144-1.168a2.663,2.663,0,0,0,1.416-.376,2.571,2.571,0,0,0,.96-1.048,3.746,3.746,0,0,0,0-3.136,2.571,2.571,0,0,0-.96-1.048,2.663,2.663,0,0,0-1.416-.376,2.633,2.633,0,0,0-1.4.376,2.571,2.571,0,0,0-.96,1.048,3.745,3.745,0,0,0,0,3.136,2.571,2.571,0,0,0,.96,1.048A2.633,2.633,0,0,0,241.376,171.024Zm9.88,1.168a3.887,3.887,0,0,1-2.016-.52,3.692,3.692,0,0,1-1.384-1.448,4.526,4.526,0,0,1-.5-2.192,4.6,4.6,0,0,1,.5-2.184,3.606,3.606,0,0,1,1.384-1.456,3.993,3.993,0,0,1,2.056-.52,3.708,3.708,0,0,1,1.992.52,3.523,3.523,0,0,1,1.288,1.368,3.846,3.846,0,0,1,.448,1.824q0,.176-.008.352t-.008.4h-6.32a3.118,3.118,0,0,0,.424,1.512,2.5,2.5,0,0,0,2.152,1.208,2.4,2.4,0,0,0,1.392-.384,2.2,2.2,0,0,0,.816-1.04h1.328a3.485,3.485,0,0,1-3.536,2.56Zm0-7.184a2.684,2.684,0,0,0-1.7.584,2.353,2.353,0,0,0-.856,1.7h4.992a2.27,2.27,0,0,0-.736-1.68A2.469,2.469,0,0,0,251.256,165.008Zm6.008,7.072a.9.9,0,0,1-.664-.264.927.927,0,0,1,0-1.3.9.9,0,0,1,.664-.264.912.912,0,1,1,0,1.824Z" transform="translate(-0.336 -4.48)" fill="url(#linear-gradient)"/>
</svg>
