<svg xmlns="http://www.w3.org/2000/svg" xmlns:xlink="http://www.w3.org/1999/xlink" width="193.453" height="143.499" viewBox="0 0 193.453 143.499">
  <defs>
    <linearGradient id="linear-gradient" x1="-0.044" y1="0.55" x2="1.042" y2="0.564" gradientUnits="objectBoundingBox">
      <stop offset="0" stop-color="#d2c48c"/>
      <stop offset="1" stop-color="#9eaa92"/>
    </linearGradient>
  </defs>
  <path id="Number15" d="M80.147-141.589V-.5H49.83V-107.326a36.306,36.306,0,0,1-5.919,4.187,61.1,61.1,0,0,1-7.266,3.561,64.885,64.885,0,0,1-7.988,2.695A58.345,58.345,0,0,1,20.475-95.3v-25.6A126.466,126.466,0,0,0,42.8-129.751a127.069,127.069,0,0,0,18.96-11.838ZM127.212-4.057V-30.043a56.733,56.733,0,0,0,30.124,8.662q12.03,0,18.816-5.727t6.785-15.543q0-20.5-28.969-20.5a214.515,214.515,0,0,0-24.638,1.636l5.2-77h73.049v24.831H157.722L155.8-86.057q7.411-.577,12.8-.577,21.27,0,33.3,11.164t12.031,30.028q0,20.885-14.34,34.118T160.705,1.91Q140.783,1.91,127.212-4.057Z" transform="translate(-20.475 141.589)" fill="url(#linear-gradient)"/>
</svg>
