<svg xmlns="http://www.w3.org/2000/svg" xmlns:xlink="http://www.w3.org/1999/xlink" width="126.786" height="92.845" viewBox="0 0 126.786 92.845">
  <defs>
    <linearGradient id="linear-gradient" x1="-0.049" y1="0.57" x2="1.039" y2="0.595" gradientUnits="objectBoundingBox">
      <stop offset="0" stop-color="#bc7947"/>
      <stop offset="1" stop-color="#8e5836"/>
    </linearGradient>
  </defs>
  <path id="Num12" d="M-53.978-141.732v92.845h-19.95v-70.3a23.891,23.891,0,0,1-3.895,2.755,40.21,40.21,0,0,1-4.782,2.343,42.7,42.7,0,0,1-5.257,1.773,38.392,38.392,0,0,1-5.383,1.045v-16.846a83.219,83.219,0,0,0,14.693-5.827,83.617,83.617,0,0,0,12.476-7.79ZM-5.09-65.481H33.415v16.593H-27v-6.84A31.836,31.836,0,0,1-24.66-68.236a41.507,41.507,0,0,1,5.89-9.943,51.089,51.089,0,0,1,7.758-7.79Q-6.8-89.357-3-92.08q3.99-2.85,7-5.447a39.878,39.878,0,0,0,5.067-5.162,19.624,19.624,0,0,0,3.072-5.193,15.445,15.445,0,0,0,1.013-5.6q0-5.827-3.293-8.8t-10.07-2.977q-11.716,0-22.42,9.31v-17.606a48.126,48.126,0,0,1,26.726-7.663,39.471,39.471,0,0,1,12.381,1.8,26.2,26.2,0,0,1,9.278,5.162,22.014,22.014,0,0,1,5.795,8.138,27.465,27.465,0,0,1,1.995,10.671A30.089,30.089,0,0,1,31.61-104.3a34.251,34.251,0,0,1-5.13,8.866A46.534,46.534,0,0,1,19.1-88.122q-4.18,3.325-8.676,6.428-3.04,2.153-5.858,4.275A55.537,55.537,0,0,0-.4-73.239a22.691,22.691,0,0,0-3.42,4.022A6.942,6.942,0,0,0-5.09-65.481Z" transform="translate(93.244 141.732)" fill="url(#linear-gradient)"/>
</svg>
