<svg xmlns="http://www.w3.org/2000/svg" xmlns:xlink="http://www.w3.org/1999/xlink" width="200.313" height="144.149" viewBox="0 0 200.313 144.149">
  <defs>
    <linearGradient id="linear-gradient" x1="-0.054" y1="0.5" x2="1.093" y2="0.5" gradientUnits="objectBoundingBox">
      <stop offset="0" stop-color="#e4e9b4"/>
      <stop offset="1" stop-color="#b6edc6"/>
    </linearGradient>
  </defs>
  <path id="Num10" d="M-33.3-141.732V0H-63.757V-107.314a36.47,36.47,0,0,1-5.946,4.206A61.381,61.381,0,0,1-77-99.532a65.177,65.177,0,0,1-8.024,2.707,58.608,58.608,0,0,1-8.218,1.6v-25.717a127.038,127.038,0,0,0,22.43-8.895,127.644,127.644,0,0,0,19.046-11.892ZM56.023,2.417q-49.5,0-49.5-69.513,0-36.062,13.39-54.962t38.817-18.9q48.34,0,48.34,70.673,0,35.191-13.2,53.947T56.023,2.417Zm1.354-120.076q-19.819,0-19.819,49.79,0,46.89,19.433,46.89,18.949,0,18.949-48.34T57.376-117.659Z" transform="translate(93.244 141.732)" fill="url(#linear-gradient)"/>
</svg>
