<svg xmlns="http://www.w3.org/2000/svg" xmlns:xlink="http://www.w3.org/1999/xlink" width="193.546" height="144.431" viewBox="0 0 193.546 144.431">
  <defs>
    <linearGradient id="linear-gradient" x1="-0.053" y1="0.536" x2="1.046" y2="0.537" gradientUnits="objectBoundingBox">
      <stop offset="0" stop-color="#fa4939"/>
      <stop offset="1" stop-color="#fd8d4b"/>
    </linearGradient>
  </defs>
  <path id="Number13" d="M80.534-141.589V.42H50.02V-107.1a36.542,36.542,0,0,1-5.957,4.214,61.5,61.5,0,0,1-7.314,3.584,65.3,65.3,0,0,1-8.04,2.712A58.724,58.724,0,0,1,20.475-95v-25.767a127.287,127.287,0,0,0,22.474-8.912,127.9,127.9,0,0,0,19.083-11.915ZM125.483-4.133V-30.772Q139.432-20.6,158.031-20.6q11.721,0,18.26-5.037t6.539-14.046q0-9.3-8.089-14.337T152.51-59.057H139.626V-82.5h11.915q27.123,0,27.123-18.018,0-16.952-20.827-16.952-13.949,0-27.123,9.009v-24.992q14.627-7.362,34.1-7.362,21.311,0,33.177,9.59a30.52,30.52,0,0,1,11.866,24.9q0,27.22-27.608,34.1v.484q14.724,1.84,23.248,10.7A30.181,30.181,0,0,1,214.021-39.3q0,19.471-14.24,30.8T160.453,2.842Q138.948,2.842,125.483-4.133Z" transform="translate(-20.475 141.589)" fill="url(#linear-gradient)"/>
</svg>
