<svg xmlns="http://www.w3.org/2000/svg" xmlns:xlink="http://www.w3.org/1999/xlink" width="187.164" height="144" viewBox="0 0 187.164 144">
  <defs>
    <linearGradient id="linear-gradient" y1="0.476" x2="1" y2="0.476" gradientUnits="objectBoundingBox">
      <stop offset="0" stop-color="#a4c790"/>
      <stop offset="1" stop-color="#bdbd4d"/>
    </linearGradient>
  </defs>
  <path id="Num1" d="M6.188,86.734q-49.449,0-49.449-69.441,0-36.024,13.376-54.905T8.893-56.493q48.29,0,48.29,70.6Q57.182,49.262,44,68T6.188,86.734ZM7.54-33.217q-19.8,0-19.8,49.738,0,46.841,19.412,46.841,18.93,0,18.93-48.29T7.54-33.217ZM143.9-57.266V84.32H113.481v-107.2a36.434,36.434,0,0,1-5.94,4.2,61.319,61.319,0,0,1-7.292,3.573,65.11,65.11,0,0,1-8.016,2.7,58.55,58.55,0,0,1-8.209,1.594V-36.5a126.905,126.905,0,0,0,22.406-8.885,127.514,127.514,0,0,0,19.026-11.879Z" transform="translate(43.261 57.266)" fill="url(#linear-gradient)"/>
</svg>
