<svg xmlns="http://www.w3.org/2000/svg" xmlns:xlink="http://www.w3.org/1999/xlink" width="126.786" height="94.048" viewBox="0 0 126.786 94.048">
  <defs>
    <linearGradient id="linear-gradient" x1="-0.044" y1="0.55" x2="1.042" y2="0.564" gradientUnits="objectBoundingBox">
      <stop offset="0" stop-color="#dac264"/>
      <stop offset="1" stop-color="#819284"/>
    </linearGradient>
  </defs>
  <path id="PNum15" d="M59.583-141.589v92.471H39.714v-70.015a23.8,23.8,0,0,1-3.879,2.744,40.048,40.048,0,0,1-4.762,2.334,42.522,42.522,0,0,1-5.235,1.766,38.236,38.236,0,0,1-5.362,1.041v-16.778a82.882,82.882,0,0,0,14.634-5.8,83.28,83.28,0,0,0,12.426-7.758ZM90.429-51.452V-68.483a37.182,37.182,0,0,0,19.743,5.677q7.885,0,12.332-3.753a12.633,12.633,0,0,0,4.447-10.187q0-13.435-18.986-13.435a140.591,140.591,0,0,0-16.148,1.072l3.406-50.462H143.1V-123.3H110.425l-1.262,18.1q4.857-.378,8.389-.378,13.94,0,21.825,7.317t7.885,19.68q0,13.688-9.4,22.361T112.38-47.542Q99.323-47.542,90.429-51.452Z" transform="translate(-20.475 141.589)" fill="url(#linear-gradient)"/>
</svg>
