<svg xmlns="http://www.w3.org/2000/svg" xmlns:xlink="http://www.w3.org/1999/xlink" width="201.955" height="141.589" viewBox="0 0 201.955 141.589">
  <defs>
    <linearGradient id="linear-gradient" x1="-0.049" y1="0.608" x2="1" y2="0.606" gradientUnits="objectBoundingBox">
      <stop offset="0" stop-color="#7ec3b9"/>
      <stop offset="1" stop-color="#dc895b"/>
    </linearGradient>
  </defs>
  <path id="Number14" d="M80.356-141.589V0H49.933V-107.206a36.434,36.434,0,0,1-5.94,4.2A61.319,61.319,0,0,1,36.7-99.431a65.111,65.111,0,0,1-8.016,2.7,58.55,58.55,0,0,1-8.209,1.594v-25.691a126.909,126.909,0,0,0,22.407-8.886,127.516,127.516,0,0,0,19.027-11.88ZM205.819-138.5v87.31h16.612V-28.4H205.819V0H178V-28.4H117.639V-52.251q8.016-8.982,16.612-19.654t16.612-21.972q8.016-11.3,14.922-22.745A228.006,228.006,0,0,0,177.52-138.5Zm-60.847,87.31H178V-99.576q-3.38,6.278-7.34,12.7t-8.306,12.652q-4.346,6.23-8.789,12.073T144.972-51.188Z" transform="translate(-20.475 141.589)" fill="url(#linear-gradient)"/>
</svg>
