<svg xmlns="http://www.w3.org/2000/svg" xmlns:xlink="http://www.w3.org/1999/xlink" width="173.533" height="141.732" viewBox="0 0 173.533 141.732">
  <defs>
    <linearGradient id="linear-gradient" y1="0.575" x2="1.07" y2="0.59" gradientUnits="objectBoundingBox">
      <stop offset="0" stop-color="#61a0b0"/>
      <stop offset="1" stop-color="#56b4da"/>
    </linearGradient>
  </defs>
  <path id="Num11" d="M-33.3-141.732V0H-63.757V-107.314a36.47,36.47,0,0,1-5.946,4.206A61.381,61.381,0,0,1-77-99.532a65.176,65.176,0,0,1-8.024,2.707,58.609,58.609,0,0,1-8.218,1.6v-25.717a127.037,127.037,0,0,0,22.43-8.895,127.644,127.644,0,0,0,19.046-11.892Zm113.592,0V0H49.835V-107.314a36.47,36.47,0,0,1-5.946,4.206,61.382,61.382,0,0,1-7.3,3.577,65.177,65.177,0,0,1-8.024,2.707,58.609,58.609,0,0,1-8.218,1.6v-25.717a127.037,127.037,0,0,0,22.43-8.895,127.644,127.644,0,0,0,19.046-11.892Z" transform="translate(93.244 141.732)" fill="url(#linear-gradient)"/>
</svg>
