<svg xmlns="http://www.w3.org/2000/svg" xmlns:xlink="http://www.w3.org/1999/xlink" width="206.324" height="142.652" viewBox="0 0 206.324 142.652">
  <defs>
    <linearGradient id="linear-gradient" x1="-0.031" y1="0.5" x2="1.031" y2="0.5" gradientUnits="objectBoundingBox">
      <stop offset="0" stop-color="#86b1a7"/>
      <stop offset="1" stop-color="#b7ad68"/>
    </linearGradient>
  </defs>
  <path id="Num2" d="M-57.278,2.4q-49.25,0-49.25-69.162,0-35.879,13.323-54.685t38.621-18.805q48.1,0,48.1,70.316,0,35.014-13.13,53.675T-57.278,2.4Zm1.347-119.47q-19.719,0-19.719,49.539,0,46.653,19.335,46.653,18.854,0,18.854-48.1T-55.932-117.065ZM41.119-25.2H99.6V0H7.836V-10.389a48.354,48.354,0,0,1,3.559-19,63.043,63.043,0,0,1,8.946-15.1A77.6,77.6,0,0,1,32.125-56.32q6.4-5.146,12.168-9.282,6.06-4.329,10.629-8.272a60.57,60.57,0,0,0,7.7-7.84A29.8,29.8,0,0,0,67.283-89.6a23.458,23.458,0,0,0,1.539-8.513q0-8.85-5-13.371t-15.294-4.521q-17.8,0-34.052,14.14v-26.741a73.1,73.1,0,0,1,40.593-11.639,59.95,59.95,0,0,1,18.805,2.741,39.786,39.786,0,0,1,14.092,7.84,33.436,33.436,0,0,1,8.8,12.361A41.714,41.714,0,0,1,99.8-101.1a45.7,45.7,0,0,1-2.934,16.93A52.021,52.021,0,0,1,89.07-70.7a70.676,70.676,0,0,1-11.206,11.11q-6.349,5.05-13.178,9.763-4.617,3.271-8.9,6.493a84.354,84.354,0,0,0-7.551,6.349,34.463,34.463,0,0,0-5.194,6.108A10.544,10.544,0,0,0,41.119-25.2Z" transform="translate(106.528 140.247)" fill="url(#linear-gradient)"/>
</svg>
