<svg xmlns="http://www.w3.org/2000/svg" xmlns:xlink="http://www.w3.org/1999/xlink" width="206.598" height="143.376" viewBox="0 0 206.598 143.376">
  <defs>
    <linearGradient id="linear-gradient" x1="-0.11" y1="0.5" x2="1.037" y2="0.5" gradientUnits="objectBoundingBox">
      <stop offset="0" stop-color="#dfc988"/>
      <stop offset="1" stop-color="#88b5b6"/>
    </linearGradient>
  </defs>
  <path id="Num3" d="M-57.569,2.417q-49.5,0-49.5-69.513,0-36.062,13.39-54.962t38.817-18.9q48.34,0,48.34,70.673,0,35.191-13.2,53.947T-57.569,2.417Zm1.354-120.076q-19.819,0-19.819,49.79,0,46.89,19.433,46.89,18.949,0,18.949-48.34T-56.216-117.659ZM11.163-4.544V-31.131Q25.085-20.979,43.648-20.979q11.7,0,18.224-5.027T68.4-40.025q0-9.281-8.073-14.309T38.137-59.361H25.279v-23.4H37.17q27.07,0,27.07-17.982,0-16.919-20.786-16.919-13.922,0-27.07,8.991v-24.943q14.6-7.348,34.031-7.348,21.27,0,33.113,9.571a30.46,30.46,0,0,1,11.843,24.847q0,27.167-27.554,34.031v.483q14.7,1.837,23.2,10.683a30.122,30.122,0,0,1,8.508,21.7q0,19.433-14.212,30.744T46.065,2.417Q24.6,2.417,11.163-4.544Z" transform="translate(107.069 140.959)" fill="url(#linear-gradient)"/>
</svg>
