<svg xmlns="http://www.w3.org/2000/svg" xmlns:xlink="http://www.w3.org/1999/xlink" width="215.589" height="143.376" viewBox="0 0 215.589 143.376">
  <defs>
    <linearGradient id="linear-gradient" x1="-0.046" y1="0.5" x2="1.037" y2="0.5" gradientUnits="objectBoundingBox">
      <stop offset="0" stop-color="#f4c17d"/>
      <stop offset="1" stop-color="#c5dc6f"/>
    </linearGradient>
  </defs>
  <path id="Num4" d="M-57.569,2.417q-49.5,0-49.5-69.513,0-36.062,13.39-54.962t38.817-18.9q48.34,0,48.34,70.673,0,35.191-13.2,53.947T-57.569,2.417Zm1.354-120.076q-19.819,0-19.819,49.79,0,46.89,19.433,46.89,18.949,0,18.949-48.34T-56.216-117.659ZM91.891-138.639v87.4H108.52v22.816H91.891V0H64.047V-28.424H3.622V-52.3q8.024-8.991,16.629-19.674T36.88-93.973q8.024-11.312,14.937-22.768a228.236,228.236,0,0,0,11.747-21.9ZM30.983-51.24H64.047V-99.677Q60.663-93.393,56.7-86.963T48.385-74.3q-4.351,6.236-8.8,12.085T30.983-51.24Z" transform="translate(107.069 140.959)" fill="url(#linear-gradient)"/>
</svg>
