<svg xmlns="http://www.w3.org/2000/svg" xmlns:xlink="http://www.w3.org/1999/xlink" width="207.758" height="143.376" viewBox="0 0 207.758 143.376">
  <defs>
    <linearGradient id="linear-gradient" y1="0.533" x2="1.039" y2="0.548" gradientUnits="objectBoundingBox">
      <stop offset="0" stop-color="#858e87"/>
      <stop offset="1" stop-color="#b46f4b"/>
    </linearGradient>
  </defs>
  <path id="Num5" d="M-57.569,2.417q-49.5,0-49.5-69.513,0-36.062,13.39-54.962t38.817-18.9q48.34,0,48.34,70.673,0,35.191-13.2,53.947T-57.569,2.417Zm1.354-120.076q-19.819,0-19.819,49.79,0,46.89,19.433,46.89,18.949,0,18.949-48.34T-56.216-117.659ZM13.58-3.577v-26.1a56.99,56.99,0,0,0,30.261,8.7q12.085,0,18.9-5.752t6.816-15.614q0-20.593-29.1-20.593a215.488,215.488,0,0,0-24.75,1.644l5.221-77.344h73.38V-113.7H44.228L42.294-85.948q7.444-.58,12.858-.58,21.366,0,33.451,11.215t12.085,30.164q0,20.979-14.405,34.273T47.225,2.417Q27.212,2.417,13.58-3.577Z" transform="translate(107.069 140.959)" fill="url(#linear-gradient)"/>
</svg>
