<svg xmlns="http://www.w3.org/2000/svg" xmlns:xlink="http://www.w3.org/1999/xlink" width="214.235" height="143.376" viewBox="0 0 214.235 143.376">
  <defs>
    <linearGradient id="linear-gradient" y1="0.5" x2="1.019" y2="0.5" gradientUnits="objectBoundingBox">
      <stop offset="0" stop-color="#5c4477"/>
      <stop offset="1" stop-color="#8c2051"/>
    </linearGradient>
  </defs>
  <path id="Number6" d="M-57.569,2.417q-49.5,0-49.5-69.513,0-36.062,13.39-54.962t38.817-18.9q48.34,0,48.34,70.673,0,35.191-13.2,53.947T-57.569,2.417Zm1.354-120.076q-19.819,0-19.819,49.79,0,46.89,19.433,46.89,18.949,0,18.949-48.34T-56.216-117.659ZM107.166-46.116a50.82,50.82,0,0,1-3.577,19.143,46.729,46.729,0,0,1-9.958,15.42A46.074,46.074,0,0,1,78.452-1.305,48.875,48.875,0,0,1,59.213,2.417,48.531,48.531,0,0,1,38.282-1.934,42.249,42.249,0,0,1,22.668-14.55,58.99,58.99,0,0,1,12.9-34.8,100.1,100.1,0,0,1,9.519-61.972a111.852,111.852,0,0,1,4.4-32.436,74.47,74.47,0,0,1,12.568-24.9,56.453,56.453,0,0,1,19.771-16,58.792,58.792,0,0,1,26.1-5.656q16.049,0,24.943,3.771v25.523a45.741,45.741,0,0,0-23.01-5.994,32.152,32.152,0,0,0-14.019,3,30.987,30.987,0,0,0-10.78,8.508,41.135,41.135,0,0,0-7.058,13.293,59.162,59.162,0,0,0-2.755,17.354h.58q9.861-13.632,29.1-13.632A37.919,37.919,0,0,1,84.93-86.045,33.768,33.768,0,0,1,96.821-77.3a40.137,40.137,0,0,1,7.638,13.583A54.193,54.193,0,0,1,107.166-46.116ZM77.292-44.183q0-22.333-18.272-22.333a17.929,17.929,0,0,0-7.541,1.547,16.778,16.778,0,0,0-5.8,4.351A19.849,19.849,0,0,0,41.956-54a26.029,26.029,0,0,0-1.305,8.459A32.719,32.719,0,0,0,42-35.965a25.42,25.42,0,0,0,3.819,7.783,18.911,18.911,0,0,0,5.849,5.269,14.928,14.928,0,0,0,7.541,1.934,16.326,16.326,0,0,0,7.493-1.692,16.777,16.777,0,0,0,5.7-4.737,21.773,21.773,0,0,0,3.625-7.348A33.516,33.516,0,0,0,77.292-44.183Z" transform="translate(107.069 140.959)" fill="url(#linear-gradient)"/>
</svg>
