<svg xmlns="http://www.w3.org/2000/svg" xmlns:xlink="http://www.w3.org/1999/xlink" width="212.688" height="143.376" viewBox="0 0 212.688 143.376">
  <defs>
    <linearGradient id="linear-gradient" y1="0.5" x2="1.066" y2="0.5" gradientUnits="objectBoundingBox">
      <stop offset="0" stop-color="#b84b8e"/>
      <stop offset="1" stop-color="#5b4892"/>
    </linearGradient>
  </defs>
  <path id="Num7" d="M-57.569,2.417q-49.5,0-49.5-69.513,0-36.062,13.39-54.962t38.817-18.9q48.34,0,48.34,70.673,0,35.191-13.2,53.947T-57.569,2.417Zm1.354-120.076q-19.819,0-19.819,49.79,0,46.89,19.433,46.89,18.949,0,18.949-48.34T-56.216-117.659Zm161.835-3.384Q96.338-104.317,88.991-89.67T76.036-60.763a272.613,272.613,0,0,0-9.571,29A280.147,280.147,0,0,0,59.987,0h-31.9a261.043,261.043,0,0,1,7.154-31.131,291.951,291.951,0,0,1,10.3-29.052Q51.382-74.25,58.488-87.592t15.034-26.1H9.133v-24.943H105.62Z" transform="translate(107.069 140.959)" fill="url(#linear-gradient)"/>
</svg>
