<svg xmlns="http://www.w3.org/2000/svg" xmlns:xlink="http://www.w3.org/1999/xlink" width="213.075" height="143.376" viewBox="0 0 213.075 143.376">
  <defs>
    <linearGradient id="linear-gradient" y1="0.468" x2="1.059" y2="0.468" gradientUnits="objectBoundingBox">
      <stop offset="0" stop-color="#b4dd75"/>
      <stop offset="1" stop-color="#7db945"/>
    </linearGradient>
  </defs>
  <path id="Num8" d="M-57.569,2.417q-49.5,0-49.5-69.513,0-36.062,13.39-54.962t38.817-18.9q48.34,0,48.34,70.673,0,35.191-13.2,53.947T-57.569,2.417Zm1.354-120.076q-19.819,0-19.819,49.79,0,46.89,19.433,46.89,18.949,0,18.949-48.34T-56.216-117.659Zm63.8,80.341A36.911,36.911,0,0,1,9.278-48.485a33.839,33.839,0,0,1,5.076-9.958,37.359,37.359,0,0,1,8.459-8.218,45.437,45.437,0,0,1,11.94-5.946A42.818,42.818,0,0,1,18.414-86a30.6,30.6,0,0,1-5.8-18.127,32.785,32.785,0,0,1,3.335-14.7,35.656,35.656,0,0,1,9.233-11.7A43.188,43.188,0,0,1,39.249-138.2a55.5,55.5,0,0,1,17.837-2.755A56.586,56.586,0,0,1,75.165-138.2a44.21,44.21,0,0,1,14.164,7.638,34.642,34.642,0,0,1,9.233,11.553,32.359,32.359,0,0,1,3.287,14.5,28.778,28.778,0,0,1-6.188,17.934A46.063,46.063,0,0,1,78.549-73.283a46.645,46.645,0,0,1,11.892,5.946,38.27,38.27,0,0,1,8.6,8.266,33.861,33.861,0,0,1,5.221,10.1,37.2,37.2,0,0,1,1.74,11.36,36.3,36.3,0,0,1-3.577,16.194,36.861,36.861,0,0,1-10.1,12.568A47.677,47.677,0,0,1,76.761-.677,65.091,65.091,0,0,1,56.8,2.224,65.425,65.425,0,0,1,37.025-.628,47.514,47.514,0,0,1,21.46-8.7a37.44,37.44,0,0,1-10.2-12.52A35.292,35.292,0,0,1,7.586-37.318Zm28.907-2.61a23.553,23.553,0,0,0,1.45,8.508A17.4,17.4,0,0,0,42.1-25.04a18.568,18.568,0,0,0,6.429,4.012,23.585,23.585,0,0,0,8.363,1.4,22.319,22.319,0,0,0,8.169-1.45,19.169,19.169,0,0,0,6.429-4.061,18.471,18.471,0,0,0,4.254-6.381,21.97,21.97,0,0,0,1.547-8.411,21.893,21.893,0,0,0-1.45-7.928,18.844,18.844,0,0,0-4.157-6.526,20.536,20.536,0,0,0-6.429-4.4,20.492,20.492,0,0,0-8.363-1.644,21.787,21.787,0,0,0-8.121,1.5,18.574,18.574,0,0,0-6.478,4.254,20.067,20.067,0,0,0-4.254,6.526A21.444,21.444,0,0,0,36.493-39.929Zm4.254-61.392a18.318,18.318,0,0,0,1.305,6.913A17.837,17.837,0,0,0,45.581-88.8a16.128,16.128,0,0,0,5.269,3.722,15.655,15.655,0,0,0,6.429,1.354,15.553,15.553,0,0,0,6.478-1.354,16.472,16.472,0,0,0,5.269-3.771A18.121,18.121,0,0,0,72.6-94.456a17.952,17.952,0,0,0,1.305-6.864,19.208,19.208,0,0,0-1.257-7.009,16.756,16.756,0,0,0-3.529-5.607,16.678,16.678,0,0,0-5.317-3.722,15.886,15.886,0,0,0-6.526-1.354,15.876,15.876,0,0,0-6.719,1.4,16.2,16.2,0,0,0-5.221,3.771,16.944,16.944,0,0,0-3.384,5.607A19.612,19.612,0,0,0,40.747-101.32Z" transform="translate(107.069 140.959)" fill="url(#linear-gradient)"/>
</svg>
