<svg xmlns="http://www.w3.org/2000/svg" xmlns:xlink="http://www.w3.org/1999/xlink" width="138.882" height="93.921" viewBox="0 0 138.882 93.921">
  <defs>
    <linearGradient id="linear-gradient" y1="0.531" x2="1.021" y2="0.524" gradientUnits="objectBoundingBox">
      <stop offset="0" stop-color="#dbc48f"/>
      <stop offset="1" stop-color="#f19462"/>
    </linearGradient>
  </defs>
  <path id="PNum9" d="M-74.643-47.038q-32.426,0-32.426-45.536,0-23.623,8.771-36t25.428-12.381q31.666,0,31.666,46.3,0,23.053-8.645,35.339T-74.643-47.038Zm.887-78.658q-12.983,0-12.983,32.616,0,30.716,12.73,30.716,12.413,0,12.413-31.666T-73.757-125.7ZM31.813-98.4a80.557,80.557,0,0,1-2.66,21.628,46.394,46.394,0,0,1-7.758,16.118A34.262,34.262,0,0,1,8.95-50.553,38.123,38.123,0,0,1-7.706-47.038q-11.146,0-19.19-3.547V-67.051q7.156,4.687,17.226,4.687,10.323,0,16.15-7.03t5.89-20.329l-.38-.127q-6.017,8.93-18.3,8.93A25.125,25.125,0,0,1-16.6-83.01a24.725,24.725,0,0,1-8.17-5.795,26.484,26.484,0,0,1-5.383-8.835,31.754,31.754,0,0,1-1.932-11.273,35,35,0,0,1,2.343-13.046,29.867,29.867,0,0,1,6.555-10.133,28.923,28.923,0,0,1,10.1-6.555A35.428,35.428,0,0,1-.043-140.959a29.869,29.869,0,0,1,13.3,2.882,27.945,27.945,0,0,1,10.038,8.328,38.88,38.88,0,0,1,6.333,13.363A67.708,67.708,0,0,1,31.813-98.4Zm-20.2-10.64a23.532,23.532,0,0,0-.887-6.555,17.249,17.249,0,0,0-2.47-5.288A12.023,12.023,0,0,0,4.39-124.4a9.935,9.935,0,0,0-5-1.3,10.18,10.18,0,0,0-4.782,1.14,11.658,11.658,0,0,0-3.768,3.135,14.847,14.847,0,0,0-2.47,4.782,19.74,19.74,0,0,0-.887,6.017,20.556,20.556,0,0,0,.887,6.3,13.456,13.456,0,0,0,2.5,4.655,10.494,10.494,0,0,0,3.895,2.882A12.683,12.683,0,0,0-.17-95.8a10.88,10.88,0,0,0,4.813-1.045,11.6,11.6,0,0,0,3.7-2.818,12.756,12.756,0,0,0,2.407-4.18A15.4,15.4,0,0,0,11.61-109.04Z" transform="translate(107.069 140.959)" fill="url(#linear-gradient)"/>
</svg>
