<svg xmlns="http://www.w3.org/2000/svg" xmlns:xlink="http://www.w3.org/1999/xlink" width="212.012" height="143.376" viewBox="0 0 212.012 143.376">
  <defs>
    <linearGradient id="linear-gradient" y1="0.531" x2="1.021" y2="0.524" gradientUnits="objectBoundingBox">
      <stop offset="0" stop-color="#fbe8b9"/>
      <stop offset="1" stop-color="#f8ba99"/>
    </linearGradient>
  </defs>
  <path id="Num9" d="M-57.569,2.417q-49.5,0-49.5-69.513,0-36.062,13.39-54.962t38.817-18.9q48.34,0,48.34,70.673,0,35.191-13.2,53.947T-57.569,2.417Zm1.354-120.076q-19.819,0-19.819,49.79,0,46.89,19.433,46.89,18.949,0,18.949-48.34T-56.216-117.659ZM104.943-75.99a122.976,122.976,0,0,1-4.061,33.016,70.823,70.823,0,0,1-11.843,24.6,52.3,52.3,0,0,1-19,15.42A58.2,58.2,0,0,1,44.615,2.417Q27.6,2.417,15.321-3V-28.134q10.925,7.154,26.3,7.154,15.759,0,24.653-10.731t8.991-31.034l-.58-.193Q65.5-49.307,46.742-49.307a38.354,38.354,0,0,1-15.71-3.19,37.744,37.744,0,0,1-12.472-8.846A40.43,40.43,0,0,1,10.342-74.83,48.474,48.474,0,0,1,7.393-92.039a53.432,53.432,0,0,1,3.577-19.916,45.594,45.594,0,0,1,10.006-15.469A44.153,44.153,0,0,1,36.4-137.43a54.083,54.083,0,0,1,19.916-3.529,45.6,45.6,0,0,1,20.3,4.4,42.66,42.66,0,0,1,15.324,12.713,59.352,59.352,0,0,1,9.668,20.4A103.361,103.361,0,0,1,104.943-75.99ZM74.1-92.232a35.923,35.923,0,0,0-1.354-10.006,26.331,26.331,0,0,0-3.771-8.073,18.354,18.354,0,0,0-5.9-5.366,15.167,15.167,0,0,0-7.638-1.982,15.54,15.54,0,0,0-7.3,1.74,17.8,17.8,0,0,0-5.752,4.786,22.666,22.666,0,0,0-3.771,7.3,30.134,30.134,0,0,0-1.354,9.185,31.38,31.38,0,0,0,1.354,9.62,20.542,20.542,0,0,0,3.819,7.106,16.02,16.02,0,0,0,5.946,4.4,19.362,19.362,0,0,0,7.734,1.5,16.609,16.609,0,0,0,7.348-1.6,17.7,17.7,0,0,0,5.656-4.3A19.473,19.473,0,0,0,72.8-84.3,23.515,23.515,0,0,0,74.1-92.232Z" transform="translate(107.069 140.959)" fill="url(#linear-gradient)"/>
</svg>
