<svg xmlns="http://www.w3.org/2000/svg" xmlns:xlink="http://www.w3.org/1999/xlink" width="259" height="76" viewBox="0 0 259 76">
  <defs>
    <linearGradient id="linear-gradient" y1="0.582" x2="1" y2="0.655" gradientUnits="objectBoundingBox">
      <stop offset="0" stop-color="#ca8a5b"/>
      <stop offset="1" stop-color="#a66f4c"/>
    </linearGradient>
  </defs>
  <g id="Tit12" transform="translate(0 -9346)">
    <path id="Rectangle_473" data-name="Rectangle 473" d="M0,0H221a38,38,0,0,1,38,38v0a38,38,0,0,1-38,38H0a0,0,0,0,1,0,0V0A0,0,0,0,1,0,0Z" transform="translate(0 9346)" fill="#fff"/>
    <path id="Path_279" data-name="Path 279" d="M2.346-43.264,13.075-72.6H19.11L29.84-43.264h-5.7l-2.347-6.79H10.351l-2.389,6.79Zm9.472-10.981h8.508l-4.275-12.2ZM42.686-42.761a11.158,11.158,0,0,1-5.616-1.383A10.068,10.068,0,0,1,33.235-48a11.257,11.257,0,0,1-1.4-5.658,11.257,11.257,0,0,1,1.4-5.658,10.068,10.068,0,0,1,3.835-3.856,11.158,11.158,0,0,1,5.616-1.383,10.744,10.744,0,0,1,6.706,2.075,9.275,9.275,0,0,1,3.479,5.721H47.212a4.135,4.135,0,0,0-1.655-2.368,4.976,4.976,0,0,0-2.913-.859,4.947,4.947,0,0,0-3.772,1.676,6.59,6.59,0,0,0-1.551,4.652,6.59,6.59,0,0,0,1.551,4.652,4.947,4.947,0,0,0,3.772,1.676,5.065,5.065,0,0,0,2.913-.838,4.053,4.053,0,0,0,1.655-2.389H52.87A9.48,9.48,0,0,1,49.391-44.9,10.529,10.529,0,0,1,42.686-42.761Zm24.916,0a10.706,10.706,0,0,1-5.428-1.383,10.154,10.154,0,0,1-3.814-3.835,11.226,11.226,0,0,1-1.4-5.679,11.1,11.1,0,0,1,1.425-5.679,10.309,10.309,0,0,1,3.835-3.835,10.706,10.706,0,0,1,5.428-1.383,10.624,10.624,0,0,1,5.386,1.383,10.154,10.154,0,0,1,3.814,3.835,11.226,11.226,0,0,1,1.4,5.679,11.226,11.226,0,0,1-1.4,5.679,10.11,10.11,0,0,1-3.835,3.835A10.739,10.739,0,0,1,67.6-42.761Zm0-4.652a4.958,4.958,0,0,0,3.646-1.572A6.394,6.394,0,0,0,72.8-53.658a6.394,6.394,0,0,0-1.551-4.673,4.912,4.912,0,0,0-3.6-1.572,4.937,4.937,0,0,0-3.667,1.572,6.448,6.448,0,0,0-1.53,4.673,6.448,6.448,0,0,0,1.53,4.673A4.89,4.89,0,0,0,67.6-47.413Zm23.2,4.652a7.547,7.547,0,0,1-6.014-2.431q-2.117-2.431-2.117-7.125V-64.052h5.323V-52.82a6.66,6.66,0,0,0,1.09,4.107,4.051,4.051,0,0,0,3.437,1.425,4.737,4.737,0,0,0,3.667-1.593,6.37,6.37,0,0,0,1.446-4.443V-64.052H103v20.788H98.26l-.419-3.521a7.309,7.309,0,0,1-2.787,2.934A8.133,8.133,0,0,1,90.8-42.761Zm26.257,0a12.221,12.221,0,0,1-4.862-.9,8.4,8.4,0,0,1-3.353-2.494,7.219,7.219,0,0,1-1.509-3.688h5.407a3.481,3.481,0,0,0,1.362,2.075,4.558,4.558,0,0,0,2.871.859,3.865,3.865,0,0,0,2.578-.712,2.123,2.123,0,0,0,.817-1.635,1.8,1.8,0,0,0-1.174-1.823,20.679,20.679,0,0,0-3.269-.943q-1.341-.293-2.724-.712a12.57,12.57,0,0,1-2.536-1.069,5.542,5.542,0,0,1-1.865-1.676,4.34,4.34,0,0,1-.713-2.536,5.893,5.893,0,0,1,2.2-4.652,9.212,9.212,0,0,1,6.182-1.886,9.312,9.312,0,0,1,5.889,1.718,6.965,6.965,0,0,1,2.619,4.736h-5.071q-.461-2.305-3.479-2.305a3.946,3.946,0,0,0-2.326.587,1.75,1.75,0,0,0-.817,1.467q0,.922,1.215,1.467a17.85,17.85,0,0,0,3.227,1.006q2.179.5,4,1.111a6.726,6.726,0,0,1,2.913,1.8,4.893,4.893,0,0,1,1.09,3.416,5.837,5.837,0,0,1-1.006,3.479,6.949,6.949,0,0,1-3.018,2.431A11.329,11.329,0,0,1,117.057-42.761Zm21.982-.5a8.083,8.083,0,0,1-5.239-1.593q-1.97-1.593-1.97-5.658v-9.053h-3.562v-4.485h3.562l.629-5.574H137.2v5.574h5.616v4.485H137.2v9.095a2.67,2.67,0,0,0,.65,2.075,3.437,3.437,0,0,0,2.242.566h2.6v4.568Zm11.253-24.015a3.392,3.392,0,0,1-2.41-.88,2.909,2.909,0,0,1-.943-2.221,2.843,2.843,0,0,1,.943-2.2,3.44,3.44,0,0,1,2.41-.859,3.44,3.44,0,0,1,2.41.859,2.843,2.843,0,0,1,.943,2.2,2.909,2.909,0,0,1-.943,2.221A3.392,3.392,0,0,1,150.293-67.279ZM147.61-43.264V-64.052h5.365v20.788Zm21.144.5a11.158,11.158,0,0,1-5.616-1.383A10.068,10.068,0,0,1,159.3-48a11.257,11.257,0,0,1-1.4-5.658,11.257,11.257,0,0,1,1.4-5.658,10.068,10.068,0,0,1,3.835-3.856,11.158,11.158,0,0,1,5.616-1.383,10.744,10.744,0,0,1,6.706,2.075,9.275,9.275,0,0,1,3.479,5.721h-5.658a4.136,4.136,0,0,0-1.656-2.368,4.976,4.976,0,0,0-2.913-.859,4.947,4.947,0,0,0-3.772,1.676,6.59,6.59,0,0,0-1.551,4.652,6.59,6.59,0,0,0,1.551,4.652,4.947,4.947,0,0,0,3.772,1.676,5.065,5.065,0,0,0,2.913-.838,4.053,4.053,0,0,0,1.656-2.389h5.658A9.48,9.48,0,0,1,175.46-44.9,10.529,10.529,0,0,1,168.755-42.761Zm23.533,0a12.221,12.221,0,0,1-4.862-.9,8.4,8.4,0,0,1-3.353-2.494,7.219,7.219,0,0,1-1.509-3.688h5.407a3.481,3.481,0,0,0,1.362,2.075,4.558,4.558,0,0,0,2.871.859,3.865,3.865,0,0,0,2.578-.712,2.123,2.123,0,0,0,.817-1.635,1.8,1.8,0,0,0-1.173-1.823,20.679,20.679,0,0,0-3.269-.943q-1.341-.293-2.724-.712A12.57,12.57,0,0,1,185.9-53.8a5.542,5.542,0,0,1-1.865-1.676,4.34,4.34,0,0,1-.712-2.536,5.893,5.893,0,0,1,2.2-4.652,9.212,9.212,0,0,1,6.182-1.886,9.312,9.312,0,0,1,5.889,1.718,6.964,6.964,0,0,1,2.619,4.736h-5.071q-.461-2.305-3.479-2.305a3.946,3.946,0,0,0-2.326.587,1.75,1.75,0,0,0-.817,1.467q0,.922,1.215,1.467a17.85,17.85,0,0,0,3.227,1.006q2.179.5,4,1.111a6.726,6.726,0,0,1,2.913,1.8,4.893,4.893,0,0,1,1.09,3.416,5.837,5.837,0,0,1-1.006,3.479,6.949,6.949,0,0,1-3.018,2.431A11.329,11.329,0,0,1,192.288-42.761Z" transform="translate(27.654 9441.957)" fill="url(#linear-gradient)"/>
  </g>
</svg>
