<svg id="Tit11" xmlns="http://www.w3.org/2000/svg" xmlns:xlink="http://www.w3.org/1999/xlink" width="599" height="194" viewBox="0 0 599 194">
  <defs>
    <linearGradient id="linear-gradient" y1="0.5" x2="1.044" y2="0.64" gradientUnits="objectBoundingBox">
      <stop offset="0" stop-color="#74b3bc"/>
      <stop offset="1" stop-color="#578b9a"/>
    </linearGradient>
  </defs>
  <path id="Rectangle_395" data-name="Rectangle 395" d="M0,0H502a97,97,0,0,1,97,97v0a97,97,0,0,1-97,97H0a0,0,0,0,1,0,0V0A0,0,0,0,1,0,0Z" transform="translate(0 0)" fill="#fff"/>
  <path id="Path_244" data-name="Path 244" d="M-208.253,0V-71.05h26.086q8.526,0,14.058,2.893a19.5,19.5,0,0,1,8.272,7.815,22.05,22.05,0,0,1,2.74,10.911,21.78,21.78,0,0,1-3.4,11.875q-3.4,5.38-10.607,7.815L-156.386,0h-14.921l-13.2-28.014h-10.759V0Zm12.992-37.555h12.281q6.5,0,9.541-3.147a11.461,11.461,0,0,0,3.045-8.323,11.079,11.079,0,0,0-2.994-8.12q-2.994-3.045-9.693-3.045h-12.18Zm70.9,38.773a25.928,25.928,0,0,1-13.144-3.35,24.592,24.592,0,0,1-9.236-9.287,27.187,27.187,0,0,1-3.4-13.753,26.871,26.871,0,0,1,3.451-13.753,24.965,24.965,0,0,1,9.287-9.287,25.928,25.928,0,0,1,13.144-3.349,25.73,25.73,0,0,1,13.043,3.349,24.592,24.592,0,0,1,9.236,9.287,27.187,27.187,0,0,1,3.4,13.753,27.187,27.187,0,0,1-3.4,13.753,24.484,24.484,0,0,1-9.287,9.287A26.008,26.008,0,0,1-124.363,1.218Zm0-11.267a12.007,12.007,0,0,0,8.831-3.806q3.755-3.806,3.755-11.317t-3.755-11.317a11.9,11.9,0,0,0-8.729-3.806,11.956,11.956,0,0,0-8.881,3.806q-3.7,3.806-3.7,11.317t3.7,11.317A11.844,11.844,0,0,0-124.363-10.049ZM-57.322,1.218A21.976,21.976,0,0,1-67.269-.914a17.929,17.929,0,0,1-6.9-5.989L-75.592,0H-87.163V-73.08h12.992v29.943a23.123,23.123,0,0,1,6.445-5.887q4.009-2.537,10.4-2.537a23.633,23.633,0,0,1,12.688,3.451,24.724,24.724,0,0,1,8.831,9.44,28.065,28.065,0,0,1,3.248,13.6A27.772,27.772,0,0,1-35.8-11.52a24.438,24.438,0,0,1-8.831,9.338A23.9,23.9,0,0,1-57.322,1.218ZM-60.063-10.15a13.719,13.719,0,0,0,10.251-4.161,14.758,14.758,0,0,0,4.06-10.759,15.111,15.111,0,0,0-4.06-10.86,13.554,13.554,0,0,0-10.251-4.263,13.593,13.593,0,0,0-10.3,4.212,15.04,15.04,0,0,0-4.009,10.81,15.04,15.04,0,0,0,4.009,10.81A13.593,13.593,0,0,0-60.063-10.15ZM3.02,1.218a25.928,25.928,0,0,1-13.144-3.35,24.592,24.592,0,0,1-9.236-9.287,27.187,27.187,0,0,1-3.4-13.753A26.871,26.871,0,0,1-19.31-38.925a24.965,24.965,0,0,1,9.287-9.287A25.928,25.928,0,0,1,3.121-51.562a25.73,25.73,0,0,1,13.043,3.349A24.592,24.592,0,0,1,25.4-38.925a27.187,27.187,0,0,1,3.4,13.753,27.187,27.187,0,0,1-3.4,13.753,24.484,24.484,0,0,1-9.287,9.287A26.008,26.008,0,0,1,3.02,1.218Zm0-11.267a12.007,12.007,0,0,0,8.831-3.806q3.755-3.806,3.755-11.317T11.85-36.489A11.9,11.9,0,0,0,3.121-40.3,11.956,11.956,0,0,0-5.76-36.489q-3.7,3.806-3.7,11.317t3.7,11.317A11.844,11.844,0,0,0,3.02-10.049ZM60.621,0Q52.7,0,47.933-3.857t-4.771-13.7V-39.484H34.535V-50.344h8.627l1.523-13.5h11.47v13.5h13.6v10.861h-13.6v22.026q0,3.654,1.573,5.024t5.43,1.37h6.293V0ZM87.772-58.16a8.214,8.214,0,0,1-5.836-2.132,7.044,7.044,0,0,1-2.284-5.379A6.886,6.886,0,0,1,81.936-71a8.332,8.332,0,0,1,5.836-2.081A8.331,8.331,0,0,1,93.608-71a6.886,6.886,0,0,1,2.284,5.329,7.044,7.044,0,0,1-2.284,5.379A8.214,8.214,0,0,1,87.772-58.16ZM81.276,0V-50.344H94.268V0Zm51.105,1.218a27.022,27.022,0,0,1-13.6-3.35,24.383,24.383,0,0,1-9.287-9.338,27.262,27.262,0,0,1-3.4-13.7,27.262,27.262,0,0,1,3.4-13.7,24.383,24.383,0,0,1,9.287-9.338,27.022,27.022,0,0,1,13.6-3.349q9.642,0,16.24,5.024a22.462,22.462,0,0,1,8.424,13.855h-13.7a10.015,10.015,0,0,0-4.009-5.735A12.051,12.051,0,0,0,132.28-40.5a11.98,11.98,0,0,0-9.135,4.06q-3.755,4.06-3.755,11.267t3.755,11.266a11.98,11.98,0,0,0,9.135,4.06,12.267,12.267,0,0,0,7.054-2.03,9.815,9.815,0,0,0,4.009-5.786h13.7a22.96,22.96,0,0,1-8.424,13.7Q142.024,1.218,132.381,1.218Zm56.891,0A29.6,29.6,0,0,1,177.5-.964,20.339,20.339,0,0,1,169.378-7a17.484,17.484,0,0,1-3.654-8.932h13.094a8.43,8.43,0,0,0,3.3,5.024,11.039,11.039,0,0,0,6.953,2.081q4.263,0,6.242-1.725a5.143,5.143,0,0,0,1.979-3.959,4.359,4.359,0,0,0-2.842-4.415,50.081,50.081,0,0,0-7.917-2.284q-3.248-.71-6.6-1.726a30.441,30.441,0,0,1-6.141-2.588,13.421,13.421,0,0,1-4.517-4.06,10.511,10.511,0,0,1-1.725-6.141,14.271,14.271,0,0,1,5.329-11.266q5.329-4.567,14.971-4.567,8.932,0,14.261,4.161a16.866,16.866,0,0,1,6.344,11.47H196.174q-1.117-5.582-8.424-5.583a9.556,9.556,0,0,0-5.633,1.421,4.238,4.238,0,0,0-1.979,3.553q0,2.233,2.943,3.552a43.231,43.231,0,0,0,7.816,2.436q5.278,1.218,9.693,2.69a16.29,16.29,0,0,1,7.054,4.365q2.639,2.893,2.639,8.272A14.136,14.136,0,0,1,207.847-6.8a16.829,16.829,0,0,1-7.308,5.887A27.436,27.436,0,0,1,189.272,1.218Z" transform="translate(298.253 132.875)" fill="url(#linear-gradient)"/>
</svg>
