<svg xmlns="http://www.w3.org/2000/svg" xmlns:xlink="http://www.w3.org/1999/xlink" width="802" height="194" viewBox="0 0 802 194">
  <defs>
    <linearGradient id="linear-gradient" y1="0.389" x2="1.014" y2="0.5" gradientUnits="objectBoundingBox">
      <stop offset="0" stop-color="#d4d399"/>
      <stop offset="1" stop-color="#818d69"/>
    </linearGradient>
  </defs>
  <g id="Heading10" transform="translate(0 -9222)">
    <path id="Rectangle_393" data-name="Rectangle 393" d="M0,0H705a97,97,0,0,1,97,97v0a97,97,0,0,1-97,97H0a0,0,0,0,1,0,0V0A0,0,0,0,1,0,0Z" transform="translate(0 9222)" fill="#fff"/>
    <path id="Path_303" data-name="Path 303" d="M6.868,0V-70.7H33.027q8.484,0,14.039,2.828A18.957,18.957,0,0,1,55.348-60.1a22.633,22.633,0,0,1,2.727,11.11,22.4,22.4,0,0,1-2.626,10.756,19.3,19.3,0,0,1-8.181,7.878q-5.555,2.979-14.241,2.979H19.8V0ZM19.8-37.875H32.219q6.767,0,9.746-2.979a10.986,10.986,0,0,0,2.979-8.13q0-5.252-2.979-8.231T32.219-60.2H19.8ZM82.062,1.212a23.7,23.7,0,0,1-10.6-2.07,14.326,14.326,0,0,1-6.161-5.5,14.666,14.666,0,0,1-2.02-7.575A13.783,13.783,0,0,1,68.73-25.25q5.454-4.343,16.362-4.343H97.818v-1.212q0-5.151-2.929-7.575A11.025,11.025,0,0,0,87.617-40.8a12.493,12.493,0,0,0-6.868,1.868,8.045,8.045,0,0,0-3.636,5.5H64.488a17.619,17.619,0,0,1,3.686-9.494,20.638,20.638,0,0,1,8.231-6.211,28.36,28.36,0,0,1,11.312-2.171q10.706,0,16.867,5.353t6.161,15.15V0H99.737L98.525-8.08a18.671,18.671,0,0,1-6.211,6.666A18.313,18.313,0,0,1,82.062,1.212Zm2.929-10.1a10.7,10.7,0,0,0,8.635-3.636,17.657,17.657,0,0,0,3.888-8.989H86.506q-5.151,0-7.373,1.868a5.782,5.782,0,0,0-2.222,4.6A5.294,5.294,0,0,0,79.133-10.5,9.736,9.736,0,0,0,84.991-8.888ZM123.119,0V-72.72h12.928V0Zm50.55,1.212A27.346,27.346,0,0,1,160.236-2.02a23.392,23.392,0,0,1-9.191-9.09,26.889,26.889,0,0,1-3.333-13.534,28.586,28.586,0,0,1,3.282-13.837,23.832,23.832,0,0,1,9.09-9.443,26.7,26.7,0,0,1,13.685-3.383A25.8,25.8,0,0,1,186.8-48.076a23.211,23.211,0,0,1,8.837,8.837,24.824,24.824,0,0,1,3.181,12.473q0,1.111-.051,2.323t-.151,2.525H160.539a13.047,13.047,0,0,0,4.09,9.191,12.855,12.855,0,0,0,8.938,3.333,11.749,11.749,0,0,0,6.615-1.767,10.951,10.951,0,0,0,3.989-4.6H197.3a23.8,23.8,0,0,1-4.7,8.635,23.155,23.155,0,0,1-8.08,6.11A25.544,25.544,0,0,1,173.669,1.212Zm.1-42.016a13.767,13.767,0,0,0-8.383,2.676A12.4,12.4,0,0,0,160.741-30h24.947a10.9,10.9,0,0,0-3.636-7.878A12.094,12.094,0,0,0,173.77-40.8ZM233.814,1.212a25.8,25.8,0,0,1-13.079-3.333,24.47,24.47,0,0,1-9.191-9.241,27.053,27.053,0,0,1-3.383-13.685,26.739,26.739,0,0,1,3.434-13.685,24.842,24.842,0,0,1,9.241-9.241,25.8,25.8,0,0,1,13.079-3.333,25.6,25.6,0,0,1,12.978,3.333,24.47,24.47,0,0,1,9.191,9.241,27.053,27.053,0,0,1,3.383,13.685,27.053,27.053,0,0,1-3.383,13.685,24.363,24.363,0,0,1-9.241,9.241A25.88,25.88,0,0,1,233.814,1.212Zm0-11.211a11.948,11.948,0,0,0,8.787-3.787q3.737-3.787,3.737-11.261T242.6-36.31a11.838,11.838,0,0,0-8.686-3.787,11.9,11.9,0,0,0-8.837,3.787q-3.687,3.787-3.686,11.261t3.686,11.261A11.785,11.785,0,0,0,233.814-10ZM271.033,0V-50.1h11.413l1.01,8.484a17.614,17.614,0,0,1,6.716-7.07,19.8,19.8,0,0,1,10.352-2.626q9.292,0,14.443,5.858t5.151,17.17V0H307.19V-27.068q0-6.464-2.626-9.9T296.383-40.4a11.529,11.529,0,0,0-8.938,3.838q-3.484,3.838-3.484,10.706V0Zm83.779,0q-7.878,0-12.625-3.838T337.44-17.473V-39.289h-8.585V-50.1h8.585l1.515-13.433h11.413V-50.1H363.9v10.807H350.368v21.917q0,3.636,1.565,5t5.4,1.363H363.6V0Zm42.975,1.212a25.8,25.8,0,0,1-13.079-3.333,24.47,24.47,0,0,1-9.191-9.241,27.053,27.053,0,0,1-3.383-13.685,26.738,26.738,0,0,1,3.434-13.685,24.842,24.842,0,0,1,9.241-9.241,25.8,25.8,0,0,1,13.079-3.333,25.6,25.6,0,0,1,12.978,3.333,24.47,24.47,0,0,1,9.191,9.241,27.053,27.053,0,0,1,3.384,13.685,27.053,27.053,0,0,1-3.384,13.685,24.363,24.363,0,0,1-9.241,9.241A25.879,25.879,0,0,1,397.787,1.212Zm0-11.211a11.948,11.948,0,0,0,8.787-3.787q3.737-3.787,3.737-11.261T406.574-36.31a11.838,11.838,0,0,0-8.686-3.787,11.9,11.9,0,0,0-8.837,3.787q-3.687,3.787-3.686,11.261t3.686,11.261A11.785,11.785,0,0,0,397.787-10ZM435.005,0V-72.72h12.928V0Zm50.247,1.212a25.8,25.8,0,0,1-13.079-3.333,24.47,24.47,0,0,1-9.191-9.241A27.053,27.053,0,0,1,459.6-25.048a26.738,26.738,0,0,1,3.434-13.685,24.842,24.842,0,0,1,9.241-9.241,25.8,25.8,0,0,1,13.079-3.333,25.6,25.6,0,0,1,12.978,3.333,24.471,24.471,0,0,1,9.191,9.241,27.053,27.053,0,0,1,3.383,13.685,27.053,27.053,0,0,1-3.383,13.685,24.363,24.363,0,0,1-9.241,9.241A25.88,25.88,0,0,1,485.253,1.212Zm0-11.211a11.948,11.948,0,0,0,8.787-3.787q3.737-3.787,3.737-11.261T494.04-36.31a11.838,11.838,0,0,0-8.686-3.787,11.9,11.9,0,0,0-8.837,3.787q-3.686,3.787-3.686,11.261t3.686,11.261A11.785,11.785,0,0,0,485.253-10Zm55.3-4.949a27.019,27.019,0,0,1-6.767-.808l-3.737,3.737a17.861,17.861,0,0,0,4.646,1.515q2.929.606,9.494,1.212,10,.909,14.544,4.747t4.545,10.6a15.985,15.985,0,0,1-2.424,8.433,17.365,17.365,0,0,1-7.474,6.464q-5.05,2.474-12.928,2.474-10.706,0-17.271-3.989a13.1,13.1,0,0,1-6.565-11.968q0-6.767,6.565-11.716a22.174,22.174,0,0,1-3.484-1.919,18.405,18.405,0,0,1-2.576-2.121v-2.323l8.787-9.292a16.818,16.818,0,0,1-5.858-13.231,17.577,17.577,0,0,1,2.475-9.191,17.638,17.638,0,0,1,7.019-6.565,23.123,23.123,0,0,1,11.009-2.424,24.768,24.768,0,0,1,7.878,1.212h18.988v7.878l-8.585.606a17.934,17.934,0,0,1,2.02,8.484,17.858,17.858,0,0,1-2.424,9.191,17.207,17.207,0,0,1-7.019,6.565A22.964,22.964,0,0,1,540.55-14.948Zm0-9.9a9.907,9.907,0,0,0,6.514-2.121,7.4,7.4,0,0,0,2.576-6.06,7.4,7.4,0,0,0-2.576-6.06,9.908,9.908,0,0,0-6.514-2.121,10.02,10.02,0,0,0-6.666,2.121,7.472,7.472,0,0,0-2.525,6.06,7.472,7.472,0,0,0,2.525,6.06A10.02,10.02,0,0,0,540.55-24.846ZM528.43,6.161a6.012,6.012,0,0,0,3.484,5.605,17.867,17.867,0,0,0,8.534,1.868,14.23,14.23,0,0,0,7.878-1.969,6.049,6.049,0,0,0,3.03-5.3,5.928,5.928,0,0,0-1.97-4.545Q547.418,0,541.56-.4q-4.141-.3-7.676-.909a11.565,11.565,0,0,0-4.192,3.535A7.084,7.084,0,0,0,528.43,6.161ZM583.121,22.22,594.736-3.333h-3.03L572.213-50.1h14.039l14.039,35.249L614.936-50.1h13.736L596.857,22.22Z" transform="translate(83.132 9343.645)" fill="url(#linear-gradient)"/>
  </g>
</svg>
