<svg xmlns="http://www.w3.org/2000/svg" xmlns:xlink="http://www.w3.org/1999/xlink" width="778" height="194" viewBox="0 0 778 194">
  <defs>
    <linearGradient id="linear-gradient" y1="0.369" x2="1" y2="0.399" gradientUnits="objectBoundingBox">
      <stop offset="0" stop-color="#ef4321"/>
      <stop offset="1" stop-color="#a1392c"/>
    </linearGradient>
  </defs>
  <g id="Heading13" transform="translate(0 -12102)">
    <path id="Rectangle_397" data-name="Rectangle 397" d="M0,0H681a97,97,0,0,1,97,97v0a97,97,0,0,1-97,97H0a0,0,0,0,1,0,0V0A0,0,0,0,1,0,0Z" transform="translate(0 12102)" fill="#fff"/>
    <path id="Path_280" data-name="Path 280" d="M27.642,0,1.53-71.4H15.5L35.7-13.362,56-71.4h13.77L43.656,0ZM96.135,1.224A26.056,26.056,0,0,1,82.926-2.142a24.713,24.713,0,0,1-9.282-9.333A27.321,27.321,0,0,1,70.227-25.3,27,27,0,0,1,73.7-39.117a25.088,25.088,0,0,1,9.333-9.333,26.056,26.056,0,0,1,13.209-3.366,25.857,25.857,0,0,1,13.107,3.366,24.713,24.713,0,0,1,9.282,9.333A27.321,27.321,0,0,1,122.043-25.3a27.321,27.321,0,0,1-3.417,13.821,24.6,24.6,0,0,1-9.333,9.333A26.136,26.136,0,0,1,96.135,1.224Zm0-11.322a12.066,12.066,0,0,0,8.874-3.825q3.774-3.825,3.774-11.373t-3.774-11.373a11.955,11.955,0,0,0-8.772-3.825,12.015,12.015,0,0,0-8.925,3.825Q83.589-32.844,83.589-25.3t3.723,11.373A11.9,11.9,0,0,0,96.135-10.1ZM133.722,0V-73.44h13.056V0Zm51.255,1.224a27.155,27.155,0,0,1-13.668-3.366,24.5,24.5,0,0,1-9.333-9.384,27.4,27.4,0,0,1-3.417-13.77,27.4,27.4,0,0,1,3.417-13.77,24.5,24.5,0,0,1,9.333-9.384,27.155,27.155,0,0,1,13.668-3.366q9.69,0,16.32,5.049a22.572,22.572,0,0,1,8.466,13.923h-13.77a10.065,10.065,0,0,0-4.029-5.763,12.11,12.11,0,0,0-7.089-2.091,12.039,12.039,0,0,0-9.18,4.08q-3.774,4.08-3.774,11.322T175.7-13.974a12.039,12.039,0,0,0,9.18,4.08,12.327,12.327,0,0,0,7.089-2.04,9.864,9.864,0,0,0,4.029-5.814h13.77A23.073,23.073,0,0,1,201.3-3.978Q194.667,1.224,184.977,1.224Zm53.907,0a23.935,23.935,0,0,1-10.71-2.091,14.468,14.468,0,0,1-6.222-5.559,14.811,14.811,0,0,1-2.04-7.65A13.92,13.92,0,0,1,225.42-25.5q5.508-4.386,16.524-4.386H254.8V-31.11q0-5.2-2.958-7.65a11.134,11.134,0,0,0-7.344-2.448,12.617,12.617,0,0,0-6.936,1.887,8.125,8.125,0,0,0-3.672,5.559h-12.75a17.794,17.794,0,0,1,3.723-9.588,20.842,20.842,0,0,1,8.313-6.273A28.641,28.641,0,0,1,244.6-51.816q10.812,0,17.034,5.406t6.222,15.3V0H256.734L255.51-8.16a18.856,18.856,0,0,1-6.273,6.732A18.5,18.5,0,0,1,238.884,1.224Zm2.958-10.2q5.61,0,8.721-3.672a17.832,17.832,0,0,0,3.927-9.078H243.372q-5.2,0-7.446,1.887a5.84,5.84,0,0,0-2.244,4.641,5.346,5.346,0,0,0,2.244,4.59A9.832,9.832,0,0,0,241.842-8.976ZM280.347,0V-50.592h11.526l1.02,8.568a17.788,17.788,0,0,1,6.783-7.14,20,20,0,0,1,10.455-2.652q9.384,0,14.586,5.916t5.2,17.34V0H316.863V-27.336q0-6.528-2.652-10T305.949-40.8a11.644,11.644,0,0,0-9.027,3.876Q293.4-33.048,293.4-26.112V0ZM366.69,1.224a26.056,26.056,0,0,1-13.209-3.366,24.713,24.713,0,0,1-9.282-9.333A27.321,27.321,0,0,1,340.782-25.3a27,27,0,0,1,3.468-13.821,25.088,25.088,0,0,1,9.333-9.333,26.056,26.056,0,0,1,13.209-3.366A25.857,25.857,0,0,1,379.9-48.45a24.713,24.713,0,0,1,9.282,9.333A27.321,27.321,0,0,1,392.6-25.3a27.321,27.321,0,0,1-3.417,13.821,24.6,24.6,0,0,1-9.333,9.333A26.136,26.136,0,0,1,366.69,1.224Zm0-11.322a12.066,12.066,0,0,0,8.874-3.825q3.774-3.825,3.774-11.373t-3.774-11.373a11.955,11.955,0,0,0-8.772-3.825,12.015,12.015,0,0,0-8.925,3.825q-3.723,3.825-3.723,11.373t3.723,11.373A11.9,11.9,0,0,0,366.69-10.1ZM404.277,0V-73.44h13.056V0Zm50.745,1.224a26.056,26.056,0,0,1-13.209-3.366,24.713,24.713,0,0,1-9.282-9.333A27.321,27.321,0,0,1,429.114-25.3a27,27,0,0,1,3.468-13.821,25.088,25.088,0,0,1,9.333-9.333,26.056,26.056,0,0,1,13.209-3.366,25.857,25.857,0,0,1,13.107,3.366,24.713,24.713,0,0,1,9.282,9.333A27.321,27.321,0,0,1,480.93-25.3a27.321,27.321,0,0,1-3.417,13.821,24.6,24.6,0,0,1-9.333,9.333A26.136,26.136,0,0,1,455.022,1.224Zm0-11.322a12.066,12.066,0,0,0,8.874-3.825q3.774-3.825,3.774-11.373T463.9-36.669a11.955,11.955,0,0,0-8.772-3.825,12.015,12.015,0,0,0-8.925,3.825q-3.723,3.825-3.723,11.373T446.2-13.923A11.9,11.9,0,0,0,455.022-10.1Zm55.845-5a27.286,27.286,0,0,1-6.834-.816l-3.774,3.774a18.038,18.038,0,0,0,4.692,1.53q2.958.612,9.588,1.224,10.1.918,14.688,4.794t4.59,10.71a16.143,16.143,0,0,1-2.448,8.517,17.537,17.537,0,0,1-7.548,6.528q-5.1,2.5-13.056,2.5-10.812,0-17.442-4.029t-6.63-12.087q0-6.834,6.63-11.832A22.393,22.393,0,0,1,489.8-6.222a18.592,18.592,0,0,1-2.6-2.142V-10.71l8.874-9.384a16.984,16.984,0,0,1-5.916-13.362,17.752,17.752,0,0,1,2.5-9.282,17.812,17.812,0,0,1,7.089-6.63,23.352,23.352,0,0,1,11.118-2.448,25.014,25.014,0,0,1,7.956,1.224H538v7.956l-8.67.612a18.111,18.111,0,0,1,2.04,8.568,18.035,18.035,0,0,1-2.448,9.282,17.378,17.378,0,0,1-7.089,6.63A23.191,23.191,0,0,1,510.867-15.1Zm0-10a10.006,10.006,0,0,0,6.579-2.142,7.478,7.478,0,0,0,2.6-6.12,7.478,7.478,0,0,0-2.6-6.12,10.006,10.006,0,0,0-6.579-2.142,10.119,10.119,0,0,0-6.732,2.142,7.546,7.546,0,0,0-2.55,6.12,7.546,7.546,0,0,0,2.55,6.12A10.119,10.119,0,0,0,510.867-25.092ZM498.627,6.222a6.071,6.071,0,0,0,3.519,5.661,18.043,18.043,0,0,0,8.619,1.887,14.371,14.371,0,0,0,7.956-1.989,6.109,6.109,0,0,0,3.06-5.355,5.987,5.987,0,0,0-1.989-4.59Q517.8,0,511.887-.408q-4.182-.306-7.752-.918a11.68,11.68,0,0,0-4.233,3.57A7.154,7.154,0,0,0,498.627,6.222ZM553.86,22.44,565.59-3.366h-3.06L542.844-50.592h14.178l14.178,35.6,14.79-35.6h13.872L567.732,22.44Z" transform="translate(88.47 12224)" fill="url(#linear-gradient)"/>
  </g>
</svg>
