<svg xmlns="http://www.w3.org/2000/svg" xmlns:xlink="http://www.w3.org/1999/xlink" width="497" height="194" viewBox="0 0 497 194">
  <defs>
    <linearGradient id="linear-gradient" y1="0.386" x2="1.021" y2="0.445" gradientUnits="objectBoundingBox">
      <stop offset="0" stop-color="#83b4aa"/>
      <stop offset="1" stop-color="#919e8b"/>
    </linearGradient>
  </defs>
  <g id="Heading14" transform="translate(0 -13060)">
    <path id="Rectangle_483" data-name="Rectangle 483" d="M0,0H400a97,97,0,0,1,97,97v0a97,97,0,0,1-97,97H0a0,0,0,0,1,0,0V0A0,0,0,0,1,0,0Z" transform="translate(0 13060)" fill="#fff"/>
    <path id="Path_287" data-name="Path 287" d="M6.868.721v-71.4h15.5L45.118-25.392,67.558-70.68h15.5V.721H70.006V-48.546L50.116-9.48h-10.3L19.924-48.546V.721Zm96.85-58.446a8.254,8.254,0,0,1-5.865-2.142,7.079,7.079,0,0,1-2.3-5.406,6.92,6.92,0,0,1,2.3-5.355,8.373,8.373,0,0,1,5.865-2.091,8.373,8.373,0,0,1,5.865,2.091,6.92,6.92,0,0,1,2.3,5.355,7.079,7.079,0,0,1-2.3,5.406A8.254,8.254,0,0,1,103.718-57.726ZM97.19.721V-49.872h13.056V.721Zm26.775,0V-49.872h11.526l1.02,8.568a17.788,17.788,0,0,1,6.783-7.14A20,20,0,0,1,153.749-51.1q9.384,0,14.586,5.916t5.2,17.34V.721H160.481V-26.616q0-6.528-2.652-10t-8.262-3.468A11.644,11.644,0,0,0,140.54-36.2q-3.519,3.876-3.519,10.812V.721ZM193.07-57.726a8.254,8.254,0,0,1-5.865-2.142,7.079,7.079,0,0,1-2.3-5.406,6.92,6.92,0,0,1,2.3-5.355,8.373,8.373,0,0,1,5.865-2.091,8.373,8.373,0,0,1,5.865,2.091,6.92,6.92,0,0,1,2.295,5.355,7.079,7.079,0,0,1-2.295,5.406A8.254,8.254,0,0,1,193.07-57.726ZM186.542.721V-49.872H199.6V.721Zm26.775,0V-49.872h11.526l1.02,8.568a17.788,17.788,0,0,1,6.783-7.14A20,20,0,0,1,243.1-51.1q9.384,0,14.586,5.916t5.2,17.34V.721H249.834V-26.616q0-6.528-2.652-10T238.92-40.08a11.644,11.644,0,0,0-9.027,3.876q-3.519,3.876-3.519,10.812V.721Zm83.488-15.1a27.287,27.287,0,0,1-6.834-.816L286.2-11.418a18.038,18.038,0,0,0,4.692,1.53q2.958.612,9.588,1.224,10.1.918,14.688,4.794t4.59,10.71a16.143,16.143,0,0,1-2.448,8.517,17.537,17.537,0,0,1-7.548,6.528q-5.1,2.5-13.056,2.5-10.812,0-17.442-4.029t-6.63-12.087q0-6.834,6.63-11.832A22.394,22.394,0,0,1,275.742-5.5a18.592,18.592,0,0,1-2.6-2.142V-9.99l8.874-9.384A16.985,16.985,0,0,1,276.1-32.736a17.752,17.752,0,0,1,2.5-9.282,17.813,17.813,0,0,1,7.089-6.63A23.352,23.352,0,0,1,296.805-51.1a25.014,25.014,0,0,1,7.956,1.224h19.176v7.956l-8.67.612a18.111,18.111,0,0,1,2.04,8.568,18.035,18.035,0,0,1-2.448,9.282,17.378,17.378,0,0,1-7.089,6.63A23.191,23.191,0,0,1,296.805-14.376Zm0-10a10.006,10.006,0,0,0,6.579-2.142,7.478,7.478,0,0,0,2.6-6.12,7.478,7.478,0,0,0-2.6-6.12,10.006,10.006,0,0,0-6.579-2.142,10.119,10.119,0,0,0-6.732,2.142,7.546,7.546,0,0,0-2.55,6.12,7.546,7.546,0,0,0,2.55,6.12A10.119,10.119,0,0,0,296.805-24.372ZM284.565,6.943a6.071,6.071,0,0,0,3.519,5.661,18.044,18.044,0,0,0,8.619,1.887,14.371,14.371,0,0,0,7.956-1.989,6.109,6.109,0,0,0,3.06-5.355,5.987,5.987,0,0,0-1.989-4.59Q303.741.721,297.825.313q-4.182-.306-7.752-.918a11.679,11.679,0,0,0-4.233,3.57A7.154,7.154,0,0,0,284.565,6.943Z" transform="translate(83.132 13181.279)" fill="url(#linear-gradient)"/>
  </g>
</svg>
