<svg id="Tit10" xmlns="http://www.w3.org/2000/svg" xmlns:xlink="http://www.w3.org/1999/xlink" width="800" height="194" viewBox="0 0 800 194">
  <defs>
    <linearGradient id="linear-gradient" y1="0.351" x2="1" y2="0.5" gradientUnits="objectBoundingBox">
      <stop offset="0" stop-color="#d6d599"/>
      <stop offset="1" stop-color="#adc094"/>
    </linearGradient>
  </defs>
  <path id="Rectangle_393" data-name="Rectangle 393" d="M0,0H703a97,97,0,0,1,97,97v0a97,97,0,0,1-97,97H0a0,0,0,0,1,0,0V0A0,0,0,0,1,0,0Z" transform="translate(0 0)" fill="#fff"/>
  <path id="Path_236" data-name="Path 236" d="M2.346,0,28.458-71.4H43.146L69.258,0H55.386L49.674-16.524H21.828L16.014,0ZM25.4-26.724H46.1L35.7-56.406ZM78.157,0V-50.592H89.785l1.224,9.486a21.169,21.169,0,0,1,7.5-7.8,20.948,20.948,0,0,1,11.169-2.907v13.77H106a20.742,20.742,0,0,0-7.65,1.326A10.305,10.305,0,0,0,93.1-32.13q-1.887,3.264-1.887,9.078V0Zm64.285,1.224a27.155,27.155,0,0,1-13.668-3.366,24.5,24.5,0,0,1-9.333-9.384,27.4,27.4,0,0,1-3.417-13.77,27.4,27.4,0,0,1,3.417-13.77,24.5,24.5,0,0,1,9.333-9.384,27.155,27.155,0,0,1,13.668-3.366q9.69,0,16.32,5.049a22.572,22.572,0,0,1,8.466,13.923h-13.77a10.064,10.064,0,0,0-4.029-5.763,12.11,12.11,0,0,0-7.089-2.091,12.039,12.039,0,0,0-9.18,4.08q-3.774,4.08-3.774,11.322t3.774,11.322a12.039,12.039,0,0,0,9.18,4.08,12.327,12.327,0,0,0,7.089-2.04,9.864,9.864,0,0,0,4.029-5.814h13.77a23.073,23.073,0,0,1-8.466,13.77Q152.133,1.224,142.443,1.224ZM178.882,0V-73.44h13.056v30.6a18.282,18.282,0,0,1,6.885-6.579,20.21,20.21,0,0,1,9.945-2.4q9.384,0,14.535,5.916t5.151,17.34V0H215.5V-27.336q0-6.528-2.6-10T204.688-40.8a11.96,11.96,0,0,0-9.129,3.876q-3.621,3.876-3.621,10.812V0Zm79.484,1.224a23.935,23.935,0,0,1-10.71-2.091,14.468,14.468,0,0,1-6.222-5.559,14.811,14.811,0,0,1-2.04-7.65A13.92,13.92,0,0,1,244.9-25.5q5.508-4.386,16.524-4.386h12.852V-31.11q0-5.2-2.958-7.65a11.134,11.134,0,0,0-7.344-2.448,12.617,12.617,0,0,0-6.936,1.887,8.125,8.125,0,0,0-3.672,5.559h-12.75a17.794,17.794,0,0,1,3.723-9.588,20.842,20.842,0,0,1,8.313-6.273,28.641,28.641,0,0,1,11.424-2.193q10.812,0,17.034,5.406t6.222,15.3V0H276.216l-1.224-8.16a18.856,18.856,0,0,1-6.273,6.732A18.5,18.5,0,0,1,258.366,1.224Zm2.958-10.2q5.61,0,8.721-3.672a17.832,17.832,0,0,0,3.927-9.078H262.854q-5.2,0-7.446,1.887a5.84,5.84,0,0,0-2.244,4.641,5.346,5.346,0,0,0,2.244,4.59A9.832,9.832,0,0,0,261.324-8.976Zm63.061,10.2A27.617,27.617,0,0,1,310.819-2.04a23.624,23.624,0,0,1-9.282-9.18,27.155,27.155,0,0,1-3.366-13.668,28.869,28.869,0,0,1,3.315-13.974,24.068,24.068,0,0,1,9.18-9.537,26.969,26.969,0,0,1,13.821-3.417,26.051,26.051,0,0,1,13.158,3.264,23.441,23.441,0,0,1,8.925,8.925,25.07,25.07,0,0,1,3.213,12.6q0,1.122-.051,2.346t-.153,2.55H311.125a13.176,13.176,0,0,0,4.131,9.282,12.982,12.982,0,0,0,9.027,3.366,11.866,11.866,0,0,0,6.681-1.785,11.059,11.059,0,0,0,4.029-4.641h13.26a24.041,24.041,0,0,1-4.743,8.721,23.384,23.384,0,0,1-8.16,6.171A25.8,25.8,0,0,1,324.385,1.224Zm.1-42.432a13.9,13.9,0,0,0-8.466,2.7,12.527,12.527,0,0,0-4.692,8.211h25.194a11.011,11.011,0,0,0-3.672-7.956A12.213,12.213,0,0,0,324.487-41.208ZM385.1,1.224a26.056,26.056,0,0,1-13.209-3.366,24.713,24.713,0,0,1-9.282-9.333A27.321,27.321,0,0,1,359.193-25.3a27,27,0,0,1,3.468-13.821,25.088,25.088,0,0,1,9.333-9.333A26.056,26.056,0,0,1,385.2-51.816,25.857,25.857,0,0,1,398.31-48.45a24.713,24.713,0,0,1,9.282,9.333A27.321,27.321,0,0,1,411.009-25.3a27.321,27.321,0,0,1-3.417,13.821,24.6,24.6,0,0,1-9.333,9.333A26.136,26.136,0,0,1,385.1,1.224Zm0-11.322a12.066,12.066,0,0,0,8.874-3.825q3.774-3.825,3.774-11.373t-3.774-11.373a11.955,11.955,0,0,0-8.772-3.825,12.015,12.015,0,0,0-8.925,3.825q-3.723,3.825-3.723,11.373t3.723,11.373A11.9,11.9,0,0,0,385.1-10.1ZM422.663,0V-73.44h13.056V0Zm50.72,1.224a26.056,26.056,0,0,1-13.209-3.366,24.713,24.713,0,0,1-9.282-9.333A27.321,27.321,0,0,1,447.474-25.3a27,27,0,0,1,3.468-13.821,25.088,25.088,0,0,1,9.333-9.333,26.056,26.056,0,0,1,13.209-3.366,25.857,25.857,0,0,1,13.107,3.366,24.713,24.713,0,0,1,9.282,9.333A27.321,27.321,0,0,1,499.29-25.3a27.321,27.321,0,0,1-3.417,13.821,24.6,24.6,0,0,1-9.333,9.333A26.136,26.136,0,0,1,473.382,1.224Zm0-11.322a12.066,12.066,0,0,0,8.874-3.825q3.774-3.825,3.774-11.373t-3.774-11.373a11.955,11.955,0,0,0-8.772-3.825,12.015,12.015,0,0,0-8.925,3.825q-3.723,3.825-3.723,11.373t3.723,11.373A11.9,11.9,0,0,0,473.382-10.1Zm55.82-5a27.287,27.287,0,0,1-6.834-.816l-3.774,3.774a18.039,18.039,0,0,0,4.692,1.53q2.958.612,9.588,1.224,10.1.918,14.688,4.794t4.59,10.71a16.143,16.143,0,0,1-2.448,8.517,17.537,17.537,0,0,1-7.548,6.528q-5.1,2.5-13.056,2.5-10.812,0-17.442-4.029t-6.63-12.087q0-6.834,6.63-11.832a22.393,22.393,0,0,1-3.519-1.938,18.592,18.592,0,0,1-2.6-2.142V-10.71l8.874-9.384A16.984,16.984,0,0,1,508.5-33.456a17.752,17.752,0,0,1,2.5-9.282,17.812,17.812,0,0,1,7.089-6.63A23.352,23.352,0,0,1,529.2-51.816a25.014,25.014,0,0,1,7.956,1.224h19.176v7.956l-8.67.612a18.111,18.111,0,0,1,2.04,8.568,18.035,18.035,0,0,1-2.448,9.282,17.378,17.378,0,0,1-7.089,6.63A23.191,23.191,0,0,1,529.2-15.1Zm0-10a10.006,10.006,0,0,0,6.579-2.142,7.478,7.478,0,0,0,2.6-6.12,7.478,7.478,0,0,0-2.6-6.12,10.006,10.006,0,0,0-6.579-2.142,10.119,10.119,0,0,0-6.732,2.142,7.546,7.546,0,0,0-2.55,6.12,7.546,7.546,0,0,0,2.55,6.12A10.119,10.119,0,0,0,529.2-25.092ZM516.962,6.222a6.071,6.071,0,0,0,3.519,5.661A18.043,18.043,0,0,0,529.1,13.77a14.371,14.371,0,0,0,7.956-1.989,6.109,6.109,0,0,0,3.06-5.355,5.987,5.987,0,0,0-1.989-4.59Q536.138,0,530.221-.408q-4.182-.306-7.752-.918a11.68,11.68,0,0,0-4.233,3.57A7.154,7.154,0,0,0,516.962,6.222ZM572.169,22.44,583.9-3.366h-3.06L561.153-50.592h14.178l14.178,35.6,14.79-35.6h13.872L586.041,22.44Z" transform="translate(87.654 121.832)" fill="url(#linear-gradient)"/>
</svg>
