<svg xmlns="http://www.w3.org/2000/svg" xmlns:xlink="http://www.w3.org/1999/xlink" width="796" height="194" viewBox="0 0 796 194">
  <defs>
    <linearGradient id="linear-gradient" y1="0.404" x2="1" y2="0.5" gradientUnits="objectBoundingBox">
      <stop offset="0" stop-color="#efde9f"/>
      <stop offset="1" stop-color="#a6a682"/>
    </linearGradient>
  </defs>
  <g id="Heading15" transform="translate(0 -14020)">
    <path id="Rectangle_519" data-name="Rectangle 519" d="M0,0H699a97,97,0,0,1,97,97v0a97,97,0,0,1-97,97H0a0,0,0,0,1,0,0V0A0,0,0,0,1,0,0Z" transform="translate(0 14020)" fill="#fff"/>
    <path id="Path_295" data-name="Path 295" d="M2.323.72l26.112-71.4H43.123L69.235.72H55.363L49.651-15.8H21.805L15.991.72ZM25.375-26H46.081l-10.4-29.682ZM78.16.72V-49.872H89.788l1.224,9.486a21.169,21.169,0,0,1,7.5-7.8A20.948,20.948,0,0,1,109.679-51.1v13.77h-3.672A20.742,20.742,0,0,0,98.356-36,10.305,10.305,0,0,0,93.1-31.41q-1.887,3.264-1.887,9.078V.72Zm64.311,1.224A27.155,27.155,0,0,1,128.8-1.422a24.5,24.5,0,0,1-9.333-9.384,27.4,27.4,0,0,1-3.417-13.77,27.4,27.4,0,0,1,3.417-13.77A24.5,24.5,0,0,1,128.8-47.73,27.155,27.155,0,0,1,142.472-51.1q9.69,0,16.32,5.049a22.572,22.572,0,0,1,8.466,13.923h-13.77a10.065,10.065,0,0,0-4.029-5.763,12.11,12.11,0,0,0-7.089-2.091,12.039,12.039,0,0,0-9.18,4.08q-3.774,4.08-3.774,11.322t3.774,11.322a12.039,12.039,0,0,0,9.18,4.08,12.328,12.328,0,0,0,7.089-2.04,9.864,9.864,0,0,0,4.029-5.814h13.77a23.073,23.073,0,0,1-8.466,13.77Q152.162,1.944,142.472,1.944ZM178.937.72V-72.72h13.056v30.6a18.282,18.282,0,0,1,6.885-6.579,20.21,20.21,0,0,1,9.945-2.4q9.384,0,14.535,5.916t5.151,17.34V.72H215.555V-26.616q0-6.528-2.6-10t-8.211-3.468a11.96,11.96,0,0,0-9.129,3.876q-3.621,3.876-3.621,10.812V.72Zm79.509,1.224a23.935,23.935,0,0,1-10.71-2.091,14.469,14.469,0,0,1-6.222-5.559,14.811,14.811,0,0,1-2.04-7.65,13.92,13.92,0,0,1,5.508-11.424q5.508-4.386,16.524-4.386h12.852V-30.39q0-5.2-2.958-7.65a11.134,11.134,0,0,0-7.344-2.448A12.617,12.617,0,0,0,257.12-38.6a8.125,8.125,0,0,0-3.672,5.559H240.7a17.794,17.794,0,0,1,3.723-9.588,20.843,20.843,0,0,1,8.313-6.273A28.642,28.642,0,0,1,264.158-51.1q10.812,0,17.034,5.406t6.222,15.3V.72H276.3l-1.224-8.16A18.856,18.856,0,0,1,268.8-.708,18.5,18.5,0,0,1,258.446,1.944Zm2.958-10.2q5.61,0,8.721-3.672a17.832,17.832,0,0,0,3.927-9.078H262.934q-5.2,0-7.446,1.887a5.84,5.84,0,0,0-2.244,4.641,5.346,5.346,0,0,0,2.244,4.59A9.833,9.833,0,0,0,261.4-8.256Zm63.087,10.2A27.617,27.617,0,0,1,310.926-1.32a23.624,23.624,0,0,1-9.282-9.18,27.155,27.155,0,0,1-3.366-13.668,28.869,28.869,0,0,1,3.315-13.974,24.068,24.068,0,0,1,9.18-9.537A26.969,26.969,0,0,1,324.594-51.1a26.051,26.051,0,0,1,13.158,3.264,23.442,23.442,0,0,1,8.925,8.925,25.07,25.07,0,0,1,3.213,12.6q0,1.122-.051,2.346t-.153,2.55H311.232a13.176,13.176,0,0,0,4.131,9.282,12.982,12.982,0,0,0,9.027,3.366,11.865,11.865,0,0,0,6.681-1.785,11.059,11.059,0,0,0,4.029-4.641h13.26a24.041,24.041,0,0,1-4.743,8.721A23.384,23.384,0,0,1,335.457-.3,25.8,25.8,0,0,1,324.492,1.944Zm.1-42.432a13.9,13.9,0,0,0-8.466,2.7,12.527,12.527,0,0,0-4.692,8.211H336.63a11.01,11.01,0,0,0-3.672-7.956A12.214,12.214,0,0,0,324.594-40.488ZM385.233,1.944a26.056,26.056,0,0,1-13.209-3.366,24.713,24.713,0,0,1-9.282-9.333,27.321,27.321,0,0,1-3.417-13.821A27,27,0,0,1,362.793-38.4a25.088,25.088,0,0,1,9.333-9.333A26.056,26.056,0,0,1,385.335-51.1a25.857,25.857,0,0,1,13.107,3.366,24.713,24.713,0,0,1,9.282,9.333,27.321,27.321,0,0,1,3.417,13.821,27.321,27.321,0,0,1-3.417,13.821,24.6,24.6,0,0,1-9.333,9.333A26.136,26.136,0,0,1,385.233,1.944Zm0-11.322a12.066,12.066,0,0,0,8.874-3.825q3.774-3.825,3.774-11.373t-3.774-11.373a11.955,11.955,0,0,0-8.772-3.825,12.015,12.015,0,0,0-8.925,3.825q-3.723,3.825-3.723,11.373T376.41-13.2A11.9,11.9,0,0,0,385.233-9.378ZM422.82.72V-72.72h13.056V.72Zm50.745,1.224a26.056,26.056,0,0,1-13.209-3.366,24.713,24.713,0,0,1-9.282-9.333,27.322,27.322,0,0,1-3.417-13.821A27,27,0,0,1,451.125-38.4a25.088,25.088,0,0,1,9.333-9.333A26.056,26.056,0,0,1,473.667-51.1a25.857,25.857,0,0,1,13.107,3.366,24.713,24.713,0,0,1,9.282,9.333,27.321,27.321,0,0,1,3.417,13.821,27.321,27.321,0,0,1-3.417,13.821,24.6,24.6,0,0,1-9.333,9.333A26.136,26.136,0,0,1,473.565,1.944Zm0-11.322a12.066,12.066,0,0,0,8.874-3.825q3.774-3.825,3.774-11.373t-3.774-11.373a11.955,11.955,0,0,0-8.772-3.825,12.015,12.015,0,0,0-8.925,3.825q-3.723,3.825-3.723,11.373T464.742-13.2A11.9,11.9,0,0,0,473.565-9.378Zm55.845-5a27.286,27.286,0,0,1-6.834-.816L518.8-11.418a18.038,18.038,0,0,0,4.692,1.53q2.958.612,9.588,1.224,10.1.918,14.688,4.794t4.59,10.71a16.143,16.143,0,0,1-2.448,8.517,17.538,17.538,0,0,1-7.548,6.528q-5.1,2.5-13.056,2.5-10.812,0-17.442-4.029t-6.63-12.087q0-6.834,6.63-11.832A22.4,22.4,0,0,1,508.348-5.5a18.592,18.592,0,0,1-2.6-2.142V-9.99l8.874-9.384A16.984,16.984,0,0,1,508.7-32.736a17.752,17.752,0,0,1,2.5-9.282,17.812,17.812,0,0,1,7.089-6.63A23.352,23.352,0,0,1,529.411-51.1a25.014,25.014,0,0,1,7.956,1.224h19.176v7.956l-8.67.612a18.111,18.111,0,0,1,2.04,8.568,18.034,18.034,0,0,1-2.448,9.282,17.378,17.378,0,0,1-7.089,6.63A23.191,23.191,0,0,1,529.411-14.376Zm0-10a10.006,10.006,0,0,0,6.579-2.142,7.478,7.478,0,0,0,2.6-6.12,7.478,7.478,0,0,0-2.6-6.12,10.006,10.006,0,0,0-6.579-2.142,10.119,10.119,0,0,0-6.732,2.142,7.546,7.546,0,0,0-2.55,6.12,7.546,7.546,0,0,0,2.55,6.12A10.119,10.119,0,0,0,529.411-24.372ZM517.171,6.942A6.071,6.071,0,0,0,520.69,12.6a18.043,18.043,0,0,0,8.619,1.887,14.371,14.371,0,0,0,7.956-1.989,6.109,6.109,0,0,0,3.06-5.355,5.987,5.987,0,0,0-1.989-4.59Q536.347.72,530.431.312q-4.182-.306-7.752-.918a11.679,11.679,0,0,0-4.233,3.57A7.154,7.154,0,0,0,517.171,6.942ZM572.4,23.16l11.73-25.806h-3.06L561.388-49.872h14.178l14.178,35.6,14.79-35.6h13.872L586.276,23.16Z" transform="translate(87.677 14141.279)" fill="url(#linear-gradient)"/>
  </g>
</svg>
