<svg id="Tit1" xmlns="http://www.w3.org/2000/svg" xmlns:xlink="http://www.w3.org/1999/xlink" width="753" height="194" viewBox="0 0 753 194">
  <defs>
    <linearGradient id="linear-gradient" y1="0.5" x2="1.022" y2="0.604" gradientUnits="objectBoundingBox">
      <stop offset="0" stop-color="#71bdaf"/>
      <stop offset="1" stop-color="#91b773"/>
    </linearGradient>
  </defs>
  <g id="Group_762" data-name="Group 762">
    <path id="Rectangle_336" data-name="Rectangle 336" d="M0,0H656a97,97,0,0,1,97,97v0a97,97,0,0,1-97,97H0a0,0,0,0,1,0,0V0A0,0,0,0,1,0,0Z" fill="#fff"/>
  </g>
  <path id="Path_258" data-name="Path 258" d="M-287.793,0l25.344-69.3h14.256L-222.849,0h-13.464l-5.544-16.038h-27.027L-274.527,0Zm22.374-25.938h20.1l-10.1-28.809ZM-192.8,1.188A26.8,26.8,0,0,1-205.969-1.98a22.929,22.929,0,0,1-9.009-8.91,26.357,26.357,0,0,1-3.267-13.266,28.02,28.02,0,0,1,3.217-13.563,23.36,23.36,0,0,1,8.91-9.257A26.176,26.176,0,0,1-192.7-50.292a25.284,25.284,0,0,1,12.771,3.168,22.752,22.752,0,0,1,8.663,8.662,24.333,24.333,0,0,1,3.118,12.227q0,1.089-.049,2.277t-.148,2.475h-37.323a12.788,12.788,0,0,0,4.01,9.009A12.6,12.6,0,0,0-192.9-9.207a11.516,11.516,0,0,0,6.484-1.733,10.734,10.734,0,0,0,3.91-4.5h12.87a23.333,23.333,0,0,1-4.6,8.464,22.7,22.7,0,0,1-7.92,5.99A25.038,25.038,0,0,1-192.8,1.188ZM-192.7-40a13.5,13.5,0,0,0-8.217,2.624,12.159,12.159,0,0,0-4.554,7.969h24.453a10.687,10.687,0,0,0-3.564-7.722A11.854,11.854,0,0,0-192.7-40Zm35.1,40V-49.1h11.286l1.188,9.207a20.547,20.547,0,0,1,7.277-7.573,20.332,20.332,0,0,1,10.84-2.821v13.365h-3.564a20.132,20.132,0,0,0-7.425,1.287,10,10,0,0,0-5.1,4.455q-1.832,3.168-1.832,8.811V0Zm61.727,1.188A25.29,25.29,0,0,1-108.7-2.079a23.986,23.986,0,0,1-9.009-9.059,26.517,26.517,0,0,1-3.317-13.415,26.209,26.209,0,0,1,3.366-13.414,24.35,24.35,0,0,1,9.058-9.059,25.29,25.29,0,0,1,12.821-3.267,25.1,25.1,0,0,1,12.722,3.267,23.986,23.986,0,0,1,9.009,9.059,26.518,26.518,0,0,1,3.316,13.414,26.518,26.518,0,0,1-3.316,13.415A23.881,23.881,0,0,1-83.11-2.079,25.367,25.367,0,0,1-95.881,1.188Zm0-10.989a11.711,11.711,0,0,0,8.613-3.712q3.663-3.713,3.663-11.039t-3.663-11.039A11.6,11.6,0,0,0-95.782-39.3a11.661,11.661,0,0,0-8.662,3.712q-3.614,3.713-3.614,11.039t3.614,11.039A11.552,11.552,0,0,0-95.881-9.8ZM-59.6,0V-49.1h11.187l.99,8.316a17.265,17.265,0,0,1,6.583-6.93A19.407,19.407,0,0,1-30.69-50.292q9.108,0,14.157,5.742t5.049,16.83V0H-24.156V-26.532q0-6.336-2.574-9.7T-34.749-39.6a11.3,11.3,0,0,0-8.762,3.762q-3.416,3.762-3.415,10.494V0ZM17.375,1.188a23.231,23.231,0,0,1-10.4-2.03A14.043,14.043,0,0,1,.94-6.237a14.376,14.376,0,0,1-1.98-7.425A13.51,13.51,0,0,1,4.306-24.75q5.346-4.257,16.038-4.257H32.819V-30.2q0-5.049-2.871-7.425A10.807,10.807,0,0,0,22.819-40a12.246,12.246,0,0,0-6.732,1.832,7.886,7.886,0,0,0-3.564,5.4H.148a17.271,17.271,0,0,1,3.613-9.306,20.23,20.23,0,0,1,8.069-6.089,27.8,27.8,0,0,1,11.088-2.128q10.494,0,16.533,5.247T45.491-30.2V0H34.7L33.512-7.92a18.3,18.3,0,0,1-6.089,6.534A17.951,17.951,0,0,1,17.375,1.188Zm2.871-9.9a10.489,10.489,0,0,0,8.465-3.564,17.307,17.307,0,0,0,3.812-8.811H21.73q-5.049,0-7.227,1.832a5.668,5.668,0,0,0-2.178,4.5A5.189,5.189,0,0,0,14.5-10.3,9.543,9.543,0,0,0,20.245-8.712Zm55.588,9.9q-9.207,0-14.206-5.742t-5-16.83V-49.1H69.2v26.532q0,6.336,2.574,9.7T79.893-9.5a11.19,11.19,0,0,0,8.662-3.762q3.415-3.762,3.416-10.494V-49.1h12.672V0H93.456l-.99-8.316a17.265,17.265,0,0,1-6.583,6.93A19.211,19.211,0,0,1,75.834,1.188ZM139.342,0q-7.722,0-12.375-3.762t-4.653-13.365V-38.511H113.9V-49.1h8.415L123.8-62.271h11.187V-49.1h13.266v10.593H134.987v21.483q0,3.564,1.535,4.9t5.3,1.337h6.138V0Zm26.483-56.727a8.012,8.012,0,0,1-5.693-2.079,6.87,6.87,0,0,1-2.228-5.247,6.716,6.716,0,0,1,2.228-5.2,8.126,8.126,0,0,1,5.693-2.03,8.126,8.126,0,0,1,5.692,2.03,6.716,6.716,0,0,1,2.228,5.2,6.87,6.87,0,0,1-2.228,5.247A8.012,8.012,0,0,1,165.825-56.727ZM159.489,0V-49.1h12.672V0Zm49.846,1.188A26.357,26.357,0,0,1,196.07-2.079a23.782,23.782,0,0,1-9.059-9.108,26.59,26.59,0,0,1-3.316-13.365,26.59,26.59,0,0,1,3.316-13.365,23.782,23.782,0,0,1,9.059-9.108,26.357,26.357,0,0,1,13.266-3.267q9.405,0,15.84,4.9a21.908,21.908,0,0,1,8.217,13.514H220.028a9.768,9.768,0,0,0-3.911-5.593,11.754,11.754,0,0,0-6.88-2.03,11.685,11.685,0,0,0-8.91,3.96q-3.663,3.96-3.663,10.989t3.663,10.989a11.685,11.685,0,0,0,8.91,3.96,11.965,11.965,0,0,0,6.88-1.98,9.574,9.574,0,0,0,3.911-5.643h13.365a22.394,22.394,0,0,1-8.217,13.365Q218.741,1.188,209.336,1.188Zm55.49,0A28.867,28.867,0,0,1,253.341-.941a19.838,19.838,0,0,1-7.92-5.891,17.053,17.053,0,0,1-3.564-8.712h12.771a8.222,8.222,0,0,0,3.217,4.9,10.767,10.767,0,0,0,6.782,2.029q4.158,0,6.089-1.683a5.016,5.016,0,0,0,1.93-3.861,4.252,4.252,0,0,0-2.772-4.307,48.846,48.846,0,0,0-7.722-2.227q-3.168-.693-6.435-1.683a29.691,29.691,0,0,1-5.989-2.524,13.091,13.091,0,0,1-4.406-3.96,10.253,10.253,0,0,1-1.683-5.99,13.92,13.92,0,0,1,5.2-10.989q5.2-4.455,14.6-4.455,8.712,0,13.91,4.059a16.451,16.451,0,0,1,6.188,11.187H271.557q-1.089-5.445-8.217-5.445a9.321,9.321,0,0,0-5.495,1.386,4.134,4.134,0,0,0-1.93,3.465q0,2.178,2.871,3.465a42.166,42.166,0,0,0,7.623,2.376q5.148,1.188,9.454,2.624a15.889,15.889,0,0,1,6.88,4.257q2.574,2.822,2.574,8.069a13.787,13.787,0,0,1-2.376,8.217,16.414,16.414,0,0,1-7.128,5.742A26.76,26.76,0,0,1,264.825,1.188Z" transform="translate(377.793 132.046)" fill="url(#linear-gradient)"/>
</svg>
