<svg id="Tit2" xmlns="http://www.w3.org/2000/svg" xmlns:xlink="http://www.w3.org/1999/xlink" width="616" height="194" viewBox="0 0 616 194">
  <defs>
    <linearGradient id="linear-gradient" x1="-0.037" y1="0.5" x2="1.05" y2="0.5" gradientUnits="objectBoundingBox">
      <stop offset="0" stop-color="#27869b"/>
      <stop offset="1" stop-color="#77a68c"/>
    </linearGradient>
  </defs>
  <path id="Rectangle_369" data-name="Rectangle 369" d="M0,0H519a97,97,0,0,1,97,97v0a97,97,0,0,1-97,97H0a0,0,0,0,1,0,0V0A0,0,0,0,1,0,0Z" fill="#fff"/>
  <path id="Path_193" data-name="Path 193" d="M-217.75,0l25.6-70h14.4l25.6,70h-13.6l-5.6-16.2h-27.3L-204.35,0Zm22.6-26.2h20.3l-10.2-29.1ZM-143.6,0V-49.6h11.3l1,8.4a17.439,17.439,0,0,1,6.65-7,19.6,19.6,0,0,1,10.25-2.6q9.2,0,14.3,5.8T-95-28V0h-12.8V-26.8q0-6.4-2.6-9.8t-8.1-3.4a11.415,11.415,0,0,0-8.85,3.8q-3.45,3.8-3.45,10.6V0Zm77.75,1.2A23.466,23.466,0,0,1-76.35-.85a14.185,14.185,0,0,1-6.1-5.45,14.521,14.521,0,0,1-2-7.5A13.647,13.647,0,0,1-79.05-25q5.4-4.3,16.2-4.3h12.6v-1.2q0-5.1-2.9-7.5a10.916,10.916,0,0,0-7.2-2.4,12.369,12.369,0,0,0-6.8,1.85,7.965,7.965,0,0,0-3.6,5.45h-12.5a17.445,17.445,0,0,1,3.65-9.4,20.434,20.434,0,0,1,8.15-6.15,28.08,28.08,0,0,1,11.2-2.15q10.6,0,16.7,5.3t6.1,15V0h-10.9l-1.2-8A18.486,18.486,0,0,1-55.7-1.4,18.132,18.132,0,0,1-65.85,1.2Zm2.9-10a10.6,10.6,0,0,0,8.55-3.6,17.482,17.482,0,0,0,3.85-8.9h-10.9q-5.1,0-7.3,1.85a5.725,5.725,0,0,0-2.2,4.55,5.241,5.241,0,0,0,2.2,4.5A9.64,9.64,0,0,0-62.95-8.8ZM-4,0q-7.8,0-12.5-3.8t-4.7-13.5V-38.9h-8.5V-49.6h8.5l1.5-13.3H-8.4v13.3H5v10.7H-8.4v21.7q0,3.6,1.55,4.95T-1.5-10.9H4.7V0ZM38.35,1.2A25.545,25.545,0,0,1,25.4-2.1a24.228,24.228,0,0,1-9.1-9.15A26.785,26.785,0,0,1,12.95-24.8a26.474,26.474,0,0,1,3.4-13.55A24.6,24.6,0,0,1,25.5-47.5a25.545,25.545,0,0,1,12.95-3.3A25.35,25.35,0,0,1,51.3-47.5a24.228,24.228,0,0,1,9.1,9.15A26.785,26.785,0,0,1,63.75-24.8,26.785,26.785,0,0,1,60.4-11.25,24.122,24.122,0,0,1,51.25-2.1,25.623,25.623,0,0,1,38.35,1.2Zm0-11.1a11.83,11.83,0,0,0,8.7-3.75q3.7-3.75,3.7-11.15t-3.7-11.15a11.721,11.721,0,0,0-8.6-3.75,11.779,11.779,0,0,0-8.75,3.75Q26.05-32.2,26.05-24.8T29.7-13.65A11.669,11.669,0,0,0,38.35-9.9ZM75,0V-49.6H86.3l1.1,6.7a17.61,17.61,0,0,1,6.35-5.75,18.839,18.839,0,0,1,9.15-2.15q11.5,0,16.3,8.9a19.267,19.267,0,0,1,7.25-6.5,21,21,0,0,1,9.95-2.4q9.7,0,14.9,5.8t5.2,17V0H143.7V-26.8q0-6.4-2.45-9.8T133.7-40a10.3,10.3,0,0,0-8.35,3.8q-3.15,3.8-3.15,10.6V0H109.4V-26.8q0-6.4-2.5-9.8T99.2-40a10.2,10.2,0,0,0-8.25,3.8Q87.8-32.4,87.8-25.6V0Zm98.05,22,11.5-25.3h-3l-19.3-46.3h13.9l13.9,34.9,14.5-34.9h13.6L186.65,22Z" transform="translate(308 132)" fill="url(#linear-gradient)"/>
</svg>
