<svg xmlns="http://www.w3.org/2000/svg" xmlns:xlink="http://www.w3.org/1999/xlink" width="511" height="194" viewBox="0 0 511 194">
  <defs>
    <linearGradient id="linear-gradient" x1="1" y1="0.5" x2="0" y2="0.392" gradientUnits="objectBoundingBox">
      <stop offset="0" stop-color="#83c5ae"/>
      <stop offset="1" stop-color="#e8d28b"/>
    </linearGradient>
  </defs>
  <g id="Tit3" transform="translate(0 -0.382)">
    <path id="Rectangle_373" data-name="Rectangle 373" d="M0,0H414a97,97,0,0,1,97,97v0a97,97,0,0,1-97,97H0a0,0,0,0,1,0,0V0A0,0,0,0,1,0,0Z" transform="translate(0 0.382)" fill="#fff"/>
    <path id="Path_199" data-name="Path 199" d="M-162.975,0V-70h28.1q10.9,0,16.65,5.05A16.456,16.456,0,0,1-112.475-52q0,6.6-3.55,10.55a17.706,17.706,0,0,1-8.65,5.35,16.689,16.689,0,0,1,9.9,5.95,16.9,16.9,0,0,1,3.9,11.05,17.626,17.626,0,0,1-6,13.7q-6,5.4-17,5.4Zm12.8-40.6h13.4q5.4,0,8.3-2.5a8.866,8.866,0,0,0,2.9-7.1,8.854,8.854,0,0,0-2.85-6.95q-2.85-2.55-8.55-2.55h-13.2Zm0,30.2h14.3q5.7,0,8.85-2.65a9.2,9.2,0,0,0,3.15-7.45,9.561,9.561,0,0,0-3.3-7.7q-3.3-2.8-8.9-2.8h-14.1Zm73.65,11.6a25.545,25.545,0,0,1-12.95-3.3,24.228,24.228,0,0,1-9.1-9.15,26.785,26.785,0,0,1-3.35-13.55,26.474,26.474,0,0,1,3.4-13.55,24.6,24.6,0,0,1,9.15-9.15,25.545,25.545,0,0,1,12.95-3.3,25.35,25.35,0,0,1,12.85,3.3,24.228,24.228,0,0,1,9.1,9.15,26.785,26.785,0,0,1,3.35,13.55,26.785,26.785,0,0,1-3.35,13.55,24.122,24.122,0,0,1-9.15,9.15A25.623,25.623,0,0,1-76.525,1.2Zm0-11.1a11.83,11.83,0,0,0,8.7-3.75q3.7-3.75,3.7-11.15t-3.7-11.15a11.721,11.721,0,0,0-8.6-3.75,11.779,11.779,0,0,0-8.75,3.75q-3.65,3.75-3.65,11.15t3.65,11.15A11.669,11.669,0,0,0-76.525-9.9ZM-19.775,0q-7.8,0-12.5-3.8t-4.7-13.5V-38.9h-8.5V-49.6h8.5l1.5-13.3h11.3v13.3h13.4v10.7h-13.4v21.7q0,3.6,1.55,4.95t5.35,1.35h6.2V0Zm36.95,1.2A23.466,23.466,0,0,1,6.675-.85,14.185,14.185,0,0,1,.575-6.3a14.521,14.521,0,0,1-2-7.5A13.647,13.647,0,0,1,3.975-25q5.4-4.3,16.2-4.3h12.6v-1.2q0-5.1-2.9-7.5a10.916,10.916,0,0,0-7.2-2.4,12.369,12.369,0,0,0-6.8,1.85,7.965,7.965,0,0,0-3.6,5.45H-.225a17.445,17.445,0,0,1,3.65-9.4,20.434,20.434,0,0,1,8.15-6.15,28.08,28.08,0,0,1,11.2-2.15q10.6,0,16.7,5.3t6.1,15V0h-10.9l-1.2-8a18.486,18.486,0,0,1-6.15,6.6A18.132,18.132,0,0,1,17.175,1.2Zm2.9-10a10.6,10.6,0,0,0,8.55-3.6,17.482,17.482,0,0,0,3.85-8.9h-10.9q-5.1,0-7.3,1.85a5.725,5.725,0,0,0-2.2,4.55,5.241,5.241,0,0,0,2.2,4.5A9.64,9.64,0,0,0,20.075-8.8ZM57.625,0V-49.6h11.3l1,8.4a17.439,17.439,0,0,1,6.65-7,19.6,19.6,0,0,1,10.25-2.6q9.2,0,14.3,5.8t5.1,17V0h-12.8V-26.8q0-6.4-2.6-9.8t-8.1-3.4a11.415,11.415,0,0,0-8.85,3.8q-3.45,3.8-3.45,10.6V0Zm65.15,22,11.5-25.3h-3l-19.3-46.3h13.9l13.9,34.9,14.5-34.9h13.6L136.375,22Z" transform="translate(252.975 130.445)" fill="url(#linear-gradient)"/>
  </g>
</svg>
