<svg xmlns="http://www.w3.org/2000/svg" xmlns:xlink="http://www.w3.org/1999/xlink" width="695" height="194" viewBox="0 0 695 194">
  <defs>
    <linearGradient id="linear-gradient" y1="0.5" x2="1.017" y2="0.5" gradientUnits="objectBoundingBox">
      <stop offset="0" stop-color="#dea564"/>
      <stop offset="1" stop-color="#bece79"/>
    </linearGradient>
  </defs>
  <g id="Tit4" transform="translate(0 0.057)">
    <path id="Rectangle_379" data-name="Rectangle 379" d="M0,0H598a97,97,0,0,1,97,97v0a97,97,0,0,1-97,97H0a0,0,0,0,1,0,0V0A0,0,0,0,1,0,0Z" transform="translate(0 -0.057)" fill="#fff"/>
    <path id="Path_204" data-name="Path 204" d="M6.8,0V-70H22L44.3-25.6,66.3-70H81.5V0H68.7V-48.3L49.2-10H39.1L19.6-48.3V0ZM118.85,1.2A27.076,27.076,0,0,1,105.55-2a23.161,23.161,0,0,1-9.1-9,26.623,26.623,0,0,1-3.3-13.4A28.3,28.3,0,0,1,96.4-38.1a23.6,23.6,0,0,1,9-9.35,26.44,26.44,0,0,1,13.55-3.35,25.54,25.54,0,0,1,12.9,3.2,22.982,22.982,0,0,1,8.75,8.75,24.578,24.578,0,0,1,3.15,12.35q0,1.1-.05,2.3t-.15,2.5h-37.7a12.917,12.917,0,0,0,4.05,9.1,12.727,12.727,0,0,0,8.85,3.3,11.633,11.633,0,0,0,6.55-1.75,10.842,10.842,0,0,0,3.95-4.55h13a23.569,23.569,0,0,1-4.65,8.55,22.925,22.925,0,0,1-8,6.05A25.291,25.291,0,0,1,118.85,1.2Zm.1-41.6a13.631,13.631,0,0,0-8.3,2.65,12.282,12.282,0,0,0-4.6,8.05h24.7a10.8,10.8,0,0,0-3.6-7.8A11.974,11.974,0,0,0,118.95-40.4ZM178.8,1.2a26.623,26.623,0,0,1-13.4-3.3,24.022,24.022,0,0,1-9.15-9.2,26.859,26.859,0,0,1-3.35-13.5,26.859,26.859,0,0,1,3.35-13.5,24.022,24.022,0,0,1,9.15-9.2,26.623,26.623,0,0,1,13.4-3.3q9.5,0,16,4.95a22.13,22.13,0,0,1,8.3,13.65H189.6a9.867,9.867,0,0,0-3.95-5.65,11.872,11.872,0,0,0-6.95-2.05,11.8,11.8,0,0,0-9,4q-3.7,4-3.7,11.1t3.7,11.1a11.8,11.8,0,0,0,9,4,12.086,12.086,0,0,0,6.95-2,9.67,9.67,0,0,0,3.95-5.7h13.5a22.62,22.62,0,0,1-8.3,13.5Q188.3,1.2,178.8,1.2ZM214.45,0V-72h12.8v30A17.924,17.924,0,0,1,234-48.45a19.814,19.814,0,0,1,9.75-2.35q9.2,0,14.25,5.8t5.05,17V0h-12.7V-26.8q0-6.4-2.55-9.8T239.75-40a11.726,11.726,0,0,0-8.95,3.8q-3.55,3.8-3.55,10.6V0ZM292.3,1.2A23.466,23.466,0,0,1,281.8-.85a14.185,14.185,0,0,1-6.1-5.45,14.521,14.521,0,0,1-2-7.5A13.647,13.647,0,0,1,279.1-25q5.4-4.3,16.2-4.3h12.6v-1.2q0-5.1-2.9-7.5a10.916,10.916,0,0,0-7.2-2.4,12.369,12.369,0,0,0-6.8,1.85,7.965,7.965,0,0,0-3.6,5.45H274.9a17.445,17.445,0,0,1,3.65-9.4,20.434,20.434,0,0,1,8.15-6.15,28.08,28.08,0,0,1,11.2-2.15q10.6,0,16.7,5.3t6.1,15V0H309.8l-1.2-8a18.486,18.486,0,0,1-6.15,6.6A18.132,18.132,0,0,1,292.3,1.2Zm2.9-10a10.6,10.6,0,0,0,8.55-3.6,17.482,17.482,0,0,0,3.85-8.9H296.7q-5.1,0-7.3,1.85a5.725,5.725,0,0,0-2.2,4.55,5.241,5.241,0,0,0,2.2,4.5A9.64,9.64,0,0,0,295.2-8.8ZM332.85,0V-49.6h11.3l1,8.4a17.439,17.439,0,0,1,6.65-7,19.6,19.6,0,0,1,10.25-2.6q9.2,0,14.3,5.8t5.1,17V0h-12.8V-26.8q0-6.4-2.6-9.8t-8.1-3.4a11.415,11.415,0,0,0-8.85,3.8q-3.45,3.8-3.45,10.6V0ZM400.5-57.3a8.093,8.093,0,0,1-5.75-2.1,6.94,6.94,0,0,1-2.25-5.3,6.784,6.784,0,0,1,2.25-5.25A8.208,8.208,0,0,1,400.5-72a8.208,8.208,0,0,1,5.75,2.05,6.784,6.784,0,0,1,2.25,5.25,6.94,6.94,0,0,1-2.25,5.3A8.093,8.093,0,0,1,400.5-57.3ZM394.1,0V-49.6h12.8V0Zm50.45,1.2a26.623,26.623,0,0,1-13.4-3.3A24.022,24.022,0,0,1,422-11.3a26.859,26.859,0,0,1-3.35-13.5A26.859,26.859,0,0,1,422-38.3a24.022,24.022,0,0,1,9.15-9.2,26.623,26.623,0,0,1,13.4-3.3q9.5,0,16,4.95a22.13,22.13,0,0,1,8.3,13.65h-13.5a9.867,9.867,0,0,0-3.95-5.65,11.872,11.872,0,0,0-6.95-2.05,11.8,11.8,0,0,0-9,4q-3.7,4-3.7,11.1t3.7,11.1a11.8,11.8,0,0,0,9,4,12.086,12.086,0,0,0,6.95-2,9.67,9.67,0,0,0,3.95-5.7h13.5a22.62,22.62,0,0,1-8.3,13.5Q454.05,1.2,444.55,1.2Zm56.15,0A29.159,29.159,0,0,1,489.1-.95a20.038,20.038,0,0,1-8-5.95,17.226,17.226,0,0,1-3.6-8.8h12.9a8.3,8.3,0,0,0,3.25,4.95A10.876,10.876,0,0,0,500.5-8.7q4.2,0,6.15-1.7a5.067,5.067,0,0,0,1.95-3.9,4.3,4.3,0,0,0-2.8-4.35A49.341,49.341,0,0,0,498-20.9q-3.2-.7-6.5-1.7a29.991,29.991,0,0,1-6.05-2.55,13.223,13.223,0,0,1-4.45-4,10.356,10.356,0,0,1-1.7-6.05,14.06,14.06,0,0,1,5.25-11.1q5.25-4.5,14.75-4.5,8.8,0,14.05,4.1a16.617,16.617,0,0,1,6.25,11.3H507.5q-1.1-5.5-8.3-5.5a9.415,9.415,0,0,0-5.55,1.4A4.176,4.176,0,0,0,491.7-36q0,2.2,2.9,3.5a42.591,42.591,0,0,0,7.7,2.4q5.2,1.2,9.55,2.65a16.049,16.049,0,0,1,6.95,4.3q2.6,2.85,2.6,8.15A13.927,13.927,0,0,1,519-6.7a16.58,16.58,0,0,1-7.2,5.8A27.031,27.031,0,0,1,500.7,1.2Z" transform="translate(83.2 131.769)" fill="url(#linear-gradient)"/>
  </g>
</svg>
