<svg xmlns="http://www.w3.org/2000/svg" xmlns:xlink="http://www.w3.org/1999/xlink" width="695" height="194" viewBox="0 0 695 194">
  <defs>
    <linearGradient id="linear-gradient" y1="0.409" x2="1" y2="0.5" gradientUnits="objectBoundingBox">
      <stop offset="0" stop-color="#5d96a0"/>
      <stop offset="1" stop-color="#8d8d83"/>
    </linearGradient>
  </defs>
  <g id="Tit5" transform="translate(0 -0.374)">
    <path id="Rectangle_382" data-name="Rectangle 382" d="M0,0H598a97,97,0,0,1,97,97v0a97,97,0,0,1-97,97H0a0,0,0,0,1,0,0V0A0,0,0,0,1,0,0Z" transform="translate(0 0.374)" fill="#fff"/>
    <path id="Path_208" data-name="Path 208" d="M37.026,1.188A32.311,32.311,0,0,1,19.9-3.267,30.281,30.281,0,0,1,8.514-15.691,40.376,40.376,0,0,1,4.455-34.254a40.615,40.615,0,0,1,4.207-18.86A31.059,31.059,0,0,1,20.642-65.885q7.771-4.6,18.463-4.6,12.177,0,20.2,5.841A26.63,26.63,0,0,1,69.7-48.51H55.539A13.951,13.951,0,0,0,49.8-56.083,19.18,19.18,0,0,0,39.1-58.806q-10.395,0-16.038,6.583T17.424-34.155q0,11.484,5.594,17.771t15.2,6.287q9.405,0,14.207-5.1t5.792-13.414H40.689v-9.5H70.983V0H59.3l-.99-9.108A23.228,23.228,0,0,1,49.9-1.485Q44.847,1.188,37.026,1.188Zm69.745,0A26.8,26.8,0,0,1,93.6-1.98,22.929,22.929,0,0,1,84.6-10.89a26.357,26.357,0,0,1-3.267-13.266,28.02,28.02,0,0,1,3.218-13.563,23.36,23.36,0,0,1,8.91-9.257,26.176,26.176,0,0,1,13.414-3.316,25.284,25.284,0,0,1,12.771,3.168,22.752,22.752,0,0,1,8.662,8.662,24.332,24.332,0,0,1,3.118,12.227q0,1.089-.049,2.277t-.148,2.475H93.9a12.788,12.788,0,0,0,4.009,9.009,12.6,12.6,0,0,0,8.761,3.267,11.516,11.516,0,0,0,6.485-1.733,10.734,10.734,0,0,0,3.91-4.5h12.87a23.333,23.333,0,0,1-4.6,8.464,22.7,22.7,0,0,1-7.92,5.99A25.039,25.039,0,0,1,106.771,1.188ZM106.87-40a13.5,13.5,0,0,0-8.217,2.624A12.159,12.159,0,0,0,94.1-29.4h24.453a10.687,10.687,0,0,0-3.564-7.722A11.854,11.854,0,0,0,106.87-40ZM165.627,1.188a25.29,25.29,0,0,1-12.82-3.267,23.986,23.986,0,0,1-9.009-9.059,26.518,26.518,0,0,1-3.316-13.415,26.209,26.209,0,0,1,3.366-13.414,24.35,24.35,0,0,1,9.059-9.059,25.29,25.29,0,0,1,12.821-3.267,25.1,25.1,0,0,1,12.721,3.267,23.986,23.986,0,0,1,9.009,9.059,26.518,26.518,0,0,1,3.316,13.414,26.518,26.518,0,0,1-3.316,13.415A23.881,23.881,0,0,1,178.4-2.079,25.367,25.367,0,0,1,165.627,1.188Zm0-10.989a11.711,11.711,0,0,0,8.613-3.712q3.663-3.713,3.663-11.039T174.24-35.591a11.6,11.6,0,0,0-8.514-3.712,11.661,11.661,0,0,0-8.663,3.712q-3.613,3.713-3.613,11.039t3.613,11.039A11.552,11.552,0,0,0,165.627-9.8Zm54.1-4.851a26.484,26.484,0,0,1-6.633-.792l-3.663,3.663a17.508,17.508,0,0,0,4.554,1.485q2.871.594,9.306,1.188,9.8.891,14.256,4.653t4.455,10.4a15.668,15.668,0,0,1-2.376,8.266,17.021,17.021,0,0,1-7.326,6.336q-4.95,2.425-12.672,2.425-10.494,0-16.929-3.91a12.839,12.839,0,0,1-6.435-11.732q0-6.633,6.435-11.484a21.736,21.736,0,0,1-3.416-1.881,18.043,18.043,0,0,1-2.524-2.079V-10.4l8.613-9.108a16.485,16.485,0,0,1-5.742-12.969,17.23,17.23,0,0,1,2.425-9.009,17.288,17.288,0,0,1,6.881-6.435,22.665,22.665,0,0,1,10.791-2.376,24.278,24.278,0,0,1,7.722,1.188h18.612v7.722l-8.415.594a17.578,17.578,0,0,1,1.98,8.316,17.5,17.5,0,0,1-2.376,9.009,16.867,16.867,0,0,1-6.88,6.435A22.509,22.509,0,0,1,219.731-14.652Zm0-9.7a9.712,9.712,0,0,0,6.385-2.079,7.258,7.258,0,0,0,2.524-5.94,7.258,7.258,0,0,0-2.524-5.94,9.712,9.712,0,0,0-6.385-2.079,9.821,9.821,0,0,0-6.534,2.079,7.324,7.324,0,0,0-2.475,5.94,7.324,7.324,0,0,0,2.475,5.94A9.821,9.821,0,0,0,219.731-24.354ZM207.851,6.039a5.893,5.893,0,0,0,3.415,5.495,17.513,17.513,0,0,0,8.366,1.832,13.948,13.948,0,0,0,7.722-1.931,5.929,5.929,0,0,0,2.97-5.2,5.811,5.811,0,0,0-1.931-4.455Q226.463,0,220.721-.4q-4.059-.3-7.524-.891a11.336,11.336,0,0,0-4.108,3.465A6.944,6.944,0,0,0,207.851,6.039ZM255.222,0V-49.1h11.286L267.7-39.9a20.547,20.547,0,0,1,7.277-7.573,20.332,20.332,0,0,1,10.84-2.821v13.365h-3.564a20.132,20.132,0,0,0-7.425,1.287,10,10,0,0,0-5.1,4.455q-1.832,3.168-1.832,8.811V0Zm56.084,1.188a23.231,23.231,0,0,1-10.4-2.03,14.043,14.043,0,0,1-6.039-5.4,14.376,14.376,0,0,1-1.98-7.425,13.51,13.51,0,0,1,5.346-11.088q5.346-4.257,16.038-4.257H326.75V-30.2q0-5.049-2.871-7.425A10.807,10.807,0,0,0,316.751-40a12.246,12.246,0,0,0-6.732,1.832,7.886,7.886,0,0,0-3.564,5.4H294.08a17.27,17.27,0,0,1,3.613-9.306,20.23,20.23,0,0,1,8.069-6.089,27.8,27.8,0,0,1,11.088-2.128q10.494,0,16.533,5.247t6.039,14.85V0H328.631l-1.188-7.92a18.3,18.3,0,0,1-6.089,6.534A17.951,17.951,0,0,1,311.306,1.188Zm2.871-9.9a10.489,10.489,0,0,0,8.465-3.564,17.307,17.307,0,0,0,3.811-8.811H315.662q-5.049,0-7.227,1.832a5.668,5.668,0,0,0-2.178,4.5,5.189,5.189,0,0,0,2.178,4.455A9.543,9.543,0,0,0,314.177-8.712ZM351.45,21.78V-49.1h11.286l1.386,7.029a22.554,22.554,0,0,1,6.286-5.742,18.711,18.711,0,0,1,10.148-2.475,23.051,23.051,0,0,1,12.375,3.366,24.116,24.116,0,0,1,8.613,9.207,27.374,27.374,0,0,1,3.168,13.266,27.088,27.088,0,0,1-3.168,13.217,23.837,23.837,0,0,1-8.613,9.108,23.312,23.312,0,0,1-12.375,3.316,21.434,21.434,0,0,1-9.7-2.079,17.488,17.488,0,0,1-6.732-5.841V21.78ZM377.883-9.9a13.381,13.381,0,0,0,10-4.059,14.394,14.394,0,0,0,3.96-10.494,14.739,14.739,0,0,0-3.96-10.593,13.221,13.221,0,0,0-10-4.158A13.258,13.258,0,0,0,367.835-35.1a14.67,14.67,0,0,0-3.91,10.543,14.67,14.67,0,0,0,3.91,10.544A13.258,13.258,0,0,0,377.883-9.9ZM415.949,0V-71.28h12.672v29.7a17.744,17.744,0,0,1,6.682-6.386,19.616,19.616,0,0,1,9.652-2.326q9.108,0,14.108,5.742t5,16.83V0H451.49V-26.532q0-6.336-2.525-9.7T441-39.6a11.609,11.609,0,0,0-8.861,3.762q-3.514,3.762-3.514,10.494V0Zm64.6,21.78L491.931-3.267h-2.97L469.854-49.1h13.761l13.761,34.551L511.731-49.1H525.2L494.01,21.78Z" transform="translate(85.545 132.176)" fill="url(#linear-gradient)"/>
  </g>
</svg>
