<svg xmlns="http://www.w3.org/2000/svg" xmlns:xlink="http://www.w3.org/1999/xlink" width="541" height="194" viewBox="0 0 541 194">
  <defs>
    <linearGradient id="linear-gradient" x1="-0.018" y1="0.455" x2="1.018" y2="0.462" gradientUnits="objectBoundingBox">
      <stop offset="0" stop-color="#e5528f"/>
      <stop offset="1" stop-color="#b05391"/>
    </linearGradient>
  </defs>
  <g id="Tit7" transform="translate(0 0.374)">
    <path id="Rectangle_387" data-name="Rectangle 387" d="M0,0H444a97,97,0,0,1,97,97v0a97,97,0,0,1-97,97H0a0,0,0,0,1,0,0V0A0,0,0,0,1,0,0Z" transform="translate(0 -0.374)" fill="#fff"/>
    <path id="Path_219" data-name="Path 219" d="M6.868,0V-70.7H33.027q8.484,0,14.039,2.828A18.957,18.957,0,0,1,55.348-60.1a22.633,22.633,0,0,1,2.727,11.11,22.4,22.4,0,0,1-2.626,10.757,19.3,19.3,0,0,1-8.181,7.878q-5.555,2.98-14.241,2.979H19.8V0ZM19.8-37.875H32.219q6.767,0,9.746-2.979a10.986,10.986,0,0,0,2.98-8.131q0-5.252-2.98-8.231T32.219-60.2H19.8ZM67.872,0V-72.72H80.8v30.3a18.1,18.1,0,0,1,6.818-6.514,20.012,20.012,0,0,1,9.847-2.374q9.292,0,14.393,5.858t5.1,17.17V0H104.131V-27.068q0-6.464-2.576-9.9T93.425-40.4a11.843,11.843,0,0,0-9.039,3.838Q80.8-32.724,80.8-25.856V0Zm65.953,22.22L145.44-3.333h-3.03L122.917-50.1h14.039l14.039,35.249L165.64-50.1h13.736L147.561,22.22ZM206.141,1.212A29.45,29.45,0,0,1,194.425-.96a20.239,20.239,0,0,1-8.08-6.01,17.4,17.4,0,0,1-3.636-8.888h13.029a8.388,8.388,0,0,0,3.283,5,10.984,10.984,0,0,0,6.918,2.07q4.242,0,6.212-1.717a5.117,5.117,0,0,0,1.969-3.939,4.338,4.338,0,0,0-2.828-4.394,49.834,49.834,0,0,0-7.878-2.272q-3.232-.707-6.565-1.717a30.291,30.291,0,0,1-6.111-2.576,13.355,13.355,0,0,1-4.494-4.04,10.46,10.46,0,0,1-1.717-6.111,14.2,14.2,0,0,1,5.3-11.211q5.3-4.545,14.9-4.545,8.888,0,14.191,4.141a16.783,16.783,0,0,1,6.313,11.413H213.009q-1.111-5.555-8.383-5.555a9.509,9.509,0,0,0-5.605,1.414,4.218,4.218,0,0,0-1.97,3.535q0,2.222,2.929,3.535a43.017,43.017,0,0,0,7.777,2.424q5.252,1.212,9.645,2.677a16.21,16.21,0,0,1,7.02,4.343q2.626,2.879,2.626,8.232a14.066,14.066,0,0,1-2.424,8.383,16.746,16.746,0,0,1-7.272,5.858A27.3,27.3,0,0,1,206.141,1.212ZM245.43-57.873a8.173,8.173,0,0,1-5.807-2.121,7.009,7.009,0,0,1-2.273-5.353,6.852,6.852,0,0,1,2.273-5.3,8.29,8.29,0,0,1,5.807-2.07,8.29,8.29,0,0,1,5.808,2.07,6.852,6.852,0,0,1,2.272,5.3,7.009,7.009,0,0,1-2.272,5.353A8.173,8.173,0,0,1,245.43-57.873ZM238.966,0V-50.1h12.928V0Zm51.005,1.212a26.889,26.889,0,0,1-13.534-3.333,24.262,24.262,0,0,1-9.242-9.292,27.128,27.128,0,0,1-3.383-13.635A27.128,27.128,0,0,1,267.2-38.683a24.262,24.262,0,0,1,9.242-9.292,26.889,26.889,0,0,1,13.534-3.333q9.6,0,16.16,5a22.351,22.351,0,0,1,8.383,13.786H300.879a9.966,9.966,0,0,0-3.99-5.706,11.991,11.991,0,0,0-7.02-2.071,11.921,11.921,0,0,0-9.09,4.04q-3.737,4.04-3.737,11.211t3.737,11.211a11.921,11.921,0,0,0,9.09,4.04,12.207,12.207,0,0,0,7.02-2.02,9.767,9.767,0,0,0,3.99-5.757h13.635a22.846,22.846,0,0,1-8.383,13.635Q299.566,1.212,289.971,1.212Zm56.762,0A29.45,29.45,0,0,1,335.017-.96a20.239,20.239,0,0,1-8.08-6.01,17.4,17.4,0,0,1-3.636-8.888H336.33a8.388,8.388,0,0,0,3.283,5,10.984,10.984,0,0,0,6.918,2.07q4.242,0,6.212-1.717a5.117,5.117,0,0,0,1.969-3.939,4.338,4.338,0,0,0-2.828-4.394,49.833,49.833,0,0,0-7.878-2.272q-3.232-.707-6.565-1.717a30.29,30.29,0,0,1-6.111-2.576,13.356,13.356,0,0,1-4.495-4.04,10.46,10.46,0,0,1-1.717-6.111,14.2,14.2,0,0,1,5.3-11.211q5.3-4.545,14.9-4.545,8.888,0,14.191,4.141a16.783,16.783,0,0,1,6.313,11.413H353.6q-1.111-5.555-8.383-5.555a9.509,9.509,0,0,0-5.605,1.414,4.218,4.218,0,0,0-1.97,3.535q0,2.222,2.929,3.535a43.018,43.018,0,0,0,7.777,2.424q5.252,1.212,9.646,2.677a16.21,16.21,0,0,1,7.02,4.343q2.626,2.879,2.626,8.232a14.066,14.066,0,0,1-2.424,8.383,16.746,16.746,0,0,1-7.272,5.858A27.3,27.3,0,0,1,346.733,1.212Z" transform="translate(83.132 122.495)" fill="url(#linear-gradient)"/>
  </g>
</svg>
