<svg xmlns="http://www.w3.org/2000/svg" xmlns:xlink="http://www.w3.org/1999/xlink" width="578" height="194" viewBox="0 0 578 194">
  <defs>
    <linearGradient id="linear-gradient" y1="0.419" x2="1" y2="0.445" gradientUnits="objectBoundingBox">
      <stop offset="0" stop-color="#b4ce83"/>
      <stop offset="1" stop-color="#698d42"/>
    </linearGradient>
  </defs>
  <g id="Tit8" transform="translate(0 -0.187)">
    <path id="Rectangle_389" data-name="Rectangle 389" d="M0,0H481a97,97,0,0,1,97,97v0a97,97,0,0,1-97,97H0a0,0,0,0,1,0,0V0A0,0,0,0,1,0,0Z" transform="translate(0 0.187)" fill="#fff"/>
    <path id="Path_232" data-name="Path 232" d="M6.868,0V-70.7H52.52v10.4H19.8v19.8H46.258v10.2H19.8V0ZM83.477,1.212A25.8,25.8,0,0,1,70.4-2.121a24.471,24.471,0,0,1-9.191-9.242,27.053,27.053,0,0,1-3.383-13.686,26.739,26.739,0,0,1,3.434-13.686A24.842,24.842,0,0,1,70.5-47.975a25.8,25.8,0,0,1,13.079-3.333,25.6,25.6,0,0,1,12.979,3.333,24.471,24.471,0,0,1,9.191,9.242,27.053,27.053,0,0,1,3.384,13.686,27.053,27.053,0,0,1-3.384,13.686,24.363,24.363,0,0,1-9.242,9.242A25.88,25.88,0,0,1,83.477,1.212Zm0-11.211a11.948,11.948,0,0,0,8.787-3.787Q96-17.574,96-25.048T92.264-36.31A11.838,11.838,0,0,0,83.577-40.1,11.9,11.9,0,0,0,74.74-36.31q-3.687,3.787-3.687,11.262T74.74-13.786A11.785,11.785,0,0,0,83.477-10ZM120.493,0V-50.1h11.514l1.212,9.393a20.962,20.962,0,0,1,7.423-7.727A20.742,20.742,0,0,1,151.7-51.308v13.635h-3.636a20.539,20.539,0,0,0-7.575,1.313,10.2,10.2,0,0,0-5.2,4.545q-1.868,3.232-1.868,8.989V0ZM183.77,1.212A27.346,27.346,0,0,1,170.337-2.02a23.392,23.392,0,0,1-9.191-9.09,26.889,26.889,0,0,1-3.333-13.534A28.586,28.586,0,0,1,161.1-38.481a23.832,23.832,0,0,1,9.09-9.444,26.7,26.7,0,0,1,13.686-3.383A25.8,25.8,0,0,1,196.9-48.076a23.211,23.211,0,0,1,8.837,8.838,24.824,24.824,0,0,1,3.181,12.473q0,1.111-.05,2.323t-.152,2.525H170.639a13.047,13.047,0,0,0,4.09,9.191,12.855,12.855,0,0,0,8.938,3.333,11.749,11.749,0,0,0,6.616-1.767,10.951,10.951,0,0,0,3.99-4.6H207.4a23.8,23.8,0,0,1-4.7,8.636,23.155,23.155,0,0,1-8.08,6.11A25.544,25.544,0,0,1,183.77,1.212Zm.1-42.016a13.767,13.767,0,0,0-8.383,2.676A12.4,12.4,0,0,0,170.841-30h24.947a10.9,10.9,0,0,0-3.636-7.878A12.094,12.094,0,0,0,183.87-40.8ZM240.38,1.212A29.45,29.45,0,0,1,228.664-.96a20.239,20.239,0,0,1-8.08-6.01,17.4,17.4,0,0,1-3.636-8.888h13.029a8.388,8.388,0,0,0,3.283,5,10.985,10.985,0,0,0,6.919,2.07q4.242,0,6.211-1.717a5.117,5.117,0,0,0,1.97-3.939,4.338,4.338,0,0,0-2.828-4.394,49.834,49.834,0,0,0-7.878-2.272q-3.232-.707-6.565-1.717a30.291,30.291,0,0,1-6.11-2.576,13.355,13.355,0,0,1-4.495-4.04,10.46,10.46,0,0,1-1.717-6.111,14.2,14.2,0,0,1,5.3-11.211q5.3-4.545,14.9-4.545,8.888,0,14.19,4.141a16.783,16.783,0,0,1,6.313,11.413H247.248q-1.111-5.555-8.383-5.555A9.509,9.509,0,0,0,233.26-39.9a4.218,4.218,0,0,0-1.969,3.535q0,2.222,2.929,3.535A43.018,43.018,0,0,0,242-30.4q5.252,1.212,9.646,2.677a16.21,16.21,0,0,1,7.02,4.343q2.626,2.879,2.626,8.232a14.066,14.066,0,0,1-2.424,8.383,16.746,16.746,0,0,1-7.272,5.858A27.3,27.3,0,0,1,240.38,1.212ZM293.253,0q-7.878,0-12.625-3.838t-4.747-13.635V-39.289H267.3V-50.1h8.585L277.4-63.529H288.81V-50.1h13.534v10.807H288.81v21.917q0,3.636,1.565,5t5.4,1.363h6.262V0ZM313.3,0V-50.1h11.514l1.212,9.393a20.961,20.961,0,0,1,7.423-7.727,20.743,20.743,0,0,1,11.059-2.878v13.635h-3.636A20.539,20.539,0,0,0,333.3-36.36a10.2,10.2,0,0,0-5.2,4.545q-1.868,3.232-1.868,8.989V0Zm46.107,22.22L371.023-3.333h-3.03L348.5-50.1H362.54l14.039,35.249L391.224-50.1H404.96L373.145,22.22Z" transform="translate(83.132 121.92)" fill="url(#linear-gradient)"/>
  </g>
</svg>
