<svg xmlns="http://www.w3.org/2000/svg" xmlns:xlink="http://www.w3.org/1999/xlink" width="620" height="194" viewBox="0 0 620 194">
  <defs>
    <linearGradient id="linear-gradient" y1="0.596" x2="1.019" y2="0.666" gradientUnits="objectBoundingBox">
      <stop offset="0" stop-color="#d8bf81"/>
      <stop offset="1" stop-color="#f8bb9a"/>
    </linearGradient>
  </defs>
  <g id="Tit9" transform="translate(0 0.252)">
    <path id="Rectangle_391" data-name="Rectangle 391" d="M0,0H523a97,97,0,0,1,97,97v0a97,97,0,0,1-97,97H0a0,0,0,0,1,0,0V0A0,0,0,0,1,0,0Z" transform="translate(0 -0.252)" fill="#fff"/>
    <path id="Path_234" data-name="Path 234" d="M6.868,0V-70.7H22.22L44.743-25.856,66.963-70.7H82.315V0H69.387V-48.783L49.692-10.1h-10.2L19.8-48.783V0Zm113.07,1.212A27.346,27.346,0,0,1,106.5-2.02a23.392,23.392,0,0,1-9.191-9.09,26.889,26.889,0,0,1-3.333-13.534,28.586,28.586,0,0,1,3.283-13.837,23.832,23.832,0,0,1,9.09-9.444,26.7,26.7,0,0,1,13.686-3.383,25.8,25.8,0,0,1,13.029,3.232,23.211,23.211,0,0,1,8.838,8.838,24.824,24.824,0,0,1,3.182,12.473q0,1.111-.051,2.323t-.151,2.525H106.808a13.047,13.047,0,0,0,4.09,9.191,12.855,12.855,0,0,0,8.938,3.333,11.749,11.749,0,0,0,6.616-1.767,10.951,10.951,0,0,0,3.99-4.6h13.13a23.8,23.8,0,0,1-4.7,8.636,23.155,23.155,0,0,1-8.08,6.11A25.544,25.544,0,0,1,119.938,1.212Zm.1-42.016a13.767,13.767,0,0,0-8.383,2.676A12.4,12.4,0,0,0,107.01-30h24.947a10.9,10.9,0,0,0-3.636-7.878A12.094,12.094,0,0,0,120.039-40.8ZM178.871,1.212a23.516,23.516,0,0,1-12.625-3.434,24.6,24.6,0,0,1-8.787-9.393,27.927,27.927,0,0,1-3.232-13.534,27.636,27.636,0,0,1,3.232-13.484,24.318,24.318,0,0,1,8.787-9.292,23.783,23.783,0,0,1,12.625-3.383,21.867,21.867,0,0,1,9.9,2.121,17.841,17.841,0,0,1,6.868,5.959V-72.72h12.928V0H197.051l-1.414-7.171a23.009,23.009,0,0,1-6.414,5.858Q185.234,1.212,178.871,1.212ZM181.6-10.1a13.526,13.526,0,0,0,10.251-4.192,14.966,14.966,0,0,0,3.99-10.756A14.966,14.966,0,0,0,191.85-35.8,13.526,13.526,0,0,0,181.6-40a13.651,13.651,0,0,0-10.2,4.141,14.685,14.685,0,0,0-4.04,10.706,15.036,15.036,0,0,0,4.04,10.807A13.488,13.488,0,0,0,181.6-10.1Zm46.914-47.773a8.173,8.173,0,0,1-5.807-2.121,7.009,7.009,0,0,1-2.273-5.353,6.852,6.852,0,0,1,2.273-5.3,8.29,8.29,0,0,1,5.807-2.07,8.29,8.29,0,0,1,5.808,2.07,6.852,6.852,0,0,1,2.272,5.3,7.009,7.009,0,0,1-2.272,5.353A8.173,8.173,0,0,1,228.513-57.873ZM222.049,0V-50.1h12.928V0ZM272.9,1.212a26.889,26.889,0,0,1-13.534-3.333,24.262,24.262,0,0,1-9.241-9.292,27.128,27.128,0,0,1-3.383-13.635,27.128,27.128,0,0,1,3.383-13.635,24.262,24.262,0,0,1,9.241-9.292A26.889,26.889,0,0,1,272.9-51.308q9.595,0,16.16,5a22.351,22.351,0,0,1,8.383,13.786H283.81a9.966,9.966,0,0,0-3.99-5.706A11.991,11.991,0,0,0,272.8-40.3a11.921,11.921,0,0,0-9.09,4.04q-3.737,4.04-3.737,11.211t3.737,11.211A11.921,11.921,0,0,0,272.8-9.8a12.207,12.207,0,0,0,7.02-2.02,9.767,9.767,0,0,0,3.99-5.757h13.635a22.846,22.846,0,0,1-8.383,13.635Q282.5,1.212,272.9,1.212Zm42.874-59.085a8.173,8.173,0,0,1-5.807-2.121,7.009,7.009,0,0,1-2.272-5.353,6.852,6.852,0,0,1,2.272-5.3,8.29,8.29,0,0,1,5.807-2.07,8.29,8.29,0,0,1,5.807,2.07,6.852,6.852,0,0,1,2.273,5.3,7.009,7.009,0,0,1-2.273,5.353A8.173,8.173,0,0,1,315.777-57.873ZM309.313,0V-50.1h12.928V0Zm26.31,0V-50.1h11.413l1.01,8.484a17.614,17.614,0,0,1,6.716-7.07,19.8,19.8,0,0,1,10.353-2.626q9.292,0,14.443,5.858t5.151,17.17V0H371.781V-27.068q0-6.464-2.626-9.9T360.974-40.4a11.529,11.529,0,0,0-8.939,3.838q-3.484,3.838-3.484,10.706V0Zm85.6,1.212A27.346,27.346,0,0,1,407.788-2.02a23.392,23.392,0,0,1-9.191-9.09,26.889,26.889,0,0,1-3.333-13.534,28.586,28.586,0,0,1,3.283-13.837,23.832,23.832,0,0,1,9.09-9.444,26.7,26.7,0,0,1,13.685-3.383,25.8,25.8,0,0,1,13.029,3.232,23.211,23.211,0,0,1,8.837,8.838,24.824,24.824,0,0,1,3.181,12.473q0,1.111-.05,2.323t-.152,2.525H408.091a13.046,13.046,0,0,0,4.091,9.191,12.855,12.855,0,0,0,8.938,3.333,11.749,11.749,0,0,0,6.616-1.767,10.951,10.951,0,0,0,3.99-4.6h13.13a23.8,23.8,0,0,1-4.7,8.636,23.154,23.154,0,0,1-8.08,6.11A25.544,25.544,0,0,1,421.221,1.212Zm.1-42.016a13.767,13.767,0,0,0-8.383,2.676A12.4,12.4,0,0,0,408.293-30H433.24a10.9,10.9,0,0,0-3.636-7.878A12.094,12.094,0,0,0,421.322-40.8Z" transform="translate(83.132 132.949)" fill="url(#linear-gradient)"/>
  </g>
</svg>
