<svg xmlns="http://www.w3.org/2000/svg" xmlns:xlink="http://www.w3.org/1999/xlink" width="320.672" height="171.232" viewBox="0 0 320.672 171.232">
  <defs>
    <linearGradient id="linear-gradient" x1="0.047" y1="0.5" x2="1.059" y2="0.5" gradientUnits="objectBoundingBox">
      <stop offset="0" stop-color="#1d7c92"/>
      <stop offset="1" stop-color="#686868"/>
    </linearGradient>
  </defs>
  <path id="Mtxt2" d="M.48,16,4.608,4.8H6.032L10.144,16H8.72L7.7,13.12H2.928L1.888,16Zm2.848-3.968H7.3L5.312,6.5ZM11.736,16V8.064h1.216l.08,1.424a2.882,2.882,0,0,1,1.1-1.184,3.11,3.11,0,0,1,1.632-.432,3.006,3.006,0,0,1,2.248.856,3.628,3.628,0,0,1,.84,2.632V16H17.512V11.5q0-2.48-2.048-2.48a2.212,2.212,0,0,0-1.7.744,3.032,3.032,0,0,0-.68,2.12V16Zm11.8.192a3.6,3.6,0,0,1-1.648-.336,2.284,2.284,0,0,1-.976-.9,2.409,2.409,0,0,1-.32-1.216,2.155,2.155,0,0,1,.928-1.872,4.309,4.309,0,0,1,2.528-.656h2.144v-.1a2.118,2.118,0,0,0-.544-1.576,1.984,1.984,0,0,0-1.456-.536A2.321,2.321,0,0,0,22.84,9.4a1.717,1.717,0,0,0-.712,1.144H20.752a2.547,2.547,0,0,1,.584-1.456,3.264,3.264,0,0,1,1.256-.9,4.133,4.133,0,0,1,1.6-.312,3.288,3.288,0,0,1,2.5.888,3.293,3.293,0,0,1,.84,2.36V16h-1.2l-.08-1.424a3.148,3.148,0,0,1-.984,1.144A2.887,2.887,0,0,1,23.536,16.192Zm.208-1.136a2.189,2.189,0,0,0,1.32-.4,2.553,2.553,0,0,0,.84-1.04,3.239,3.239,0,0,0,.288-1.344v-.016H24.16a2.638,2.638,0,0,0-1.672.408A1.272,1.272,0,0,0,22,13.68a1.231,1.231,0,0,0,.456,1A1.972,1.972,0,0,0,23.744,15.056ZM32.472,16a2.568,2.568,0,0,1-1.712-.528,2.4,2.4,0,0,1-.624-1.9V9.2H28.76V8.064h1.376l.176-1.9H31.48v1.9h2.336V9.2H31.48v4.368a1.32,1.32,0,0,0,.3,1.016,1.657,1.657,0,0,0,1.072.264h.832V16Zm6.456.192a3.99,3.99,0,0,1-2.016-.512A3.7,3.7,0,0,1,35.5,14.232a4.459,4.459,0,0,1-.52-2.2,4.4,4.4,0,0,1,.528-2.2,3.737,3.737,0,0,1,1.432-1.448,4.034,4.034,0,0,1,2.024-.512,3.99,3.99,0,0,1,2.016.512,3.7,3.7,0,0,1,1.416,1.448,4.459,4.459,0,0,1,.52,2.2,4.4,4.4,0,0,1-.528,2.2,3.737,3.737,0,0,1-1.432,1.448A4.034,4.034,0,0,1,38.928,16.192Zm0-1.152a2.55,2.55,0,0,0,1.28-.336,2.506,2.506,0,0,0,.96-1.008,3.428,3.428,0,0,0,.368-1.664,3.491,3.491,0,0,0-.36-1.664,2.455,2.455,0,0,0-.952-1.008,2.52,2.52,0,0,0-1.264-.336,2.55,2.55,0,0,0-1.28.336,2.506,2.506,0,0,0-.96,1.008,3.428,3.428,0,0,0-.368,1.664A3.428,3.428,0,0,0,36.72,13.7a2.525,2.525,0,0,0,.952,1.008A2.477,2.477,0,0,0,38.928,15.04Zm5.864.96V8.064h1.216l.1,1.152a2.688,2.688,0,0,1,1.024-.992,2.938,2.938,0,0,1,1.44-.352,3.251,3.251,0,0,1,1.624.384A2.526,2.526,0,0,1,51.24,9.424a3.038,3.038,0,0,1,1.144-1.136,3.123,3.123,0,0,1,1.576-.416,3.054,3.054,0,0,1,2.272.856,3.606,3.606,0,0,1,.848,2.632V16H55.752V11.5a2.941,2.941,0,0,0-.5-1.856,1.712,1.712,0,0,0-1.424-.624,2,2,0,0,0-1.592.744,3.184,3.184,0,0,0-.632,2.12V16H50.264V11.5a2.941,2.941,0,0,0-.5-1.856,1.712,1.712,0,0,0-1.424-.624,1.985,1.985,0,0,0-1.576.744,3.184,3.184,0,0,0-.632,2.12V16Zm14.952,3.52,1.968-4.288h-.464L58.1,8.064h1.456l2.624,6.176L64.96,8.064h1.392l-5.2,11.456ZM72.848,6.3a.9.9,0,0,1-.928-.928.855.855,0,0,1,.264-.64.979.979,0,0,1,1.32,0,.842.842,0,0,1,.272.64.887.887,0,0,1-.272.664A.908.908,0,0,1,72.848,6.3ZM72.176,16V8.064H73.52V16Zm6.728.192a3.792,3.792,0,0,1-2.368-.72,2.807,2.807,0,0,1-1.1-1.952h1.376a1.9,1.9,0,0,0,.664,1.08,2.161,2.161,0,0,0,1.448.456,1.826,1.826,0,0,0,1.248-.36,1.115,1.115,0,0,0,.4-.856.95.95,0,0,0-.52-.96,6.921,6.921,0,0,0-1.464-.432,8.252,8.252,0,0,1-1.28-.368,2.908,2.908,0,0,1-1.072-.68,1.584,1.584,0,0,1-.432-1.16,2.141,2.141,0,0,1,.776-1.7,3.129,3.129,0,0,1,2.1-.664,3.263,3.263,0,0,1,2.072.632,2.522,2.522,0,0,1,.936,1.8H80.36a1.384,1.384,0,0,0-.52-.952,1.858,1.858,0,0,0-1.176-.344,1.78,1.78,0,0,0-1.112.3.964.964,0,0,0-.392.8.831.831,0,0,0,.5.752,5.411,5.411,0,0,0,1.368.464,11.916,11.916,0,0,1,1.4.392,2.646,2.646,0,0,1,1.088.688,1.87,1.87,0,0,1,.424,1.32,2.168,2.168,0,0,1-.808,1.768A3.348,3.348,0,0,1,78.9,16.192ZM91.256,16a2.568,2.568,0,0,1-1.712-.528,2.4,2.4,0,0,1-.624-1.9V9.2H87.544V8.064H88.92l.176-1.9h1.168v1.9H92.6V9.2H90.264v4.368a1.32,1.32,0,0,0,.3,1.016,1.657,1.657,0,0,0,1.072.264h.832V16Zm3.064,0V4.48h1.344V9.424A2.827,2.827,0,0,1,96.8,8.28a3.246,3.246,0,0,1,1.6-.408,2.939,2.939,0,0,1,2.208.856,3.65,3.65,0,0,1,.832,2.632V16h-1.328V11.5q0-2.48-2-2.48a2.3,2.3,0,0,0-1.744.744,2.966,2.966,0,0,0-.7,2.12V16Zm12.728.192a3.887,3.887,0,0,1-2.016-.52,3.692,3.692,0,0,1-1.384-1.448,4.526,4.526,0,0,1-.5-2.192,4.6,4.6,0,0,1,.5-2.184,3.606,3.606,0,0,1,1.384-1.456,3.993,3.993,0,0,1,2.056-.52,3.708,3.708,0,0,1,1.992.52A3.523,3.523,0,0,1,110.36,9.76a3.846,3.846,0,0,1,.448,1.824q0,.176-.008.352t-.008.4h-6.32a3.118,3.118,0,0,0,.424,1.512,2.5,2.5,0,0,0,2.152,1.208,2.4,2.4,0,0,0,1.392-.384,2.2,2.2,0,0,0,.816-1.04h1.328a3.485,3.485,0,0,1-3.536,2.56Zm0-7.184a2.684,2.684,0,0,0-1.7.584,2.353,2.353,0,0,0-.856,1.7h4.992a2.27,2.27,0,0,0-.736-1.68A2.469,2.469,0,0,0,107.048,9.008Zm12.832,7.184a3.792,3.792,0,0,1-2.368-.72,2.807,2.807,0,0,1-1.1-1.952h1.376a1.9,1.9,0,0,0,.664,1.08,2.161,2.161,0,0,0,1.448.456,1.826,1.826,0,0,0,1.248-.36,1.115,1.115,0,0,0,.4-.856.95.95,0,0,0-.52-.96,6.921,6.921,0,0,0-1.464-.432,8.252,8.252,0,0,1-1.28-.368,2.908,2.908,0,0,1-1.072-.68,1.584,1.584,0,0,1-.432-1.16,2.141,2.141,0,0,1,.776-1.7,3.129,3.129,0,0,1,2.1-.664,3.263,3.263,0,0,1,2.072.632,2.522,2.522,0,0,1,.936,1.8h-1.328a1.384,1.384,0,0,0-.52-.952,1.858,1.858,0,0,0-1.176-.344,1.78,1.78,0,0,0-1.112.3.964.964,0,0,0-.392.8.831.831,0,0,0,.5.752,5.411,5.411,0,0,0,1.368.464,11.916,11.916,0,0,1,1.4.392,2.646,2.646,0,0,1,1.088.688,1.87,1.87,0,0,1,.424,1.32,2.168,2.168,0,0,1-.808,1.768A3.348,3.348,0,0,1,119.88,16.192Zm8.616,0a4.017,4.017,0,0,1-2.04-.52,3.738,3.738,0,0,1-1.424-1.456,4.424,4.424,0,0,1-.52-2.184,4.424,4.424,0,0,1,.52-2.184,3.738,3.738,0,0,1,1.424-1.456,4.017,4.017,0,0,1,2.04-.52,3.811,3.811,0,0,1,2.376.736,3.207,3.207,0,0,1,1.224,1.968H130.72a1.764,1.764,0,0,0-.784-1.144,2.6,2.6,0,0,0-1.456-.408,2.486,2.486,0,0,0-2.224,1.344,3.428,3.428,0,0,0-.368,1.664,3.428,3.428,0,0,0,.368,1.664,2.564,2.564,0,0,0,.96,1.016,2.475,2.475,0,0,0,1.264.344,2.6,2.6,0,0,0,1.456-.408,1.771,1.771,0,0,0,.784-1.16H132.1a3.177,3.177,0,0,1-1.216,1.952A3.789,3.789,0,0,1,128.5,16.192Zm6.3-9.888a.9.9,0,0,1-.928-.928.855.855,0,0,1,.264-.64.979.979,0,0,1,1.32,0,.842.842,0,0,1,.272.64.887.887,0,0,1-.272.664A.908.908,0,0,1,134.792,6.3ZM134.12,16V8.064h1.344V16Zm7.256.192a3.887,3.887,0,0,1-2.016-.52,3.692,3.692,0,0,1-1.384-1.448,4.526,4.526,0,0,1-.5-2.192,4.6,4.6,0,0,1,.5-2.184,3.606,3.606,0,0,1,1.384-1.456,3.993,3.993,0,0,1,2.056-.52,3.708,3.708,0,0,1,1.992.52,3.523,3.523,0,0,1,1.288,1.368,3.846,3.846,0,0,1,.448,1.824q0,.176-.008.352t-.008.4H138.8a3.118,3.118,0,0,0,.424,1.512,2.5,2.5,0,0,0,2.152,1.208,2.4,2.4,0,0,0,1.392-.384,2.2,2.2,0,0,0,.816-1.04h1.328a3.485,3.485,0,0,1-3.536,2.56Zm0-7.184a2.684,2.684,0,0,0-1.7.584,2.353,2.353,0,0,0-.856,1.7h4.992a2.27,2.27,0,0,0-.736-1.68A2.469,2.469,0,0,0,141.376,9.008ZM146.92,16V8.064h1.216l.08,1.424a2.882,2.882,0,0,1,1.1-1.184,3.11,3.11,0,0,1,1.632-.432,3.006,3.006,0,0,1,2.248.856,3.628,3.628,0,0,1,.84,2.632V16H152.7V11.5q0-2.48-2.048-2.48a2.212,2.212,0,0,0-1.7.744,3.032,3.032,0,0,0-.68,2.12V16Zm12.3,0a2.568,2.568,0,0,1-1.712-.528,2.4,2.4,0,0,1-.624-1.9V9.2H155.5V8.064h1.376l.176-1.9h1.168v1.9h2.336V9.2h-2.336v4.368a1.32,1.32,0,0,0,.3,1.016,1.657,1.657,0,0,0,1.072.264h.832V16Zm3.88-9.7a.9.9,0,0,1-.928-.928.855.855,0,0,1,.264-.64.979.979,0,0,1,1.32,0,.842.842,0,0,1,.272.64.887.887,0,0,1-.272.664A.908.908,0,0,1,163.1,6.3Zm-.672,9.7V8.064h1.344V16Zm4.12,0V9.2h-1.2V8.064h1.2V6.688a2.179,2.179,0,0,1,.576-1.68,2.4,2.4,0,0,1,1.68-.528h.8V5.632h-.592a1.221,1.221,0,0,0-.864.248,1.139,1.139,0,0,0-.256.84V8.064h4.928V16h-1.344V9.2h-3.584V16Zm5.616-9.456a.908.908,0,0,1-.656-.264.887.887,0,0,1-.272-.664.842.842,0,0,1,.272-.64.979.979,0,0,1,1.32,0,.855.855,0,0,1,.264.64.9.9,0,0,1-.928.928Zm6.68,9.648a4.017,4.017,0,0,1-2.04-.52,3.738,3.738,0,0,1-1.424-1.456,4.424,4.424,0,0,1-.52-2.184,4.424,4.424,0,0,1,.52-2.184A3.738,3.738,0,0,1,176.8,8.392a4.017,4.017,0,0,1,2.04-.52,3.811,3.811,0,0,1,2.376.736,3.207,3.207,0,0,1,1.224,1.968h-1.376a1.764,1.764,0,0,0-.784-1.144,2.6,2.6,0,0,0-1.456-.408,2.486,2.486,0,0,0-2.224,1.344,3.428,3.428,0,0,0-.368,1.664A3.428,3.428,0,0,0,176.6,13.7a2.564,2.564,0,0,0,.96,1.016,2.475,2.475,0,0,0,1.264.344,2.6,2.6,0,0,0,1.456-.408,1.771,1.771,0,0,0,.784-1.16h1.376a3.177,3.177,0,0,1-1.216,1.952A3.789,3.789,0,0,1,178.84,16.192Zm13.328,0a3.887,3.887,0,0,1-2.072-.544,3.7,3.7,0,0,1-1.376-1.488,4.6,4.6,0,0,1-.488-2.144,4.492,4.492,0,0,1,.5-2.136A3.735,3.735,0,0,1,190.1,8.408a3.92,3.92,0,0,1,2.08-.536,3.624,3.624,0,0,1,1.728.4,2.883,2.883,0,0,1,1.168,1.12V4.48h1.344V16h-1.216l-.128-1.312a3.716,3.716,0,0,1-1.1,1.04A3.275,3.275,0,0,1,192.168,16.192Zm.144-1.168a2.663,2.663,0,0,0,1.416-.376,2.571,2.571,0,0,0,.96-1.048,3.4,3.4,0,0,0,.344-1.568,3.4,3.4,0,0,0-.344-1.568,2.571,2.571,0,0,0-.96-1.048,2.663,2.663,0,0,0-1.416-.376,2.633,2.633,0,0,0-1.4.376,2.571,2.571,0,0,0-.96,1.048,3.4,3.4,0,0,0-.344,1.568,3.4,3.4,0,0,0,.344,1.568,2.571,2.571,0,0,0,.96,1.048A2.633,2.633,0,0,0,192.312,15.024ZM199.44,6.3a.9.9,0,0,1-.928-.928.855.855,0,0,1,.264-.64.979.979,0,0,1,1.32,0,.842.842,0,0,1,.272.64.887.887,0,0,1-.272.664A.908.908,0,0,1,199.44,6.3Zm-.672,9.7V8.064h1.344V16Zm6.728.192a3.792,3.792,0,0,1-2.368-.72,2.807,2.807,0,0,1-1.1-1.952H203.4a1.9,1.9,0,0,0,.664,1.08,2.161,2.161,0,0,0,1.448.456,1.826,1.826,0,0,0,1.248-.36,1.115,1.115,0,0,0,.4-.856.95.95,0,0,0-.52-.96,6.921,6.921,0,0,0-1.464-.432,8.252,8.252,0,0,1-1.28-.368,2.908,2.908,0,0,1-1.072-.68,1.584,1.584,0,0,1-.432-1.16,2.141,2.141,0,0,1,.776-1.7,3.129,3.129,0,0,1,2.1-.664,3.263,3.263,0,0,1,2.072.632,2.522,2.522,0,0,1,.936,1.8h-1.328a1.384,1.384,0,0,0-.52-.952,1.858,1.858,0,0,0-1.176-.344,1.78,1.78,0,0,0-1.112.3.964.964,0,0,0-.392.8.831.831,0,0,0,.5.752,5.411,5.411,0,0,0,1.368.464,11.917,11.917,0,0,1,1.4.392,2.646,2.646,0,0,1,1.088.688,1.87,1.87,0,0,1,.424,1.32,2.168,2.168,0,0,1-.808,1.768A3.348,3.348,0,0,1,205.5,16.192Zm8.616,0a4.017,4.017,0,0,1-2.04-.52,3.738,3.738,0,0,1-1.424-1.456,4.424,4.424,0,0,1-.52-2.184,4.424,4.424,0,0,1,.52-2.184,3.738,3.738,0,0,1,1.424-1.456,4.017,4.017,0,0,1,2.04-.52,3.811,3.811,0,0,1,2.376.736,3.207,3.207,0,0,1,1.224,1.968h-1.376a1.764,1.764,0,0,0-.784-1.144,2.6,2.6,0,0,0-1.456-.408,2.486,2.486,0,0,0-2.224,1.344,3.428,3.428,0,0,0-.368,1.664,3.428,3.428,0,0,0,.368,1.664,2.564,2.564,0,0,0,.96,1.016,2.475,2.475,0,0,0,1.264.344,2.6,2.6,0,0,0,1.456-.408,1.771,1.771,0,0,0,.784-1.16h1.376A3.177,3.177,0,0,1,216.5,15.44,3.789,3.789,0,0,1,214.112,16.192Zm6.3-9.888a.9.9,0,0,1-.928-.928.855.855,0,0,1,.264-.64.979.979,0,0,1,1.32,0,.842.842,0,0,1,.272.64.887.887,0,0,1-.272.664A.908.908,0,0,1,220.408,6.3Zm-.672,9.7V8.064h1.344V16Zm3.688,3.52V8.064h1.216l.128,1.312a3.746,3.746,0,0,1,1.1-1.04,3.267,3.267,0,0,1,1.816-.464,3.845,3.845,0,0,1,2.064.544A3.722,3.722,0,0,1,231.112,9.9a4.6,4.6,0,0,1,.488,2.144,4.552,4.552,0,0,1-.488,2.136,3.661,3.661,0,0,1-1.376,1.472,3.931,3.931,0,0,1-2.072.536,3.671,3.671,0,0,1-1.736-.4,2.767,2.767,0,0,1-1.16-1.12V19.52Zm4.1-4.5a2.567,2.567,0,0,0,2.368-1.424,3.333,3.333,0,0,0,.352-1.568,3.333,3.333,0,0,0-.352-1.568,2.657,2.657,0,0,0-4.736,0,3.333,3.333,0,0,0-.352,1.568,3.333,3.333,0,0,0,.352,1.568,2.567,2.567,0,0,0,2.368,1.424Zm5.96.976V4.48h1.344V16Zm4.376-9.7a.9.9,0,0,1-.928-.928.855.855,0,0,1,.264-.64.979.979,0,0,1,1.32,0,.842.842,0,0,1,.272.64.887.887,0,0,1-.272.664A.908.908,0,0,1,237.856,6.3Zm-.672,9.7V8.064h1.344V16Zm3.688,0V8.064h1.216l.08,1.424a2.882,2.882,0,0,1,1.1-1.184,3.11,3.11,0,0,1,1.632-.432,3.006,3.006,0,0,1,2.248.856,3.628,3.628,0,0,1,.84,2.632V16h-1.344V11.5q0-2.48-2.048-2.48a2.212,2.212,0,0,0-1.7.744,3.032,3.032,0,0,0-.68,2.12V16Zm12.728.192a3.887,3.887,0,0,1-2.016-.52,3.692,3.692,0,0,1-1.384-1.448,4.526,4.526,0,0,1-.5-2.192,4.6,4.6,0,0,1,.5-2.184,3.606,3.606,0,0,1,1.384-1.456,3.993,3.993,0,0,1,2.056-.52,3.708,3.708,0,0,1,1.992.52,3.523,3.523,0,0,1,1.288,1.368,3.846,3.846,0,0,1,.448,1.824q0,.176-.008.352t-.008.4h-6.32a3.118,3.118,0,0,0,.424,1.512,2.5,2.5,0,0,0,2.152,1.208,2.4,2.4,0,0,0,1.392-.384,2.2,2.2,0,0,0,.816-1.04h1.328a3.485,3.485,0,0,1-3.536,2.56Zm0-7.184a2.684,2.684,0,0,0-1.7.584,2.353,2.353,0,0,0-.856,1.7h4.992a2.27,2.27,0,0,0-.736-1.68A2.469,2.469,0,0,0,253.6,9.008ZM263.824,16V9.2h-1.2V8.064h1.2V6.688a2.179,2.179,0,0,1,.576-1.68,2.4,2.4,0,0,1,1.68-.528h.8V5.632h-.592a1.221,1.221,0,0,0-.864.248,1.139,1.139,0,0,0-.256.84V8.064h1.952V9.2h-1.952V16Zm8.2.192a3.99,3.99,0,0,1-2.016-.512,3.7,3.7,0,0,1-1.416-1.448,4.459,4.459,0,0,1-.52-2.2,4.4,4.4,0,0,1,.528-2.2,3.738,3.738,0,0,1,1.432-1.448,4.034,4.034,0,0,1,2.024-.512,3.99,3.99,0,0,1,2.016.512,3.7,3.7,0,0,1,1.416,1.448,4.458,4.458,0,0,1,.52,2.2,4.4,4.4,0,0,1-.528,2.2,3.737,3.737,0,0,1-1.432,1.448A4.034,4.034,0,0,1,272.024,16.192Zm0-1.152a2.55,2.55,0,0,0,1.28-.336,2.506,2.506,0,0,0,.96-1.008,3.428,3.428,0,0,0,.368-1.664,3.491,3.491,0,0,0-.36-1.664,2.454,2.454,0,0,0-.952-1.008,2.52,2.52,0,0,0-1.264-.336,2.55,2.55,0,0,0-1.28.336,2.506,2.506,0,0,0-.96,1.008,3.428,3.428,0,0,0-.368,1.664,3.428,3.428,0,0,0,.368,1.664,2.525,2.525,0,0,0,.952,1.008A2.477,2.477,0,0,0,272.024,15.04Zm9.512,1.152a4.017,4.017,0,0,1-2.04-.52,3.739,3.739,0,0,1-1.424-1.456,4.425,4.425,0,0,1-.52-2.184,4.425,4.425,0,0,1,.52-2.184A3.739,3.739,0,0,1,279.5,8.392a4.017,4.017,0,0,1,2.04-.52,3.811,3.811,0,0,1,2.376.736,3.207,3.207,0,0,1,1.224,1.968H283.76a1.764,1.764,0,0,0-.784-1.144,2.6,2.6,0,0,0-1.456-.408,2.486,2.486,0,0,0-2.224,1.344,3.428,3.428,0,0,0-.368,1.664A3.428,3.428,0,0,0,279.3,13.7a2.564,2.564,0,0,0,.96,1.016,2.475,2.475,0,0,0,1.264.344,2.6,2.6,0,0,0,1.456-.408,1.77,1.77,0,0,0,.784-1.16h1.376a3.177,3.177,0,0,1-1.216,1.952A3.789,3.789,0,0,1,281.536,16.192Zm8.376,0a2.98,2.98,0,0,1-2.24-.856,3.65,3.65,0,0,1-.832-2.632V8.064h1.344v4.5q0,2.48,2.032,2.48a2.23,2.23,0,0,0,1.72-.744,3.032,3.032,0,0,0,.68-2.12V8.064h1.344V16h-1.216l-.1-1.424a2.763,2.763,0,0,1-1.1,1.184A3.152,3.152,0,0,1,289.912,16.192Zm9.3,0a3.792,3.792,0,0,1-2.368-.72,2.807,2.807,0,0,1-1.1-1.952h1.376a1.9,1.9,0,0,0,.664,1.08,2.161,2.161,0,0,0,1.448.456,1.826,1.826,0,0,0,1.248-.36,1.115,1.115,0,0,0,.4-.856.95.95,0,0,0-.52-.96,6.921,6.921,0,0,0-1.464-.432,8.252,8.252,0,0,1-1.28-.368,2.908,2.908,0,0,1-1.072-.68,1.584,1.584,0,0,1-.432-1.16,2.141,2.141,0,0,1,.776-1.7,3.129,3.129,0,0,1,2.1-.664,3.263,3.263,0,0,1,2.072.632A2.522,2.522,0,0,1,302,10.3h-1.328a1.384,1.384,0,0,0-.52-.952,1.858,1.858,0,0,0-1.176-.344,1.78,1.78,0,0,0-1.112.3.964.964,0,0,0-.392.8.831.831,0,0,0,.5.752,5.411,5.411,0,0,0,1.368.464,11.916,11.916,0,0,1,1.4.392,2.646,2.646,0,0,1,1.088.688,1.87,1.87,0,0,1,.424,1.32,2.168,2.168,0,0,1-.808,1.768A3.348,3.348,0,0,1,299.216,16.192Zm8.536,0a3.887,3.887,0,0,1-2.016-.52,3.692,3.692,0,0,1-1.384-1.448,4.526,4.526,0,0,1-.5-2.192,4.6,4.6,0,0,1,.5-2.184,3.606,3.606,0,0,1,1.384-1.456,3.993,3.993,0,0,1,2.056-.52,3.709,3.709,0,0,1,1.992.52,3.523,3.523,0,0,1,1.288,1.368,3.846,3.846,0,0,1,.448,1.824q0,.176-.008.352t-.008.4h-6.32a3.119,3.119,0,0,0,.424,1.512,2.5,2.5,0,0,0,2.152,1.208,2.4,2.4,0,0,0,1.392-.384,2.2,2.2,0,0,0,.816-1.04h1.328a3.485,3.485,0,0,1-3.536,2.56Zm0-7.184a2.684,2.684,0,0,0-1.7.584,2.353,2.353,0,0,0-.856,1.7h4.992a2.27,2.27,0,0,0-.736-1.68A2.469,2.469,0,0,0,307.752,9.008Zm9.144,7.184a3.887,3.887,0,0,1-2.072-.544,3.7,3.7,0,0,1-1.376-1.488,4.6,4.6,0,0,1-.488-2.144,4.492,4.492,0,0,1,.5-2.136,3.735,3.735,0,0,1,1.376-1.472,3.92,3.92,0,0,1,2.08-.536,3.624,3.624,0,0,1,1.728.4,2.882,2.882,0,0,1,1.168,1.12V4.48h1.344V16h-1.216l-.128-1.312a3.716,3.716,0,0,1-1.1,1.04A3.275,3.275,0,0,1,316.9,16.192Zm.144-1.168a2.663,2.663,0,0,0,1.416-.376,2.571,2.571,0,0,0,.96-1.048,3.4,3.4,0,0,0,.344-1.568,3.4,3.4,0,0,0-.344-1.568,2.571,2.571,0,0,0-.96-1.048,2.663,2.663,0,0,0-1.416-.376,2.633,2.633,0,0,0-1.4.376,2.571,2.571,0,0,0-.96,1.048,3.4,3.4,0,0,0-.344,1.568,3.4,3.4,0,0,0,.344,1.568,2.571,2.571,0,0,0,.96,1.048A2.633,2.633,0,0,0,317.04,15.024ZM4.72,42.192A3.99,3.99,0,0,1,2.7,41.68a3.7,3.7,0,0,1-1.416-1.448,4.459,4.459,0,0,1-.52-2.2,4.4,4.4,0,0,1,.528-2.2,3.737,3.737,0,0,1,1.432-1.448,4.034,4.034,0,0,1,2.024-.512,3.99,3.99,0,0,1,2.016.512,3.7,3.7,0,0,1,1.416,1.448,4.459,4.459,0,0,1,.52,2.2,4.4,4.4,0,0,1-.528,2.2A3.737,3.737,0,0,1,6.744,41.68,4.034,4.034,0,0,1,4.72,42.192Zm0-1.152A2.55,2.55,0,0,0,6,40.7,2.506,2.506,0,0,0,6.96,39.7a3.428,3.428,0,0,0,.368-1.664,3.491,3.491,0,0,0-.36-1.664,2.454,2.454,0,0,0-.952-1.008,2.52,2.52,0,0,0-1.264-.336,2.55,2.55,0,0,0-1.28.336,2.506,2.506,0,0,0-.96,1.008,3.946,3.946,0,0,0,0,3.328A2.525,2.525,0,0,0,3.464,40.7,2.477,2.477,0,0,0,4.72,41.04Zm5.864.96V34.064H11.8l.08,1.424a2.882,2.882,0,0,1,1.1-1.184,3.11,3.11,0,0,1,1.632-.432,3.006,3.006,0,0,1,2.248.856,3.628,3.628,0,0,1,.84,2.632V42H16.36V37.5q0-2.48-2.048-2.48a2.212,2.212,0,0,0-1.7.744,3.032,3.032,0,0,0-.68,2.12V42Zm16.544,0a2.568,2.568,0,0,1-1.712-.528,2.4,2.4,0,0,1-.624-1.9V35.2H23.416V34.064h1.376l.176-1.9h1.168v1.9h2.336V35.2H26.136v4.368a1.32,1.32,0,0,0,.3,1.016,1.657,1.657,0,0,0,1.072.264h.832V42Zm3.064,0V30.48h1.344v4.944a2.827,2.827,0,0,1,1.136-1.144,3.246,3.246,0,0,1,1.6-.408,2.939,2.939,0,0,1,2.208.856,3.65,3.65,0,0,1,.832,2.632V42H35.984V37.5q0-2.48-2-2.48a2.3,2.3,0,0,0-1.744.744,2.966,2.966,0,0,0-.7,2.12V42Zm12.728.192a3.887,3.887,0,0,1-2.016-.52,3.692,3.692,0,0,1-1.384-1.448,4.526,4.526,0,0,1-.5-2.192,4.6,4.6,0,0,1,.5-2.184A3.606,3.606,0,0,1,40.9,34.392a3.993,3.993,0,0,1,2.056-.52,3.708,3.708,0,0,1,1.992.52,3.523,3.523,0,0,1,1.288,1.368,3.846,3.846,0,0,1,.448,1.824q0,.176-.008.352t-.008.4h-6.32a3.118,3.118,0,0,0,.424,1.512,2.5,2.5,0,0,0,2.152,1.208,2.4,2.4,0,0,0,1.392-.384,2.2,2.2,0,0,0,.816-1.04h1.328a3.485,3.485,0,0,1-3.536,2.56Zm0-7.184a2.684,2.684,0,0,0-1.7.584,2.353,2.353,0,0,0-.856,1.7h4.992a2.27,2.27,0,0,0-.736-1.68A2.469,2.469,0,0,0,42.92,35.008Zm12.832,7.184a3.792,3.792,0,0,1-2.368-.72,2.807,2.807,0,0,1-1.1-1.952h1.376a1.9,1.9,0,0,0,.664,1.08,2.161,2.161,0,0,0,1.448.456,1.826,1.826,0,0,0,1.248-.36,1.115,1.115,0,0,0,.4-.856.95.95,0,0,0-.52-.96,6.922,6.922,0,0,0-1.464-.432,8.252,8.252,0,0,1-1.28-.368,2.908,2.908,0,0,1-1.072-.68,1.584,1.584,0,0,1-.432-1.16,2.141,2.141,0,0,1,.776-1.7,3.129,3.129,0,0,1,2.1-.664A3.263,3.263,0,0,1,57.6,34.5a2.522,2.522,0,0,1,.936,1.8H57.208a1.384,1.384,0,0,0-.52-.952,1.858,1.858,0,0,0-1.176-.344,1.78,1.78,0,0,0-1.112.3.964.964,0,0,0-.392.8.831.831,0,0,0,.5.752,5.411,5.411,0,0,0,1.368.464,11.916,11.916,0,0,1,1.4.392,2.646,2.646,0,0,1,1.088.688,1.87,1.87,0,0,1,.424,1.32,2.168,2.168,0,0,1-.808,1.768A3.348,3.348,0,0,1,55.752,42.192ZM63.5,42a2.568,2.568,0,0,1-1.712-.528,2.4,2.4,0,0,1-.624-1.9V35.2H59.792V34.064h1.376l.176-1.9h1.168v1.9h2.336V35.2H62.512v4.368a1.32,1.32,0,0,0,.3,1.016,1.657,1.657,0,0,0,1.072.264h.832V42Zm3.064,0V34.064h1.216l.112,1.52a2.877,2.877,0,0,1,1.12-1.248,3.472,3.472,0,0,1,1.856-.464V35.28H70.5a3.321,3.321,0,0,0-1.3.248,1.968,1.968,0,0,0-.944.84A3.2,3.2,0,0,0,67.912,38v4Zm8.712.192a2.98,2.98,0,0,1-2.24-.856,3.65,3.65,0,0,1-.832-2.632v-4.64h1.344v4.5q0,2.48,2.032,2.48A2.229,2.229,0,0,0,77.3,40.3a3.032,3.032,0,0,0,.68-2.12V34.064h1.344V42H78.112l-.1-1.424a2.763,2.763,0,0,1-1.1,1.184A3.152,3.152,0,0,1,75.28,42.192Zm9.912,0a4.017,4.017,0,0,1-2.04-.52,3.738,3.738,0,0,1-1.424-1.456,4.846,4.846,0,0,1,0-4.368,3.738,3.738,0,0,1,1.424-1.456,4.017,4.017,0,0,1,2.04-.52,3.811,3.811,0,0,1,2.376.736,3.207,3.207,0,0,1,1.224,1.968H87.416a1.764,1.764,0,0,0-.784-1.144,2.6,2.6,0,0,0-1.456-.408,2.486,2.486,0,0,0-2.224,1.344,3.946,3.946,0,0,0,0,3.328,2.564,2.564,0,0,0,.96,1.016,2.475,2.475,0,0,0,1.264.344,2.6,2.6,0,0,0,1.456-.408,1.77,1.77,0,0,0,.784-1.16h1.376a3.177,3.177,0,0,1-1.216,1.952A3.789,3.789,0,0,1,85.192,42.192ZM93.584,42a2.568,2.568,0,0,1-1.712-.528,2.4,2.4,0,0,1-.624-1.9V35.2H89.872V34.064h1.376l.176-1.9h1.168v1.9h2.336V35.2H92.592v4.368a1.32,1.32,0,0,0,.3,1.016,1.657,1.657,0,0,0,1.072.264H94.8V42Zm5.96.192a2.98,2.98,0,0,1-2.24-.856,3.65,3.65,0,0,1-.832-2.632v-4.64h1.344v4.5q0,2.48,2.032,2.48a2.229,2.229,0,0,0,1.72-.744,3.032,3.032,0,0,0,.68-2.12V34.064h1.344V42h-1.216l-.1-1.424a2.763,2.763,0,0,1-1.1,1.184A3.152,3.152,0,0,1,99.544,42.192ZM105.808,42V34.064h1.216l.112,1.52a2.877,2.877,0,0,1,1.12-1.248,3.472,3.472,0,0,1,1.856-.464V35.28h-.368a3.321,3.321,0,0,0-1.3.248,1.968,1.968,0,0,0-.944.84A3.2,3.2,0,0,0,107.152,38v4Zm9.08.192a3.887,3.887,0,0,1-2.016-.52,3.692,3.692,0,0,1-1.384-1.448,4.526,4.526,0,0,1-.5-2.192,4.6,4.6,0,0,1,.5-2.184,3.606,3.606,0,0,1,1.384-1.456,3.993,3.993,0,0,1,2.056-.52,3.708,3.708,0,0,1,1.992.52A3.523,3.523,0,0,1,118.2,35.76a3.846,3.846,0,0,1,.448,1.824q0,.176-.008.352t-.008.4h-6.32a3.118,3.118,0,0,0,.424,1.512,2.5,2.5,0,0,0,2.152,1.208,2.4,2.4,0,0,0,1.392-.384,2.2,2.2,0,0,0,.816-1.04h1.328a3.485,3.485,0,0,1-3.536,2.56Zm0-7.184a2.684,2.684,0,0,0-1.7.584,2.353,2.353,0,0,0-.856,1.7h4.992a2.27,2.27,0,0,0-.736-1.68A2.469,2.469,0,0,0,114.888,35.008Zm13.184,7.184a4.576,4.576,0,0,1-2.024-.424,3.362,3.362,0,0,1-1.184-5.008,4.391,4.391,0,0,1,1.928-1.4,4.334,4.334,0,0,1-.784-1.128,2.806,2.806,0,0,1-.24-1.16,2.292,2.292,0,0,1,.76-1.768,2.975,2.975,0,0,1,2.088-.7,3.257,3.257,0,0,1,1.5.328,2.434,2.434,0,0,1,.992.9,2.269,2.269,0,0,1,.32,1.312H130.1a1.276,1.276,0,0,0-.44-1.088,1.622,1.622,0,0,0-1.048-.368,1.551,1.551,0,0,0-1.12.384,1.3,1.3,0,0,0-.4.976,1.944,1.944,0,0,0,.28.992,6.092,6.092,0,0,0,.84,1.072l3.536,3.568q.464-.672,1.008-1.616l.5-.864h1.424l-.7,1.248a18.415,18.415,0,0,1-1.344,2.112L135.048,42h-1.7l-1.488-1.5a5.3,5.3,0,0,1-1.76,1.3A5.1,5.1,0,0,1,128.072,42.192Zm-2.528-3.456a2.158,2.158,0,0,0,.7,1.648,2.591,2.591,0,0,0,1.84.656,3.577,3.577,0,0,0,1.544-.328A4.391,4.391,0,0,0,131,39.632l-3.392-3.44a3.62,3.62,0,0,0-1.56,1.056A2.336,2.336,0,0,0,125.544,38.736Zm18.72,3.456a3.99,3.99,0,0,1-2.016-.512,3.7,3.7,0,0,1-1.416-1.448,4.459,4.459,0,0,1-.52-2.2,4.4,4.4,0,0,1,.528-2.2,3.737,3.737,0,0,1,1.432-1.448,4.034,4.034,0,0,1,2.024-.512,3.99,3.99,0,0,1,2.016.512,3.7,3.7,0,0,1,1.416,1.448,4.459,4.459,0,0,1,.52,2.2,4.4,4.4,0,0,1-.528,2.2,3.737,3.737,0,0,1-1.432,1.448A4.034,4.034,0,0,1,144.264,42.192Zm0-1.152a2.55,2.55,0,0,0,1.28-.336,2.506,2.506,0,0,0,.96-1.008,3.428,3.428,0,0,0,.368-1.664,3.491,3.491,0,0,0-.36-1.664,2.454,2.454,0,0,0-.952-1.008,2.52,2.52,0,0,0-1.264-.336,2.55,2.55,0,0,0-1.28.336,2.506,2.506,0,0,0-.96,1.008,3.946,3.946,0,0,0,0,3.328,2.525,2.525,0,0,0,.952,1.008A2.477,2.477,0,0,0,144.264,41.04Zm5.864.96V34.064h1.216l.112,1.52a2.877,2.877,0,0,1,1.12-1.248,3.472,3.472,0,0,1,1.856-.464V35.28h-.368a3.321,3.321,0,0,0-1.3.248,1.968,1.968,0,0,0-.944.84A3.2,3.2,0,0,0,151.472,38v4Zm8.76-2.5a4.093,4.093,0,0,1-1.232-.176l-.8.752a1.612,1.612,0,0,0,.44.216,4.663,4.663,0,0,0,.76.16q.5.072,1.392.152a3.785,3.785,0,0,1,2.288.736,2.1,2.1,0,0,1,.688,1.632,2.5,2.5,0,0,1-.376,1.312,2.79,2.79,0,0,1-1.152,1.024,4.339,4.339,0,0,1-1.992.4,5.96,5.96,0,0,1-1.9-.28,2.76,2.76,0,0,1-1.3-.848,2.189,2.189,0,0,1-.464-1.432,2.324,2.324,0,0,1,.24-.968,2.588,2.588,0,0,1,.9-.984,3.3,3.3,0,0,1-.6-.312,3.109,3.109,0,0,1-.456-.376v-.368l1.36-1.344a2.632,2.632,0,0,1-.944-2.112,2.805,2.805,0,0,1,.368-1.424,2.632,2.632,0,0,1,1.072-1.016,3.593,3.593,0,0,1,1.712-.376,3.831,3.831,0,0,1,1.248.192h2.928v1.008l-1.488.064a2.664,2.664,0,0,1,.464,1.552,2.759,2.759,0,0,1-.376,1.424,2.7,2.7,0,0,1-1.072,1.016A3.545,3.545,0,0,1,158.888,39.5Zm0-1.1a1.983,1.983,0,0,0,1.352-.44,1.6,1.6,0,0,0,.5-1.272,1.578,1.578,0,0,0-.5-1.256,1.983,1.983,0,0,0-1.352-.44,2.008,2.008,0,0,0-1.368.44,1.578,1.578,0,0,0-.5,1.256,1.6,1.6,0,0,0,.5,1.272A2.008,2.008,0,0,0,158.888,38.4Zm-2.336,4.624a1.29,1.29,0,0,0,.672,1.192,3.291,3.291,0,0,0,1.68.392,2.667,2.667,0,0,0,1.592-.432,1.351,1.351,0,0,0,.6-1.152,1.16,1.16,0,0,0-.416-.888,2.563,2.563,0,0,0-1.536-.44q-.88-.064-1.52-.16a1.97,1.97,0,0,0-.864.76A1.638,1.638,0,0,0,156.552,43.024Zm10.68-.832a3.6,3.6,0,0,1-1.648-.336,2.284,2.284,0,0,1-.976-.9,2.409,2.409,0,0,1-.32-1.216,2.155,2.155,0,0,1,.928-1.872,4.309,4.309,0,0,1,2.528-.656h2.144v-.1a2.118,2.118,0,0,0-.544-1.576,1.984,1.984,0,0,0-1.456-.536,2.321,2.321,0,0,0-1.352.392,1.717,1.717,0,0,0-.712,1.144h-1.376a2.547,2.547,0,0,1,.584-1.456,3.264,3.264,0,0,1,1.256-.9,4.133,4.133,0,0,1,1.6-.312,3,3,0,0,1,3.344,3.248V42h-1.2l-.08-1.424a3.147,3.147,0,0,1-.984,1.144A2.887,2.887,0,0,1,167.232,42.192Zm.208-1.136a2.189,2.189,0,0,0,1.32-.4,2.553,2.553,0,0,0,.84-1.04,3.239,3.239,0,0,0,.288-1.344v-.016h-2.032a2.638,2.638,0,0,0-1.672.408,1.272,1.272,0,0,0-.488,1.016,1.231,1.231,0,0,0,.456,1A1.972,1.972,0,0,0,167.44,41.056Zm5.816.944V34.064h1.216l.08,1.424a2.882,2.882,0,0,1,1.1-1.184,3.11,3.11,0,0,1,1.632-.432,3.006,3.006,0,0,1,2.248.856,3.628,3.628,0,0,1,.84,2.632V42h-1.344V37.5q0-2.48-2.048-2.48a2.212,2.212,0,0,0-1.7.744,3.032,3.032,0,0,0-.68,2.12V42Zm9.976-9.7a.9.9,0,0,1-.928-.928.855.855,0,0,1,.264-.64.979.979,0,0,1,1.32,0,.842.842,0,0,1,.272.64.887.887,0,0,1-.272.664A.908.908,0,0,1,183.232,32.3ZM182.56,42V34.064H183.9V42Zm3.144,0V40.9l4.416-5.712h-4.336v-1.12h5.84v1.1l-4.416,5.712h4.5V42Zm10.424.192a3.6,3.6,0,0,1-1.648-.336,2.284,2.284,0,0,1-.976-.9,2.409,2.409,0,0,1-.32-1.216,2.155,2.155,0,0,1,.928-1.872,4.309,4.309,0,0,1,2.528-.656h2.144v-.1a2.118,2.118,0,0,0-.544-1.576,1.984,1.984,0,0,0-1.456-.536,2.321,2.321,0,0,0-1.352.392,1.717,1.717,0,0,0-.712,1.144h-1.376a2.547,2.547,0,0,1,.584-1.456,3.264,3.264,0,0,1,1.256-.9,4.133,4.133,0,0,1,1.6-.312,3,3,0,0,1,3.344,3.248V42h-1.2l-.08-1.424a3.147,3.147,0,0,1-.984,1.144A2.887,2.887,0,0,1,196.128,42.192Zm.208-1.136a2.189,2.189,0,0,0,1.32-.4,2.553,2.553,0,0,0,.84-1.04,3.239,3.239,0,0,0,.288-1.344v-.016h-2.032a2.638,2.638,0,0,0-1.672.408,1.272,1.272,0,0,0-.488,1.016,1.231,1.231,0,0,0,.456,1A1.972,1.972,0,0,0,196.336,41.056Zm8.728.944a2.568,2.568,0,0,1-1.712-.528,2.4,2.4,0,0,1-.624-1.9V35.2h-1.376V34.064h1.376l.176-1.9h1.168v1.9h2.336V35.2h-2.336v4.368a1.32,1.32,0,0,0,.3,1.016,1.657,1.657,0,0,0,1.072.264h.832V42Zm3.88-9.7a.9.9,0,0,1-.928-.928.855.855,0,0,1,.264-.64.979.979,0,0,1,1.32,0,.842.842,0,0,1,.272.64.887.887,0,0,1-.272.664A.908.908,0,0,1,208.944,32.3Zm-.672,9.7V34.064h1.344V42Zm7.3.192a3.99,3.99,0,0,1-2.016-.512,3.7,3.7,0,0,1-1.416-1.448,4.459,4.459,0,0,1-.52-2.2,4.4,4.4,0,0,1,.528-2.2,3.737,3.737,0,0,1,1.432-1.448,4.034,4.034,0,0,1,2.024-.512,3.99,3.99,0,0,1,2.016.512,3.7,3.7,0,0,1,1.416,1.448,4.459,4.459,0,0,1,.52,2.2,4.4,4.4,0,0,1-.528,2.2A3.737,3.737,0,0,1,217.6,41.68,4.034,4.034,0,0,1,215.576,42.192Zm0-1.152a2.55,2.55,0,0,0,1.28-.336,2.506,2.506,0,0,0,.96-1.008,3.428,3.428,0,0,0,.368-1.664,3.491,3.491,0,0,0-.36-1.664,2.454,2.454,0,0,0-.952-1.008,2.52,2.52,0,0,0-1.264-.336,2.55,2.55,0,0,0-1.28.336,2.506,2.506,0,0,0-.96,1.008,3.946,3.946,0,0,0,0,3.328,2.525,2.525,0,0,0,.952,1.008A2.477,2.477,0,0,0,215.576,41.04Zm5.864.96V34.064h1.216l.08,1.424a2.882,2.882,0,0,1,1.1-1.184,3.11,3.11,0,0,1,1.632-.432,3.006,3.006,0,0,1,2.248.856,3.628,3.628,0,0,1,.84,2.632V42h-1.344V37.5q0-2.48-2.048-2.48a2.212,2.212,0,0,0-1.7.744,3.032,3.032,0,0,0-.68,2.12V42Zm17.024.192a3.99,3.99,0,0,1-2.016-.512,3.7,3.7,0,0,1-1.416-1.448,4.459,4.459,0,0,1-.52-2.2,4.4,4.4,0,0,1,.528-2.2,3.737,3.737,0,0,1,1.432-1.448,4.034,4.034,0,0,1,2.024-.512,3.99,3.99,0,0,1,2.016.512,3.7,3.7,0,0,1,1.416,1.448,4.459,4.459,0,0,1,.52,2.2,4.4,4.4,0,0,1-.528,2.2,3.737,3.737,0,0,1-1.432,1.448A4.034,4.034,0,0,1,238.464,42.192Zm0-1.152a2.55,2.55,0,0,0,1.28-.336,2.506,2.506,0,0,0,.96-1.008,3.428,3.428,0,0,0,.368-1.664,3.491,3.491,0,0,0-.36-1.664,2.454,2.454,0,0,0-.952-1.008,2.52,2.52,0,0,0-1.264-.336,2.55,2.55,0,0,0-1.28.336,2.506,2.506,0,0,0-.96,1.008,3.946,3.946,0,0,0,0,3.328,2.525,2.525,0,0,0,.952,1.008A2.477,2.477,0,0,0,238.464,41.04Zm6.3.96V35.2h-1.2V34.064h1.2V32.688a2.179,2.179,0,0,1,.576-1.68,2.4,2.4,0,0,1,1.68-.528h.8v1.152h-.592a1.221,1.221,0,0,0-.864.248,1.139,1.139,0,0,0-.256.84v1.344h1.952V35.2H246.1V42Zm9.152,0V30.48h1.344V42Zm4.376-9.7a.9.9,0,0,1-.928-.928.855.855,0,0,1,.264-.64.979.979,0,0,1,1.32,0,.842.842,0,0,1,.272.64.887.887,0,0,1-.272.664A.908.908,0,0,1,258.288,32.3Zm-.672,9.7V34.064h1.344V42Zm5.976,0-3.008-7.936h1.408l2.384,6.64,2.4-6.64h1.376L265.144,42Zm6.872-9.7a.9.9,0,0,1-.928-.928.855.855,0,0,1,.264-.64.979.979,0,0,1,1.32,0,.842.842,0,0,1,.272.64.887.887,0,0,1-.272.664A.908.908,0,0,1,270.464,32.3Zm-.672,9.7V34.064h1.344V42Zm3.688,0V34.064H274.7l.08,1.424a2.882,2.882,0,0,1,1.1-1.184,3.11,3.11,0,0,1,1.632-.432,3.006,3.006,0,0,1,2.248.856,3.628,3.628,0,0,1,.84,2.632V42h-1.344V37.5q0-2.48-2.048-2.48a2.212,2.212,0,0,0-1.7.744,3.032,3.032,0,0,0-.68,2.12V42Zm12.3-2.5a4.093,4.093,0,0,1-1.232-.176l-.8.752a1.612,1.612,0,0,0,.44.216,4.663,4.663,0,0,0,.76.16q.5.072,1.392.152a3.785,3.785,0,0,1,2.288.736,2.1,2.1,0,0,1,.688,1.632,2.5,2.5,0,0,1-.376,1.312,2.79,2.79,0,0,1-1.152,1.024,4.339,4.339,0,0,1-1.992.4,5.96,5.96,0,0,1-1.9-.28,2.76,2.76,0,0,1-1.3-.848,2.189,2.189,0,0,1-.464-1.432,2.324,2.324,0,0,1,.24-.968,2.588,2.588,0,0,1,.9-.984,3.3,3.3,0,0,1-.6-.312,3.11,3.11,0,0,1-.456-.376v-.368l1.36-1.344a2.632,2.632,0,0,1-.944-2.112,2.805,2.805,0,0,1,.368-1.424,2.632,2.632,0,0,1,1.072-1.016,3.593,3.593,0,0,1,1.712-.376,3.831,3.831,0,0,1,1.248.192h2.928v1.008l-1.488.064a2.664,2.664,0,0,1,.464,1.552,2.759,2.759,0,0,1-.376,1.424,2.7,2.7,0,0,1-1.072,1.016A3.545,3.545,0,0,1,285.776,39.5Zm0-1.1a1.983,1.983,0,0,0,1.352-.44,1.6,1.6,0,0,0,.5-1.272,1.578,1.578,0,0,0-.5-1.256,1.983,1.983,0,0,0-1.352-.44,2.008,2.008,0,0,0-1.368.44,1.578,1.578,0,0,0-.5,1.256,1.6,1.6,0,0,0,.5,1.272A2.008,2.008,0,0,0,285.776,38.4Zm-2.336,4.624a1.29,1.29,0,0,0,.672,1.192,3.291,3.291,0,0,0,1.68.392,2.667,2.667,0,0,0,1.592-.432,1.351,1.351,0,0,0,.6-1.152,1.16,1.16,0,0,0-.416-.888,2.563,2.563,0,0,0-1.536-.44q-.88-.064-1.52-.16a1.97,1.97,0,0,0-.864.76A1.638,1.638,0,0,0,283.44,43.024ZM4.72,68.192A3.99,3.99,0,0,1,2.7,67.68a3.7,3.7,0,0,1-1.416-1.448,4.459,4.459,0,0,1-.52-2.2,4.4,4.4,0,0,1,.528-2.2,3.737,3.737,0,0,1,1.432-1.448,4.034,4.034,0,0,1,2.024-.512,3.99,3.99,0,0,1,2.016.512,3.7,3.7,0,0,1,1.416,1.448,4.459,4.459,0,0,1,.52,2.2,4.4,4.4,0,0,1-.528,2.2A3.737,3.737,0,0,1,6.744,67.68,4.034,4.034,0,0,1,4.72,68.192Zm0-1.152A2.55,2.55,0,0,0,6,66.7,2.506,2.506,0,0,0,6.96,65.7a3.428,3.428,0,0,0,.368-1.664,3.491,3.491,0,0,0-.36-1.664,2.454,2.454,0,0,0-.952-1.008,2.52,2.52,0,0,0-1.264-.336,2.55,2.55,0,0,0-1.28.336,2.506,2.506,0,0,0-.96,1.008,3.946,3.946,0,0,0,0,3.328A2.525,2.525,0,0,0,3.464,66.7,2.477,2.477,0,0,0,4.72,67.04Zm5.864.96V60.064H11.8l.112,1.52a2.877,2.877,0,0,1,1.12-1.248,3.472,3.472,0,0,1,1.856-.464V61.28H14.52a3.321,3.321,0,0,0-1.3.248,1.968,1.968,0,0,0-.944.84A3.2,3.2,0,0,0,11.928,64v4Zm8.76-2.5a4.093,4.093,0,0,1-1.232-.176l-.8.752a1.611,1.611,0,0,0,.44.216,4.662,4.662,0,0,0,.76.16q.5.072,1.392.152a3.785,3.785,0,0,1,2.288.736,2.1,2.1,0,0,1,.688,1.632,2.5,2.5,0,0,1-.376,1.312,2.79,2.79,0,0,1-1.152,1.024,4.339,4.339,0,0,1-1.992.4,5.96,5.96,0,0,1-1.9-.28,2.76,2.76,0,0,1-1.3-.848,2.189,2.189,0,0,1-.464-1.432,2.324,2.324,0,0,1,.24-.968,2.588,2.588,0,0,1,.9-.984,3.3,3.3,0,0,1-.6-.312,3.109,3.109,0,0,1-.456-.376v-.368l1.36-1.344a2.632,2.632,0,0,1-.944-2.112,2.805,2.805,0,0,1,.368-1.424,2.632,2.632,0,0,1,1.072-1.016,3.593,3.593,0,0,1,1.712-.376,3.831,3.831,0,0,1,1.248.192H23.52v1.008l-1.488.064a2.664,2.664,0,0,1,.464,1.552,2.759,2.759,0,0,1-.376,1.424,2.7,2.7,0,0,1-1.072,1.016A3.545,3.545,0,0,1,19.344,65.5Zm0-1.1a1.983,1.983,0,0,0,1.352-.44,1.6,1.6,0,0,0,.5-1.272,1.578,1.578,0,0,0-.5-1.256,1.983,1.983,0,0,0-1.352-.44,2.008,2.008,0,0,0-1.368.44,1.578,1.578,0,0,0-.5,1.256,1.6,1.6,0,0,0,.5,1.272A2.008,2.008,0,0,0,19.344,64.4Zm-2.336,4.624a1.29,1.29,0,0,0,.672,1.192,3.291,3.291,0,0,0,1.68.392,2.667,2.667,0,0,0,1.592-.432,1.351,1.351,0,0,0,.6-1.152,1.16,1.16,0,0,0-.416-.888A2.563,2.563,0,0,0,19.6,67.7q-.88-.064-1.52-.16a1.97,1.97,0,0,0-.864.76A1.638,1.638,0,0,0,17.008,69.024Zm10.68-.832a3.6,3.6,0,0,1-1.648-.336,2.284,2.284,0,0,1-.976-.9,2.409,2.409,0,0,1-.32-1.216,2.155,2.155,0,0,1,.928-1.872,4.309,4.309,0,0,1,2.528-.656h2.144v-.1a2.118,2.118,0,0,0-.544-1.576,1.984,1.984,0,0,0-1.456-.536,2.321,2.321,0,0,0-1.352.392,1.717,1.717,0,0,0-.712,1.144H24.9a2.547,2.547,0,0,1,.584-1.456,3.264,3.264,0,0,1,1.256-.9,4.133,4.133,0,0,1,1.6-.312,3,3,0,0,1,3.344,3.248V68h-1.2l-.08-1.424a3.147,3.147,0,0,1-.984,1.144A2.887,2.887,0,0,1,27.688,68.192Zm.208-1.136a2.189,2.189,0,0,0,1.32-.4,2.553,2.553,0,0,0,.84-1.04,3.239,3.239,0,0,0,.288-1.344v-.016H28.312a2.638,2.638,0,0,0-1.672.408,1.272,1.272,0,0,0-.488,1.016,1.231,1.231,0,0,0,.456,1A1.972,1.972,0,0,0,27.9,67.056ZM33.712,68V60.064h1.216l.08,1.424a2.882,2.882,0,0,1,1.1-1.184,3.11,3.11,0,0,1,1.632-.432,3.006,3.006,0,0,1,2.248.856,3.628,3.628,0,0,1,.84,2.632V68H39.488V63.5q0-2.48-2.048-2.48a2.212,2.212,0,0,0-1.7.744,3.032,3.032,0,0,0-.68,2.12V68Zm9.976-9.7a.9.9,0,0,1-.928-.928.855.855,0,0,1,.264-.64.979.979,0,0,1,1.32,0,.842.842,0,0,1,.272.64.887.887,0,0,1-.272.664A.908.908,0,0,1,43.688,58.3ZM43.016,68V60.064H44.36V68Zm6.728.192a3.792,3.792,0,0,1-2.368-.72,2.807,2.807,0,0,1-1.1-1.952h1.376a1.9,1.9,0,0,0,.664,1.08,2.161,2.161,0,0,0,1.448.456,1.826,1.826,0,0,0,1.248-.36,1.115,1.115,0,0,0,.4-.856.95.95,0,0,0-.52-.96,6.921,6.921,0,0,0-1.464-.432,8.253,8.253,0,0,1-1.28-.368,2.908,2.908,0,0,1-1.072-.68,1.584,1.584,0,0,1-.432-1.16,2.141,2.141,0,0,1,.776-1.7,3.129,3.129,0,0,1,2.1-.664,3.263,3.263,0,0,1,2.072.632,2.522,2.522,0,0,1,.936,1.8H51.2a1.384,1.384,0,0,0-.52-.952,1.858,1.858,0,0,0-1.176-.344,1.78,1.78,0,0,0-1.112.3.964.964,0,0,0-.392.8.831.831,0,0,0,.5.752,5.411,5.411,0,0,0,1.368.464,11.916,11.916,0,0,1,1.4.392,2.646,2.646,0,0,1,1.088.688,1.87,1.87,0,0,1,.424,1.32,2.168,2.168,0,0,1-.808,1.768A3.348,3.348,0,0,1,49.744,68.192ZM54.712,68V60.064h1.216l.1,1.152a2.688,2.688,0,0,1,1.024-.992,2.938,2.938,0,0,1,1.44-.352,3.251,3.251,0,0,1,1.624.384,2.526,2.526,0,0,1,1.048,1.168A3.038,3.038,0,0,1,62.3,60.288a3.123,3.123,0,0,1,1.576-.416,3.054,3.054,0,0,1,2.272.856A3.606,3.606,0,0,1,67,63.36V68H65.672V63.5a2.941,2.941,0,0,0-.5-1.856,1.712,1.712,0,0,0-1.424-.624,2,2,0,0,0-1.592.744,3.184,3.184,0,0,0-.632,2.12V68H60.184V63.5a2.941,2.941,0,0,0-.5-1.856,1.712,1.712,0,0,0-1.424-.624,1.985,1.985,0,0,0-1.576.744,3.184,3.184,0,0,0-.632,2.12V68Zm17.368.192a3.792,3.792,0,0,1-2.368-.72,2.807,2.807,0,0,1-1.1-1.952h1.376a1.9,1.9,0,0,0,.664,1.08,2.161,2.161,0,0,0,1.448.456,1.826,1.826,0,0,0,1.248-.36,1.115,1.115,0,0,0,.4-.856.95.95,0,0,0-.52-.96,6.922,6.922,0,0,0-1.464-.432,8.253,8.253,0,0,1-1.28-.368,2.908,2.908,0,0,1-1.072-.68,1.584,1.584,0,0,1-.432-1.16,2.141,2.141,0,0,1,.776-1.7,3.129,3.129,0,0,1,2.1-.664,3.263,3.263,0,0,1,2.072.632,2.522,2.522,0,0,1,.936,1.8H73.536a1.384,1.384,0,0,0-.52-.952,1.858,1.858,0,0,0-1.176-.344,1.78,1.78,0,0,0-1.112.3.964.964,0,0,0-.392.8.831.831,0,0,0,.5.752,5.411,5.411,0,0,0,1.368.464,11.916,11.916,0,0,1,1.4.392,2.646,2.646,0,0,1,1.088.688,1.87,1.87,0,0,1,.424,1.32,2.168,2.168,0,0,1-.808,1.768A3.348,3.348,0,0,1,72.08,68.192Zm5.432-.112a.9.9,0,0,1-.664-.264.927.927,0,0,1,0-1.3.9.9,0,0,1,.664-.264.912.912,0,1,1,0,1.824ZM84.5,68V56.8h1.344V68Zm6.776,0a2.568,2.568,0,0,1-1.712-.528,2.4,2.4,0,0,1-.624-1.9V61.2H87.568V60.064h1.376l.176-1.9h1.168v1.9h2.336V61.2H90.288v4.368a1.32,1.32,0,0,0,.3,1.016,1.657,1.657,0,0,0,1.072.264H92.5V68Zm10.88.192a3.887,3.887,0,0,1-2.016-.52,3.692,3.692,0,0,1-1.384-1.448,4.526,4.526,0,0,1-.5-2.192,4.6,4.6,0,0,1,.5-2.184,3.606,3.606,0,0,1,1.384-1.456,3.993,3.993,0,0,1,2.056-.52,3.708,3.708,0,0,1,1.992.52,3.523,3.523,0,0,1,1.288,1.368,3.846,3.846,0,0,1,.448,1.824q0,.176-.008.352t-.008.4h-6.32a3.118,3.118,0,0,0,.424,1.512,2.5,2.5,0,0,0,2.152,1.208,2.4,2.4,0,0,0,1.392-.384,2.2,2.2,0,0,0,.816-1.04H105.7a3.485,3.485,0,0,1-3.536,2.56Zm0-7.184a2.684,2.684,0,0,0-1.7.584,2.353,2.353,0,0,0-.856,1.7h4.992a2.27,2.27,0,0,0-.736-1.68A2.469,2.469,0,0,0,102.16,61.008ZM106.536,68l2.752-3.968-2.752-3.968h1.456l2.224,3.28,2.24-3.28h1.44l-2.752,3.968L113.9,68h-1.44l-2.24-3.28L107.992,68Zm11.368.192a3.6,3.6,0,0,1-1.648-.336,2.284,2.284,0,0,1-.976-.9,2.409,2.409,0,0,1-.32-1.216,2.155,2.155,0,0,1,.928-1.872,4.309,4.309,0,0,1,2.528-.656h2.144v-.1a2.118,2.118,0,0,0-.544-1.576,1.984,1.984,0,0,0-1.456-.536,2.321,2.321,0,0,0-1.352.392,1.717,1.717,0,0,0-.712,1.144H115.12a2.547,2.547,0,0,1,.584-1.456,3.264,3.264,0,0,1,1.256-.9,4.133,4.133,0,0,1,1.6-.312A3,3,0,0,1,121.9,63.12V68h-1.2l-.08-1.424a3.147,3.147,0,0,1-.984,1.144A2.887,2.887,0,0,1,117.9,68.192Zm.208-1.136a2.189,2.189,0,0,0,1.32-.4,2.553,2.553,0,0,0,.84-1.04,3.239,3.239,0,0,0,.288-1.344v-.016h-2.032a2.638,2.638,0,0,0-1.672.408,1.272,1.272,0,0,0-.488,1.016,1.231,1.231,0,0,0,.456,1A1.972,1.972,0,0,0,118.112,67.056Zm5.816.944V60.064h1.216l.1,1.152a2.688,2.688,0,0,1,1.024-.992,2.938,2.938,0,0,1,1.44-.352,3.251,3.251,0,0,1,1.624.384,2.526,2.526,0,0,1,1.048,1.168,3.038,3.038,0,0,1,1.144-1.136,3.123,3.123,0,0,1,1.576-.416,3.054,3.054,0,0,1,2.272.856,3.606,3.606,0,0,1,.848,2.632V68h-1.328V63.5a2.941,2.941,0,0,0-.5-1.856,1.712,1.712,0,0,0-1.424-.624,2,2,0,0,0-1.592.744,3.184,3.184,0,0,0-.632,2.12V68H129.4V63.5a2.941,2.941,0,0,0-.5-1.856,1.712,1.712,0,0,0-1.424-.624,1.985,1.985,0,0,0-1.576.744,3.184,3.184,0,0,0-.632,2.12V68Zm15.144-9.7a.9.9,0,0,1-.928-.928.855.855,0,0,1,.264-.64.979.979,0,0,1,1.32,0,.842.842,0,0,1,.272.64.887.887,0,0,1-.272.664A.908.908,0,0,1,139.072,58.3ZM138.4,68V60.064h1.344V68Zm3.688,0V60.064H143.3l.08,1.424a2.882,2.882,0,0,1,1.1-1.184,3.11,3.11,0,0,1,1.632-.432,3.006,3.006,0,0,1,2.248.856,3.628,3.628,0,0,1,.84,2.632V68h-1.344V63.5q0-2.48-2.048-2.48a2.212,2.212,0,0,0-1.7.744,3.032,3.032,0,0,0-.68,2.12V68Zm12.728.192a3.887,3.887,0,0,1-2.016-.52,3.692,3.692,0,0,1-1.384-1.448,4.526,4.526,0,0,1-.5-2.192,4.6,4.6,0,0,1,.5-2.184,3.606,3.606,0,0,1,1.384-1.456,3.993,3.993,0,0,1,2.056-.52,3.708,3.708,0,0,1,1.992.52,3.523,3.523,0,0,1,1.288,1.368,3.846,3.846,0,0,1,.448,1.824q0,.176-.008.352t-.008.4h-6.32a3.118,3.118,0,0,0,.424,1.512,2.5,2.5,0,0,0,2.152,1.208,2.4,2.4,0,0,0,1.392-.384,2.2,2.2,0,0,0,.816-1.04h1.328a3.485,3.485,0,0,1-3.536,2.56Zm0-7.184a2.684,2.684,0,0,0-1.7.584,2.353,2.353,0,0,0-.856,1.7h4.992a2.27,2.27,0,0,0-.736-1.68A2.469,2.469,0,0,0,154.816,61.008Zm8.584,7.184a3.792,3.792,0,0,1-2.368-.72,2.807,2.807,0,0,1-1.1-1.952H161.3a1.9,1.9,0,0,0,.664,1.08,2.161,2.161,0,0,0,1.448.456,1.826,1.826,0,0,0,1.248-.36,1.115,1.115,0,0,0,.4-.856.95.95,0,0,0-.52-.96,6.921,6.921,0,0,0-1.464-.432,8.253,8.253,0,0,1-1.28-.368,2.908,2.908,0,0,1-1.072-.68,1.584,1.584,0,0,1-.432-1.16,2.141,2.141,0,0,1,.776-1.7,3.129,3.129,0,0,1,2.1-.664,3.263,3.263,0,0,1,2.072.632,2.522,2.522,0,0,1,.936,1.8h-1.328a1.384,1.384,0,0,0-.52-.952,1.858,1.858,0,0,0-1.176-.344,1.78,1.78,0,0,0-1.112.3.964.964,0,0,0-.392.8.831.831,0,0,0,.5.752,5.411,5.411,0,0,0,1.368.464,11.916,11.916,0,0,1,1.4.392,2.646,2.646,0,0,1,1.088.688,1.87,1.87,0,0,1,.424,1.32,2.168,2.168,0,0,1-.808,1.768A3.348,3.348,0,0,1,163.4,68.192ZM175.752,68a2.568,2.568,0,0,1-1.712-.528,2.4,2.4,0,0,1-.624-1.9V61.2H172.04V60.064h1.376l.176-1.9h1.168v1.9H177.1V61.2H174.76v4.368a1.32,1.32,0,0,0,.3,1.016,1.657,1.657,0,0,0,1.072.264h.832V68Zm3.064,0V56.48h1.344v4.944A2.827,2.827,0,0,1,181.3,60.28a3.246,3.246,0,0,1,1.6-.408,2.939,2.939,0,0,1,2.208.856,3.65,3.65,0,0,1,.832,2.632V68h-1.328V63.5q0-2.48-2-2.48a2.3,2.3,0,0,0-1.744.744,2.966,2.966,0,0,0-.7,2.12V68Zm12.728.192a3.887,3.887,0,0,1-2.016-.52,3.692,3.692,0,0,1-1.384-1.448,4.526,4.526,0,0,1-.5-2.192,4.6,4.6,0,0,1,.5-2.184,3.606,3.606,0,0,1,1.384-1.456,3.993,3.993,0,0,1,2.056-.52,3.708,3.708,0,0,1,1.992.52,3.523,3.523,0,0,1,1.288,1.368,3.846,3.846,0,0,1,.448,1.824q0,.176-.008.352t-.008.4h-6.32a3.118,3.118,0,0,0,.424,1.512,2.5,2.5,0,0,0,2.152,1.208,2.4,2.4,0,0,0,1.392-.384,2.2,2.2,0,0,0,.816-1.04h1.328a3.485,3.485,0,0,1-3.536,2.56Zm0-7.184a2.684,2.684,0,0,0-1.7.584,2.353,2.353,0,0,0-.856,1.7h4.992a2.27,2.27,0,0,0-.736-1.68A2.469,2.469,0,0,0,191.544,61.008Zm13.408,7.184a3.99,3.99,0,0,1-2.016-.512,3.7,3.7,0,0,1-1.416-1.448,4.459,4.459,0,0,1-.52-2.2,4.4,4.4,0,0,1,.528-2.2,3.737,3.737,0,0,1,1.432-1.448,4.034,4.034,0,0,1,2.024-.512,3.99,3.99,0,0,1,2.016.512,3.7,3.7,0,0,1,1.416,1.448,4.459,4.459,0,0,1,.52,2.2,4.4,4.4,0,0,1-.528,2.2,3.737,3.737,0,0,1-1.432,1.448A4.034,4.034,0,0,1,204.952,68.192Zm0-1.152a2.55,2.55,0,0,0,1.28-.336,2.506,2.506,0,0,0,.96-1.008,3.428,3.428,0,0,0,.368-1.664,3.491,3.491,0,0,0-.36-1.664,2.454,2.454,0,0,0-.952-1.008,2.52,2.52,0,0,0-1.264-.336,2.55,2.55,0,0,0-1.28.336,2.506,2.506,0,0,0-.96,1.008,3.946,3.946,0,0,0,0,3.328A2.525,2.525,0,0,0,203.7,66.7,2.477,2.477,0,0,0,204.952,67.04Zm5.864.96V60.064h1.216l.112,1.52a2.877,2.877,0,0,1,1.12-1.248,3.472,3.472,0,0,1,1.856-.464V61.28h-.368a3.321,3.321,0,0,0-1.3.248,1.968,1.968,0,0,0-.944.84A3.2,3.2,0,0,0,212.16,64v4Zm8.76-2.5a4.093,4.093,0,0,1-1.232-.176l-.8.752a1.611,1.611,0,0,0,.44.216,4.662,4.662,0,0,0,.76.16q.5.072,1.392.152a3.785,3.785,0,0,1,2.288.736,2.1,2.1,0,0,1,.688,1.632,2.5,2.5,0,0,1-.376,1.312,2.79,2.79,0,0,1-1.152,1.024,4.339,4.339,0,0,1-1.992.4,5.96,5.96,0,0,1-1.9-.28,2.76,2.76,0,0,1-1.3-.848,2.189,2.189,0,0,1-.464-1.432,2.324,2.324,0,0,1,.24-.968,2.588,2.588,0,0,1,.9-.984,3.3,3.3,0,0,1-.6-.312,3.109,3.109,0,0,1-.456-.376v-.368l1.36-1.344a2.632,2.632,0,0,1-.944-2.112,2.805,2.805,0,0,1,.368-1.424,2.632,2.632,0,0,1,1.072-1.016,3.593,3.593,0,0,1,1.712-.376,3.831,3.831,0,0,1,1.248.192h2.928v1.008l-1.488.064a2.664,2.664,0,0,1,.464,1.552,2.759,2.759,0,0,1-.376,1.424,2.7,2.7,0,0,1-1.072,1.016A3.545,3.545,0,0,1,219.576,65.5Zm0-1.1a1.983,1.983,0,0,0,1.352-.44,1.6,1.6,0,0,0,.5-1.272,1.578,1.578,0,0,0-.5-1.256,1.983,1.983,0,0,0-1.352-.44,2.008,2.008,0,0,0-1.368.44,1.578,1.578,0,0,0-.5,1.256,1.6,1.6,0,0,0,.5,1.272A2.008,2.008,0,0,0,219.576,64.4Zm-2.336,4.624a1.29,1.29,0,0,0,.672,1.192,3.291,3.291,0,0,0,1.68.392,2.667,2.667,0,0,0,1.592-.432,1.351,1.351,0,0,0,.6-1.152,1.16,1.16,0,0,0-.416-.888,2.563,2.563,0,0,0-1.536-.44q-.88-.064-1.52-.16a1.97,1.97,0,0,0-.864.76A1.638,1.638,0,0,0,217.24,69.024Zm10.68-.832a3.6,3.6,0,0,1-1.648-.336,2.284,2.284,0,0,1-.976-.9,2.409,2.409,0,0,1-.32-1.216,2.155,2.155,0,0,1,.928-1.872,4.309,4.309,0,0,1,2.528-.656h2.144v-.1a2.118,2.118,0,0,0-.544-1.576,1.984,1.984,0,0,0-1.456-.536,2.321,2.321,0,0,0-1.352.392,1.717,1.717,0,0,0-.712,1.144h-1.376a2.547,2.547,0,0,1,.584-1.456,3.264,3.264,0,0,1,1.256-.9,4.133,4.133,0,0,1,1.6-.312,3,3,0,0,1,3.344,3.248V68h-1.2l-.08-1.424a3.147,3.147,0,0,1-.984,1.144A2.887,2.887,0,0,1,227.92,68.192Zm.208-1.136a2.189,2.189,0,0,0,1.32-.4,2.553,2.553,0,0,0,.84-1.04,3.239,3.239,0,0,0,.288-1.344v-.016h-2.032a2.638,2.638,0,0,0-1.672.408,1.272,1.272,0,0,0-.488,1.016,1.231,1.231,0,0,0,.456,1A1.972,1.972,0,0,0,228.128,67.056Zm5.816.944V60.064h1.216l.08,1.424a2.882,2.882,0,0,1,1.1-1.184,3.11,3.11,0,0,1,1.632-.432,3.006,3.006,0,0,1,2.248.856,3.628,3.628,0,0,1,.84,2.632V68H239.72V63.5q0-2.48-2.048-2.48a2.212,2.212,0,0,0-1.7.744,3.032,3.032,0,0,0-.68,2.12V68Zm12.2.192a3.792,3.792,0,0,1-2.368-.72,2.807,2.807,0,0,1-1.1-1.952h1.376a1.9,1.9,0,0,0,.664,1.08,2.161,2.161,0,0,0,1.448.456,1.826,1.826,0,0,0,1.248-.36,1.115,1.115,0,0,0,.4-.856.95.95,0,0,0-.52-.96,6.921,6.921,0,0,0-1.464-.432,8.253,8.253,0,0,1-1.28-.368,2.908,2.908,0,0,1-1.072-.68,1.584,1.584,0,0,1-.432-1.16,2.141,2.141,0,0,1,.776-1.7,3.129,3.129,0,0,1,2.1-.664,3.263,3.263,0,0,1,2.072.632,2.522,2.522,0,0,1,.936,1.8H247.6a1.384,1.384,0,0,0-.52-.952,1.858,1.858,0,0,0-1.176-.344,1.78,1.78,0,0,0-1.112.3.964.964,0,0,0-.392.8.831.831,0,0,0,.5.752,5.411,5.411,0,0,0,1.368.464,11.916,11.916,0,0,1,1.4.392,2.646,2.646,0,0,1,1.088.688,1.87,1.87,0,0,1,.424,1.32,2.168,2.168,0,0,1-.808,1.768A3.348,3.348,0,0,1,246.144,68.192Zm3.9,1.712.928-3.536h1.392L250.968,69.9ZM261.352,68a2.568,2.568,0,0,1-1.712-.528,2.4,2.4,0,0,1-.624-1.9V61.2H257.64V60.064h1.376l.176-1.9h1.168v1.9H262.7V61.2H260.36v4.368a1.32,1.32,0,0,0,.3,1.016,1.657,1.657,0,0,0,1.072.264h.832V68Zm3.88-9.7a.9.9,0,0,1-.928-.928.855.855,0,0,1,.264-.64.979.979,0,0,1,1.32,0,.842.842,0,0,1,.272.64.887.887,0,0,1-.272.664A.908.908,0,0,1,265.232,58.3ZM264.56,68V60.064H265.9V68Zm6.728.192a3.792,3.792,0,0,1-2.368-.72,2.807,2.807,0,0,1-1.1-1.952h1.376a1.9,1.9,0,0,0,.664,1.08,2.161,2.161,0,0,0,1.448.456,1.826,1.826,0,0,0,1.248-.36,1.115,1.115,0,0,0,.4-.856.95.95,0,0,0-.52-.96,6.921,6.921,0,0,0-1.464-.432,8.253,8.253,0,0,1-1.28-.368,2.908,2.908,0,0,1-1.072-.68,1.584,1.584,0,0,1-.432-1.16,2.141,2.141,0,0,1,.776-1.7,3.129,3.129,0,0,1,2.1-.664,3.263,3.263,0,0,1,2.072.632,2.522,2.522,0,0,1,.936,1.8h-1.328a1.384,1.384,0,0,0-.52-.952,1.858,1.858,0,0,0-1.176-.344,1.78,1.78,0,0,0-1.112.3.964.964,0,0,0-.392.8.831.831,0,0,0,.5.752,5.411,5.411,0,0,0,1.368.464,11.916,11.916,0,0,1,1.4.392,2.646,2.646,0,0,1,1.088.688,1.87,1.87,0,0,1,.424,1.32,2.168,2.168,0,0,1-.808,1.768A3.348,3.348,0,0,1,271.288,68.192Zm8.008,0a3.792,3.792,0,0,1-2.368-.72,2.807,2.807,0,0,1-1.1-1.952H277.2a1.9,1.9,0,0,0,.664,1.08,2.161,2.161,0,0,0,1.448.456,1.826,1.826,0,0,0,1.248-.36,1.115,1.115,0,0,0,.4-.856.95.95,0,0,0-.52-.96,6.921,6.921,0,0,0-1.464-.432,8.253,8.253,0,0,1-1.28-.368,2.908,2.908,0,0,1-1.072-.68,1.584,1.584,0,0,1-.432-1.16,2.141,2.141,0,0,1,.776-1.7,3.129,3.129,0,0,1,2.1-.664,3.263,3.263,0,0,1,2.072.632,2.522,2.522,0,0,1,.936,1.8h-1.328a1.384,1.384,0,0,0-.52-.952,1.858,1.858,0,0,0-1.176-.344,1.78,1.78,0,0,0-1.112.3.964.964,0,0,0-.392.8.831.831,0,0,0,.5.752,5.411,5.411,0,0,0,1.368.464,11.916,11.916,0,0,1,1.4.392,2.646,2.646,0,0,1,1.088.688,1.87,1.87,0,0,1,.424,1.32,2.168,2.168,0,0,1-.808,1.768A3.348,3.348,0,0,1,279.3,68.192Zm7.864,0a2.98,2.98,0,0,1-2.24-.856,3.65,3.65,0,0,1-.832-2.632v-4.64h1.344v4.5q0,2.48,2.032,2.48a2.23,2.23,0,0,0,1.72-.744,3.032,3.032,0,0,0,.68-2.12V60.064h1.344V68h-1.216l-.1-1.424a2.763,2.763,0,0,1-1.1,1.184A3.152,3.152,0,0,1,287.16,68.192Zm9.832,0a3.887,3.887,0,0,1-2.016-.52,3.692,3.692,0,0,1-1.384-1.448,4.526,4.526,0,0,1-.5-2.192,4.6,4.6,0,0,1,.5-2.184,3.606,3.606,0,0,1,1.384-1.456,3.993,3.993,0,0,1,2.056-.52,3.709,3.709,0,0,1,1.992.52A3.523,3.523,0,0,1,300.3,61.76a3.846,3.846,0,0,1,.448,1.824q0,.176-.008.352t-.008.4h-6.32a3.119,3.119,0,0,0,.424,1.512,2.5,2.5,0,0,0,2.152,1.208,2.4,2.4,0,0,0,1.392-.384,2.2,2.2,0,0,0,.816-1.04h1.328a3.485,3.485,0,0,1-3.536,2.56Zm0-7.184a2.684,2.684,0,0,0-1.7.584,2.353,2.353,0,0,0-.856,1.7h4.992a2.27,2.27,0,0,0-.736-1.68A2.469,2.469,0,0,0,296.992,61.008Zm8.584,7.184a3.792,3.792,0,0,1-2.368-.72,2.807,2.807,0,0,1-1.1-1.952h1.376a1.9,1.9,0,0,0,.664,1.08,2.161,2.161,0,0,0,1.448.456,1.826,1.826,0,0,0,1.248-.36,1.115,1.115,0,0,0,.4-.856.95.95,0,0,0-.52-.96,6.921,6.921,0,0,0-1.464-.432,8.253,8.253,0,0,1-1.28-.368,2.908,2.908,0,0,1-1.072-.68,1.584,1.584,0,0,1-.432-1.16,2.141,2.141,0,0,1,.776-1.7,3.129,3.129,0,0,1,2.1-.664,3.263,3.263,0,0,1,2.072.632,2.522,2.522,0,0,1,.936,1.8h-1.328a1.384,1.384,0,0,0-.52-.952,1.858,1.858,0,0,0-1.176-.344,1.78,1.78,0,0,0-1.112.3.964.964,0,0,0-.392.8.831.831,0,0,0,.5.752,5.411,5.411,0,0,0,1.368.464,11.916,11.916,0,0,1,1.4.392,2.646,2.646,0,0,1,1.088.688,1.87,1.87,0,0,1,.424,1.32,2.168,2.168,0,0,1-.808,1.768A3.348,3.348,0,0,1,305.576,68.192Zm3.9,1.712.928-3.536h1.392L310.4,69.9ZM4.752,94.192a4.017,4.017,0,0,1-2.04-.52,3.738,3.738,0,0,1-1.424-1.456,4.846,4.846,0,0,1,0-4.368,3.738,3.738,0,0,1,1.424-1.456,4.017,4.017,0,0,1,2.04-.52,3.811,3.811,0,0,1,2.376.736,3.207,3.207,0,0,1,1.224,1.968H6.976a1.764,1.764,0,0,0-.784-1.144,2.6,2.6,0,0,0-1.456-.408,2.486,2.486,0,0,0-2.224,1.344,3.946,3.946,0,0,0,0,3.328,2.564,2.564,0,0,0,.96,1.016,2.475,2.475,0,0,0,1.264.344,2.6,2.6,0,0,0,1.456-.408,1.771,1.771,0,0,0,.784-1.16H8.352A3.177,3.177,0,0,1,7.136,93.44,3.789,3.789,0,0,1,4.752,94.192Zm9.048,0a3.887,3.887,0,0,1-2.016-.52A3.692,3.692,0,0,1,10.4,92.224a4.526,4.526,0,0,1-.5-2.192,4.6,4.6,0,0,1,.5-2.184,3.606,3.606,0,0,1,1.384-1.456,3.993,3.993,0,0,1,2.056-.52,3.708,3.708,0,0,1,1.992.52,3.523,3.523,0,0,1,1.288,1.368,3.846,3.846,0,0,1,.448,1.824q0,.176-.008.352t-.008.4h-6.32a3.118,3.118,0,0,0,.424,1.512A2.5,2.5,0,0,0,13.8,93.056a2.4,2.4,0,0,0,1.392-.384,2.2,2.2,0,0,0,.816-1.04h1.328a3.485,3.485,0,0,1-3.536,2.56Zm0-7.184a2.684,2.684,0,0,0-1.7.584,2.353,2.353,0,0,0-.856,1.7h4.992a2.27,2.27,0,0,0-.736-1.68A2.469,2.469,0,0,0,13.8,87.008ZM19.344,94V82.48h1.344V94Zm3.56,0V82.48h1.344V94Zm6.6.192a3.792,3.792,0,0,1-2.368-.72,2.807,2.807,0,0,1-1.1-1.952h1.376a1.9,1.9,0,0,0,.664,1.08,2.161,2.161,0,0,0,1.448.456,1.826,1.826,0,0,0,1.248-.36,1.115,1.115,0,0,0,.4-.856.95.95,0,0,0-.52-.96,6.922,6.922,0,0,0-1.464-.432,8.253,8.253,0,0,1-1.28-.368,2.908,2.908,0,0,1-1.072-.68,1.584,1.584,0,0,1-.432-1.16,2.141,2.141,0,0,1,.776-1.7,3.129,3.129,0,0,1,2.1-.664,3.263,3.263,0,0,1,2.072.632,2.522,2.522,0,0,1,.936,1.8H30.96a1.384,1.384,0,0,0-.52-.952,1.858,1.858,0,0,0-1.176-.344,1.78,1.78,0,0,0-1.112.3.964.964,0,0,0-.392.8.831.831,0,0,0,.5.752,5.411,5.411,0,0,0,1.368.464,11.915,11.915,0,0,1,1.4.392,2.646,2.646,0,0,1,1.088.688,1.87,1.87,0,0,1,.424,1.32,2.168,2.168,0,0,1-.808,1.768A3.348,3.348,0,0,1,29.5,94.192ZM33.4,95.9l.928-3.536H35.72L34.328,95.9Zm11.568-1.712a4.576,4.576,0,0,1-2.024-.424A3.362,3.362,0,0,1,41.76,88.76a4.391,4.391,0,0,1,1.928-1.4,4.335,4.335,0,0,1-.784-1.128,2.806,2.806,0,0,1-.24-1.16,2.292,2.292,0,0,1,.76-1.768,2.975,2.975,0,0,1,2.088-.7,3.257,3.257,0,0,1,1.5.328,2.434,2.434,0,0,1,.992.9,2.269,2.269,0,0,1,.32,1.312H47a1.276,1.276,0,0,0-.44-1.088,1.622,1.622,0,0,0-1.048-.368,1.551,1.551,0,0,0-1.12.384,1.3,1.3,0,0,0-.4.976,1.944,1.944,0,0,0,.28.992,6.092,6.092,0,0,0,.84,1.072l3.536,3.568q.464-.672,1.008-1.616l.5-.864h1.424l-.7,1.248a18.415,18.415,0,0,1-1.344,2.112L51.944,94h-1.7L48.76,92.5A5.3,5.3,0,0,1,47,93.8,5.1,5.1,0,0,1,44.968,94.192ZM42.44,90.736a2.158,2.158,0,0,0,.7,1.648,2.591,2.591,0,0,0,1.84.656,3.577,3.577,0,0,0,1.544-.328,4.391,4.391,0,0,0,1.368-1.08L44.5,88.192a3.62,3.62,0,0,0-1.56,1.056A2.336,2.336,0,0,0,42.44,90.736Zm18.144,3.456a3.792,3.792,0,0,1-2.368-.72,2.807,2.807,0,0,1-1.1-1.952h1.376a1.9,1.9,0,0,0,.664,1.08,2.161,2.161,0,0,0,1.448.456,1.826,1.826,0,0,0,1.248-.36,1.115,1.115,0,0,0,.4-.856.95.95,0,0,0-.52-.96,6.922,6.922,0,0,0-1.464-.432,8.252,8.252,0,0,1-1.28-.368,2.908,2.908,0,0,1-1.072-.68,1.584,1.584,0,0,1-.432-1.16,2.141,2.141,0,0,1,.776-1.7,3.129,3.129,0,0,1,2.1-.664,3.263,3.263,0,0,1,2.072.632,2.522,2.522,0,0,1,.936,1.8H62.04a1.384,1.384,0,0,0-.52-.952,1.858,1.858,0,0,0-1.176-.344,1.78,1.78,0,0,0-1.112.3.964.964,0,0,0-.392.8.831.831,0,0,0,.5.752,5.411,5.411,0,0,0,1.368.464,11.915,11.915,0,0,1,1.4.392,2.646,2.646,0,0,1,1.088.688,1.87,1.87,0,0,1,.424,1.32,2.168,2.168,0,0,1-.808,1.768A3.348,3.348,0,0,1,60.584,94.192Zm5.5,3.328,1.968-4.288h-.464l-3.152-7.168h1.456l2.624,6.176L71.3,86.064h1.392l-5.2,11.456ZM76.7,94.192a3.792,3.792,0,0,1-2.368-.72,2.807,2.807,0,0,1-1.1-1.952H74.6a1.9,1.9,0,0,0,.664,1.08,2.161,2.161,0,0,0,1.448.456,1.826,1.826,0,0,0,1.248-.36,1.115,1.115,0,0,0,.4-.856.95.95,0,0,0-.52-.96,6.922,6.922,0,0,0-1.464-.432,8.253,8.253,0,0,1-1.28-.368,2.908,2.908,0,0,1-1.072-.68,1.584,1.584,0,0,1-.432-1.16,2.141,2.141,0,0,1,.776-1.7,3.129,3.129,0,0,1,2.1-.664,3.263,3.263,0,0,1,2.072.632,2.522,2.522,0,0,1,.936,1.8H78.152a1.384,1.384,0,0,0-.52-.952,1.858,1.858,0,0,0-1.176-.344,1.78,1.78,0,0,0-1.112.3.964.964,0,0,0-.392.8.831.831,0,0,0,.5.752,5.411,5.411,0,0,0,1.368.464,11.915,11.915,0,0,1,1.4.392,2.646,2.646,0,0,1,1.088.688,1.87,1.87,0,0,1,.424,1.32,2.168,2.168,0,0,1-.808,1.768A3.348,3.348,0,0,1,76.7,94.192ZM84.448,94a2.568,2.568,0,0,1-1.712-.528,2.4,2.4,0,0,1-.624-1.9V87.2H80.736V86.064h1.376l.176-1.9h1.168v1.9h2.336V87.2H83.456v4.368a1.32,1.32,0,0,0,.3,1.016,1.657,1.657,0,0,0,1.072.264h.832V94Zm6.408.192a3.887,3.887,0,0,1-2.016-.52,3.692,3.692,0,0,1-1.384-1.448,4.526,4.526,0,0,1-.5-2.192,4.6,4.6,0,0,1,.5-2.184,3.606,3.606,0,0,1,1.384-1.456,3.993,3.993,0,0,1,2.056-.52,3.708,3.708,0,0,1,1.992.52,3.523,3.523,0,0,1,1.288,1.368,3.846,3.846,0,0,1,.448,1.824q0,.176-.008.352t-.008.4H88.28a3.118,3.118,0,0,0,.424,1.512,2.5,2.5,0,0,0,2.152,1.208,2.4,2.4,0,0,0,1.392-.384,2.2,2.2,0,0,0,.816-1.04h1.328a3.485,3.485,0,0,1-3.536,2.56Zm0-7.184a2.684,2.684,0,0,0-1.7.584,2.353,2.353,0,0,0-.856,1.7h4.992a2.27,2.27,0,0,0-.736-1.68A2.469,2.469,0,0,0,90.856,87.008ZM96.4,94V86.064h1.216l.1,1.152a2.688,2.688,0,0,1,1.024-.992,2.938,2.938,0,0,1,1.44-.352,3.251,3.251,0,0,1,1.624.384,2.526,2.526,0,0,1,1.048,1.168,3.038,3.038,0,0,1,1.144-1.136,3.123,3.123,0,0,1,1.576-.416,3.054,3.054,0,0,1,2.272.856,3.606,3.606,0,0,1,.848,2.632V94H107.36V89.5a2.941,2.941,0,0,0-.5-1.856,1.712,1.712,0,0,0-1.424-.624,2,2,0,0,0-1.592.744,3.184,3.184,0,0,0-.632,2.12V94h-1.344V89.5a2.941,2.941,0,0,0-.5-1.856,1.712,1.712,0,0,0-1.424-.624,1.985,1.985,0,0,0-1.576.744,3.184,3.184,0,0,0-.632,2.12V94Zm17.368.192a3.792,3.792,0,0,1-2.368-.72,2.807,2.807,0,0,1-1.1-1.952h1.376a1.9,1.9,0,0,0,.664,1.08,2.161,2.161,0,0,0,1.448.456,1.826,1.826,0,0,0,1.248-.36,1.115,1.115,0,0,0,.4-.856.95.95,0,0,0-.52-.96,6.922,6.922,0,0,0-1.464-.432,8.253,8.253,0,0,1-1.28-.368,2.908,2.908,0,0,1-1.072-.68,1.584,1.584,0,0,1-.432-1.16,2.141,2.141,0,0,1,.776-1.7,3.129,3.129,0,0,1,2.1-.664,3.263,3.263,0,0,1,2.072.632,2.522,2.522,0,0,1,.936,1.8h-1.328a1.384,1.384,0,0,0-.52-.952,1.858,1.858,0,0,0-1.176-.344,1.78,1.78,0,0,0-1.112.3.964.964,0,0,0-.392.8.831.831,0,0,0,.5.752,5.411,5.411,0,0,0,1.368.464,11.915,11.915,0,0,1,1.4.392,2.646,2.646,0,0,1,1.088.688,1.87,1.87,0,0,1,.424,1.32A2.168,2.168,0,0,1,116,93.5,3.348,3.348,0,0,1,113.768,94.192Zm3.9,1.712.928-3.536h1.392L118.592,95.9Zm11.744-1.712a3.887,3.887,0,0,1-2.016-.52,3.692,3.692,0,0,1-1.384-1.448,4.526,4.526,0,0,1-.5-2.192,4.6,4.6,0,0,1,.5-2.184,3.606,3.606,0,0,1,1.384-1.456,3.993,3.993,0,0,1,2.056-.52,3.708,3.708,0,0,1,1.992.52,3.523,3.523,0,0,1,1.288,1.368,3.846,3.846,0,0,1,.448,1.824q0,.176-.008.352t-.008.4h-6.32a3.118,3.118,0,0,0,.424,1.512,2.5,2.5,0,0,0,2.152,1.208,2.4,2.4,0,0,0,1.392-.384,2.2,2.2,0,0,0,.816-1.04h1.328a3.485,3.485,0,0,1-3.536,2.56Zm0-7.184a2.684,2.684,0,0,0-1.7.584,2.353,2.353,0,0,0-.856,1.7h4.992a2.27,2.27,0,0,0-.736-1.68A2.469,2.469,0,0,0,129.408,87.008ZM134.952,94V86.064h1.216l.08,1.424a2.882,2.882,0,0,1,1.1-1.184,3.11,3.11,0,0,1,1.632-.432,3.006,3.006,0,0,1,2.248.856,3.628,3.628,0,0,1,.84,2.632V94h-1.344V89.5q0-2.48-2.048-2.48a2.212,2.212,0,0,0-1.7.744,3.032,3.032,0,0,0-.68,2.12V94Zm11.8.192a3.6,3.6,0,0,1-1.648-.336,2.284,2.284,0,0,1-.976-.9,2.409,2.409,0,0,1-.32-1.216,2.155,2.155,0,0,1,.928-1.872,4.309,4.309,0,0,1,2.528-.656h2.144v-.1a2.118,2.118,0,0,0-.544-1.576,1.984,1.984,0,0,0-1.456-.536,2.321,2.321,0,0,0-1.352.392,1.717,1.717,0,0,0-.712,1.144h-1.376a2.547,2.547,0,0,1,.584-1.456,3.264,3.264,0,0,1,1.256-.9,4.133,4.133,0,0,1,1.6-.312,3,3,0,0,1,3.344,3.248V94h-1.2l-.08-1.424a3.147,3.147,0,0,1-.984,1.144A2.887,2.887,0,0,1,146.752,94.192Zm.208-1.136a2.189,2.189,0,0,0,1.32-.4,2.553,2.553,0,0,0,.84-1.04,3.239,3.239,0,0,0,.288-1.344v-.016h-2.032a2.638,2.638,0,0,0-1.672.408,1.272,1.272,0,0,0-.488,1.016,1.231,1.231,0,0,0,.456,1A1.972,1.972,0,0,0,146.96,93.056Zm10.056,1.136a3.671,3.671,0,0,1-1.736-.4,2.767,2.767,0,0,1-1.16-1.12L153.992,94h-1.216V82.48h1.344v4.9a3.746,3.746,0,0,1,1.1-1.04,3.267,3.267,0,0,1,1.816-.464,3.845,3.845,0,0,1,2.064.544,3.722,3.722,0,0,1,1.368,1.488,4.6,4.6,0,0,1,.488,2.144,4.552,4.552,0,0,1-.488,2.136,3.661,3.661,0,0,1-1.376,1.472A3.931,3.931,0,0,1,157.016,94.192Zm-.144-1.168A2.567,2.567,0,0,0,159.24,91.6a3.668,3.668,0,0,0,0-3.136,2.657,2.657,0,0,0-4.736,0,3.668,3.668,0,0,0,0,3.136,2.567,2.567,0,0,0,2.368,1.424Zm5.96.976V82.48h1.344V94Zm4.376-9.7a.9.9,0,0,1-.928-.928.855.855,0,0,1,.264-.64.979.979,0,0,1,1.32,0,.842.842,0,0,1,.272.64.887.887,0,0,1-.272.664A.908.908,0,0,1,167.208,84.3Zm-.672,9.7V86.064h1.344V94Zm3.688,0V86.064h1.216l.08,1.424a2.882,2.882,0,0,1,1.1-1.184,3.11,3.11,0,0,1,1.632-.432,3.006,3.006,0,0,1,2.248.856,3.628,3.628,0,0,1,.84,2.632V94H176V89.5q0-2.48-2.048-2.48a2.212,2.212,0,0,0-1.7.744,3.032,3.032,0,0,0-.68,2.12V94Zm12.3-2.5a4.093,4.093,0,0,1-1.232-.176l-.8.752a1.612,1.612,0,0,0,.44.216,4.662,4.662,0,0,0,.76.16q.5.072,1.392.152a3.785,3.785,0,0,1,2.288.736,2.1,2.1,0,0,1,.688,1.632,2.5,2.5,0,0,1-.376,1.312,2.79,2.79,0,0,1-1.152,1.024,4.339,4.339,0,0,1-1.992.4,5.96,5.96,0,0,1-1.9-.28,2.76,2.76,0,0,1-1.3-.848,2.189,2.189,0,0,1-.464-1.432,2.324,2.324,0,0,1,.24-.968,2.588,2.588,0,0,1,.9-.984,3.3,3.3,0,0,1-.6-.312,3.109,3.109,0,0,1-.456-.376v-.368l1.36-1.344a2.632,2.632,0,0,1-.944-2.112,2.805,2.805,0,0,1,.368-1.424,2.632,2.632,0,0,1,1.072-1.016,3.593,3.593,0,0,1,1.712-.376,3.831,3.831,0,0,1,1.248.192H186.7v1.008l-1.488.064a2.664,2.664,0,0,1,.464,1.552,2.759,2.759,0,0,1-.376,1.424,2.7,2.7,0,0,1-1.072,1.016A3.545,3.545,0,0,1,182.52,91.5Zm0-1.1a1.983,1.983,0,0,0,1.352-.44,1.6,1.6,0,0,0,.5-1.272,1.578,1.578,0,0,0-.5-1.256,1.983,1.983,0,0,0-1.352-.44,2.008,2.008,0,0,0-1.368.44,1.578,1.578,0,0,0-.5,1.256,1.6,1.6,0,0,0,.5,1.272A2.008,2.008,0,0,0,182.52,90.4Zm-2.336,4.624a1.29,1.29,0,0,0,.672,1.192,3.291,3.291,0,0,0,1.68.392,2.667,2.667,0,0,0,1.592-.432,1.351,1.351,0,0,0,.6-1.152,1.16,1.16,0,0,0-.416-.888,2.563,2.563,0,0,0-1.536-.44q-.88-.064-1.52-.16a1.97,1.97,0,0,0-.864.76A1.638,1.638,0,0,0,180.184,95.024Zm14.928-.832a3.6,3.6,0,0,1-1.648-.336,2.284,2.284,0,0,1-.976-.9,2.409,2.409,0,0,1-.32-1.216,2.155,2.155,0,0,1,.928-1.872,4.309,4.309,0,0,1,2.528-.656h2.144v-.1a2.118,2.118,0,0,0-.544-1.576,1.984,1.984,0,0,0-1.456-.536,2.321,2.321,0,0,0-1.352.392,1.717,1.717,0,0,0-.712,1.144h-1.376a2.547,2.547,0,0,1,.584-1.456,3.264,3.264,0,0,1,1.256-.9,4.133,4.133,0,0,1,1.6-.312,3,3,0,0,1,3.344,3.248V94h-1.2l-.08-1.424a3.147,3.147,0,0,1-.984,1.144A2.887,2.887,0,0,1,195.112,94.192Zm.208-1.136a2.189,2.189,0,0,0,1.32-.4,2.553,2.553,0,0,0,.84-1.04,3.239,3.239,0,0,0,.288-1.344v-.016h-2.032a2.638,2.638,0,0,0-1.672.408,1.272,1.272,0,0,0-.488,1.016,1.231,1.231,0,0,0,.456,1A1.972,1.972,0,0,0,195.32,93.056Zm13.712,1.136a4.017,4.017,0,0,1-2.04-.52,3.738,3.738,0,0,1-1.424-1.456,4.846,4.846,0,0,1,0-4.368,3.738,3.738,0,0,1,1.424-1.456,4.017,4.017,0,0,1,2.04-.52,3.811,3.811,0,0,1,2.376.736,3.207,3.207,0,0,1,1.224,1.968h-1.376a1.764,1.764,0,0,0-.784-1.144,2.6,2.6,0,0,0-1.456-.408,2.486,2.486,0,0,0-2.224,1.344,3.946,3.946,0,0,0,0,3.328,2.564,2.564,0,0,0,.96,1.016,2.475,2.475,0,0,0,1.264.344,2.6,2.6,0,0,0,1.456-.408,1.771,1.771,0,0,0,.784-1.16h1.376a3.177,3.177,0,0,1-1.216,1.952A3.789,3.789,0,0,1,209.032,94.192Zm9.1,0a3.99,3.99,0,0,1-2.016-.512,3.7,3.7,0,0,1-1.416-1.448,4.459,4.459,0,0,1-.52-2.2,4.4,4.4,0,0,1,.528-2.2,3.737,3.737,0,0,1,1.432-1.448,4.034,4.034,0,0,1,2.024-.512,3.99,3.99,0,0,1,2.016.512,3.7,3.7,0,0,1,1.416,1.448,4.459,4.459,0,0,1,.52,2.2,4.4,4.4,0,0,1-.528,2.2,3.737,3.737,0,0,1-1.432,1.448A4.034,4.034,0,0,1,218.128,94.192Zm0-1.152a2.55,2.55,0,0,0,1.28-.336,2.506,2.506,0,0,0,.96-1.008,3.428,3.428,0,0,0,.368-1.664,3.491,3.491,0,0,0-.36-1.664,2.454,2.454,0,0,0-.952-1.008,2.52,2.52,0,0,0-1.264-.336,2.55,2.55,0,0,0-1.28.336,2.506,2.506,0,0,0-.96,1.008,3.946,3.946,0,0,0,0,3.328,2.525,2.525,0,0,0,.952,1.008A2.477,2.477,0,0,0,218.128,93.04Zm5.864.96V86.064h1.216l.1,1.152a2.688,2.688,0,0,1,1.024-.992,2.938,2.938,0,0,1,1.44-.352,3.251,3.251,0,0,1,1.624.384,2.526,2.526,0,0,1,1.048,1.168,3.038,3.038,0,0,1,1.144-1.136,3.123,3.123,0,0,1,1.576-.416,3.054,3.054,0,0,1,2.272.856,3.606,3.606,0,0,1,.848,2.632V94h-1.328V89.5a2.941,2.941,0,0,0-.5-1.856,1.712,1.712,0,0,0-1.424-.624,2,2,0,0,0-1.592.744,3.184,3.184,0,0,0-.632,2.12V94h-1.344V89.5a2.941,2.941,0,0,0-.5-1.856,1.712,1.712,0,0,0-1.424-.624,1.985,1.985,0,0,0-1.576.744,3.184,3.184,0,0,0-.632,2.12V94Zm14.328,3.52V86.064h1.216l.128,1.312a3.746,3.746,0,0,1,1.1-1.04,3.267,3.267,0,0,1,1.816-.464,3.845,3.845,0,0,1,2.064.544,3.722,3.722,0,0,1,1.368,1.488,4.6,4.6,0,0,1,.488,2.144,4.552,4.552,0,0,1-.488,2.136,3.661,3.661,0,0,1-1.376,1.472,3.931,3.931,0,0,1-2.072.536,3.671,3.671,0,0,1-1.736-.4,2.767,2.767,0,0,1-1.16-1.12V97.52Zm4.1-4.5a2.567,2.567,0,0,0,2.368-1.424,3.668,3.668,0,0,0,0-3.136,2.657,2.657,0,0,0-4.736,0,3.668,3.668,0,0,0,0,3.136,2.567,2.567,0,0,0,2.368,1.424Zm5.96.976V86.064h1.216l.112,1.52a2.877,2.877,0,0,1,1.12-1.248,3.472,3.472,0,0,1,1.856-.464V87.28h-.368a3.321,3.321,0,0,0-1.3.248,1.968,1.968,0,0,0-.944.84A3.2,3.2,0,0,0,249.72,90v4Zm9.08.192a3.887,3.887,0,0,1-2.016-.52,3.692,3.692,0,0,1-1.384-1.448,4.526,4.526,0,0,1-.5-2.192,4.6,4.6,0,0,1,.5-2.184,3.606,3.606,0,0,1,1.384-1.456,3.993,3.993,0,0,1,2.056-.52,3.708,3.708,0,0,1,1.992.52,3.523,3.523,0,0,1,1.288,1.368,3.846,3.846,0,0,1,.448,1.824q0,.176-.008.352t-.008.4h-6.32a3.118,3.118,0,0,0,.424,1.512,2.5,2.5,0,0,0,2.152,1.208,2.4,2.4,0,0,0,1.392-.384,2.2,2.2,0,0,0,.816-1.04h1.328a3.485,3.485,0,0,1-3.536,2.56Zm0-7.184a2.684,2.684,0,0,0-1.7.584,2.353,2.353,0,0,0-.856,1.7h4.992a2.27,2.27,0,0,0-.736-1.68A2.469,2.469,0,0,0,257.456,87.008ZM263,94V82.48h1.344v4.944a2.826,2.826,0,0,1,1.136-1.144,3.246,3.246,0,0,1,1.6-.408,2.939,2.939,0,0,1,2.208.856,3.65,3.65,0,0,1,.832,2.632V94h-1.328V89.5q0-2.48-2-2.48a2.3,2.3,0,0,0-1.744.744,2.966,2.966,0,0,0-.7,2.12V94Zm12.728.192a3.887,3.887,0,0,1-2.016-.52,3.692,3.692,0,0,1-1.384-1.448,4.526,4.526,0,0,1-.5-2.192,4.6,4.6,0,0,1,.5-2.184,3.606,3.606,0,0,1,1.384-1.456,3.993,3.993,0,0,1,2.056-.52,3.709,3.709,0,0,1,1.992.52,3.523,3.523,0,0,1,1.288,1.368,3.846,3.846,0,0,1,.448,1.824q0,.176-.008.352t-.008.4h-6.32a3.119,3.119,0,0,0,.424,1.512,2.5,2.5,0,0,0,2.152,1.208,2.4,2.4,0,0,0,1.392-.384,2.2,2.2,0,0,0,.816-1.04h1.328a3.485,3.485,0,0,1-3.536,2.56Zm0-7.184a2.684,2.684,0,0,0-1.7.584,2.353,2.353,0,0,0-.856,1.7h4.992a2.27,2.27,0,0,0-.736-1.68A2.469,2.469,0,0,0,275.728,87.008ZM281.272,94V86.064h1.216l.08,1.424a2.882,2.882,0,0,1,1.1-1.184,3.11,3.11,0,0,1,1.632-.432,3.006,3.006,0,0,1,2.248.856,3.628,3.628,0,0,1,.84,2.632V94h-1.344V89.5q0-2.48-2.048-2.48a2.212,2.212,0,0,0-1.7.744,3.032,3.032,0,0,0-.68,2.12V94Zm12.2.192a3.792,3.792,0,0,1-2.368-.72A2.807,2.807,0,0,1,290,91.52h1.376a1.9,1.9,0,0,0,.664,1.08,2.161,2.161,0,0,0,1.448.456,1.826,1.826,0,0,0,1.248-.36,1.115,1.115,0,0,0,.4-.856.95.95,0,0,0-.52-.96,6.921,6.921,0,0,0-1.464-.432,8.253,8.253,0,0,1-1.28-.368,2.908,2.908,0,0,1-1.072-.68,1.584,1.584,0,0,1-.432-1.16,2.141,2.141,0,0,1,.776-1.7,3.129,3.129,0,0,1,2.1-.664,3.263,3.263,0,0,1,2.072.632,2.522,2.522,0,0,1,.936,1.8h-1.328a1.384,1.384,0,0,0-.52-.952,1.858,1.858,0,0,0-1.176-.344,1.78,1.78,0,0,0-1.112.3.964.964,0,0,0-.392.8.831.831,0,0,0,.5.752,5.411,5.411,0,0,0,1.368.464,11.915,11.915,0,0,1,1.4.392,2.646,2.646,0,0,1,1.088.688,1.87,1.87,0,0,1,.424,1.32A2.168,2.168,0,0,1,295.7,93.5,3.348,3.348,0,0,1,293.472,94.192Zm5.784-9.888a.9.9,0,0,1-.928-.928.855.855,0,0,1,.264-.64.979.979,0,0,1,1.32,0,.842.842,0,0,1,.272.64.887.887,0,0,1-.272.664A.908.908,0,0,1,299.256,84.3Zm-.672,9.7V86.064h1.344V94Zm5.976,0-3.008-7.936h1.408l2.384,6.64,2.4-6.64h1.376L306.112,94Zm9.224.192a3.887,3.887,0,0,1-2.016-.52,3.692,3.692,0,0,1-1.384-1.448,4.526,4.526,0,0,1-.5-2.192,4.6,4.6,0,0,1,.5-2.184,3.606,3.606,0,0,1,1.384-1.456,3.993,3.993,0,0,1,2.056-.52,3.709,3.709,0,0,1,1.992.52A3.523,3.523,0,0,1,317.1,87.76a3.846,3.846,0,0,1,.448,1.824q0,.176-.008.352t-.008.4h-6.32a3.119,3.119,0,0,0,.424,1.512,2.5,2.5,0,0,0,2.152,1.208,2.4,2.4,0,0,0,1.392-.384,2.2,2.2,0,0,0,.816-1.04h1.328a3.485,3.485,0,0,1-3.536,2.56Zm0-7.184a2.684,2.684,0,0,0-1.7.584,2.353,2.353,0,0,0-.856,1.7h4.992a2.27,2.27,0,0,0-.736-1.68A2.469,2.469,0,0,0,313.784,87.008ZM4,120.192a2.98,2.98,0,0,1-2.24-.856A3.65,3.65,0,0,1,.928,116.7v-4.64H2.272v4.5q0,2.48,2.032,2.48a2.229,2.229,0,0,0,1.72-.744,3.032,3.032,0,0,0,.68-2.12v-4.112H8.048V120H6.832l-.1-1.424a2.763,2.763,0,0,1-1.1,1.184A3.152,3.152,0,0,1,4,120.192ZM10.264,120v-7.936H11.48l.08,1.424a2.882,2.882,0,0,1,1.1-1.184,3.11,3.11,0,0,1,1.632-.432,3.006,3.006,0,0,1,2.248.856,3.628,3.628,0,0,1,.84,2.632V120H16.04v-4.5q0-2.48-2.048-2.48a2.212,2.212,0,0,0-1.7.744,3.032,3.032,0,0,0-.68,2.12V120Zm12.76.192a3.887,3.887,0,0,1-2.072-.544,3.7,3.7,0,0,1-1.376-1.488,4.6,4.6,0,0,1-.488-2.144,4.492,4.492,0,0,1,.5-2.136,3.736,3.736,0,0,1,1.376-1.472,3.92,3.92,0,0,1,2.08-.536,3.624,3.624,0,0,1,1.728.4,2.882,2.882,0,0,1,1.168,1.12V108.48H27.28V120H26.064l-.128-1.312a3.716,3.716,0,0,1-1.1,1.04A3.275,3.275,0,0,1,23.024,120.192Zm.144-1.168a2.663,2.663,0,0,0,1.416-.376,2.571,2.571,0,0,0,.96-1.048,3.746,3.746,0,0,0,0-3.136,2.571,2.571,0,0,0-.96-1.048,2.663,2.663,0,0,0-1.416-.376,2.633,2.633,0,0,0-1.4.376,2.571,2.571,0,0,0-.96,1.048,3.746,3.746,0,0,0,0,3.136,2.571,2.571,0,0,0,.96,1.048A2.633,2.633,0,0,0,23.168,119.024Zm9.88,1.168a3.887,3.887,0,0,1-2.016-.52,3.692,3.692,0,0,1-1.384-1.448,4.526,4.526,0,0,1-.5-2.192,4.6,4.6,0,0,1,.5-2.184,3.606,3.606,0,0,1,1.384-1.456,3.993,3.993,0,0,1,2.056-.52,3.708,3.708,0,0,1,1.992.52,3.523,3.523,0,0,1,1.288,1.368,3.846,3.846,0,0,1,.448,1.824q0,.176-.008.352t-.008.4h-6.32a3.118,3.118,0,0,0,.424,1.512,2.5,2.5,0,0,0,2.152,1.208,2.4,2.4,0,0,0,1.392-.384,2.2,2.2,0,0,0,.816-1.04h1.328a3.485,3.485,0,0,1-3.536,2.56Zm0-7.184a2.684,2.684,0,0,0-1.7.584,2.353,2.353,0,0,0-.856,1.7H35.48a2.27,2.27,0,0,0-.736-1.68A2.469,2.469,0,0,0,33.048,113.008ZM38.592,120v-7.936h1.216l.112,1.52a2.877,2.877,0,0,1,1.12-1.248,3.472,3.472,0,0,1,1.856-.464v1.408h-.368a3.321,3.321,0,0,0-1.3.248,1.968,1.968,0,0,0-.944.84A3.2,3.2,0,0,0,39.936,116v4Zm8.856.192a3.792,3.792,0,0,1-2.368-.72,2.807,2.807,0,0,1-1.1-1.952h1.376a1.9,1.9,0,0,0,.664,1.08,2.161,2.161,0,0,0,1.448.456,1.826,1.826,0,0,0,1.248-.36,1.115,1.115,0,0,0,.4-.856.95.95,0,0,0-.52-.96,6.922,6.922,0,0,0-1.464-.432,8.252,8.252,0,0,1-1.28-.368,2.908,2.908,0,0,1-1.072-.68,1.584,1.584,0,0,1-.432-1.16,2.141,2.141,0,0,1,.776-1.7,3.129,3.129,0,0,1,2.1-.664,3.263,3.263,0,0,1,2.072.632,2.522,2.522,0,0,1,.936,1.8H48.9a1.384,1.384,0,0,0-.52-.952,1.858,1.858,0,0,0-1.176-.344,1.78,1.78,0,0,0-1.112.3.964.964,0,0,0-.392.8.831.831,0,0,0,.5.752,5.411,5.411,0,0,0,1.368.464,11.915,11.915,0,0,1,1.4.392,2.646,2.646,0,0,1,1.088.688,1.87,1.87,0,0,1,.424,1.32,2.168,2.168,0,0,1-.808,1.768A3.348,3.348,0,0,1,47.448,120.192ZM55.2,120a2.568,2.568,0,0,1-1.712-.528,2.4,2.4,0,0,1-.624-1.9V113.2H51.488v-1.136h1.376l.176-1.9h1.168v1.9h2.336V113.2H54.208v4.368a1.32,1.32,0,0,0,.3,1.016,1.657,1.657,0,0,0,1.072.264h.832V120Zm5.7.192a3.6,3.6,0,0,1-1.648-.336,2.284,2.284,0,0,1-.976-.9,2.409,2.409,0,0,1-.32-1.216,2.155,2.155,0,0,1,.928-1.872,4.309,4.309,0,0,1,2.528-.656H63.56v-.1a2.118,2.118,0,0,0-.544-1.576,1.984,1.984,0,0,0-1.456-.536,2.321,2.321,0,0,0-1.352.392,1.717,1.717,0,0,0-.712,1.144H58.12a2.547,2.547,0,0,1,.584-1.456,3.264,3.264,0,0,1,1.256-.9,4.133,4.133,0,0,1,1.6-.312A3,3,0,0,1,64.9,115.12V120H63.7l-.08-1.424a3.147,3.147,0,0,1-.984,1.144A2.887,2.887,0,0,1,60.9,120.192Zm.208-1.136a2.189,2.189,0,0,0,1.32-.4,2.553,2.553,0,0,0,.84-1.04,3.239,3.239,0,0,0,.288-1.344v-.016H61.528a2.638,2.638,0,0,0-1.672.408,1.272,1.272,0,0,0-.488,1.016,1.231,1.231,0,0,0,.456,1A1.972,1.972,0,0,0,61.112,119.056Zm5.816.944v-7.936h1.216l.08,1.424a2.882,2.882,0,0,1,1.1-1.184,3.11,3.11,0,0,1,1.632-.432,3.007,3.007,0,0,1,2.248.856,3.628,3.628,0,0,1,.84,2.632V120H72.7v-4.5q0-2.48-2.048-2.48a2.212,2.212,0,0,0-1.7.744,3.032,3.032,0,0,0-.68,2.12V120Zm12.76.192a3.887,3.887,0,0,1-2.072-.544,3.7,3.7,0,0,1-1.376-1.488,4.6,4.6,0,0,1-.488-2.144,4.492,4.492,0,0,1,.5-2.136,3.736,3.736,0,0,1,1.376-1.472,3.92,3.92,0,0,1,2.08-.536,3.624,3.624,0,0,1,1.728.4,2.882,2.882,0,0,1,1.168,1.12V108.48h1.344V120H82.728l-.128-1.312a3.715,3.715,0,0,1-1.1,1.04A3.275,3.275,0,0,1,79.688,120.192Zm.144-1.168a2.663,2.663,0,0,0,1.416-.376,2.571,2.571,0,0,0,.96-1.048,3.746,3.746,0,0,0,0-3.136,2.571,2.571,0,0,0-.96-1.048,2.663,2.663,0,0,0-1.416-.376,2.633,2.633,0,0,0-1.4.376,2.571,2.571,0,0,0-.96,1.048,3.746,3.746,0,0,0,0,3.136,2.571,2.571,0,0,0,.96,1.048A2.633,2.633,0,0,0,79.832,119.024Zm7.128-8.72a.9.9,0,0,1-.928-.928.855.855,0,0,1,.264-.64.979.979,0,0,1,1.32,0,.842.842,0,0,1,.272.64.887.887,0,0,1-.272.664A.908.908,0,0,1,86.96,110.3Zm-.672,9.7v-7.936h1.344V120Zm3.688,0v-7.936h1.216l.08,1.424a2.882,2.882,0,0,1,1.1-1.184,3.11,3.11,0,0,1,1.632-.432,3.007,3.007,0,0,1,2.248.856,3.628,3.628,0,0,1,.84,2.632V120H95.752v-4.5q0-2.48-2.048-2.48a2.212,2.212,0,0,0-1.7.744,3.032,3.032,0,0,0-.68,2.12V120Zm12.3-2.5a4.093,4.093,0,0,1-1.232-.176l-.8.752a1.611,1.611,0,0,0,.44.216,4.662,4.662,0,0,0,.76.16q.5.072,1.392.152a3.785,3.785,0,0,1,2.288.736,2.1,2.1,0,0,1,.688,1.632,2.5,2.5,0,0,1-.376,1.312,2.79,2.79,0,0,1-1.152,1.024,4.339,4.339,0,0,1-1.992.4,5.96,5.96,0,0,1-1.9-.28,2.76,2.76,0,0,1-1.3-.848,2.189,2.189,0,0,1-.464-1.432,2.324,2.324,0,0,1,.24-.968,2.588,2.588,0,0,1,.9-.984,3.3,3.3,0,0,1-.6-.312,3.109,3.109,0,0,1-.456-.376v-.368l1.36-1.344a2.632,2.632,0,0,1-.944-2.112,2.805,2.805,0,0,1,.368-1.424,2.632,2.632,0,0,1,1.072-1.016,3.593,3.593,0,0,1,1.712-.376,3.831,3.831,0,0,1,1.248.192h2.928v1.008l-1.488.064a2.664,2.664,0,0,1,.464,1.552,2.759,2.759,0,0,1-.376,1.424,2.7,2.7,0,0,1-1.072,1.016A3.545,3.545,0,0,1,102.272,117.5Zm0-1.1a1.983,1.983,0,0,0,1.352-.44,1.6,1.6,0,0,0,.5-1.272,1.578,1.578,0,0,0-.5-1.256,1.983,1.983,0,0,0-1.352-.44,2.008,2.008,0,0,0-1.368.44,1.578,1.578,0,0,0-.5,1.256,1.6,1.6,0,0,0,.5,1.272A2.008,2.008,0,0,0,102.272,116.4Zm-2.336,4.624a1.29,1.29,0,0,0,.672,1.192,3.291,3.291,0,0,0,1.68.392,2.667,2.667,0,0,0,1.592-.432,1.351,1.351,0,0,0,.6-1.152,1.16,1.16,0,0,0-.416-.888,2.563,2.563,0,0,0-1.536-.44q-.88-.064-1.52-.16a1.97,1.97,0,0,0-.864.76A1.638,1.638,0,0,0,99.936,121.024Zm15.9-.832a3.99,3.99,0,0,1-2.016-.512,3.7,3.7,0,0,1-1.416-1.448,4.458,4.458,0,0,1-.52-2.2,4.4,4.4,0,0,1,.528-2.2,3.737,3.737,0,0,1,1.432-1.448,4.034,4.034,0,0,1,2.024-.512,3.99,3.99,0,0,1,2.016.512,3.7,3.7,0,0,1,1.416,1.448,4.458,4.458,0,0,1,.52,2.2,4.4,4.4,0,0,1-.528,2.2,3.737,3.737,0,0,1-1.432,1.448A4.034,4.034,0,0,1,115.84,120.192Zm0-1.152a2.55,2.55,0,0,0,1.28-.336,2.506,2.506,0,0,0,.96-1.008,3.428,3.428,0,0,0,.368-1.664,3.491,3.491,0,0,0-.36-1.664,2.454,2.454,0,0,0-.952-1.008,2.52,2.52,0,0,0-1.264-.336,2.55,2.55,0,0,0-1.28.336,2.506,2.506,0,0,0-.96,1.008,3.946,3.946,0,0,0,0,3.328,2.524,2.524,0,0,0,.952,1.008A2.477,2.477,0,0,0,115.84,119.04Zm6.3.96v-6.8h-1.2v-1.136h1.2v-1.376a2.179,2.179,0,0,1,.576-1.68,2.4,2.4,0,0,1,1.68-.528h.8v1.152H124.6a1.221,1.221,0,0,0-.864.248,1.139,1.139,0,0,0-.256.84v1.344h1.952V113.2H123.48V120Zm12.288,0a2.568,2.568,0,0,1-1.712-.528,2.4,2.4,0,0,1-.624-1.9V113.2h-1.376v-1.136h1.376l.176-1.9h1.168v1.9h2.336V113.2h-2.336v4.368a1.32,1.32,0,0,0,.3,1.016,1.657,1.657,0,0,0,1.072.264h.832V120Zm3.064,0V108.48h1.344v4.944a2.827,2.827,0,0,1,1.136-1.144,3.246,3.246,0,0,1,1.6-.408,2.939,2.939,0,0,1,2.208.856,3.65,3.65,0,0,1,.832,2.632V120H143.28v-4.5q0-2.48-2-2.48a2.3,2.3,0,0,0-1.744.744,2.966,2.966,0,0,0-.7,2.12V120Zm12.728.192a3.887,3.887,0,0,1-2.016-.52,3.692,3.692,0,0,1-1.384-1.448,4.526,4.526,0,0,1-.5-2.192,4.6,4.6,0,0,1,.5-2.184,3.606,3.606,0,0,1,1.384-1.456,3.993,3.993,0,0,1,2.056-.52,3.708,3.708,0,0,1,1.992.52,3.523,3.523,0,0,1,1.288,1.368,3.846,3.846,0,0,1,.448,1.824q0,.176-.008.352t-.008.4h-6.32a3.118,3.118,0,0,0,.424,1.512,2.5,2.5,0,0,0,2.152,1.208,2.4,2.4,0,0,0,1.392-.384,2.2,2.2,0,0,0,.816-1.04h1.328a3.485,3.485,0,0,1-3.536,2.56Zm0-7.184a2.684,2.684,0,0,0-1.7.584,2.353,2.353,0,0,0-.856,1.7h4.992a2.27,2.27,0,0,0-.736-1.68A2.469,2.469,0,0,0,150.216,113.008Zm6.36-2.7a.9.9,0,0,1-.928-.928.855.855,0,0,1,.264-.64.979.979,0,0,1,1.32,0,.842.842,0,0,1,.272.64.887.887,0,0,1-.272.664A.908.908,0,0,1,156.576,110.3ZM155.9,120v-7.936h1.344V120Zm3.688,0v-7.936h1.216l.112,1.52a2.877,2.877,0,0,1,1.12-1.248,3.472,3.472,0,0,1,1.856-.464v1.408h-.368a3.321,3.321,0,0,0-1.3.248,1.968,1.968,0,0,0-.944.84,3.2,3.2,0,0,0-.352,1.632v4Zm10.5,0v-6.8h-1.2v-1.136h1.2v-1.376a2.179,2.179,0,0,1,.576-1.68,2.4,2.4,0,0,1,1.68-.528h.8v1.152h-.592a1.221,1.221,0,0,0-.864.248,1.139,1.139,0,0,0-.256.84v1.344h1.952V113.2h-1.952V120Zm7.8.192a2.98,2.98,0,0,1-2.24-.856,3.65,3.65,0,0,1-.832-2.632v-4.64h1.344v4.5q0,2.48,2.032,2.48a2.23,2.23,0,0,0,1.72-.744,3.032,3.032,0,0,0,.68-2.12v-4.112h1.344V120H180.72l-.1-1.424a2.763,2.763,0,0,1-1.1,1.184A3.152,3.152,0,0,1,177.888,120.192Zm6.264-.192v-7.936h1.216l.08,1.424a2.882,2.882,0,0,1,1.1-1.184,3.11,3.11,0,0,1,1.632-.432,3.006,3.006,0,0,1,2.248.856,3.628,3.628,0,0,1,.84,2.632V120h-1.344v-4.5q0-2.48-2.048-2.48a2.212,2.212,0,0,0-1.7.744,3.032,3.032,0,0,0-.68,2.12V120Zm12.808.192a4.017,4.017,0,0,1-2.04-.52,3.738,3.738,0,0,1-1.424-1.456,4.846,4.846,0,0,1,0-4.368,3.738,3.738,0,0,1,1.424-1.456,4.017,4.017,0,0,1,2.04-.52,3.811,3.811,0,0,1,2.376.736,3.207,3.207,0,0,1,1.224,1.968h-1.376a1.764,1.764,0,0,0-.784-1.144,2.6,2.6,0,0,0-1.456-.408,2.486,2.486,0,0,0-2.224,1.344,3.946,3.946,0,0,0,0,3.328,2.564,2.564,0,0,0,.96,1.016,2.475,2.475,0,0,0,1.264.344,2.6,2.6,0,0,0,1.456-.408,1.771,1.771,0,0,0,.784-1.16h1.376a3.177,3.177,0,0,1-1.216,1.952A3.789,3.789,0,0,1,196.96,120.192Zm8.392-.192a2.568,2.568,0,0,1-1.712-.528,2.4,2.4,0,0,1-.624-1.9V113.2H201.64v-1.136h1.376l.176-1.9h1.168v1.9H206.7V113.2H204.36v4.368a1.32,1.32,0,0,0,.3,1.016,1.657,1.657,0,0,0,1.072.264h.832V120Zm3.88-9.7a.9.9,0,0,1-.928-.928.855.855,0,0,1,.264-.64.979.979,0,0,1,1.32,0,.842.842,0,0,1,.272.64.887.887,0,0,1-.272.664A.908.908,0,0,1,209.232,110.3Zm-.672,9.7v-7.936H209.9V120Zm7.3.192a3.99,3.99,0,0,1-2.016-.512,3.7,3.7,0,0,1-1.416-1.448,4.459,4.459,0,0,1-.52-2.2,4.4,4.4,0,0,1,.528-2.2,3.737,3.737,0,0,1,1.432-1.448,4.034,4.034,0,0,1,2.024-.512,3.99,3.99,0,0,1,2.016.512,3.7,3.7,0,0,1,1.416,1.448,4.459,4.459,0,0,1,.52,2.2,4.4,4.4,0,0,1-.528,2.2,3.737,3.737,0,0,1-1.432,1.448A4.034,4.034,0,0,1,215.864,120.192Zm0-1.152a2.55,2.55,0,0,0,1.28-.336,2.506,2.506,0,0,0,.96-1.008,3.428,3.428,0,0,0,.368-1.664,3.491,3.491,0,0,0-.36-1.664,2.454,2.454,0,0,0-.952-1.008,2.52,2.52,0,0,0-1.264-.336,2.55,2.55,0,0,0-1.28.336,2.506,2.506,0,0,0-.96,1.008,3.946,3.946,0,0,0,0,3.328,2.525,2.525,0,0,0,.952,1.008A2.477,2.477,0,0,0,215.864,119.04Zm5.864.96v-7.936h1.216l.08,1.424a2.882,2.882,0,0,1,1.1-1.184,3.11,3.11,0,0,1,1.632-.432,3.006,3.006,0,0,1,2.248.856,3.628,3.628,0,0,1,.84,2.632V120H227.5v-4.5q0-2.48-2.048-2.48a2.212,2.212,0,0,0-1.7.744,3.032,3.032,0,0,0-.68,2.12V120Zm12.2.192a3.792,3.792,0,0,1-2.368-.72,2.807,2.807,0,0,1-1.1-1.952h1.376a1.9,1.9,0,0,0,.664,1.08,2.161,2.161,0,0,0,1.448.456,1.826,1.826,0,0,0,1.248-.36,1.115,1.115,0,0,0,.4-.856.95.95,0,0,0-.52-.96,6.921,6.921,0,0,0-1.464-.432,8.253,8.253,0,0,1-1.28-.368,2.908,2.908,0,0,1-1.072-.68,1.584,1.584,0,0,1-.432-1.16,2.141,2.141,0,0,1,.776-1.7,3.129,3.129,0,0,1,2.1-.664,3.263,3.263,0,0,1,2.072.632,2.522,2.522,0,0,1,.936,1.8h-1.328a1.384,1.384,0,0,0-.52-.952,1.858,1.858,0,0,0-1.176-.344,1.78,1.78,0,0,0-1.112.3.964.964,0,0,0-.392.8.831.831,0,0,0,.5.752,5.411,5.411,0,0,0,1.368.464,11.916,11.916,0,0,1,1.4.392,2.646,2.646,0,0,1,1.088.688,1.87,1.87,0,0,1,.424,1.32,2.168,2.168,0,0,1-.808,1.768A3.348,3.348,0,0,1,233.928,120.192Zm12.608,0a4.576,4.576,0,0,1-2.024-.424,3.362,3.362,0,0,1-1.184-5.008,4.391,4.391,0,0,1,1.928-1.4,4.334,4.334,0,0,1-.784-1.128,2.806,2.806,0,0,1-.24-1.16,2.292,2.292,0,0,1,.76-1.768,2.975,2.975,0,0,1,2.088-.7,3.257,3.257,0,0,1,1.5.328,2.434,2.434,0,0,1,.992.9,2.269,2.269,0,0,1,.32,1.312h-1.328a1.276,1.276,0,0,0-.44-1.088,1.622,1.622,0,0,0-1.048-.368,1.551,1.551,0,0,0-1.12.384,1.3,1.3,0,0,0-.4.976,1.944,1.944,0,0,0,.28.992,6.091,6.091,0,0,0,.84,1.072l3.536,3.568q.464-.672,1.008-1.616l.5-.864h1.424l-.7,1.248a18.414,18.414,0,0,1-1.344,2.112L253.512,120h-1.7l-1.488-1.5a5.3,5.3,0,0,1-1.76,1.3A5.1,5.1,0,0,1,246.536,120.192Zm-2.528-3.456a2.158,2.158,0,0,0,.7,1.648,2.591,2.591,0,0,0,1.84.656,3.577,3.577,0,0,0,1.544-.328,4.391,4.391,0,0,0,1.368-1.08l-3.392-3.44a3.62,3.62,0,0,0-1.56,1.056A2.336,2.336,0,0,0,244.008,116.736ZM1.92,136.3a.9.9,0,0,1-.928-.928.855.855,0,0,1,.264-.64.915.915,0,0,1,.664-.256.923.923,0,0,1,.656.256.842.842,0,0,1,.272.64.887.887,0,0,1-.272.664A.908.908,0,0,1,1.92,136.3ZM1.248,146v-7.936H2.592V146Zm3.688,0v-7.936H6.152l.08,1.424a2.882,2.882,0,0,1,1.1-1.184,3.11,3.11,0,0,1,1.632-.432,3.007,3.007,0,0,1,2.248.856,3.628,3.628,0,0,1,.84,2.632V146H10.712v-4.5q0-2.48-2.048-2.48a2.212,2.212,0,0,0-1.7.744,3.032,3.032,0,0,0-.68,2.12V146Zm12.3,0a2.568,2.568,0,0,1-1.712-.528,2.4,2.4,0,0,1-.624-1.9V139.2H13.52v-1.136H14.9l.176-1.9H16.24v1.9h2.336V139.2H16.24v4.368a1.32,1.32,0,0,0,.3,1.016,1.657,1.657,0,0,0,1.072.264h.832V146Zm6.408.192a3.887,3.887,0,0,1-2.016-.52,3.692,3.692,0,0,1-1.384-1.448,4.526,4.526,0,0,1-.5-2.192,4.6,4.6,0,0,1,.5-2.184,3.606,3.606,0,0,1,1.384-1.456,3.993,3.993,0,0,1,2.056-.52,3.708,3.708,0,0,1,1.992.52,3.523,3.523,0,0,1,1.288,1.368,3.846,3.846,0,0,1,.448,1.824q0,.176-.008.352t-.008.4h-6.32a3.118,3.118,0,0,0,.424,1.512,2.5,2.5,0,0,0,2.152,1.208,2.4,2.4,0,0,0,1.392-.384,2.2,2.2,0,0,0,.816-1.04h1.328a3.485,3.485,0,0,1-3.536,2.56Zm0-7.184a2.684,2.684,0,0,0-1.7.584,2.353,2.353,0,0,0-.856,1.7h4.992a2.27,2.27,0,0,0-.736-1.68A2.469,2.469,0,0,0,23.64,139.008ZM29.184,146v-7.936H30.4l.112,1.52a2.877,2.877,0,0,1,1.12-1.248,3.472,3.472,0,0,1,1.856-.464v1.408H33.12a3.321,3.321,0,0,0-1.3.248,1.968,1.968,0,0,0-.944.84A3.2,3.2,0,0,0,30.528,142v4Zm9.16.192a4.017,4.017,0,0,1-2.04-.52,3.738,3.738,0,0,1-1.424-1.456,4.846,4.846,0,0,1,0-4.368,3.738,3.738,0,0,1,1.424-1.456,4.017,4.017,0,0,1,2.04-.52,3.811,3.811,0,0,1,2.376.736,3.207,3.207,0,0,1,1.224,1.968H40.568a1.764,1.764,0,0,0-.784-1.144,2.6,2.6,0,0,0-1.456-.408,2.486,2.486,0,0,0-2.224,1.344,3.946,3.946,0,0,0,0,3.328,2.564,2.564,0,0,0,.96,1.016,2.475,2.475,0,0,0,1.264.344,2.6,2.6,0,0,0,1.456-.408,1.77,1.77,0,0,0,.784-1.16h1.376a3.177,3.177,0,0,1-1.216,1.952A3.789,3.789,0,0,1,38.344,146.192Zm9.1,0a3.99,3.99,0,0,1-2.016-.512,3.7,3.7,0,0,1-1.416-1.448,4.459,4.459,0,0,1-.52-2.2,4.4,4.4,0,0,1,.528-2.2,3.737,3.737,0,0,1,1.432-1.448,4.034,4.034,0,0,1,2.024-.512,3.99,3.99,0,0,1,2.016.512,3.7,3.7,0,0,1,1.416,1.448,4.459,4.459,0,0,1,.52,2.2,4.4,4.4,0,0,1-.528,2.2,3.737,3.737,0,0,1-1.432,1.448A4.034,4.034,0,0,1,47.44,146.192Zm0-1.152a2.55,2.55,0,0,0,1.28-.336,2.506,2.506,0,0,0,.96-1.008,3.428,3.428,0,0,0,.368-1.664,3.491,3.491,0,0,0-.36-1.664,2.455,2.455,0,0,0-.952-1.008,2.52,2.52,0,0,0-1.264-.336,2.55,2.55,0,0,0-1.28.336,2.506,2.506,0,0,0-.96,1.008,3.946,3.946,0,0,0,0,3.328,2.525,2.525,0,0,0,.952,1.008A2.477,2.477,0,0,0,47.44,145.04ZM53.3,146v-7.936H54.52l.08,1.424a2.882,2.882,0,0,1,1.1-1.184,3.11,3.11,0,0,1,1.632-.432,3.007,3.007,0,0,1,2.248.856,3.628,3.628,0,0,1,.84,2.632V146H59.08v-4.5q0-2.48-2.048-2.48a2.212,2.212,0,0,0-1.7.744,3.032,3.032,0,0,0-.68,2.12V146Zm9.16,0v-7.936H63.68l.08,1.424a2.882,2.882,0,0,1,1.1-1.184,3.11,3.11,0,0,1,1.632-.432,3.006,3.006,0,0,1,2.248.856,3.628,3.628,0,0,1,.84,2.632V146H68.24v-4.5q0-2.48-2.048-2.48a2.212,2.212,0,0,0-1.7.744,3.032,3.032,0,0,0-.68,2.12V146Zm12.728.192a3.887,3.887,0,0,1-2.016-.52,3.692,3.692,0,0,1-1.384-1.448,4.526,4.526,0,0,1-.5-2.192,4.6,4.6,0,0,1,.5-2.184,3.606,3.606,0,0,1,1.384-1.456,3.993,3.993,0,0,1,2.056-.52,3.708,3.708,0,0,1,1.992.52A3.523,3.523,0,0,1,78.5,139.76a3.846,3.846,0,0,1,.448,1.824q0,.176-.008.352t-.008.4h-6.32a3.118,3.118,0,0,0,.424,1.512,2.5,2.5,0,0,0,2.152,1.208,2.4,2.4,0,0,0,1.392-.384,2.2,2.2,0,0,0,.816-1.04h1.328a3.485,3.485,0,0,1-3.536,2.56Zm0-7.184a2.684,2.684,0,0,0-1.7.584,2.353,2.353,0,0,0-.856,1.7h4.992a2.27,2.27,0,0,0-.736-1.68A2.469,2.469,0,0,0,75.192,139.008Zm9.192,7.184a4.017,4.017,0,0,1-2.04-.52,3.738,3.738,0,0,1-1.424-1.456,4.846,4.846,0,0,1,0-4.368,3.738,3.738,0,0,1,1.424-1.456,4.017,4.017,0,0,1,2.04-.52,3.811,3.811,0,0,1,2.376.736,3.207,3.207,0,0,1,1.224,1.968H86.608a1.764,1.764,0,0,0-.784-1.144,2.6,2.6,0,0,0-1.456-.408,2.486,2.486,0,0,0-2.224,1.344,3.946,3.946,0,0,0,0,3.328,2.564,2.564,0,0,0,.96,1.016,2.475,2.475,0,0,0,1.264.344,2.6,2.6,0,0,0,1.456-.408,1.77,1.77,0,0,0,.784-1.16h1.376a3.177,3.177,0,0,1-1.216,1.952A3.789,3.789,0,0,1,84.384,146.192ZM92.776,146a2.568,2.568,0,0,1-1.712-.528,2.4,2.4,0,0,1-.624-1.9V139.2H89.064v-1.136H90.44l.176-1.9h1.168v1.9H94.12V139.2H91.784v4.368a1.32,1.32,0,0,0,.3,1.016,1.657,1.657,0,0,0,1.072.264h.832V146Zm3.88-9.7a.9.9,0,0,1-.928-.928.855.855,0,0,1,.264-.64.979.979,0,0,1,1.32,0,.842.842,0,0,1,.272.64.887.887,0,0,1-.272.664A.908.908,0,0,1,96.656,136.3Zm-.672,9.7v-7.936h1.344V146Zm7.3.192a3.99,3.99,0,0,1-2.016-.512,3.7,3.7,0,0,1-1.416-1.448,4.458,4.458,0,0,1-.52-2.2,4.4,4.4,0,0,1,.528-2.2,3.737,3.737,0,0,1,1.432-1.448,4.034,4.034,0,0,1,2.024-.512,3.99,3.99,0,0,1,2.016.512,3.7,3.7,0,0,1,1.416,1.448,4.458,4.458,0,0,1,.52,2.2,4.4,4.4,0,0,1-.528,2.2,3.737,3.737,0,0,1-1.432,1.448A4.034,4.034,0,0,1,103.288,146.192Zm0-1.152a2.55,2.55,0,0,0,1.28-.336,2.506,2.506,0,0,0,.96-1.008,3.428,3.428,0,0,0,.368-1.664,3.491,3.491,0,0,0-.36-1.664,2.454,2.454,0,0,0-.952-1.008,2.52,2.52,0,0,0-1.264-.336,2.55,2.55,0,0,0-1.28.336,2.506,2.506,0,0,0-.96,1.008,3.946,3.946,0,0,0,0,3.328,2.525,2.525,0,0,0,.952,1.008A2.477,2.477,0,0,0,103.288,145.04Zm5.864.96v-7.936h1.216l.08,1.424a2.882,2.882,0,0,1,1.1-1.184,3.11,3.11,0,0,1,1.632-.432,3.007,3.007,0,0,1,2.248.856,3.628,3.628,0,0,1,.84,2.632V146h-1.344v-4.5q0-2.48-2.048-2.48a2.212,2.212,0,0,0-1.7.744,3.032,3.032,0,0,0-.68,2.12V146Zm12.2.192a3.792,3.792,0,0,1-2.368-.72,2.807,2.807,0,0,1-1.1-1.952h1.376a1.9,1.9,0,0,0,.664,1.08,2.161,2.161,0,0,0,1.448.456,1.826,1.826,0,0,0,1.248-.36,1.115,1.115,0,0,0,.4-.856.95.95,0,0,0-.52-.96,6.922,6.922,0,0,0-1.464-.432,8.251,8.251,0,0,1-1.28-.368,2.908,2.908,0,0,1-1.072-.68,1.584,1.584,0,0,1-.432-1.16,2.141,2.141,0,0,1,.776-1.7,3.129,3.129,0,0,1,2.1-.664,3.263,3.263,0,0,1,2.072.632,2.522,2.522,0,0,1,.936,1.8h-1.328a1.384,1.384,0,0,0-.52-.952,1.858,1.858,0,0,0-1.176-.344,1.78,1.78,0,0,0-1.112.3.964.964,0,0,0-.392.8.831.831,0,0,0,.5.752,5.411,5.411,0,0,0,1.368.464,11.918,11.918,0,0,1,1.4.392,2.646,2.646,0,0,1,1.088.688,1.87,1.87,0,0,1,.424,1.32,2.168,2.168,0,0,1-.808,1.768A3.348,3.348,0,0,1,121.352,146.192Zm3.9,1.712.928-3.536h1.392l-1.392,3.536Zm11.824-1.712a4.017,4.017,0,0,1-2.04-.52,3.738,3.738,0,0,1-1.424-1.456,4.847,4.847,0,0,1,0-4.368,3.738,3.738,0,0,1,1.424-1.456,4.017,4.017,0,0,1,2.04-.52,3.811,3.811,0,0,1,2.376.736,3.207,3.207,0,0,1,1.224,1.968H139.3a1.764,1.764,0,0,0-.784-1.144,2.6,2.6,0,0,0-1.456-.408,2.486,2.486,0,0,0-2.224,1.344,3.946,3.946,0,0,0,0,3.328,2.564,2.564,0,0,0,.96,1.016,2.475,2.475,0,0,0,1.264.344,2.6,2.6,0,0,0,1.456-.408,1.77,1.77,0,0,0,.784-1.16h1.376a3.177,3.177,0,0,1-1.216,1.952A3.789,3.789,0,0,1,137.072,146.192Zm5.48-.192v-7.936h1.216l.112,1.52a2.877,2.877,0,0,1,1.12-1.248,3.472,3.472,0,0,1,1.856-.464v1.408h-.368a3.321,3.321,0,0,0-1.3.248,1.968,1.968,0,0,0-.944.84A3.2,3.2,0,0,0,143.9,142v4Zm8.712.192a2.98,2.98,0,0,1-2.24-.856,3.65,3.65,0,0,1-.832-2.632v-4.64h1.344v4.5q0,2.48,2.032,2.48a2.23,2.23,0,0,0,1.72-.744,3.032,3.032,0,0,0,.68-2.12v-4.112h1.344V146H154.1l-.1-1.424a2.763,2.763,0,0,1-1.1,1.184A3.152,3.152,0,0,1,151.264,146.192Zm9.912,0a4.017,4.017,0,0,1-2.04-.52,3.738,3.738,0,0,1-1.424-1.456,4.847,4.847,0,0,1,0-4.368,3.738,3.738,0,0,1,1.424-1.456,4.017,4.017,0,0,1,2.04-.52,3.811,3.811,0,0,1,2.376.736,3.207,3.207,0,0,1,1.224,1.968H163.4a1.764,1.764,0,0,0-.784-1.144,2.6,2.6,0,0,0-1.456-.408,2.486,2.486,0,0,0-2.224,1.344,3.946,3.946,0,0,0,0,3.328,2.564,2.564,0,0,0,.96,1.016,2.475,2.475,0,0,0,1.264.344,2.6,2.6,0,0,0,1.456-.408,1.77,1.77,0,0,0,.784-1.16h1.376a3.177,3.177,0,0,1-1.216,1.952A3.789,3.789,0,0,1,161.176,146.192Zm6.3-9.888a.9.9,0,0,1-.928-.928.855.855,0,0,1,.264-.64.979.979,0,0,1,1.32,0,.842.842,0,0,1,.272.64.887.887,0,0,1-.272.664A.908.908,0,0,1,167.472,136.3ZM166.8,146v-7.936h1.344V146Zm6.328.192a3.6,3.6,0,0,1-1.648-.336,2.284,2.284,0,0,1-.976-.9,2.409,2.409,0,0,1-.32-1.216,2.155,2.155,0,0,1,.928-1.872,4.309,4.309,0,0,1,2.528-.656h2.144v-.1a2.118,2.118,0,0,0-.544-1.576,1.984,1.984,0,0,0-1.456-.536,2.321,2.321,0,0,0-1.352.392,1.717,1.717,0,0,0-.712,1.144h-1.376a2.547,2.547,0,0,1,.584-1.456,3.264,3.264,0,0,1,1.256-.9,4.133,4.133,0,0,1,1.6-.312,3,3,0,0,1,3.344,3.248V146h-1.2l-.08-1.424a3.147,3.147,0,0,1-.984,1.144A2.887,2.887,0,0,1,173.128,146.192Zm.208-1.136a2.189,2.189,0,0,0,1.32-.4,2.553,2.553,0,0,0,.84-1.04,3.239,3.239,0,0,0,.288-1.344v-.016h-2.032a2.638,2.638,0,0,0-1.672.408,1.272,1.272,0,0,0-.488,1.016,1.231,1.231,0,0,0,.456,1A1.972,1.972,0,0,0,173.336,145.056Zm5.816.944V134.48H180.5V146Zm8.24,0v-6.8h-1.2v-1.136h1.2v-1.376a2.179,2.179,0,0,1,.576-1.68,2.4,2.4,0,0,1,1.68-.528h.8v1.152h-.592a1.221,1.221,0,0,0-.864.248,1.139,1.139,0,0,0-.256.84v1.344h1.952V139.2h-1.952V146Zm8.2.192a3.99,3.99,0,0,1-2.016-.512,3.7,3.7,0,0,1-1.416-1.448,4.459,4.459,0,0,1-.52-2.2,4.4,4.4,0,0,1,.528-2.2,3.737,3.737,0,0,1,1.432-1.448,4.034,4.034,0,0,1,2.024-.512,3.99,3.99,0,0,1,2.016.512,3.7,3.7,0,0,1,1.416,1.448,4.459,4.459,0,0,1,.52,2.2,4.4,4.4,0,0,1-.528,2.2,3.737,3.737,0,0,1-1.432,1.448A4.034,4.034,0,0,1,195.592,146.192Zm0-1.152a2.55,2.55,0,0,0,1.28-.336,2.506,2.506,0,0,0,.96-1.008,3.428,3.428,0,0,0,.368-1.664,3.491,3.491,0,0,0-.36-1.664,2.454,2.454,0,0,0-.952-1.008,2.52,2.52,0,0,0-1.264-.336,2.55,2.55,0,0,0-1.28.336,2.506,2.506,0,0,0-.96,1.008,3.946,3.946,0,0,0,0,3.328,2.525,2.525,0,0,0,.952,1.008A2.477,2.477,0,0,0,195.592,145.04Zm5.864.96v-7.936h1.216l.112,1.52a2.877,2.877,0,0,1,1.12-1.248,3.472,3.472,0,0,1,1.856-.464v1.408h-.368a3.321,3.321,0,0,0-1.3.248,1.968,1.968,0,0,0-.944.84A3.2,3.2,0,0,0,202.8,142v4Zm10.064,0v-7.936h1.216l.1,1.152a2.688,2.688,0,0,1,1.024-.992,2.938,2.938,0,0,1,1.44-.352,3.251,3.251,0,0,1,1.624.384,2.526,2.526,0,0,1,1.048,1.168,3.038,3.038,0,0,1,1.144-1.136,3.123,3.123,0,0,1,1.576-.416,3.054,3.054,0,0,1,2.272.856,3.606,3.606,0,0,1,.848,2.632V146H222.48v-4.5a2.941,2.941,0,0,0-.5-1.856,1.712,1.712,0,0,0-1.424-.624,2,2,0,0,0-1.592.744,3.183,3.183,0,0,0-.632,2.12V146h-1.344v-4.5a2.941,2.941,0,0,0-.5-1.856,1.712,1.712,0,0,0-1.424-.624,1.985,1.985,0,0,0-1.576.744,3.183,3.183,0,0,0-.632,2.12V146Zm17.9.192a3.887,3.887,0,0,1-2.016-.52,3.692,3.692,0,0,1-1.384-1.448,4.526,4.526,0,0,1-.5-2.192,4.6,4.6,0,0,1,.5-2.184,3.606,3.606,0,0,1,1.384-1.456,3.993,3.993,0,0,1,2.056-.52,3.708,3.708,0,0,1,1.992.52,3.523,3.523,0,0,1,1.288,1.368,3.846,3.846,0,0,1,.448,1.824q0,.176-.008.352t-.008.4h-6.32a3.118,3.118,0,0,0,.424,1.512,2.5,2.5,0,0,0,2.152,1.208,2.4,2.4,0,0,0,1.392-.384,2.2,2.2,0,0,0,.816-1.04h1.328a3.485,3.485,0,0,1-3.536,2.56Zm0-7.184a2.684,2.684,0,0,0-1.7.584,2.353,2.353,0,0,0-.856,1.7h4.992a2.27,2.27,0,0,0-.736-1.68A2.469,2.469,0,0,0,229.416,139.008Zm9.144,7.184a3.887,3.887,0,0,1-2.072-.544,3.7,3.7,0,0,1-1.376-1.488,4.6,4.6,0,0,1-.488-2.144,4.492,4.492,0,0,1,.5-2.136,3.735,3.735,0,0,1,1.376-1.472,3.92,3.92,0,0,1,2.08-.536,3.624,3.624,0,0,1,1.728.4,2.883,2.883,0,0,1,1.168,1.12V134.48h1.344V146H241.6l-.128-1.312a3.715,3.715,0,0,1-1.1,1.04A3.275,3.275,0,0,1,238.56,146.192Zm.144-1.168a2.663,2.663,0,0,0,1.416-.376,2.571,2.571,0,0,0,.96-1.048,3.746,3.746,0,0,0,0-3.136,2.571,2.571,0,0,0-.96-1.048,2.663,2.663,0,0,0-1.416-.376,2.633,2.633,0,0,0-1.4.376,2.571,2.571,0,0,0-.96,1.048,3.745,3.745,0,0,0,0,3.136,2.571,2.571,0,0,0,.96,1.048A2.633,2.633,0,0,0,238.7,145.024Zm7.128-8.72a.9.9,0,0,1-.928-.928.855.855,0,0,1,.264-.64.979.979,0,0,1,1.32,0,.842.842,0,0,1,.272.64.887.887,0,0,1-.272.664A.908.908,0,0,1,245.832,136.3Zm-.672,9.7v-7.936H246.5V146Zm7.336.192a4.017,4.017,0,0,1-2.04-.52,3.738,3.738,0,0,1-1.424-1.456,4.847,4.847,0,0,1,0-4.368,3.738,3.738,0,0,1,1.424-1.456,4.017,4.017,0,0,1,2.04-.52,3.811,3.811,0,0,1,2.376.736,3.207,3.207,0,0,1,1.224,1.968H254.72a1.764,1.764,0,0,0-.784-1.144,2.6,2.6,0,0,0-1.456-.408,2.486,2.486,0,0,0-2.224,1.344,3.946,3.946,0,0,0,0,3.328,2.564,2.564,0,0,0,.96,1.016,2.475,2.475,0,0,0,1.264.344,2.6,2.6,0,0,0,1.456-.408,1.77,1.77,0,0,0,.784-1.16H256.1a3.177,3.177,0,0,1-1.216,1.952A3.789,3.789,0,0,1,252.5,146.192Zm8.12,0a3.6,3.6,0,0,1-1.648-.336,2.284,2.284,0,0,1-.976-.9,2.409,2.409,0,0,1-.32-1.216,2.155,2.155,0,0,1,.928-1.872,4.309,4.309,0,0,1,2.528-.656h2.144v-.1a2.118,2.118,0,0,0-.544-1.576,1.984,1.984,0,0,0-1.456-.536,2.321,2.321,0,0,0-1.352.392,1.717,1.717,0,0,0-.712,1.144h-1.376a2.547,2.547,0,0,1,.584-1.456,3.264,3.264,0,0,1,1.256-.9,4.133,4.133,0,0,1,1.6-.312,3,3,0,0,1,3.344,3.248V146h-1.2l-.08-1.424a3.148,3.148,0,0,1-.984,1.144A2.887,2.887,0,0,1,260.616,146.192Zm.208-1.136a2.189,2.189,0,0,0,1.32-.4,2.553,2.553,0,0,0,.84-1.04,3.239,3.239,0,0,0,.288-1.344v-.016H261.24a2.638,2.638,0,0,0-1.672.408,1.272,1.272,0,0,0-.488,1.016,1.231,1.231,0,0,0,.456,1A1.972,1.972,0,0,0,260.824,145.056Zm5.816.944V134.48h1.344V146ZM1.1,172V160.48H2.448v6.928L5.7,164.064H7.344l-3.52,3.584L7.792,172H6.08l-3.632-4.112V172Zm8.072,0v-7.936h1.216l.08,1.424a2.882,2.882,0,0,1,1.1-1.184,3.11,3.11,0,0,1,1.632-.432,3.007,3.007,0,0,1,2.248.856,3.628,3.628,0,0,1,.84,2.632V172H14.952v-4.5q0-2.48-2.048-2.48a2.212,2.212,0,0,0-1.7.744,3.032,3.032,0,0,0-.68,2.12V172Zm12.776.192a3.99,3.99,0,0,1-2.016-.512,3.7,3.7,0,0,1-1.416-1.448,4.458,4.458,0,0,1-.52-2.2,4.4,4.4,0,0,1,.528-2.2,3.737,3.737,0,0,1,1.432-1.448,4.034,4.034,0,0,1,2.024-.512,3.99,3.99,0,0,1,2.016.512,3.7,3.7,0,0,1,1.416,1.448,4.459,4.459,0,0,1,.52,2.2,4.4,4.4,0,0,1-.528,2.2,3.737,3.737,0,0,1-1.432,1.448A4.034,4.034,0,0,1,21.952,172.192Zm0-1.152a2.55,2.55,0,0,0,1.28-.336,2.506,2.506,0,0,0,.96-1.008,3.428,3.428,0,0,0,.368-1.664,3.491,3.491,0,0,0-.36-1.664,2.454,2.454,0,0,0-.952-1.008,2.52,2.52,0,0,0-1.264-.336,2.55,2.55,0,0,0-1.28.336,2.506,2.506,0,0,0-.96,1.008,3.946,3.946,0,0,0,0,3.328A2.525,2.525,0,0,0,20.7,170.7,2.477,2.477,0,0,0,21.952,171.04Zm7.16.96-2.32-7.936h1.344l1.68,6.224,1.856-6.224h1.52l1.872,6.224,1.664-6.224h1.36L35.768,172H34.392l-1.952-6.544L30.488,172Zm10.472,0V160.48h1.344V172Zm7.128.192a3.887,3.887,0,0,1-2.016-.52,3.692,3.692,0,0,1-1.384-1.448,4.526,4.526,0,0,1-.5-2.192,4.6,4.6,0,0,1,.5-2.184,3.606,3.606,0,0,1,1.384-1.456,3.993,3.993,0,0,1,2.056-.52,3.708,3.708,0,0,1,1.992.52,3.523,3.523,0,0,1,1.288,1.368,3.846,3.846,0,0,1,.448,1.824q0,.176-.008.352t-.008.4h-6.32a3.118,3.118,0,0,0,.424,1.512,2.5,2.5,0,0,0,2.152,1.208,2.4,2.4,0,0,0,1.392-.384,2.2,2.2,0,0,0,.816-1.04h1.328a3.485,3.485,0,0,1-3.536,2.56Zm0-7.184a2.684,2.684,0,0,0-1.7.584,2.353,2.353,0,0,0-.856,1.7h4.992a2.27,2.27,0,0,0-.736-1.68A2.469,2.469,0,0,0,46.712,165.008Zm9.144,7.184a3.887,3.887,0,0,1-2.072-.544,3.7,3.7,0,0,1-1.376-1.488,4.6,4.6,0,0,1-.488-2.144,4.492,4.492,0,0,1,.5-2.136,3.735,3.735,0,0,1,1.376-1.472,3.92,3.92,0,0,1,2.08-.536,3.624,3.624,0,0,1,1.728.4,2.883,2.883,0,0,1,1.168,1.12V160.48h1.344V172H58.9l-.128-1.312a3.715,3.715,0,0,1-1.1,1.04A3.275,3.275,0,0,1,55.856,172.192ZM56,171.024a2.663,2.663,0,0,0,1.416-.376,2.571,2.571,0,0,0,.96-1.048,3.746,3.746,0,0,0,0-3.136,2.571,2.571,0,0,0-.96-1.048A2.663,2.663,0,0,0,56,165.04a2.633,2.633,0,0,0-1.4.376,2.571,2.571,0,0,0-.96,1.048,3.746,3.746,0,0,0,0,3.136,2.571,2.571,0,0,0,.96,1.048A2.633,2.633,0,0,0,56,171.024Zm9.448-1.52a4.093,4.093,0,0,1-1.232-.176l-.8.752a1.612,1.612,0,0,0,.44.216,4.662,4.662,0,0,0,.76.16q.5.072,1.392.152a3.785,3.785,0,0,1,2.288.736,2.1,2.1,0,0,1,.688,1.632,2.5,2.5,0,0,1-.376,1.312,2.79,2.79,0,0,1-1.152,1.024,4.339,4.339,0,0,1-1.992.4,5.96,5.96,0,0,1-1.9-.28,2.76,2.76,0,0,1-1.3-.848,2.189,2.189,0,0,1-.464-1.432,2.324,2.324,0,0,1,.24-.968,2.588,2.588,0,0,1,.9-.984,3.3,3.3,0,0,1-.6-.312,3.108,3.108,0,0,1-.456-.376v-.368l1.36-1.344a2.632,2.632,0,0,1-.944-2.112,2.805,2.805,0,0,1,.368-1.424,2.632,2.632,0,0,1,1.072-1.016,3.593,3.593,0,0,1,1.712-.376,3.831,3.831,0,0,1,1.248.192h2.928v1.008l-1.488.064a2.664,2.664,0,0,1,.464,1.552,2.759,2.759,0,0,1-.376,1.424,2.7,2.7,0,0,1-1.072,1.016A3.545,3.545,0,0,1,65.448,169.5Zm0-1.1a1.983,1.983,0,0,0,1.352-.44,1.6,1.6,0,0,0,.5-1.272,1.578,1.578,0,0,0-.5-1.256,1.983,1.983,0,0,0-1.352-.44,2.008,2.008,0,0,0-1.368.44,1.578,1.578,0,0,0-.5,1.256,1.6,1.6,0,0,0,.5,1.272A2.008,2.008,0,0,0,65.448,168.4Zm-2.336,4.624a1.29,1.29,0,0,0,.672,1.192,3.291,3.291,0,0,0,1.68.392,2.667,2.667,0,0,0,1.592-.432,1.351,1.351,0,0,0,.6-1.152,1.16,1.16,0,0,0-.416-.888,2.562,2.562,0,0,0-1.536-.44q-.88-.064-1.52-.16a1.97,1.97,0,0,0-.864.76A1.638,1.638,0,0,0,63.112,173.024Zm11.288-.832a3.887,3.887,0,0,1-2.016-.52A3.692,3.692,0,0,1,71,170.224a4.526,4.526,0,0,1-.5-2.192,4.6,4.6,0,0,1,.5-2.184,3.606,3.606,0,0,1,1.384-1.456,3.993,3.993,0,0,1,2.056-.52,3.708,3.708,0,0,1,1.992.52,3.523,3.523,0,0,1,1.288,1.368,3.846,3.846,0,0,1,.448,1.824q0,.176-.008.352t-.008.4h-6.32a3.118,3.118,0,0,0,.424,1.512,2.5,2.5,0,0,0,2.152,1.208,2.4,2.4,0,0,0,1.392-.384,2.2,2.2,0,0,0,.816-1.04h1.328a3.485,3.485,0,0,1-3.536,2.56Zm0-7.184a2.684,2.684,0,0,0-1.7.584,2.353,2.353,0,0,0-.856,1.7h4.992a2.27,2.27,0,0,0-.736-1.68A2.469,2.469,0,0,0,74.4,165.008Zm13.184,7.184a4.576,4.576,0,0,1-2.024-.424,3.362,3.362,0,0,1-1.184-5.008,4.391,4.391,0,0,1,1.928-1.4,4.334,4.334,0,0,1-.784-1.128,2.806,2.806,0,0,1-.24-1.16,2.293,2.293,0,0,1,.76-1.768,2.975,2.975,0,0,1,2.088-.7,3.256,3.256,0,0,1,1.5.328,2.434,2.434,0,0,1,.992.9,2.269,2.269,0,0,1,.32,1.312H89.616a1.276,1.276,0,0,0-.44-1.088,1.622,1.622,0,0,0-1.048-.368,1.551,1.551,0,0,0-1.12.384,1.3,1.3,0,0,0-.4.976,1.944,1.944,0,0,0,.28.992,6.092,6.092,0,0,0,.84,1.072l3.536,3.568q.464-.672,1.008-1.616l.5-.864h1.424l-.7,1.248a18.415,18.415,0,0,1-1.344,2.112L94.56,172h-1.7l-1.488-1.5a5.3,5.3,0,0,1-1.76,1.3A5.1,5.1,0,0,1,87.584,172.192Zm-2.528-3.456a2.158,2.158,0,0,0,.7,1.648,2.591,2.591,0,0,0,1.84.656,3.577,3.577,0,0,0,1.544-.328,4.392,4.392,0,0,0,1.368-1.08l-3.392-3.44a3.62,3.62,0,0,0-1.56,1.056A2.336,2.336,0,0,0,85.056,168.736ZM100.16,172V160.48H101.5v4.944a2.827,2.827,0,0,1,1.136-1.144,3.246,3.246,0,0,1,1.6-.408,2.939,2.939,0,0,1,2.208.856,3.65,3.65,0,0,1,.832,2.632V172h-1.328v-4.5q0-2.48-2-2.48a2.3,2.3,0,0,0-1.744.744,2.966,2.966,0,0,0-.7,2.12V172Zm12.728.192a3.887,3.887,0,0,1-2.016-.52,3.692,3.692,0,0,1-1.384-1.448,4.526,4.526,0,0,1-.5-2.192,4.6,4.6,0,0,1,.5-2.184,3.606,3.606,0,0,1,1.384-1.456,3.993,3.993,0,0,1,2.056-.52,3.708,3.708,0,0,1,1.992.52,3.523,3.523,0,0,1,1.288,1.368,3.846,3.846,0,0,1,.448,1.824q0,.176-.008.352t-.008.4h-6.32a3.118,3.118,0,0,0,.424,1.512,2.5,2.5,0,0,0,2.152,1.208,2.4,2.4,0,0,0,1.392-.384,2.2,2.2,0,0,0,.816-1.04h1.328a3.485,3.485,0,0,1-3.536,2.56Zm0-7.184a2.684,2.684,0,0,0-1.7.584,2.353,2.353,0,0,0-.856,1.7h4.992a2.27,2.27,0,0,0-.736-1.68A2.469,2.469,0,0,0,112.888,165.008Zm8.184,7.184a3.6,3.6,0,0,1-1.648-.336,2.284,2.284,0,0,1-.976-.9,2.409,2.409,0,0,1-.32-1.216,2.155,2.155,0,0,1,.928-1.872,4.309,4.309,0,0,1,2.528-.656h2.144v-.1a2.118,2.118,0,0,0-.544-1.576,1.984,1.984,0,0,0-1.456-.536,2.321,2.321,0,0,0-1.352.392,1.717,1.717,0,0,0-.712,1.144h-1.376a2.547,2.547,0,0,1,.584-1.456,3.264,3.264,0,0,1,1.256-.9,4.133,4.133,0,0,1,1.6-.312,3,3,0,0,1,3.344,3.248V172h-1.2l-.08-1.424a3.147,3.147,0,0,1-.984,1.144A2.887,2.887,0,0,1,121.072,172.192Zm.208-1.136a2.189,2.189,0,0,0,1.32-.4,2.553,2.553,0,0,0,.84-1.04,3.239,3.239,0,0,0,.288-1.344v-.016H121.7a2.638,2.638,0,0,0-1.672.408,1.272,1.272,0,0,0-.488,1.016,1.231,1.231,0,0,0,.456,1A1.972,1.972,0,0,0,121.28,171.056ZM127.1,172V160.48h1.344V172Zm6.7,0a2.568,2.568,0,0,1-1.712-.528,2.4,2.4,0,0,1-.624-1.9V165.2H130.08v-1.136h1.376l.176-1.9H132.8v1.9h2.336V165.2H132.8v4.368a1.32,1.32,0,0,0,.3,1.016,1.657,1.657,0,0,0,1.072.264h.832V172Zm3.064,0V160.48H138.2v4.944a2.827,2.827,0,0,1,1.136-1.144,3.246,3.246,0,0,1,1.6-.408,2.939,2.939,0,0,1,2.208.856,3.65,3.65,0,0,1,.832,2.632V172h-1.328v-4.5q0-2.48-2-2.48a2.3,2.3,0,0,0-1.744.744,2.966,2.966,0,0,0-.7,2.12V172Zm12.808.192a4.017,4.017,0,0,1-2.04-.52,3.738,3.738,0,0,1-1.424-1.456,4.847,4.847,0,0,1,0-4.368,3.738,3.738,0,0,1,1.424-1.456,4.017,4.017,0,0,1,2.04-.52,3.811,3.811,0,0,1,2.376.736,3.207,3.207,0,0,1,1.224,1.968h-1.376a1.764,1.764,0,0,0-.784-1.144,2.6,2.6,0,0,0-1.456-.408,2.486,2.486,0,0,0-2.224,1.344,3.946,3.946,0,0,0,0,3.328,2.564,2.564,0,0,0,.96,1.016,2.475,2.475,0,0,0,1.264.344,2.6,2.6,0,0,0,1.456-.408,1.77,1.77,0,0,0,.784-1.16h1.376a3.177,3.177,0,0,1-1.216,1.952A3.789,3.789,0,0,1,149.664,172.192Zm8.12,0a3.6,3.6,0,0,1-1.648-.336,2.284,2.284,0,0,1-.976-.9,2.409,2.409,0,0,1-.32-1.216,2.155,2.155,0,0,1,.928-1.872,4.309,4.309,0,0,1,2.528-.656h2.144v-.1a2.118,2.118,0,0,0-.544-1.576,1.984,1.984,0,0,0-1.456-.536,2.321,2.321,0,0,0-1.352.392,1.717,1.717,0,0,0-.712,1.144H155a2.547,2.547,0,0,1,.584-1.456,3.264,3.264,0,0,1,1.256-.9,4.133,4.133,0,0,1,1.6-.312,3,3,0,0,1,3.344,3.248V172h-1.2l-.08-1.424a3.147,3.147,0,0,1-.984,1.144A2.887,2.887,0,0,1,157.784,172.192Zm.208-1.136a2.189,2.189,0,0,0,1.32-.4,2.553,2.553,0,0,0,.84-1.04,3.239,3.239,0,0,0,.288-1.344v-.016h-2.032a2.638,2.638,0,0,0-1.672.408,1.272,1.272,0,0,0-.488,1.016,1.231,1.231,0,0,0,.456,1A1.972,1.972,0,0,0,157.992,171.056Zm5.816.944v-7.936h1.216l.112,1.52a2.877,2.877,0,0,1,1.12-1.248,3.472,3.472,0,0,1,1.856-.464v1.408h-.368a3.321,3.321,0,0,0-1.3.248,1.968,1.968,0,0,0-.944.84,3.2,3.2,0,0,0-.352,1.632v4Zm9.08.192a3.887,3.887,0,0,1-2.016-.52,3.692,3.692,0,0,1-1.384-1.448,4.526,4.526,0,0,1-.5-2.192,4.6,4.6,0,0,1,.5-2.184,3.606,3.606,0,0,1,1.384-1.456,3.993,3.993,0,0,1,2.056-.52,3.708,3.708,0,0,1,1.992.52,3.523,3.523,0,0,1,1.288,1.368,3.846,3.846,0,0,1,.448,1.824q0,.176-.008.352t-.008.4h-6.32a3.118,3.118,0,0,0,.424,1.512,2.5,2.5,0,0,0,2.152,1.208,2.4,2.4,0,0,0,1.392-.384,2.2,2.2,0,0,0,.816-1.04h1.328a3.485,3.485,0,0,1-3.536,2.56Zm0-7.184a2.684,2.684,0,0,0-1.7.584,2.353,2.353,0,0,0-.856,1.7h4.992a2.27,2.27,0,0,0-.736-1.68A2.469,2.469,0,0,0,172.888,165.008Zm9.792,10.512V164.064H183.9l.128,1.312a3.746,3.746,0,0,1,1.1-1.04,3.266,3.266,0,0,1,1.816-.464,3.845,3.845,0,0,1,2.064.544,3.722,3.722,0,0,1,1.368,1.488,4.6,4.6,0,0,1,.488,2.144,4.552,4.552,0,0,1-.488,2.136,3.662,3.662,0,0,1-1.376,1.472,3.931,3.931,0,0,1-2.072.536,3.671,3.671,0,0,1-1.736-.4,2.767,2.767,0,0,1-1.16-1.12v4.848Zm4.1-4.5a2.567,2.567,0,0,0,2.368-1.424,3.668,3.668,0,0,0,0-3.136,2.657,2.657,0,0,0-4.736,0,3.668,3.668,0,0,0,0,3.136,2.567,2.567,0,0,0,2.368,1.424Zm5.96.976v-7.936h1.216l.112,1.52a2.877,2.877,0,0,1,1.12-1.248,3.472,3.472,0,0,1,1.856-.464v1.408h-.368a3.321,3.321,0,0,0-1.3.248,1.968,1.968,0,0,0-.944.84A3.2,3.2,0,0,0,194.08,168v4Zm8.456.192a3.6,3.6,0,0,1-1.648-.336,2.284,2.284,0,0,1-.976-.9,2.409,2.409,0,0,1-.32-1.216,2.155,2.155,0,0,1,.928-1.872,4.309,4.309,0,0,1,2.528-.656h2.144v-.1a2.118,2.118,0,0,0-.544-1.576,1.984,1.984,0,0,0-1.456-.536,2.321,2.321,0,0,0-1.352.392,1.717,1.717,0,0,0-.712,1.144h-1.376a2.547,2.547,0,0,1,.584-1.456,3.264,3.264,0,0,1,1.256-.9,4.133,4.133,0,0,1,1.6-.312,3,3,0,0,1,3.344,3.248V172h-1.2l-.08-1.424a3.147,3.147,0,0,1-.984,1.144A2.887,2.887,0,0,1,201.192,172.192Zm.208-1.136a2.189,2.189,0,0,0,1.32-.4,2.553,2.553,0,0,0,.84-1.04,3.239,3.239,0,0,0,.288-1.344v-.016h-2.032a2.638,2.638,0,0,0-1.672.408,1.272,1.272,0,0,0-.488,1.016,1.231,1.231,0,0,0,.456,1A1.972,1.972,0,0,0,201.4,171.056Zm9.464,1.136a4.017,4.017,0,0,1-2.04-.52,3.738,3.738,0,0,1-1.424-1.456,4.847,4.847,0,0,1,0-4.368,3.738,3.738,0,0,1,1.424-1.456,4.017,4.017,0,0,1,2.04-.52,3.811,3.811,0,0,1,2.376.736,3.207,3.207,0,0,1,1.224,1.968h-1.376a1.764,1.764,0,0,0-.784-1.144,2.6,2.6,0,0,0-1.456-.408,2.486,2.486,0,0,0-2.224,1.344,3.946,3.946,0,0,0,0,3.328,2.564,2.564,0,0,0,.96,1.016,2.475,2.475,0,0,0,1.264.344,2.6,2.6,0,0,0,1.456-.408,1.77,1.77,0,0,0,.784-1.16h1.376a3.177,3.177,0,0,1-1.216,1.952A3.789,3.789,0,0,1,210.864,172.192Zm8.392-.192a2.568,2.568,0,0,1-1.712-.528,2.4,2.4,0,0,1-.624-1.9V165.2h-1.376v-1.136h1.376l.176-1.9h1.168v1.9H220.6V165.2h-2.336v4.368a1.32,1.32,0,0,0,.3,1.016,1.657,1.657,0,0,0,1.072.264h.832V172Zm3.88-9.7a.9.9,0,0,1-.928-.928.855.855,0,0,1,.264-.64.979.979,0,0,1,1.32,0,.842.842,0,0,1,.272.64.887.887,0,0,1-.272.664A.908.908,0,0,1,223.136,162.3Zm-.672,9.7v-7.936h1.344V172Zm7.336.192a4.017,4.017,0,0,1-2.04-.52,3.738,3.738,0,0,1-1.424-1.456,4.847,4.847,0,0,1,0-4.368,3.738,3.738,0,0,1,1.424-1.456,4.017,4.017,0,0,1,2.04-.52,3.811,3.811,0,0,1,2.376.736,3.207,3.207,0,0,1,1.224,1.968h-1.376a1.764,1.764,0,0,0-.784-1.144,2.6,2.6,0,0,0-1.456-.408,2.486,2.486,0,0,0-2.224,1.344,3.946,3.946,0,0,0,0,3.328,2.564,2.564,0,0,0,.96,1.016,2.475,2.475,0,0,0,1.264.344,2.6,2.6,0,0,0,1.456-.408,1.77,1.77,0,0,0,.784-1.16H233.4a3.177,3.177,0,0,1-1.216,1.952A3.789,3.789,0,0,1,229.8,172.192Zm9.048,0a3.887,3.887,0,0,1-2.016-.52,3.692,3.692,0,0,1-1.384-1.448,4.526,4.526,0,0,1-.5-2.192,4.6,4.6,0,0,1,.5-2.184,3.606,3.606,0,0,1,1.384-1.456,3.993,3.993,0,0,1,2.056-.52,3.708,3.708,0,0,1,1.992.52,3.523,3.523,0,0,1,1.288,1.368,3.846,3.846,0,0,1,.448,1.824q0,.176-.008.352t-.008.4h-6.32a3.118,3.118,0,0,0,.424,1.512,2.5,2.5,0,0,0,2.152,1.208,2.4,2.4,0,0,0,1.392-.384,2.2,2.2,0,0,0,.816-1.04h1.328a3.485,3.485,0,0,1-3.536,2.56Zm0-7.184a2.684,2.684,0,0,0-1.7.584,2.353,2.353,0,0,0-.856,1.7h4.992a2.27,2.27,0,0,0-.736-1.68A2.469,2.469,0,0,0,238.848,165.008Zm8.584,7.184a3.792,3.792,0,0,1-2.368-.72,2.807,2.807,0,0,1-1.1-1.952h1.376A1.9,1.9,0,0,0,246,170.6a2.161,2.161,0,0,0,1.448.456,1.826,1.826,0,0,0,1.248-.36,1.115,1.115,0,0,0,.4-.856.95.95,0,0,0-.52-.96,6.921,6.921,0,0,0-1.464-.432,8.251,8.251,0,0,1-1.28-.368,2.908,2.908,0,0,1-1.072-.68,1.584,1.584,0,0,1-.432-1.16,2.141,2.141,0,0,1,.776-1.7,3.129,3.129,0,0,1,2.1-.664,3.263,3.263,0,0,1,2.072.632,2.522,2.522,0,0,1,.936,1.8h-1.328a1.384,1.384,0,0,0-.52-.952,1.858,1.858,0,0,0-1.176-.344,1.78,1.78,0,0,0-1.112.3.964.964,0,0,0-.392.8.831.831,0,0,0,.5.752,5.411,5.411,0,0,0,1.368.464,11.919,11.919,0,0,1,1.4.392,2.646,2.646,0,0,1,1.088.688,1.87,1.87,0,0,1,.424,1.32,2.168,2.168,0,0,1-.808,1.768A3.348,3.348,0,0,1,247.432,172.192Zm5.432-.112a.9.9,0,0,1-.664-.264.927.927,0,0,1,0-1.3.9.9,0,0,1,.664-.264.912.912,0,1,1,0,1.824Z" transform="translate(-0.48 -4.48)" fill="url(#linear-gradient)"/>
</svg>
